<svg width="78" height="84" viewBox="0 0 78 84" fill="none" xmlns="http://www.w3.org/2000/svg">
<g clip-path="url(#clip0_1_331)">
<path d="M76.0405 26.8995C74.6936 24.8209 72.4895 24.8209 67.9589 24.8209C60.367 24.8209 50.6936 24.8209 43.1017 24.8209C41.1425 24.8209 39.4283 25.1877 38.5711 26.2882C37.2242 27.8777 36.8568 29.5895 36.7344 31.5458H77.0201C77.0201 29.5895 76.6527 27.8777 76.0405 26.8995Z" fill="#BEDCEE"/>
<path d="M77.2644 37.9039H36.6113C36.6113 45.2402 37.1011 47.9301 38.4481 49.2751C39.795 50.7424 41.7542 50.7424 44.4481 50.8646C51.3052 50.9869 60.6113 50.7424 67.346 50.7424C73.346 50.7424 74.5705 50.7424 75.9174 49.2751C77.2644 47.9301 77.2644 42.1834 77.1419 37.9039H77.2644Z" fill="#BEDCEE"/>
<mask id="mask0_1_331" style="mask-type:luminance" maskUnits="userSpaceOnUse" x="0" y="0" width="78" height="84">
<path d="M78 0H0V84H78V0Z" fill="white"/>
</mask>
<g mask="url(#mask0_1_331)">
<path d="M78.0004 37.1702C78.0004 36.4366 78.0004 35.703 78.0004 34.8471C78.0004 33.7466 78.0004 32.6462 78.0004 31.5458C78.0004 31.1789 77.6331 30.8121 77.2657 30.8121C70.7759 30.8121 64.0413 30.8121 57.429 30.8121C50.5719 30.8121 43.5923 30.8121 36.98 30.8121C30.3678 30.8121 36.2453 31.1789 36.2453 31.5458C36.2453 32.1571 36.2453 32.8907 36.2453 33.6244C36.2453 34.358 36.2453 34.358 36.2453 34.7248C36.2453 35.8252 36.2453 36.9257 36.2453 37.7816C36.2453 38.0261 36.2453 38.1484 36.4902 38.2706C36.6127 38.3929 36.8576 38.5152 36.98 38.5152H41.3882C47.3882 38.5152 53.6331 38.5152 59.6331 38.5152C65.6331 38.5152 71.7555 38.5152 77.5106 38.5152C83.2657 38.5152 77.878 38.5152 78.0004 38.2706C78.1229 38.1484 78.2453 37.9038 78.2453 37.6593C78.2453 37.4148 78.2453 37.1702 78.2453 36.9257L78.0004 37.1702ZM59.2657 37.1702C51.9188 37.1702 44.4494 37.1702 37.3474 37.1702C37.3474 36.4366 37.3474 35.703 37.3474 34.8471C37.3474 34.4803 37.3474 34.1134 37.3474 33.7466C37.3474 33.3798 37.3474 32.8907 37.3474 32.5239C43.7147 32.5239 50.4494 32.5239 57.0617 32.5239C63.429 32.5239 69.9188 32.5239 76.1637 32.5239C76.1637 33.3798 76.1637 34.2357 76.1637 35.0916C76.1637 35.8252 76.1637 36.6811 76.1637 37.4148C70.5311 37.4148 64.6535 37.4148 59.0208 37.4148L59.2657 37.1702Z" fill="#222222"/>
<path d="M0.857143 78.6201C1.22449 78.6201 1.59184 78.3755 1.71429 77.8864C2.44898 67.4934 2.93878 58.0786 3.42857 48.0524C4.04082 36.0698 4.65306 23.5982 5.7551 8.92572C5.7551 7.70301 6 6.35804 6.61225 5.37987C7.10204 4.52398 8.20408 3.79035 9.18367 4.03489C10.1633 4.27943 10.7755 5.37987 11.2653 7.21393C12.3673 12.1048 12.6122 17.2401 11.7551 22.131C11.7551 22.4978 12 22.9869 12.3673 22.9869C12.7347 22.9869 13.2245 22.7423 13.2245 22.3755C14.449 15.2838 16.5306 9.90389 19.5918 5.62441C22.0408 2.3231 24.2449 0.978124 26.2041 1.95629C28.0408 2.81218 28.7755 4.15716 28.4082 6.11349C28.1633 7.82529 26.5714 9.90389 25.4694 11.3711C24.9796 11.9825 24.4898 12.5938 24.2449 13.0829C20.9388 19.0742 20.3265 20.6637 18.8571 25.31C18.8571 25.6768 18.8571 26.0436 19.3469 26.2882C19.7143 26.4104 20.0816 26.2882 20.3265 25.9214C22.2857 21.8864 25.8367 18.7074 29.6327 17.6069C33.6735 16.3842 36.9796 16.0174 40.898 17.7292C42.6122 18.4628 43.7143 19.3187 44.0816 20.2969C44.3265 20.9083 44.2041 21.6419 43.8367 22.3755C43.2245 23.5982 42.2449 24.2096 40.7755 24.2096C40.0408 24.2096 39.1837 24.2096 38.3265 23.965C37.3469 23.8428 36.3673 23.5982 35.5102 23.5982C31.8367 23.7205 27.1837 26.4104 25.5918 31.6681C24.4898 35.4585 24.9796 44.6288 30.2449 49.5196C32.8163 51.965 38.3265 51.8428 40.0408 51.7205C42 51.7205 45.4286 51.7205 45.7959 54.1659C46.1633 56.489 44.3265 57.9563 43.102 58.3231C38.0816 59.9126 34.0408 59.4235 28.898 58.8122H28.1633C27.9184 58.8122 27.7959 58.8122 27.551 58.8122C27.4286 58.9345 27.3061 59.179 27.3061 59.3013C27.0612 62.358 26.6939 65.1703 26.3265 68.4716C25.8367 72.5065 25.2245 77.1528 24.8571 83.2663C24.8571 83.6332 25.102 84 25.5918 84.1222C25.9592 84.1222 26.3265 83.8777 26.3265 83.3886C26.8163 77.3973 27.3061 72.7511 27.7959 68.7161C28.1633 65.7816 28.5306 63.0917 28.6531 60.2794C33.9184 60.8908 38.0816 61.3799 43.4694 59.7904C45.551 59.179 47.6327 56.8559 47.1429 53.9214C46.898 52.3318 45.9184 51.2314 44.3265 50.62C42.8571 50.131 41.0204 50.0087 39.7959 50.131C36.7347 50.2532 32.9388 49.8864 31.2245 48.2969C26.5714 43.8952 25.9592 35.3362 27.0612 31.9126C28.4082 27.3886 32.449 25.1877 35.6327 24.9432C36.3673 24.9432 37.2245 24.9432 38.0816 25.1877C39.0612 25.31 40.0408 25.5545 40.898 25.5545C42.8571 25.5545 44.3265 24.5764 45.1837 22.8646C45.7959 21.7642 45.9184 20.6637 45.551 19.5633C45.0612 18.2183 43.7143 16.9956 41.5102 16.1397C37.2245 14.3056 33.551 14.6724 29.2653 16.0174C26.6939 16.7511 24.2449 18.3406 22.1633 20.4192C22.898 18.7074 23.8776 16.751 25.5918 13.6943C25.8367 13.3275 26.2041 12.7161 26.6939 12.1048C27.9184 10.5152 29.5102 8.31437 29.8776 6.23577C30.2449 3.54581 29.2653 1.46721 26.8163 0.36677C24.1224 -0.855938 21.1837 0.611311 18.2449 4.52398C16.2857 7.09166 14.8163 10.2707 13.5918 13.8166C13.5918 11.3711 13.102 9.04799 12.6122 6.60258C12 4.03489 11.0204 2.68991 9.42857 2.3231C7.71429 1.83402 6 3.05673 5.14286 4.4017C4.40816 5.74668 4.16327 7.3362 4.04082 8.68118C2.93878 23.3537 2.32653 35.8253 1.71429 47.8078C1.22449 57.834 0.734694 67.3711 0 77.6419C0 78.0087 0.244898 78.3755 0.734694 78.4978L0.857143 78.6201Z" fill="#222222"/>
</g>
</g>
<defs>
<clipPath id="clip0_1_331">
<rect width="78" height="84" fill="white"/>
</clipPath>
</defs>
</svg>
