<svg width="35" height="49" viewBox="0 0 35 49" fill="none" xmlns="http://www.w3.org/2000/svg">
<g clip-path="url(#clip0_1_593)">
<mask id="mask0_1_593" style="mask-type:luminance" maskUnits="userSpaceOnUse" x="0" y="0" width="35" height="49">
<path d="M34.5696 0.794189H0.430664V48.8021H34.5696V0.794189Z" fill="white"/>
</mask>
<g mask="url(#mask0_1_593)">
<path d="M2.55349 23.825C3.06782 23.5655 3.38928 22.8519 3.2607 22.268C2.93924 21.0354 1.33195 20.711 0.68903 21.8787C0.367571 22.3977 0.496154 23.1114 0.881905 23.5655C1.33195 24.0196 2.03916 24.0845 2.55349 23.825Z" fill="#BEDCEE"/>
<path d="M17.9819 23.306C21.0036 24.2791 24.5396 23.0465 26.3398 20.4514C28.0114 18.051 28.5257 14.7424 26.3398 11.4337C25.3754 10.0065 23.7681 9.1631 22.0323 8.77385C21.2608 8.6441 20.4893 8.57922 19.7178 8.57922C19.8463 8.9036 19.9106 9.1631 19.9106 9.48748C19.9106 9.81186 19.7821 10.1362 19.5249 10.3309C19.2034 10.5904 18.6891 10.5255 18.3033 10.3309C17.9176 10.0714 17.6604 9.68211 17.4676 9.35773C17.4676 9.35773 17.4033 9.22798 17.339 9.1631C16.0531 9.74698 14.8959 10.6552 14.1244 11.823C13.2243 13.1205 12.71 14.6126 12.71 16.1697C12.71 19.3486 14.9602 22.3977 17.9819 23.306ZM15.5388 15.5209C15.796 14.8721 16.4389 14.6775 17.0818 14.6126C17.5961 14.6126 18.1105 14.6126 18.7534 14.6126V13.1854C18.7534 12.5366 18.9463 11.823 19.5249 11.4337C20.1035 11.0445 20.875 11.2391 21.2608 11.7581C21.6465 12.2771 21.7108 13.5746 21.7108 14.2234C21.7108 14.3531 21.7108 14.4829 21.7108 14.6126H23.1252C23.7681 14.6126 24.5396 14.8073 24.8611 15.3911C25.2469 15.975 24.9897 16.7535 24.4754 17.1428C23.961 17.532 23.2538 17.5969 22.5466 17.5969C22.2894 17.5969 21.968 17.5969 21.6465 17.5969C21.6465 18.3105 21.6465 19.5432 21.3251 20.1919C21.0036 20.7758 20.2964 21.1002 19.6535 20.9056C19.0106 20.6461 18.8177 19.9973 18.7534 19.3486C18.7534 18.8296 18.7534 18.3105 18.7534 17.6618C18.0462 17.6618 16.8246 17.6618 16.246 17.3374C15.6674 17.013 15.2816 16.2345 15.5388 15.6507V15.5209Z" fill="#BEDCEE"/>
<path d="M13.8674 48.7372C14.446 48.6075 14.9603 48.2831 15.2818 47.7641C15.7318 47.1153 15.7961 46.2071 15.4104 45.4934C14.6389 43.8715 12.3244 43.612 11.36 45.1691C10.91 45.9476 10.91 46.9856 11.36 47.7641C11.8743 48.5426 12.8387 48.9318 13.7388 48.7372H13.8674Z" fill="#BEDCEE"/>
<path d="M26.7904 45.1689C26.2118 45.8826 26.2118 47.0503 26.7904 47.764C27.369 48.4776 28.462 48.7371 29.3621 48.3478C30.1979 47.9586 30.7765 46.9855 30.6479 46.0123C30.3908 44.0012 28.0762 43.6768 26.8547 45.1041L26.7904 45.1689Z" fill="#BEDCEE"/>
<path d="M9.75359 31.7398C10.718 31.7398 11.6181 31.7398 12.4538 31.7398C12.5181 33.2968 12.6467 34.9835 12.711 36.4757C11.8752 36.4757 11.0394 36.4757 10.1393 36.4757C9.94647 36.4757 9.75359 36.6703 9.75359 36.8649C9.75359 37.0595 9.94647 37.2542 10.1393 37.2542C11.0394 37.2542 11.9395 37.2542 12.7753 37.2542C12.7753 38.4219 12.8396 39.3302 12.9039 39.7843C12.9039 39.9789 13.0968 40.1736 13.2896 40.1736C13.4825 40.1736 13.6754 39.9789 13.6754 39.7843C13.6754 39.3302 13.6754 38.4219 13.5468 37.319C15.0898 37.319 16.5042 37.319 17.8544 37.319C17.8544 38.6814 17.8544 39.8492 17.8544 40.5628C17.8544 40.7574 18.0472 40.9521 18.2401 40.9521C18.433 40.9521 18.6259 40.7574 18.6259 40.5628C18.6259 39.9141 18.6259 38.6814 18.6259 37.319H20.426C21.1975 37.319 22.0333 37.319 22.8048 37.319C22.8048 38.0976 22.8048 38.8112 22.7405 39.5248C22.7405 39.7194 22.8691 39.9141 23.1263 39.9141C23.3192 39.9141 23.512 39.7194 23.512 39.5248C23.512 38.8112 23.512 38.0327 23.5763 37.319C24.7979 37.319 26.148 37.319 27.5624 37.319C27.5624 38.1624 27.4338 39.0707 27.4338 40.0438C27.4338 40.2384 27.5624 40.4331 27.8196 40.4979C28.0125 40.4979 28.2053 40.3033 28.2053 40.1087C28.2053 39.1356 28.3339 38.2273 28.3339 37.319H30.7127C30.9056 37.319 31.0985 37.1244 31.0985 36.9298C31.0985 36.7352 30.9056 36.5405 30.7127 36.5405H28.3982C28.3982 36.1513 28.3982 35.8269 28.4625 35.5025C28.5268 34.4645 28.5911 33.3616 28.6554 32.1939C29.2983 32.1939 29.9412 32.1939 30.6484 32.1939C30.8413 32.1939 31.0342 31.9993 31.0342 31.8046C31.0342 31.61 30.8413 31.4154 30.6484 31.4154C29.9412 31.4154 29.2983 31.4154 28.6554 31.4154C28.6554 30.5071 28.7197 29.534 28.784 28.496C28.784 28.3014 28.5911 28.1067 28.3982 28.1067C28.2053 28.1067 28.0125 28.3014 28.0125 28.496C28.0125 29.5989 27.9482 30.572 27.8839 31.4154C26.7266 31.4154 25.6337 31.4154 24.5407 31.3505C24.2835 31.3505 24.0264 31.3505 23.7692 31.3505C23.7692 30.3125 23.8335 29.2745 23.8978 28.3014C23.8978 28.1067 23.7692 27.9121 23.512 27.9121C23.3192 27.9121 23.1263 28.0419 23.1263 28.3014C23.1263 29.2745 23.062 30.3125 22.9977 31.3505C21.4547 31.3505 19.976 31.2856 18.5616 31.2208C18.5616 29.9881 18.5616 28.9501 18.5616 28.1716C18.5616 27.977 18.3687 27.7823 18.1758 27.7823C17.9829 27.7823 17.7901 27.977 17.7901 28.1716C17.7901 28.8852 17.7901 29.9232 17.7901 31.1559C16.2471 31.1559 14.7683 31.1559 13.1611 31.091C13.0968 29.7935 13.0325 28.7555 12.9682 28.1716C12.9682 27.977 12.7753 27.7823 12.5181 27.7823C12.3253 27.7823 12.1324 27.977 12.1324 28.2365C12.1324 28.8204 12.261 29.8584 12.3253 31.091C11.4895 31.091 10.5894 31.091 9.62501 31.091C9.43213 31.091 9.23926 31.2856 9.23926 31.4803C9.23926 31.6749 9.43213 31.8695 9.62501 31.8695L9.75359 31.7398ZM24.605 31.9344C25.6979 31.9344 26.7909 31.9993 27.9482 31.9993C27.8839 33.167 27.8196 34.205 27.7553 35.3079C27.7553 35.6972 27.7553 36.0215 27.691 36.4108C26.2766 36.4108 24.9907 36.4108 23.7049 36.4108C23.7049 35.5025 23.7049 34.5943 23.7692 33.7509C23.7692 33.167 23.7692 32.5183 23.7692 31.9344C24.0264 31.9344 24.2835 31.9344 24.5407 31.9344H24.605ZM23.062 31.9344C23.062 32.5183 23.062 33.167 23.062 33.7509C23.062 34.6592 23.062 35.5674 22.9977 36.4757C22.1619 36.4757 21.3904 36.4757 20.5546 36.4757H18.7544C18.7544 34.9835 18.7544 33.3616 18.7544 31.8695C20.1689 31.8695 21.6476 31.9344 23.1263 31.9993L23.062 31.9344ZM17.8544 31.8046C17.8544 33.2968 17.8544 34.9835 17.8544 36.4757C16.5042 36.4757 15.0898 36.4757 13.4825 36.4757C13.4182 34.9835 13.3539 33.2968 13.2253 31.7398C14.7683 31.7398 16.3114 31.7398 17.7901 31.8046H17.8544Z" fill="#222222"/>
<path d="M3.06674 23.1114C4.99549 23.3709 6.08845 24.2143 6.34562 25.6415C6.60278 27.7176 6.85995 30.0531 7.05283 32.3886C7.30999 34.6592 7.50287 37.0596 7.76004 39.1356C7.88862 40.1088 8.0172 41.4063 8.853 42.1848C9.6245 42.8984 10.7175 42.8984 11.7461 42.8984H11.8747C13.8678 42.8984 15.6679 42.8984 17.4038 42.8984C18.9468 42.8984 20.4255 42.8984 22.0328 42.8984C24.283 42.8984 26.5975 42.8984 29.2978 42.8984C30.8408 42.8984 31.8052 42.574 32.3838 41.7955C32.8981 41.1468 33.0267 40.2385 33.1553 39.1356C33.1553 39.0059 33.1553 38.941 33.1553 38.8113C33.7339 34.6592 33.8625 33.2968 34.184 30.4423C34.3125 29.4043 34.4411 28.2366 34.5697 26.7444C34.5697 26.6147 34.5697 26.5498 34.5054 26.42C34.4411 26.3552 34.3125 26.2903 34.2482 26.2903L7.18141 25.1874C6.92424 24.0196 5.95987 22.6573 3.25961 22.3329C3.06674 22.3329 2.80957 22.4626 2.80957 22.6573C2.80957 22.8519 2.93815 23.0465 3.13103 23.1114H3.06674ZM33.7339 27.0039C33.6053 28.3014 33.4767 29.3394 33.3482 30.3126C33.0267 33.1671 32.8981 34.5944 32.3195 38.6815C32.3195 38.8113 32.3195 38.941 32.3195 39.0059C32.1909 39.979 32.1266 40.7575 31.6766 41.2765C31.4194 41.6009 30.9051 42.055 29.2335 42.055C24.7331 42.055 21.1327 42.055 17.4038 42.055C15.7322 42.055 13.932 42.055 12.0033 42.055H11.7461C10.9103 42.055 10.0102 42.055 9.43162 41.536C8.853 41.017 8.72441 39.8493 8.59583 39.0059C8.33866 36.9299 8.0815 34.5944 7.88862 32.2588C7.69574 30.1179 7.43858 27.9122 7.2457 25.9659L33.7339 27.0688V27.0039Z" fill="#222222"/>
</g>
<path d="M16.5035 1.57273C19.0752 3.64874 21.0682 7.08714 21.6468 8.90366C21.6468 9.09828 21.8397 9.16316 22.0326 9.16316C22.2255 9.16316 22.0969 9.16316 22.1612 9.16316C22.3541 9.09828 22.4826 8.83878 22.4183 8.64416C21.8397 6.89252 19.8467 3.25949 17.0178 0.923973C16.825 0.794222 16.5678 0.794222 16.4392 0.923973C16.3106 1.1186 16.3106 1.3781 16.4392 1.50785L16.5035 1.57273Z" fill="#222222"/>
<path d="M10.3961 6.63292C12.0034 8.06018 12.9035 9.94157 13.7393 11.9527C13.7393 12.0825 13.9321 12.2122 14.125 12.2122C14.3179 12.2122 14.2536 12.2122 14.2536 12.2122C14.4465 12.1473 14.575 11.8878 14.4465 11.6932C13.5464 9.61719 12.6463 7.60605 10.9104 6.11391C10.7175 5.98416 10.4604 5.98416 10.3318 6.11391C10.2032 6.30854 10.2032 6.50317 10.3318 6.69779L10.3961 6.63292Z" fill="#222222"/>
<path d="M16.0543 7.99533C16.44 8.31971 16.6329 8.64409 16.8258 9.03334C16.8901 9.22797 17.0187 9.35772 17.1472 9.55234C17.4044 9.9416 17.6616 10.3308 18.1116 10.6552C18.3688 10.8499 18.6902 10.9147 19.0117 10.9147C19.3332 10.9147 19.526 10.8499 19.7832 10.6552C20.1047 10.3957 20.2975 10.0065 20.3618 9.48747C20.3618 9.09821 20.2332 8.70896 20.169 8.38458V8.25483C19.7832 7.41145 19.4617 6.43832 18.5617 5.65981C18.4331 5.53006 18.1759 5.53006 17.983 5.65981C17.8545 5.78956 17.8545 6.04907 17.983 6.24369C18.6902 6.89245 19.0117 7.73583 19.3332 8.51433V8.64409C19.4617 8.90359 19.5903 9.16309 19.5903 9.42259C19.5903 9.61722 19.526 9.87672 19.3332 9.9416C19.1403 10.0713 18.7545 10.0065 18.5617 9.87672C18.2402 9.68209 18.0473 9.35772 17.7902 9.03334C17.6616 8.90359 17.5973 8.70896 17.533 8.57921C17.3401 8.18996 17.083 7.73583 16.5686 7.34658C16.3757 7.21683 16.1186 7.21683 15.99 7.34658C15.8614 7.5412 15.8614 7.8007 15.99 7.93046L16.0543 7.99533Z" fill="#222222"/>
<path d="M15.9908 17.5968C16.5694 17.9212 17.4695 17.9861 18.3696 17.9861C18.3696 18.4402 18.3696 18.8944 18.3696 19.2836C18.3696 20.2567 18.7554 20.9704 19.4626 21.2299C19.6554 21.2947 19.8483 21.3596 20.0412 21.3596C20.6841 21.3596 21.327 20.9704 21.6485 20.3865C21.97 19.8026 22.0342 18.8944 22.0342 18.051C22.2271 18.051 22.42 18.051 22.5486 18.051C23.2558 18.051 24.0273 17.9861 24.6702 17.532C25.4417 17.013 25.6346 15.975 25.1845 15.2613C24.7345 14.6126 23.8344 14.3531 23.0629 14.3531H22.0342C22.0342 13.3151 21.9057 12.2771 21.5199 11.6932C21.0056 10.9795 19.9769 10.7849 19.2697 11.239C18.8197 11.5634 18.3696 12.2122 18.3696 13.3151V14.3531C17.9196 14.3531 17.4695 14.3531 17.1481 14.3531C16.1837 14.3531 15.4765 14.7423 15.2193 15.456C14.8979 16.2345 15.2193 17.2076 16.0551 17.6617L15.9908 17.5968ZM15.9265 15.6506C16.1194 15.0667 16.8266 15.0018 17.1481 15.0018C17.6624 15.0018 18.1767 15.0018 18.8197 15.0018C19.0125 15.0018 19.2054 14.8072 19.2054 14.6126V13.1853C19.2054 12.7312 19.334 12.0824 19.784 11.8229C19.9126 11.758 20.1055 11.6932 20.2341 11.6932C20.4912 11.6932 20.8127 11.8229 20.9413 12.0824C21.2627 12.5366 21.327 13.8341 21.327 14.3531C21.327 14.4828 21.327 14.6126 21.327 14.6774C21.327 14.8721 21.5199 15.0667 21.7128 15.0667H23.1272C23.6415 15.0667 24.2845 15.2613 24.5416 15.6506C24.7988 15.975 24.6702 16.5588 24.2845 16.8183C23.8344 17.1427 23.1915 17.2076 22.6129 17.2076C22.3557 17.2076 22.0342 17.2076 21.7128 17.2076C21.5199 17.2076 21.327 17.4022 21.327 17.5968C21.327 18.2456 21.327 19.4782 21.0056 19.9972C20.7484 20.4514 20.2341 20.646 19.784 20.5162C19.2054 20.3216 19.1411 19.608 19.1411 19.2836C19.1411 18.7646 19.1411 18.2456 19.1411 17.5968C19.1411 17.4022 18.9482 17.2076 18.7554 17.2076C18.1767 17.2076 16.9552 17.2076 16.4409 16.8832C15.9908 16.6237 15.7979 16.1047 15.9265 15.6506Z" fill="#222222"/>
</g>
<defs>
<clipPath id="clip0_1_593">
<rect width="34.1389" height="48.0079" fill="white" transform="translate(0.430664 0.794189)"/>
</clipPath>
</defs>
</svg>
