<svg width="490" height="710" viewBox="0 0 490 710" fill="none" xmlns="http://www.w3.org/2000/svg">
<rect width="490" height="710" rx="24" fill="#BEDCEE"/>
<g clip-path="url(#clip0_1_300)">
<mask id="path-2-inside-1_1_300" fill="white">
<path d="M86 196C86 176.118 102.118 160 122 160H368C387.882 160 404 176.118 404 196V710H86V196Z"/>
</mask>
<path d="M86 196C86 176.118 102.118 160 122 160H368C387.882 160 404 176.118 404 196V710H86V196Z" fill="white"/>
<rect x="175" y="317" width="140" height="236" rx="18" fill="#2F478A"/>
<rect x="333" y="332" width="140" height="206" rx="18" fill="#2F478A" fill-opacity="0.4"/>
<rect x="17" y="332" width="140" height="206" rx="18" fill="#2F478A" fill-opacity="0.4"/>
<path d="M280.42 472.098C279.221 471.019 277.234 470.194 274.302 471.933C274.182 471.708 274.047 471.498 273.882 471.288C273.073 470.292 271.536 469.28 268.776 470.187C267.742 470.517 266.842 471.146 265.972 471.82C265.687 471.079 265.14 470.449 264.39 470C263.161 469.258 261.504 469.086 260.079 469.52C258.767 469.932 256.413 471.468 254.141 472.959C252.874 473.783 251.689 474.57 251.029 474.892C246.695 477.11 243.524 478.121 241.072 478.046C239.025 477.987 237.623 477.252 235.726 475.889C234.954 475.334 233.942 474.495 232.87 473.604C230.628 471.723 228.303 469.79 226.669 469.131C224.967 468.449 222.455 468.359 220.941 469.528C219.988 470.254 219.569 471.378 219.733 472.682C219.958 474.488 221.87 476.87 223.715 479.17C224.749 480.459 225.814 481.785 226.137 482.527C227.156 484.932 226.736 487.876 224.854 491.278C223.242 494.2 220.978 496.747 219.629 498.261C219.509 498.388 219.404 498.508 219.314 498.613C218.999 498.98 219.021 499.527 219.381 499.857C219.546 500.007 219.756 500.081 219.966 500.081C220.213 500.081 220.446 499.977 220.626 499.789C220.723 499.684 220.828 499.565 220.941 499.437C223.842 496.185 230.628 488.573 227.764 481.845C227.351 480.886 226.309 479.582 225.094 478.076C223.557 476.166 221.653 473.783 221.488 472.465C221.405 471.775 221.578 471.258 222.028 470.914C222.86 470.269 224.66 470.194 226.032 470.749C227.419 471.311 229.728 473.236 231.775 474.937C232.87 475.851 233.897 476.713 234.722 477.305C238.478 480.017 241.912 481.538 251.854 476.451C252.581 476.076 253.758 475.312 255.115 474.42C257.087 473.131 259.539 471.521 260.619 471.191C261.549 470.899 262.711 471.026 263.498 471.498C264.015 471.805 264.323 472.217 264.413 472.704C264.435 472.847 264.435 473.019 264.398 473.199C264.383 473.244 264.36 473.304 264.36 473.349C263.94 474.862 261.721 477.432 259.442 479.358C256.578 481.8 254.043 483.456 250.392 485.269C249.957 485.494 249.785 486.018 249.994 486.453C250.219 486.887 250.744 487.06 251.179 486.85C254.958 484.962 257.605 483.239 260.581 480.699C261.054 480.302 262.703 478.856 264.128 477.11C265.087 475.926 265.71 474.907 265.995 474.001C266.197 473.851 266.407 473.693 266.602 473.529C267.532 472.809 268.409 472.135 269.324 471.828C271.506 471.124 272.263 472.06 272.518 472.367C272.765 472.674 272.915 473.004 272.99 473.386C273.095 473.971 273.005 474.645 272.698 475.432C272.383 476.233 271.865 477.11 271.183 477.964C268.671 481.118 265.785 483.666 260.484 487.352C260.086 487.637 259.989 488.176 260.259 488.573C260.431 488.82 260.709 488.948 260.986 488.948C261.159 488.948 261.339 488.903 261.489 488.798C266.924 485.007 269.931 482.37 272.548 479.073C274.077 477.147 274.827 475.297 274.782 473.708C276.634 472.465 278.104 472.36 279.258 473.394C280.69 474.682 280.195 476.878 279.386 478.031C276.836 481.635 272.743 485.681 267.232 490.049C264.6 492.14 262.426 493.556 260.506 494.814C257.147 497.01 254.493 498.748 251.771 502.606C251.487 503.004 251.584 503.558 251.981 503.835C252.131 503.94 252.311 504 252.484 504C252.769 504 253.039 503.873 253.204 503.625C255.738 500.044 258.145 498.478 261.474 496.29C263.423 495.009 265.627 493.571 268.334 491.435C273.972 486.962 278.171 482.797 280.825 479.058C281.47 478.144 281.882 476.908 281.927 475.769C281.965 474.278 281.448 473.012 280.413 472.083L280.42 472.098Z" fill="white"/>
<path d="M218.099 444.301C215.88 444.87 213.248 442.735 211.711 441.326C210.069 439.82 208.689 437.97 207.925 435.865C206.47 431.841 207.317 426.664 210.939 424.027C214.043 421.771 220.056 421.659 221.81 425.75C222.185 426.619 222.275 427.713 221.518 428.41C220.671 429.189 219.366 429.099 218.384 428.694C216.21 427.795 214.5 425.585 213.6 423.48C211.486 418.557 213.353 412.751 217.852 409.881C219.066 409.102 217.942 407.161 216.719 407.94C211.576 411.222 209.132 417.733 211.224 423.532C212.228 426.312 214.163 428.994 216.809 430.418C219.456 431.841 223.137 431.474 224.157 428.327C225.027 425.652 223.077 422.873 220.873 421.547C218.519 420.131 215.55 419.891 212.926 420.625C207.22 422.221 204.341 428.29 205.128 433.887C205.578 437.093 207.25 440.038 209.507 442.323C211.763 444.608 215.332 447.32 218.691 446.466C220.093 446.107 219.501 443.941 218.091 444.301H218.099Z" fill="#BEDCEE"/>
<path d="M283.007 424.911C284.147 423.382 285.226 421.457 284.469 419.509C283.712 417.561 281.583 416.984 279.671 416.901C277.931 416.826 275.944 417.298 274.82 418.722C273.792 420.011 273.447 422.011 274.422 423.435C275.794 425.45 278.516 424.993 280.608 424.903C281.215 424.881 281.733 424.409 281.733 423.779C281.733 423.187 281.215 422.633 280.608 422.655C279.776 422.693 278.936 422.745 278.096 422.753C277.939 422.753 277.774 422.753 277.616 422.745C277.579 422.745 277.151 422.693 277.324 422.723C277.151 422.693 276.979 422.648 276.814 422.596C276.634 422.536 276.934 422.663 276.762 422.573C276.724 422.551 276.462 422.401 276.537 422.453C276.582 422.483 276.379 422.288 276.334 422.251C276.222 422.161 276.439 422.446 276.319 422.228C276.289 422.176 276.259 422.124 276.229 422.071C276.199 422.019 276.162 421.884 276.229 422.094C276.207 422.034 276.192 421.981 276.169 421.921C276.147 421.861 276.139 421.801 276.124 421.741C276.042 421.487 276.124 421.944 276.109 421.674C276.109 421.547 276.094 421.427 276.109 421.299C276.109 421.299 276.139 420.992 276.117 421.165C276.094 421.314 276.132 421.112 276.139 421.075C276.177 420.932 276.214 420.797 276.259 420.655C276.274 420.61 276.342 420.46 276.259 420.655C276.297 420.58 276.327 420.513 276.372 420.438C276.402 420.378 276.634 420.048 276.492 420.228C276.567 420.131 276.657 420.033 276.747 419.943C276.799 419.898 276.851 419.846 276.904 419.801C276.784 419.898 276.934 419.778 276.949 419.771C277.106 419.666 277.271 419.576 277.436 419.486C277.744 419.321 277.339 419.516 277.534 419.441C277.601 419.411 277.676 419.389 277.751 419.366C277.916 419.314 278.081 419.269 278.246 419.231C278.321 419.216 278.396 419.202 278.471 419.187C278.493 419.187 278.688 419.157 278.516 419.179C278.711 419.157 278.906 419.142 279.101 419.134C279.851 419.112 280.315 419.157 280.938 419.306C281.11 419.344 281.268 419.404 281.433 419.449C281.455 419.449 281.635 419.524 281.485 419.464C281.553 419.494 281.62 419.531 281.688 419.561C281.748 419.591 282.055 419.793 281.927 419.689C281.987 419.733 282.04 419.786 282.092 419.838C282.107 419.853 282.302 420.101 282.205 419.958C282.25 420.018 282.28 420.086 282.325 420.153C282.46 420.37 282.325 420.056 282.385 420.303C282.407 420.378 282.422 420.453 282.445 420.52C282.52 420.79 282.46 420.393 282.467 420.677C282.467 420.872 282.475 421.067 282.452 421.262C282.46 421.202 282.49 421.105 282.437 421.307C282.407 421.419 282.385 421.532 282.347 421.644C282.13 422.348 281.568 423.105 281.073 423.757C280.705 424.244 280.99 425.016 281.478 425.293C282.055 425.63 282.655 425.375 283.015 424.888L283.007 424.911Z" fill="#DB504A"/>
<path d="M221.151 398.837C222.29 397.309 223.37 395.383 222.613 393.435C221.855 391.487 219.726 390.91 217.814 390.828C216.075 390.753 214.088 391.225 212.963 392.649C211.936 393.937 211.591 395.938 212.566 397.361C213.938 399.377 216.659 398.92 218.751 398.83C219.359 398.807 219.876 398.335 219.876 397.706C219.876 397.114 219.359 396.56 218.751 396.582C217.919 396.62 217.079 396.672 216.24 396.679C216.082 396.679 215.917 396.679 215.76 396.672C215.722 396.672 215.295 396.62 215.467 396.65C215.295 396.62 215.122 396.575 214.957 396.522C214.777 396.462 215.077 396.59 214.905 396.5C214.867 396.477 214.605 396.327 214.68 396.38C214.725 396.41 214.523 396.215 214.478 396.177C214.365 396.088 214.583 396.372 214.463 396.155C214.433 396.103 214.403 396.05 214.373 395.998C214.343 395.945 214.305 395.81 214.373 396.02C214.35 395.96 214.335 395.908 214.313 395.848C214.29 395.788 214.283 395.728 214.268 395.668C214.185 395.413 214.268 395.87 214.253 395.601C214.253 395.473 214.238 395.353 214.253 395.226C214.253 395.226 214.283 394.919 214.26 395.091C214.238 395.241 214.275 395.039 214.283 395.001C214.32 394.859 214.358 394.724 214.403 394.582C214.418 394.537 214.485 394.387 214.403 394.582C214.44 394.507 214.47 394.439 214.515 394.364C214.545 394.304 214.777 393.975 214.635 394.155C214.71 394.057 214.8 393.96 214.89 393.87C214.942 393.825 214.995 393.772 215.047 393.727C214.927 393.825 215.077 393.705 215.092 393.698C215.25 393.593 215.415 393.503 215.58 393.413C215.887 393.248 215.482 393.443 215.677 393.368C215.745 393.338 215.82 393.315 215.895 393.293C216.06 393.24 216.225 393.196 216.389 393.158C216.464 393.143 216.539 393.128 216.614 393.113C216.637 393.113 216.832 393.083 216.659 393.106C216.854 393.083 217.049 393.068 217.244 393.061C217.994 393.038 218.459 393.083 219.081 393.233C219.254 393.27 219.411 393.33 219.576 393.375C219.599 393.375 219.778 393.45 219.629 393.39C219.696 393.42 219.763 393.458 219.831 393.488C219.891 393.518 220.198 393.72 220.071 393.615C220.131 393.66 220.183 393.713 220.236 393.765C220.251 393.78 220.446 394.027 220.348 393.885C220.393 393.945 220.423 394.012 220.468 394.08C220.603 394.297 220.468 393.982 220.528 394.229C220.551 394.304 220.566 394.379 220.588 394.447C220.663 394.716 220.603 394.319 220.611 394.604C220.611 394.799 220.618 394.994 220.596 395.189C220.603 395.129 220.633 395.031 220.581 395.233C220.551 395.346 220.528 395.458 220.491 395.571C220.273 396.275 219.711 397.032 219.216 397.683C218.849 398.17 219.134 398.942 219.621 399.219C220.198 399.557 220.798 399.302 221.158 398.815L221.151 398.837Z" fill="#DB504A"/>
<path d="M283.27 397.653C280.008 398.103 276.604 397.504 273.672 396.02C273.133 395.743 272.45 395.878 272.135 396.425C271.843 396.927 271.993 397.683 272.54 397.961C276.064 399.744 279.971 400.366 283.869 399.819C284.469 399.736 284.799 398.965 284.657 398.433C284.477 397.781 283.877 397.564 283.27 397.646V397.653Z" fill="#E3B505"/>
<path d="M279.236 403.265V394.087C279.236 392.641 276.986 392.641 276.986 394.087V403.265C276.986 404.711 279.236 404.711 279.236 403.265Z" fill="#E3B505"/>
<path d="M274.797 402.029C275.622 401.767 276.297 401.295 276.964 400.748C277.594 400.231 278.201 399.691 278.801 399.144C280.001 398.051 281.155 396.912 282.257 395.728C282.655 395.301 282.715 394.559 282.257 394.14C281.8 393.72 281.095 393.683 280.668 394.14C279.618 395.263 278.531 396.342 277.406 397.384C276.851 397.893 276.282 398.395 275.704 398.882C275.562 399.002 275.427 399.115 275.284 399.234C275.134 399.362 275.389 399.159 275.232 399.279C275.172 399.324 275.104 399.377 275.037 399.422C274.895 399.527 274.745 399.616 274.587 399.706C274.565 399.721 274.317 399.841 274.4 399.804C274.475 399.774 274.205 399.871 274.205 399.871C273.642 400.051 273.23 400.658 273.418 401.257C273.597 401.819 274.197 402.231 274.805 402.044L274.797 402.029Z" fill="#E3B505"/>
<path d="M224.015 456.731C220.753 457.18 217.349 456.581 214.418 455.097C213.878 454.82 213.195 454.955 212.881 455.502C212.588 456.004 212.738 456.761 213.285 457.038C216.809 458.821 220.716 459.443 224.615 458.896C225.214 458.814 225.544 458.042 225.402 457.51C225.222 456.858 224.622 456.641 224.015 456.723V456.731Z" fill="#E3B505"/>
<path d="M219.981 462.342V453.164C219.981 451.718 217.732 451.718 217.732 453.164V462.342C217.732 463.789 219.981 463.789 219.981 462.342Z" fill="#E3B505"/>
<path d="M215.542 461.106C216.367 460.844 217.042 460.372 217.709 459.825C218.339 459.308 218.946 458.769 219.546 458.222C220.746 457.128 221.9 455.989 223.003 454.805C223.4 454.378 223.46 453.636 223.003 453.217C222.545 452.797 221.84 452.76 221.413 453.217C220.363 454.341 219.276 455.42 218.151 456.461C217.597 456.97 217.027 457.472 216.449 457.959C216.307 458.079 216.172 458.192 216.03 458.312C215.88 458.439 216.135 458.237 215.977 458.357C215.917 458.402 215.85 458.454 215.782 458.499C215.64 458.604 215.49 458.694 215.332 458.784C215.31 458.799 215.062 458.918 215.145 458.881C215.22 458.851 214.95 458.948 214.95 458.948C214.388 459.128 213.975 459.735 214.163 460.335C214.343 460.896 214.942 461.309 215.55 461.121L215.542 461.106Z" fill="#E3B505"/>
<path d="M237.076 419.104C234.024 417.613 232.24 413.927 234.399 410.9C235.651 409.147 237.428 409.581 239.288 409.656C240.885 409.716 242.332 409.199 243.516 408.135C244.581 407.176 245.346 405.783 245.188 404.322C245.061 403.093 244.311 402.096 243.509 401.197C241.087 398.47 238.335 395.93 236.498 392.731C235.989 391.847 235.486 390.229 236.409 389.397C236.911 388.94 238.215 389.052 238.988 389.202C242.084 389.809 245.016 391.667 247.115 393.997C249.732 396.904 251.097 401.048 251.427 404.891C251.592 406.779 251.179 408.712 251.479 410.585C251.779 412.458 253.219 413.41 255.01 413.223C261.534 412.533 262.283 403.625 260.926 398.725C259.824 394.746 257.417 391.233 255.22 387.794C253.338 384.842 251.479 382.114 248.525 380.129C247.1 379.17 245.556 378.413 244.274 377.244C242.992 376.076 241.117 374.36 240.915 372.569C240.712 370.778 242.564 369.018 244.364 369.257C245.338 369.385 246.328 369.947 246.853 370.644C247.663 371.707 247.993 373.243 248.525 374.45C249.26 376.098 250.054 377.784 251.149 379.222C253.129 381.815 257.08 383.748 259.914 381.208C260.844 380.369 261.646 378.076 263.228 378.795C265.013 379.604 264.345 381.755 263.116 382.729C262.411 383.291 261.459 383.44 260.814 384.092C260.169 384.744 259.952 385.651 260.026 386.527C260.184 388.333 261.481 389.749 262.793 390.873C264.203 392.079 265.567 393.24 266.587 394.814C267.607 396.387 268.342 398.178 268.521 400.051C268.701 401.924 268.207 403.707 267.502 405.49C266.797 407.274 265.905 409.064 264.863 410.713C264.263 411.657 263.61 412.608 262.771 413.35C261.684 414.316 263.281 415.897 264.36 414.938C266.722 412.84 268.244 409.559 269.421 406.697C270.238 404.726 270.898 402.756 270.808 400.605C270.733 398.71 270.201 396.874 269.376 395.174C268.499 393.383 267.239 391.75 265.747 390.431C264.54 389.367 262.576 388.213 262.276 386.482C262.096 385.418 263.191 385.344 263.903 384.901C264.735 384.392 265.462 383.673 265.942 382.819C266.864 381.185 266.812 379.162 265.522 377.746C264.368 376.48 262.426 375.948 260.896 376.84C259.442 377.686 258.917 379.912 257.102 380.114C253.353 380.533 251.337 375.431 250.219 372.749C249.717 371.535 249.357 370.187 248.525 369.145C247.76 368.194 246.59 367.504 245.428 367.182C241.515 366.103 237.518 370.007 238.95 373.94C239.633 375.813 241.222 377.507 242.677 378.818C244.034 380.054 245.631 380.901 247.16 381.905C250.339 383.987 252.154 387.142 254.148 390.281C256.338 393.735 258.812 397.451 259.194 401.632C259.419 404.112 259.157 407.221 257.62 409.282C257.215 409.821 256.712 410.263 256.105 410.563C255.55 410.84 254.381 411.312 253.863 410.743C253.398 410.233 253.631 408.952 253.661 408.345C253.713 407.289 253.758 406.247 253.683 405.191C253.391 401.055 252.086 396.762 249.552 393.435C247.43 390.648 244.349 388.505 241.027 387.411C238.643 386.625 235.006 386.205 233.957 389.165C232.757 392.551 235.599 395.451 237.511 397.886C238.74 399.452 240.12 400.86 241.477 402.306C242.114 402.988 243.082 403.895 242.947 404.899C242.767 406.232 241.207 407.304 239.962 407.401C237.991 407.551 236.184 406.862 234.339 407.948C231.183 409.806 230.448 414.257 232.045 417.351C232.885 418.977 234.302 420.25 235.936 421.045C237.233 421.674 238.373 419.741 237.068 419.104H237.076Z" fill="white"/>
<path d="M230.44 385.786C227.921 386.198 225.072 384.887 223.722 382.631C223.505 382.264 223.092 381.635 223.535 381.335C224.127 380.938 224.982 380.878 225.672 380.916C227.224 380.998 228.656 381.852 229.766 382.886C230.32 383.403 230.92 383.995 231.153 384.737C231.25 385.051 231.273 385.314 231.205 385.576C231.138 385.861 231.033 386.048 230.838 386.175C229.631 386.962 230.755 388.902 231.97 388.116C232.93 387.494 233.454 386.467 233.484 385.336C233.514 384.205 233.005 383.193 232.33 382.339C230.988 380.646 228.956 379.207 226.811 378.803C224.667 378.398 221.173 378.818 221.091 381.567C221.053 382.706 221.72 383.77 222.395 384.632C223.01 385.418 223.76 386.085 224.6 386.632C226.511 387.868 228.806 388.311 231.04 387.951C231.64 387.853 231.977 387.112 231.827 386.565C231.655 385.928 231.048 385.681 230.44 385.778V385.786Z" fill="white"/>
<path d="M282.062 443.012C282.062 437.603 277.669 433.22 272.263 433.22C272.227 433.22 272.192 433.217 272.158 433.213C270.477 433.231 268.902 433.666 267.524 434.435C267.234 434.596 266.879 434.592 266.592 434.424C266.306 434.256 266.13 433.949 266.13 433.617V428.673C266.038 428.733 265.944 428.792 265.849 428.848C264.908 429.404 263.714 429.879 262.349 430.267C259.616 431.044 256.082 431.504 252.243 431.504C248.405 431.504 244.871 431.044 242.138 430.267C240.773 429.879 239.579 429.404 238.638 428.848C238.543 428.792 238.45 428.733 238.358 428.673V461.891C240.653 463.256 245.503 465.658 252.062 465.699H252.063C258.813 465.746 263.823 463.265 266.13 461.891V452.4C266.13 452.068 266.306 451.76 266.593 451.592C266.88 451.424 267.235 451.421 267.525 451.584C268.922 452.367 270.534 452.805 272.263 452.805C277.669 452.805 282.062 448.421 282.062 443.012ZM277.789 443.012C277.788 440.45 275.696 438.359 273.133 438.359C270.568 438.359 268.477 440.443 268.476 443.012C268.476 445.582 270.561 447.665 273.133 447.665C275.696 447.665 277.789 445.574 277.789 443.012ZM279.663 443.012C279.663 446.609 276.732 449.538 273.133 449.538C269.526 449.538 266.602 446.616 266.602 443.012C266.602 439.407 269.534 436.486 273.133 436.486C276.732 436.486 279.663 439.415 279.663 443.012ZM283.937 443.012C283.937 449.456 278.703 454.678 272.263 454.678C270.76 454.678 269.324 454.397 268.004 453.877V462.417C268.004 462.74 267.838 463.041 267.563 463.212C265.351 464.593 259.767 467.625 252.051 467.571V467.572L252.05 467.571L252.049 467.572V467.571C244.55 467.525 239.144 464.592 236.926 463.213C236.651 463.042 236.484 462.741 236.484 462.417V426.394L236.487 426.312C236.523 425.905 236.821 425.564 237.227 425.478C237.661 425.387 238.099 425.611 238.278 426.016C238.424 426.347 238.816 426.777 239.593 427.236C240.351 427.684 241.383 428.104 242.651 428.465C245.183 429.185 248.54 429.631 252.243 429.631C255.948 429.631 259.304 429.185 261.837 428.465C263.104 428.104 264.136 427.684 264.894 427.236C265.671 426.777 266.063 426.347 266.21 426.016C266.388 425.611 266.827 425.387 267.26 425.478C267.694 425.569 268.004 425.951 268.004 426.394V432.141C269.327 431.621 270.763 431.339 272.263 431.339C272.305 431.339 272.347 431.343 272.388 431.348C278.771 431.415 283.937 436.61 283.937 443.012Z" fill="white"/>
<path d="M236.903 427.578C236.716 427.346 236.558 427.091 236.446 426.829C236.281 426.477 236.199 426.087 236.199 425.69C236.199 421.794 244.274 419.756 252.251 419.756C260.229 419.756 268.304 421.794 268.304 425.69C268.304 426.087 268.222 426.469 268.049 426.836C267.937 427.083 267.787 427.338 267.599 427.57L265.92 426.229C265.995 426.132 266.055 426.042 266.1 425.945C266.145 425.855 266.16 425.772 266.16 425.69C266.16 424.184 260.619 421.899 252.259 421.899C243.899 421.899 238.358 424.176 238.358 425.69C238.358 425.772 238.373 425.855 238.41 425.937C238.455 426.042 238.515 426.139 238.59 426.229L236.911 427.57L236.903 427.578Z" fill="white"/>
<path d="M265.882 427.878C263.528 429.369 259.074 431.699 253.189 431.909C246.411 432.156 241.282 429.459 238.868 427.945C241.447 426.507 246.148 424.386 252.259 424.349C258.489 424.304 263.288 426.454 265.89 427.885L265.882 427.878Z" fill="white"/>
</g>
<path d="M76 196C76 170.595 96.5949 150 122 150H368C393.405 150 414 170.595 414 196H394C394 181.641 382.359 170 368 170H122C107.641 170 96 181.641 96 196H76ZM404 710H86H404ZM76 710V196C76 170.595 96.5949 150 122 150V170C107.641 170 96 181.641 96 196V710H76ZM368 150C393.405 150 414 170.595 414 196V710H394V196C394 181.641 382.359 170 368 170V150Z" fill="black" mask="url(#path-2-inside-1_1_300)"/>
<path d="M452.763 506.697L476.662 514.165L490 531.164V537.599V694.679L478.459 710H455.988H445.292L425.877 694.899L372.105 671.001L334.763 633.659L328.789 605.279L334.763 582.874L346.713 567.937L283.979 472.342V449.937L298.915 437.988L313.852 440.975L384.055 527.608L388.536 518.646L398.991 509.684H418.409L433.346 523.127L439.32 512.671L452.763 506.697Z" fill="#E5B49D"/>
<path fill-rule="evenodd" clip-rule="evenodd" d="M490 523.826V531.164V537.599C485.899 532.117 481.776 526.657 476.992 521.86C472.755 517.611 464.28 510.528 453.685 510.528C444.504 511.236 436.735 518.319 436.735 524.693C436.735 526.818 435.322 528.942 433.203 528.942C431.085 528.942 428.26 528.234 428.26 526.11C424.728 517.611 415.547 511.945 406.365 512.653C397.184 513.361 389.415 521.152 388.002 530.359C388.002 531.775 386.589 533.9 385.177 533.9C383.764 533.9 382.352 533.9 380.939 532.484C378.821 529.651 369.639 517.611 357.632 502.737C351.129 494.734 344.008 485.739 337.252 477.205L337.236 477.184L337.227 477.173C327.849 465.328 319.177 454.374 313.843 448.202C308.193 441.828 297.599 441.828 292.655 446.078C282.767 453.868 287.711 465.2 290.536 469.45C305.368 495.655 329.381 533.9 349.157 564.355V565.063C362.576 585.602 374.583 602.6 380.939 609.683C383.058 611.807 383.058 614.64 380.939 616.057C380.233 617.473 379.527 617.473 378.114 617.473C376.702 617.473 375.289 616.765 374.583 616.057C368.226 608.974 357.632 593.393 344.919 574.27C336.444 584.186 332.913 595.518 333.619 607.558C334.325 621.723 344.213 643.678 367.52 661.384C380.939 671.3 395.065 677.674 409.19 683.34C410.464 683.913 411.741 684.483 413.02 685.054C427.513 691.524 442.248 698.102 455.988 710H445.292H441.383C429.995 702.153 418.087 696.996 405.659 691.839C403.202 690.73 400.702 689.643 398.175 688.544C386.172 683.323 373.537 677.827 361.87 668.467C354.807 663.509 344.919 655.01 337.15 642.97C329.381 631.638 325.144 620.306 324.437 608.974C323.731 594.101 328.675 579.936 339.975 567.188C320.2 536.733 297.599 499.904 282.767 474.407C278.53 467.325 277.117 459.534 278.53 453.16C279.942 447.494 282.767 443.245 287.005 439.704C295.48 432.621 311.018 433.329 320.2 443.245C327.316 451.479 340.372 468.222 353.121 484.571L353.149 484.607L353.165 484.628L353.228 484.708C356.891 489.406 360.527 494.071 363.989 498.488C371.758 506.987 378.114 515.486 382.352 521.152C386.589 511.945 395.771 504.862 405.659 504.154C415.547 502.737 425.435 507.695 431.791 514.778C436.029 507.695 444.504 502.737 453.685 502.737C463.573 502.029 474.167 506.987 483.349 516.194C485.792 518.644 487.971 521.226 490 523.826Z" fill="#222222"/>
<path d="M477 690H490V697C490 704.18 484.18 710 477 710V690Z" fill="#E5B49D"/>
<defs>
<clipPath id="clip0_1_300">
<path d="M86 196C86 176.118 102.118 160 122 160H368C387.882 160 404 176.118 404 196V710H86V196Z" fill="white"/>
</clipPath>
</defs>
</svg>
