<svg width="184" height="267" viewBox="0 0 184 267" fill="none" xmlns="http://www.w3.org/2000/svg">
<rect width="183" height="266" rx="12" fill="#BEDCEE"/>
<g clip-path="url(#clip0_1_663)">
<mask id="path-2-inside-1_1_663" fill="white">
<path d="M32.2363 73.4677C32.2363 66.0151 38.2778 59.9736 45.7304 59.9736H137.94C145.393 59.9736 151.434 66.0151 151.434 73.4677V266.134H32.2363V73.4677Z"/>
</mask>
<path d="M32.2363 73.4677C32.2363 66.0151 38.2778 59.9736 45.7304 59.9736H137.94C145.393 59.9736 151.434 66.0151 151.434 73.4677V266.134H32.2363V73.4677Z" fill="white"/>
<rect x="65.5957" y="118.823" width="52.4771" height="88.4613" rx="6.74705" fill="#2F478A"/>
<rect x="124.818" y="124.445" width="52.4771" height="77.2163" rx="6.74705" fill="#2F478A" fill-opacity="0.4"/>
<rect x="6.37109" y="124.445" width="52.4771" height="77.2163" rx="6.74705" fill="#2F478A" fill-opacity="0.4"/>
<path d="M105.11 176.959C104.66 176.555 103.916 176.246 102.817 176.898C102.772 176.813 102.721 176.735 102.659 176.656C102.356 176.282 101.78 175.903 100.746 176.243C100.358 176.367 100.02 176.603 99.6944 176.855C99.5876 176.577 99.3825 176.341 99.1014 176.173C98.6405 175.895 98.0194 175.83 97.4854 175.993C96.9936 176.148 96.1111 176.723 95.2596 177.282C94.7846 177.591 94.3406 177.886 94.0932 178.007C92.4688 178.838 91.28 179.217 90.361 179.189C89.5937 179.167 89.0682 178.891 88.3571 178.38C88.0677 178.173 87.6883 177.858 87.2864 177.524C86.4461 176.819 85.5748 176.094 84.9621 175.847C84.3242 175.592 83.3827 175.558 82.815 175.996C82.458 176.268 82.3007 176.69 82.3625 177.178C82.4468 177.855 83.1635 178.748 83.8548 179.61C84.2427 180.093 84.6418 180.591 84.7626 180.869C85.1448 181.77 84.9874 182.874 84.282 184.149C83.6778 185.244 82.829 186.199 82.3231 186.766C82.2782 186.814 82.2388 186.859 82.2051 186.898C82.0871 187.036 82.0955 187.241 82.2304 187.364C82.2922 187.421 82.3709 187.449 82.4496 187.449C82.5424 187.449 82.6295 187.409 82.6969 187.339C82.7335 187.3 82.7728 187.255 82.815 187.207C83.9026 185.988 86.4461 183.135 85.3725 180.613C85.2179 180.254 84.8272 179.765 84.372 179.2C83.7958 178.484 83.082 177.591 83.0201 177.097C82.9892 176.839 83.0539 176.645 83.2225 176.516C83.5344 176.274 84.2089 176.246 84.7233 176.454C85.2432 176.664 86.1088 177.386 86.876 178.024C87.2864 178.366 87.6714 178.689 87.9805 178.911C89.3886 179.928 90.6758 180.498 94.4024 178.591C94.675 178.451 95.1162 178.164 95.6249 177.83C96.3641 177.347 97.2831 176.743 97.6878 176.619C98.0363 176.51 98.4719 176.558 98.767 176.735C98.9609 176.85 99.0761 177.004 99.1099 177.187C99.1183 177.24 99.1183 177.305 99.1042 177.372C99.0986 177.389 99.0902 177.411 99.0902 177.428C98.9328 177.996 98.1009 178.959 97.2465 179.681C96.173 180.596 95.223 181.217 93.8544 181.896C93.6913 181.981 93.6267 182.177 93.7054 182.34C93.7897 182.503 93.9864 182.568 94.1495 182.489C95.5659 181.781 96.558 181.135 97.6737 180.183C97.8508 180.035 98.4691 179.492 99.0031 178.838C99.3628 178.394 99.5961 178.012 99.7029 177.673C99.7787 177.616 99.8574 177.557 99.9305 177.496C100.279 177.226 100.608 176.973 100.951 176.858C101.769 176.594 102.052 176.945 102.148 177.06C102.241 177.176 102.297 177.299 102.325 177.442C102.364 177.661 102.331 177.914 102.215 178.209C102.097 178.51 101.903 178.838 101.648 179.158C100.706 180.341 99.6242 181.295 97.6372 182.677C97.4882 182.784 97.4517 182.986 97.5529 183.135C97.6175 183.228 97.7215 183.275 97.8255 183.275C97.8901 183.275 97.9576 183.259 98.0138 183.219C100.051 181.798 101.178 180.81 102.159 179.574C102.733 178.852 103.014 178.158 102.997 177.563C103.691 177.097 104.242 177.058 104.675 177.445C105.211 177.928 105.026 178.751 104.722 179.184C103.767 180.534 102.232 182.051 100.167 183.688C99.1801 184.472 98.3651 185.003 97.6456 185.474C96.3866 186.297 95.3917 186.949 94.3715 188.395C94.2647 188.544 94.3012 188.752 94.4502 188.856C94.5064 188.895 94.5738 188.917 94.6385 188.917C94.7453 188.917 94.8464 188.87 94.9083 188.777C95.8582 187.435 96.7603 186.848 98.0082 186.028C98.7389 185.547 99.5652 185.008 100.58 184.208C102.693 182.531 104.267 180.97 105.262 179.568C105.504 179.226 105.658 178.762 105.675 178.335C105.689 177.777 105.495 177.302 105.107 176.954L105.11 176.959Z" fill="white"/>
<path d="M81.7498 166.54C80.9179 166.754 79.9315 165.953 79.3553 165.425C78.7398 164.861 78.2227 164.167 77.9361 163.378C77.3908 161.87 77.7084 159.929 79.0659 158.941C80.2294 158.095 82.4833 158.053 83.141 159.587C83.2815 159.912 83.3152 160.322 83.0314 160.583C82.7138 160.876 82.2248 160.842 81.8566 160.69C81.0416 160.353 80.4008 159.525 80.0636 158.736C79.271 156.89 79.9708 154.714 81.6571 153.638C82.1124 153.346 81.6908 152.619 81.2327 152.911C79.3047 154.141 78.3885 156.582 79.1726 158.755C79.5492 159.797 80.2743 160.803 81.2664 161.336C82.2585 161.87 83.6384 161.732 84.0206 160.553C84.3467 159.55 83.6159 158.508 82.7897 158.011C81.9072 157.48 80.7943 157.39 79.8106 157.666C77.6719 158.264 76.5927 160.539 76.8878 162.636C77.0564 163.838 77.6831 164.942 78.5291 165.799C79.375 166.655 80.7128 167.672 81.9718 167.352C82.4974 167.217 82.2754 166.405 81.747 166.54H81.7498Z" fill="#BEDCEE"/>
<path d="M106.08 159.272C106.507 158.699 106.912 157.977 106.628 157.247C106.344 156.517 105.546 156.301 104.829 156.27C104.177 156.242 103.432 156.419 103.011 156.952C102.626 157.435 102.496 158.185 102.862 158.719C103.376 159.474 104.396 159.303 105.18 159.269C105.408 159.261 105.602 159.084 105.602 158.848C105.602 158.626 105.408 158.418 105.18 158.427C104.868 158.441 104.554 158.46 104.239 158.463C104.18 158.463 104.118 158.463 104.059 158.46C104.045 158.46 103.885 158.441 103.949 158.452C103.885 158.441 103.82 158.424 103.758 158.404C103.691 158.382 103.803 158.429 103.739 158.396C103.725 158.387 103.626 158.331 103.654 158.351C103.671 158.362 103.595 158.289 103.578 158.275C103.536 158.241 103.618 158.348 103.573 158.267C103.562 158.247 103.55 158.227 103.539 158.208C103.528 158.188 103.514 158.137 103.539 158.216C103.531 158.194 103.525 158.174 103.517 158.151C103.508 158.129 103.505 158.106 103.5 158.084C103.469 157.989 103.5 158.16 103.494 158.059C103.494 158.011 103.489 157.966 103.494 157.918C103.494 157.918 103.505 157.803 103.497 157.868C103.489 157.924 103.503 157.848 103.505 157.834C103.519 157.781 103.533 157.73 103.55 157.677C103.556 157.66 103.581 157.604 103.55 157.677C103.564 157.649 103.576 157.623 103.593 157.595C103.604 157.573 103.691 157.449 103.637 157.517C103.666 157.48 103.699 157.444 103.733 157.41C103.753 157.393 103.772 157.373 103.792 157.357C103.747 157.393 103.803 157.348 103.809 157.345C103.868 157.306 103.93 157.272 103.992 157.239C104.107 157.177 103.955 157.25 104.028 157.222C104.053 157.211 104.082 157.202 104.11 157.194C104.171 157.174 104.233 157.157 104.295 157.143C104.323 157.138 104.351 157.132 104.379 157.126C104.388 157.126 104.461 157.115 104.396 157.124C104.469 157.115 104.542 157.109 104.616 157.107C104.897 157.098 105.071 157.115 105.304 157.171C105.369 157.185 105.428 157.208 105.49 157.225C105.498 157.225 105.565 157.253 105.509 157.23C105.535 157.241 105.56 157.256 105.585 157.267C105.608 157.278 105.723 157.354 105.675 157.314C105.698 157.331 105.717 157.351 105.737 157.371C105.742 157.376 105.816 157.469 105.779 157.416C105.796 157.438 105.807 157.463 105.824 157.489C105.875 157.57 105.824 157.452 105.846 157.545C105.855 157.573 105.861 157.601 105.869 157.626C105.897 157.727 105.875 157.578 105.877 157.685C105.877 157.758 105.88 157.831 105.872 157.904C105.875 157.882 105.886 157.845 105.866 157.921C105.855 157.963 105.846 158.005 105.832 158.047C105.751 158.311 105.54 158.595 105.355 158.839C105.217 159.022 105.324 159.311 105.506 159.415C105.723 159.542 105.948 159.446 106.083 159.264L106.08 159.272Z" fill="#DB504A"/>
<path d="M82.8937 149.499C83.3208 148.926 83.7256 148.204 83.4417 147.474C83.1578 146.744 82.3597 146.527 81.643 146.497C80.991 146.468 80.2462 146.645 79.8247 147.179C79.4396 147.662 79.3104 148.412 79.6757 148.945C80.19 149.701 81.2102 149.53 81.9943 149.496C82.222 149.487 82.4159 149.311 82.4159 149.075C82.4159 148.853 82.222 148.645 81.9943 148.653C81.6824 148.667 81.3676 148.687 81.0528 148.69C80.9938 148.69 80.932 148.69 80.873 148.687C80.8589 148.687 80.6987 148.667 80.7634 148.679C80.6987 148.667 80.6341 148.651 80.5722 148.631C80.5048 148.608 80.6172 148.656 80.5526 148.622C80.5385 148.614 80.4402 148.558 80.4683 148.578C80.4851 148.589 80.4092 148.516 80.3924 148.502C80.3502 148.468 80.4317 148.575 80.3868 148.493C80.3755 148.474 80.3643 148.454 80.353 148.434C80.3418 148.415 80.3277 148.364 80.353 148.443C80.3446 148.42 80.339 148.401 80.3305 148.378C80.3221 148.356 80.3193 148.333 80.3137 148.311C80.2828 148.215 80.3137 148.387 80.3081 148.285C80.3081 148.238 80.3024 148.193 80.3081 148.145C80.3081 148.145 80.3193 148.03 80.3109 148.095C80.3024 148.151 80.3165 148.075 80.3193 148.061C80.3334 148.007 80.3474 147.957 80.3643 147.904C80.3699 147.887 80.3952 147.831 80.3643 147.904C80.3783 147.875 80.3896 147.85 80.4064 147.822C80.4177 147.8 80.5048 147.676 80.4514 147.743C80.4795 147.707 80.5132 147.67 80.5469 147.637C80.5666 147.62 80.5863 147.6 80.606 147.583C80.561 147.62 80.6172 147.575 80.6228 147.572C80.6819 147.533 80.7437 147.499 80.8055 147.465C80.9207 147.404 80.769 147.477 80.842 147.449C80.8673 147.437 80.8954 147.429 80.9235 147.42C80.9854 147.401 81.0472 147.384 81.109 147.37C81.1371 147.364 81.1652 147.359 81.1933 147.353C81.2018 147.353 81.2749 147.342 81.2102 147.35C81.2833 147.342 81.3564 147.336 81.4294 147.333C81.7105 147.325 81.8847 147.342 82.118 147.398C82.1826 147.412 82.2416 147.435 82.3035 147.451C82.3119 147.451 82.3794 147.479 82.3231 147.457C82.3484 147.468 82.3737 147.482 82.399 147.494C82.4215 147.505 82.5367 147.581 82.489 147.541C82.5114 147.558 82.5311 147.578 82.5508 147.597C82.5564 147.603 82.6295 147.696 82.5929 147.642C82.6098 147.665 82.621 147.69 82.6379 147.715C82.6885 147.797 82.6379 147.679 82.6604 147.772C82.6688 147.8 82.6744 147.828 82.6829 147.853C82.711 147.954 82.6885 147.805 82.6913 147.912C82.6913 147.985 82.6941 148.058 82.6857 148.131C82.6885 148.109 82.6997 148.072 82.6801 148.148C82.6688 148.19 82.6604 148.232 82.6463 148.274C82.5648 148.538 82.3541 148.822 82.1686 149.066C82.0309 149.249 82.1377 149.538 82.3203 149.642C82.5367 149.768 82.7616 149.673 82.8965 149.49L82.8937 149.499Z" fill="#DB504A"/>
<path d="M106.178 149.055C104.956 149.223 103.68 148.999 102.581 148.443C102.378 148.339 102.123 148.389 102.005 148.594C101.895 148.783 101.951 149.066 102.156 149.17C103.477 149.839 104.942 150.072 106.403 149.867C106.628 149.836 106.751 149.546 106.698 149.347C106.631 149.103 106.406 149.021 106.178 149.052V149.055Z" fill="#E3B505"/>
<path d="M104.666 151.158V147.718C104.666 147.176 103.823 147.176 103.823 147.718V151.158C103.823 151.7 104.666 151.7 104.666 151.158Z" fill="#E3B505"/>
<path d="M103.002 150.695C103.311 150.597 103.564 150.42 103.815 150.215C104.051 150.021 104.278 149.819 104.503 149.614C104.953 149.204 105.386 148.777 105.799 148.333C105.948 148.173 105.97 147.895 105.799 147.738C105.627 147.581 105.363 147.567 105.203 147.738C104.809 148.159 104.402 148.564 103.98 148.954C103.772 149.145 103.559 149.333 103.342 149.516C103.289 149.56 103.238 149.603 103.185 149.648C103.129 149.695 103.224 149.619 103.165 149.664C103.143 149.681 103.118 149.701 103.092 149.718C103.039 149.757 102.983 149.791 102.924 149.824C102.915 149.83 102.822 149.875 102.853 149.861C102.881 149.85 102.78 149.886 102.78 149.886C102.57 149.954 102.415 150.181 102.485 150.406C102.553 150.616 102.777 150.771 103.005 150.701L103.002 150.695Z" fill="#E3B505"/>
<path d="M83.9672 171.199C82.7447 171.368 81.4688 171.143 80.3699 170.587C80.1675 170.483 79.9118 170.534 79.7938 170.739C79.6841 170.927 79.7404 171.21 79.9455 171.314C81.2664 171.983 82.7307 172.216 84.1921 172.011C84.4169 171.98 84.5406 171.691 84.4872 171.491C84.4197 171.247 84.1949 171.166 83.9672 171.196V171.199Z" fill="#E3B505"/>
<path d="M82.4552 173.303V169.862C82.4552 169.32 81.6121 169.32 81.6121 169.862V173.303C81.6121 173.845 82.4552 173.845 82.4552 173.303Z" fill="#E3B505"/>
<path d="M80.7915 172.839C81.1006 172.741 81.3535 172.564 81.6037 172.359C81.8397 172.165 82.0674 171.963 82.2922 171.758C82.7419 171.348 83.1747 170.921 83.5878 170.477C83.7368 170.317 83.7593 170.039 83.5878 169.882C83.4164 169.725 83.1522 169.711 82.992 169.882C82.5986 170.303 82.1911 170.708 81.7695 171.098C81.5615 171.289 81.3479 171.477 81.1315 171.66C81.0781 171.705 81.0275 171.747 80.9741 171.792C80.9179 171.84 81.0135 171.764 80.9545 171.809C80.932 171.826 80.9067 171.845 80.8814 171.862C80.828 171.901 80.7718 171.935 80.7128 171.969C80.7043 171.974 80.6116 172.019 80.6425 172.005C80.6706 171.994 80.5694 172.031 80.5694 172.031C80.3587 172.098 80.2041 172.325 80.2743 172.55C80.3418 172.761 80.5666 172.915 80.7943 172.845L80.7915 172.839Z" fill="#E3B505"/>
<path d="M88.863 157.095C87.7192 156.537 87.0503 155.155 87.8597 154.02C88.329 153.363 88.9951 153.526 89.6921 153.554C90.2907 153.577 90.8331 153.383 91.2772 152.984C91.6763 152.624 91.9629 152.102 91.9039 151.554C91.8561 151.094 91.5751 150.72 91.2744 150.383C90.3666 149.361 89.3352 148.409 88.6466 147.21C88.4555 146.878 88.2672 146.272 88.6129 145.96C88.8012 145.789 89.2902 145.831 89.5797 145.887C90.7404 146.115 91.8393 146.811 92.6262 147.684C93.607 148.774 94.1185 150.327 94.2422 151.768C94.304 152.476 94.1495 153.2 94.2619 153.902C94.3743 154.604 94.9139 154.961 95.5856 154.891C98.0307 154.632 98.3117 151.293 97.803 149.457C97.3899 147.965 96.4877 146.648 95.6643 145.359C94.9589 144.253 94.2619 143.23 93.1546 142.486C92.6206 142.127 92.0416 141.843 91.561 141.405C91.0805 140.967 90.3778 140.324 90.302 139.652C90.2261 138.981 90.9203 138.321 91.5948 138.411C91.9601 138.459 92.3311 138.669 92.5278 138.931C92.8314 139.329 92.955 139.905 93.1546 140.357C93.43 140.975 93.7279 141.607 94.1382 142.146C94.8802 143.118 96.3613 143.843 97.4236 142.891C97.7721 142.576 98.0728 141.717 98.6658 141.986C99.3347 142.29 99.0846 143.096 98.6237 143.461C98.3595 143.671 98.0026 143.727 97.7609 143.972C97.5192 144.216 97.4377 144.556 97.4658 144.884C97.5248 145.561 98.011 146.092 98.5028 146.513C99.0312 146.966 99.5427 147.401 99.9249 147.991C100.307 148.58 100.583 149.252 100.65 149.954C100.717 150.656 100.532 151.324 100.268 151.993C100.004 152.661 99.6691 153.332 99.2785 153.95C99.0537 154.304 98.8092 154.661 98.4944 154.939C98.0869 155.301 98.6855 155.893 99.0902 155.534C99.9755 154.748 100.546 153.518 100.987 152.445C101.294 151.706 101.541 150.967 101.507 150.161C101.479 149.451 101.28 148.763 100.97 148.125C100.642 147.454 100.169 146.842 99.6101 146.348C99.1576 145.949 98.4213 145.516 98.3089 144.868C98.2414 144.469 98.6518 144.441 98.9188 144.275C99.2307 144.084 99.5033 143.814 99.6832 143.494C100.029 142.882 100.009 142.124 99.5258 141.593C99.093 141.118 98.3651 140.919 97.7918 141.253C97.2466 141.571 97.0498 142.405 96.3697 142.48C94.9645 142.638 94.2085 140.725 93.7897 139.72C93.6014 139.265 93.4665 138.759 93.1546 138.369C92.8679 138.012 92.4295 137.754 91.9938 137.633C90.5268 137.229 89.0288 138.692 89.5656 140.166C89.8214 140.868 90.4172 141.503 90.9624 141.995C91.4711 142.458 92.0697 142.775 92.6431 143.152C93.8347 143.932 94.5148 145.115 95.2624 146.292C96.083 147.586 97.0105 148.979 97.1538 150.546C97.2381 151.476 97.1398 152.641 96.5636 153.414C96.4119 153.616 96.2236 153.782 95.9959 153.894C95.7879 153.998 95.3495 154.175 95.1556 153.961C94.9813 153.77 95.0685 153.29 95.0797 153.063C95.0994 152.667 95.1162 152.276 95.0881 151.88C94.9785 150.33 94.4895 148.721 93.5396 147.474C92.7442 146.429 91.5891 145.626 90.3441 145.216C89.4504 144.921 88.0873 144.764 87.6939 145.873C87.2442 147.142 88.3094 148.229 89.026 149.142C89.4869 149.729 90.0041 150.257 90.5127 150.799C90.7516 151.055 91.1142 151.394 91.0636 151.771C90.9961 152.271 90.4116 152.672 89.945 152.709C89.2059 152.765 88.5286 152.507 87.8372 152.914C86.654 153.61 86.3786 155.278 86.9772 156.438C87.292 157.048 87.8232 157.525 88.4358 157.823C88.922 158.059 89.3492 157.334 88.8602 157.095H88.863Z" fill="white"/>
<path d="M86.3758 144.606C85.4315 144.761 84.3635 144.269 83.8576 143.424C83.7761 143.287 83.6216 143.051 83.7874 142.938C84.0094 142.789 84.3298 142.767 84.5884 142.781C85.1701 142.812 85.7069 143.132 86.1229 143.52C86.3308 143.713 86.5557 143.935 86.6428 144.213C86.6793 144.331 86.6877 144.43 86.6625 144.528C86.6372 144.635 86.5978 144.705 86.5247 144.753C86.0723 145.047 86.4938 145.775 86.9491 145.48C87.3089 145.247 87.5056 144.862 87.5168 144.438C87.5281 144.014 87.337 143.635 87.084 143.315C86.581 142.68 85.8193 142.141 85.0155 141.989C84.2118 141.837 82.9021 141.995 82.8712 143.025C82.8571 143.452 83.1073 143.851 83.3602 144.174C83.5907 144.469 83.8717 144.719 84.1865 144.924C84.9031 145.387 85.7631 145.553 86.6006 145.418C86.8255 145.382 86.9519 145.104 86.8957 144.899C86.8311 144.66 86.6034 144.567 86.3758 144.604V144.606Z" fill="white"/>
<path d="M105.726 166.057C105.726 164.03 104.079 162.387 102.052 162.387C102.039 162.387 102.026 162.386 102.013 162.384C101.383 162.391 100.792 162.554 100.276 162.842C100.167 162.903 100.034 162.901 99.9269 162.838C99.8195 162.775 99.7535 162.66 99.7535 162.535V160.682C99.7189 160.705 99.6839 160.727 99.6481 160.748C99.2957 160.956 98.848 161.134 98.3364 161.28C97.3121 161.571 95.9872 161.743 94.5484 161.743C93.1096 161.743 91.785 161.571 90.7606 161.28C90.249 161.134 89.8011 160.956 89.4487 160.748C89.413 160.727 89.3781 160.705 89.3436 160.682V173.133C90.2041 173.645 92.022 174.546 94.4803 174.561H94.4806C97.011 174.579 98.8888 173.648 99.7535 173.133V169.576C99.7535 169.451 99.8196 169.336 99.9272 169.273C100.035 169.21 100.168 169.209 100.277 169.27C100.8 169.563 101.404 169.728 102.052 169.728C104.079 169.728 105.726 168.084 105.726 166.057ZM104.124 166.057C104.124 165.097 103.339 164.313 102.378 164.313C101.417 164.313 100.633 165.094 100.633 166.057C100.633 167.02 101.415 167.801 102.378 167.801C103.339 167.801 104.124 167.017 104.124 166.057ZM104.826 166.057C104.826 167.405 103.727 168.503 102.378 168.503C101.026 168.503 99.9305 167.408 99.9305 166.057C99.9305 164.706 101.03 163.611 102.378 163.611C103.727 163.611 104.826 164.709 104.826 166.057ZM106.428 166.057C106.428 168.472 104.466 170.43 102.052 170.43C101.489 170.43 100.951 170.324 100.456 170.13V173.331C100.456 173.452 100.394 173.565 100.291 173.629C99.4616 174.146 97.3686 175.283 94.4762 175.263V175.263L94.4759 175.263L94.4757 175.263V175.263C91.6645 175.245 89.6382 174.146 88.8068 173.629C88.7037 173.565 88.641 173.452 88.641 173.331V159.828L88.6424 159.797C88.6557 159.645 88.7675 159.517 88.9198 159.485C89.0823 159.45 89.2466 159.534 89.3137 159.686C89.3685 159.81 89.5154 159.971 89.8066 160.143C90.0908 160.311 90.4776 160.469 90.9527 160.604C91.902 160.874 93.16 161.041 94.5484 161.041C95.9368 161.041 97.1951 160.874 98.1443 160.604C98.6195 160.469 99.0062 160.311 99.2905 160.143C99.5816 159.971 99.7286 159.81 99.7834 159.686C99.8505 159.534 100.015 159.45 100.177 159.485C100.34 159.519 100.456 159.662 100.456 159.828V161.982C100.952 161.787 101.49 161.681 102.052 161.681C102.068 161.681 102.084 161.683 102.099 161.685C104.492 161.71 106.428 163.657 106.428 166.057Z" fill="white"/>
<path d="M88.7984 160.272C88.7281 160.185 88.6691 160.089 88.6269 159.991C88.5651 159.859 88.5342 159.713 88.5342 159.564C88.5342 158.104 91.561 157.34 94.5513 157.34C97.5416 157.34 100.568 158.104 100.568 159.564C100.568 159.713 100.538 159.856 100.473 159.994C100.431 160.086 100.375 160.182 100.304 160.269L99.6748 159.766C99.7029 159.73 99.7254 159.696 99.7422 159.66C99.7591 159.626 99.7647 159.595 99.7647 159.564C99.7647 159 97.6878 158.143 94.5542 158.143C91.4205 158.143 89.3436 158.997 89.3436 159.564C89.3436 159.595 89.3492 159.626 89.3633 159.657C89.3801 159.696 89.4026 159.733 89.4307 159.766L88.8012 160.269L88.7984 160.272Z" fill="white"/>
<path d="M99.6607 160.384C98.7782 160.943 97.1088 161.816 94.9026 161.895C92.362 161.988 90.4397 160.977 89.5347 160.409C90.5015 159.87 92.2636 159.075 94.5542 159.061C96.8896 159.044 98.6883 159.85 99.6635 160.387L99.6607 160.384Z" fill="white"/>
</g>
<path d="M28.488 73.4677C28.488 63.945 36.2077 56.2253 45.7304 56.2253H137.94C147.463 56.2253 155.183 63.945 155.183 73.4677L147.686 73.4677C147.686 68.0853 143.323 63.722 137.94 63.722H45.7304C40.348 63.722 35.9847 68.0853 35.9847 73.4677L28.488 73.4677ZM151.434 266.134H32.2363H151.434ZM28.488 266.134V73.4677C28.488 63.945 36.2077 56.2253 45.7304 56.2253L45.7304 63.722C40.348 63.722 35.9847 68.0853 35.9847 73.4677V266.134H28.488ZM137.94 56.2253C147.463 56.2253 155.183 63.945 155.183 73.4677V266.134H147.686V73.4677C147.686 68.0853 143.323 63.722 137.94 63.722V56.2253Z" fill="black" mask="url(#path-2-inside-1_1_663)"/>
<path d="M169.712 189.928L178.67 192.728L183.67 199.099V201.511V260.391L179.344 266.134H170.921H166.912L159.634 260.473L139.478 251.515L125.481 237.518L123.242 226.88L125.481 218.482L129.96 212.883L106.445 177.051V168.653L112.044 164.174L117.643 165.293L143.957 197.767L145.637 194.407L149.556 191.048H156.835L162.434 196.087L164.673 192.168L169.712 189.928Z" fill="#E5B49D"/>
<path fill-rule="evenodd" clip-rule="evenodd" d="M183 196.251V199V201.41C181.468 199.357 179.928 197.311 178.142 195.514C176.559 193.922 173.394 191.268 169.437 191.268C166.008 191.534 163.107 194.187 163.107 196.575C163.107 197.371 162.579 198.167 161.788 198.167C160.997 198.167 159.942 197.902 159.942 197.106C158.623 193.922 155.194 191.799 151.765 192.064C148.336 192.33 145.434 195.249 144.907 198.698C144.907 199.229 144.379 200.025 143.852 200.025C143.324 200.025 142.796 200.025 142.269 199.494C141.478 198.433 138.049 193.922 133.564 188.35C131.136 185.351 128.476 181.981 125.953 178.784L125.947 178.776L125.944 178.772C122.441 174.334 119.203 170.23 117.211 167.918C115.1 165.53 111.144 165.53 109.297 167.122C105.605 170.041 107.451 174.286 108.506 175.879C114.045 185.696 123.014 200.025 130.399 211.434V211.7C135.411 219.395 139.895 225.763 142.269 228.416C143.06 229.212 143.06 230.274 142.269 230.804C142.005 231.335 141.741 231.335 141.214 231.335C140.686 231.335 140.159 231.07 139.895 230.804C137.521 228.151 133.564 222.313 128.817 215.149C125.651 218.864 124.332 223.109 124.596 227.62C124.86 232.927 128.553 241.153 137.257 247.786C142.269 251.501 147.544 253.889 152.82 256.012C153.296 256.227 153.772 256.44 154.25 256.654C159.663 259.078 165.166 261.542 170.297 266H166.303H164.843C160.59 263.06 156.142 261.128 151.501 259.196C150.583 258.781 149.65 258.373 148.706 257.962C144.223 256.006 139.504 253.946 135.147 250.44C132.509 248.582 128.817 245.398 125.915 240.887C123.014 236.642 121.431 232.396 121.167 228.151C120.903 222.579 122.75 217.272 126.97 212.496C119.585 201.086 111.144 187.288 105.605 177.736C104.022 175.082 103.495 172.164 104.022 169.776C104.55 167.653 105.605 166.061 107.187 164.734C110.353 162.081 116.156 162.346 119.585 166.061C122.242 169.146 127.118 175.419 131.88 181.544L131.89 181.557L131.896 181.565L131.919 181.595C133.288 183.355 134.646 185.103 135.938 186.758C138.84 189.942 141.214 193.126 142.796 195.249C144.379 191.799 147.808 189.146 151.501 188.88C155.194 188.35 158.887 190.207 161.26 192.86C162.843 190.207 166.008 188.35 169.437 188.35C173.13 188.084 177.087 189.942 180.516 193.391C181.428 194.309 182.242 195.276 183 196.251Z" fill="#222222"/>
<path d="M178.797 258.637H183.67V261.261C183.67 263.952 181.488 266.134 178.797 266.134V258.637Z" fill="#E5B49D"/>
<defs>
<clipPath id="clip0_1_663">
<path d="M32.2363 73.4677C32.2363 66.0151 38.2778 59.9736 45.7304 59.9736H137.94C145.393 59.9736 151.434 66.0151 151.434 73.4677V266.134H32.2363V73.4677Z" fill="white"/>
</clipPath>
</defs>
</svg>
