<svg width="118" height="27" viewBox="0 0 118 27" fill="none" xmlns="http://www.w3.org/2000/svg">
<path d="M104.744 6.70265C100.982 6.70265 97.9472 9.73742 97.9472 13.4998C97.9472 17.2622 100.982 20.297 104.744 20.297C108.507 20.297 111.542 17.2622 111.542 13.4998C111.542 9.73742 108.507 6.70265 104.744 6.70265ZM104.744 17.9189C102.313 17.9189 100.325 15.9371 100.325 13.4998C100.325 11.0625 102.307 9.08077 104.744 9.08077C107.182 9.08077 109.163 11.0625 109.163 13.4998C109.163 15.9371 107.176 17.9189 104.744 17.9189ZM113.405 6.42461C113.405 7.30605 112.695 8.01003 111.82 8.01003C110.938 8.01003 110.234 7.30014 110.234 6.42461C110.234 5.54908 110.944 4.83919 111.82 4.83919C112.695 4.83919 113.405 5.54908 113.405 6.42461ZM117.907 8.03369C117.806 5.90994 117.321 4.02873 115.765 2.47881C114.215 0.928887 112.334 0.443797 110.21 0.337314C108.022 0.213083 101.461 0.213083 99.2723 0.337314C97.1544 0.437881 95.2732 0.922972 93.7174 2.47289C92.1616 4.02282 91.6824 5.90402 91.5759 8.02777C91.4517 10.2166 91.4517 16.7772 91.5759 18.966C91.6765 21.0897 92.1616 22.9709 93.7174 24.5209C95.2732 26.0708 97.1485 26.5559 99.2723 26.6623C101.461 26.7866 108.022 26.7866 110.21 26.6623C112.334 26.5618 114.215 26.0767 115.765 24.5209C117.315 22.9709 117.8 21.0897 117.907 18.966C118.031 16.7772 118.031 10.2225 117.907 8.03369ZM115.079 21.3145C114.618 22.474 113.724 23.3673 112.559 23.8346C110.814 24.5268 106.673 24.367 104.744 24.367C102.816 24.367 98.6689 24.5209 96.9296 23.8346C95.7702 23.3732 94.8769 22.4799 94.4095 21.3145C93.7174 19.5694 93.8771 15.4284 93.8771 13.4998C93.8771 11.5713 93.7233 7.42437 94.4095 5.68514C94.871 4.52566 95.7642 3.63238 96.9296 3.16504C98.6748 2.47289 102.816 2.63262 104.744 2.63262C106.673 2.63262 110.82 2.47881 112.559 3.16504C113.719 3.62646 114.612 4.51974 115.079 5.68514C115.771 7.43028 115.612 11.5713 115.612 13.4998C115.612 15.4284 115.771 19.5753 115.079 21.3145Z" fill="white"/>
<g clip-path="url(#clip0_1_205)">
<path d="M61.7683 11.6635L70.7043 1.5H68.5875L60.8251 10.323L54.6299 1.5H47.4827L56.8531 14.8432L47.4827 25.4999H49.5995L57.7915 16.1805L64.3355 25.4999H71.4827M50.3635 3.06189H53.6155L68.5859 24.0148H65.3331" fill="white"/>
</g>
<path d="M22.2193 6.25746C22.0484 6.16916 21.8821 6.07236 21.7209 5.96742C21.2523 5.65758 20.8226 5.2925 20.4411 4.88004C19.4866 3.78791 19.1301 2.67996 18.9988 1.90424H19.0041C18.8944 1.26035 18.9397 0.84375 18.9466 0.84375H14.5992V17.6544C14.5992 17.8801 14.5992 18.1032 14.5897 18.3236C14.5897 18.351 14.587 18.3763 14.5855 18.4059C14.5855 18.418 14.5855 18.4307 14.5828 18.4433C14.5828 18.4465 14.5828 18.4496 14.5828 18.4528C14.537 19.056 14.3436 19.6386 14.0198 20.1495C13.6959 20.6604 13.2515 21.0839 12.7255 21.3827C12.1774 21.6946 11.5574 21.8582 10.9267 21.8573C8.90121 21.8573 7.25959 20.2057 7.25959 18.1659C7.25959 16.1262 8.90121 14.4745 10.9267 14.4745C11.3102 14.4742 11.6912 14.5345 12.0558 14.6533L12.0611 10.2268C10.9544 10.0838 9.83003 10.1718 8.75903 10.4851C7.68802 10.7984 6.69356 11.3303 5.8384 12.0472C5.08908 12.6982 4.45912 13.4751 3.97688 14.3427C3.79336 14.6591 3.10096 15.9305 3.01711 17.994C2.96438 19.1653 3.31612 20.3787 3.48381 20.8802V20.8907C3.58928 21.186 3.99797 22.1938 4.66401 23.0433C5.20107 23.7248 5.8356 24.3234 6.54715 24.82V24.8094L6.5577 24.82C8.66233 26.2501 10.9958 26.1562 10.9958 26.1562C11.3998 26.1399 12.7529 26.1562 14.2896 25.428C15.994 24.6206 16.9643 23.4178 16.9643 23.4178C17.5842 22.699 18.0771 21.8799 18.4219 20.9957C18.8153 19.9615 18.9466 18.7212 18.9466 18.2255V9.30709C18.9993 9.33873 19.7017 9.80332 19.7017 9.80332C19.7017 9.80332 20.7137 10.452 22.2926 10.8744C23.4253 11.1749 24.9514 11.2382 24.9514 11.2382V6.92244C24.4167 6.98045 23.3309 6.8117 22.2193 6.25746Z" fill="white"/>
<defs>
<clipPath id="clip0_1_205">
<rect width="24" height="24" fill="white" transform="translate(47.4827 1.5)"/>
</clipPath>
</defs>
</svg>
