<svg width="105" height="37" viewBox="0 0 105 37" fill="none" xmlns="http://www.w3.org/2000/svg">
<g clip-path="url(#clip0_1_498)">
<path d="M12.6158 6.32677C12.3446 6.02657 12.0132 5.89148 11.6215 5.89148H9.57274C9.19613 5.89148 8.86471 6.02657 8.59354 6.29675C8.30732 6.56694 8.17174 7.21237 8.17174 7.57262C8.17174 7.93286 8.23199 8.03793 8.35251 8.20304H7.44864C7.32812 8.20304 7.23773 8.23306 7.14735 8.2931C7.05696 8.35314 7.01177 8.4432 7.01177 8.56329C7.01177 8.68337 7.05696 8.78844 7.14735 8.84848C7.23773 8.90852 7.32812 8.93854 7.44864 8.93854H11.8776C12.1337 8.93854 12.2693 8.80345 12.2693 8.54827C12.2693 8.2931 12.2392 8.39817 12.1638 8.30811C12.0885 8.21805 11.9981 8.17302 11.8776 8.17302H9.49742C9.28651 8.17302 9.09067 8.11298 8.92496 8.00791C8.75925 7.90284 8.68393 7.73773 8.68393 7.52758C8.68393 7.31744 8.75925 6.83712 8.92496 6.73205C9.09067 6.61197 9.28651 6.56694 9.51248 6.56694H11.8927C12.0735 6.56694 12.2241 6.64199 12.3446 6.77708C12.4651 6.92718 12.5103 7.09229 12.5103 7.28742C12.5103 7.48256 12.5405 7.42252 12.5857 7.48256C12.6308 7.5426 12.6911 7.57262 12.7664 7.57262C12.8418 7.57262 12.902 7.5426 12.9472 7.48256C12.9924 7.42252 13.0225 7.36247 13.0225 7.28742C13.0225 6.91217 12.8869 6.58195 12.6158 6.28174V6.32677ZM23.4472 14.072C23.0706 14.072 22.7392 13.997 22.4379 13.8619C22.1517 13.7118 21.8956 13.5316 21.6847 13.3065C21.4737 13.0813 21.3231 12.8262 21.2176 12.526C21.1122 12.2258 21.0519 11.9406 21.0519 11.6404V1.43347C21.0519 1.28337 21.0067 1.14828 20.8862 1.02819C20.7808 0.923123 20.6452 0.863083 20.4946 0.863083C20.3439 0.863083 20.2083 0.923123 20.1029 1.02819C19.9974 1.13327 19.9522 1.25335 19.9522 1.40345V11.6254C19.9522 12.0156 19.8769 12.3609 19.7112 12.6611C19.5605 12.9613 19.3346 13.2164 19.0785 13.4266C18.8073 13.6367 18.506 13.7868 18.1746 13.8919C17.8432 13.997 17.4816 14.057 17.1201 14.057H3.81808C3.14017 14.057 2.58278 13.8318 2.13085 13.3815C1.67891 12.9312 1.42281 12.3609 1.39268 11.6704V11.115C1.39268 11.0099 1.39268 10.9199 1.39268 10.8298C1.39268 10.7398 1.39268 10.6347 1.39268 10.5146C1.39268 10.3945 1.33242 10.2594 1.22697 10.1544C1.10646 10.0343 0.98594 9.98925 0.835294 9.98925C0.684648 9.98925 0.564132 10.0493 0.45868 10.1544C0.353228 10.2744 0.292969 10.3945 0.292969 10.5146V11.6254C0.292969 12.2258 0.413486 12.7961 0.639454 13.3065C0.865423 13.8318 1.18178 14.2821 1.57346 14.6874C1.96514 15.0777 2.43214 15.3929 2.9594 15.6181C3.48666 15.8432 4.04405 15.9633 4.64663 15.9633H16.6832C17.4967 15.9633 18.2499 15.7531 18.9128 15.3479C19.5756 14.9276 20.0878 14.3722 20.4494 13.6968C20.7958 14.4323 21.2628 14.9876 21.8504 15.3779C22.3475 15.7081 22.9199 15.9032 23.5828 15.9483C23.628 15.9483 23.6581 15.9483 23.7033 15.9483C23.7937 15.9483 23.8841 15.9483 23.9895 15.9483H24.9537V14.027H23.4171L23.4472 14.072Z" fill="white"/>
<path d="M12.707 6.25172C12.4057 5.93651 12.0441 5.7714 11.6223 5.7714H9.57355C9.16681 5.7714 8.80526 5.9215 8.50397 6.20669C8.20268 6.49189 8.05203 7.16734 8.05203 7.57261C8.05203 7.97789 8.08216 7.94787 8.14242 8.09797H7.43439C7.29881 8.09797 7.16322 8.143 7.05777 8.21805C6.93726 8.30811 6.877 8.42819 6.877 8.57829C6.877 8.72839 6.96739 8.90852 7.05777 8.96856C7.16322 9.04361 7.28374 9.08864 7.43439 9.08864H11.8634C12.1797 9.08864 12.3605 8.90852 12.3605 8.57829C12.3605 8.21805 11.9989 8.09797 11.8634 8.09797H9.48317C9.28733 8.09797 9.12162 8.05294 8.97097 7.94787C8.83539 7.85781 8.77513 7.73773 8.77513 7.55761C8.77513 7.37748 8.83539 6.94219 8.97097 6.85213C9.12162 6.74706 9.28733 6.70203 9.49823 6.70203H11.8784C12.0291 6.70203 12.1496 6.76207 12.24 6.86714C12.3454 6.98722 12.3906 7.13732 12.3906 7.31744C12.3906 7.49756 12.4208 7.51258 12.4961 7.58763C12.6467 7.75274 12.9028 7.75274 13.0384 7.58763C13.1137 7.51258 13.1439 7.42251 13.1439 7.31744C13.1439 6.91217 12.9932 6.55193 12.707 6.23671V6.25172ZM12.8576 7.43752C12.7974 7.49756 12.722 7.49756 12.6618 7.43752C12.6317 7.4075 12.6166 7.36247 12.6166 7.31744C12.6166 7.09229 12.5563 6.89716 12.4208 6.73205C12.2852 6.56694 12.1044 6.47687 11.8784 6.47687H9.49823C9.24213 6.47687 9.03123 6.53691 8.83539 6.67201C8.63955 6.8071 8.5341 7.33245 8.5341 7.57261C8.5341 7.81278 8.63955 8.02292 8.83539 8.15801C9.01616 8.27809 9.24213 8.33813 9.4681 8.33813H11.8483C11.9236 8.33813 11.9839 8.36815 12.0441 8.42819C12.1044 8.48823 12.1195 8.54827 12.1195 8.5933C12.1195 8.78844 12.0441 8.86349 11.8483 8.86349H7.41932C7.32893 8.86349 7.25361 8.83347 7.19335 8.78844C7.16322 8.75842 7.11803 8.71339 7.11803 8.5933C7.11803 8.47322 7.14816 8.45821 7.19335 8.41318C7.25361 8.36815 7.344 8.33813 7.41932 8.33813H8.54916L8.42865 8.15801C8.32319 8.00791 8.278 7.82779 8.278 7.58763C8.278 7.2574 8.39852 6.64199 8.65461 6.38681C8.91071 6.13164 9.212 6.01156 9.55849 6.01156H11.6073C11.9688 6.01156 12.255 6.14665 12.5111 6.41683C12.7672 6.68702 12.8878 6.98722 12.8878 7.33245C12.8878 7.67769 12.8727 7.4075 12.8426 7.45253L12.8576 7.43752ZM23.448 13.9519C23.0865 13.9519 22.7701 13.8769 22.4989 13.7568C22.2127 13.6217 21.9717 13.4416 21.7758 13.2314C21.58 13.0213 21.4294 12.7811 21.3239 12.4959C21.2185 12.2107 21.1733 11.9256 21.1733 11.6404V1.43347C21.1733 1.23834 21.113 1.08823 20.9774 0.953142C20.8418 0.818051 20.6912 0.758011 20.4954 0.758011C20.2995 0.758011 20.1489 0.818051 20.0133 0.953142C19.8928 1.08823 19.8325 1.23833 19.8325 1.40345V11.6254C19.8325 11.9856 19.7572 12.3158 19.6066 12.601C19.4559 12.8862 19.2601 13.1264 19.004 13.3215C18.7479 13.5166 18.4616 13.6667 18.1302 13.7718C17.8139 13.8769 17.4674 13.9219 17.1209 13.9219H3.81889C3.17111 13.9219 2.64386 13.7118 2.20698 13.2765C1.77011 12.8412 1.54414 12.3008 1.49895 11.6554V11.1C1.49895 10.9949 1.49895 10.9049 1.49895 10.8148C1.49895 10.7247 1.49895 10.6197 1.49895 10.4996C1.49895 10.3795 1.42363 10.1844 1.28805 10.0493C1.01688 9.77911 0.610139 9.77911 0.354042 10.0493C0.233525 10.1844 0.158203 10.3345 0.158203 10.4996V11.6103C0.158203 12.2258 0.278719 12.8112 0.519752 13.3365C0.760785 13.8769 1.07714 14.3422 1.48388 14.7475C1.89063 15.1527 2.35763 15.4679 2.89995 15.7081C3.44228 15.9483 4.0298 16.0684 4.64744 16.0684H16.684C17.5276 16.0684 18.2959 15.8582 18.9738 15.4229C19.5915 15.0327 20.0886 14.5373 20.4502 13.9219C20.7967 14.5673 21.2486 15.0927 21.7909 15.4529C22.3031 15.7982 22.9057 15.9933 23.5987 16.0533C23.7342 16.0533 23.8548 16.0684 23.9903 16.0684H25.075V13.9219H23.433L23.448 13.9519ZM24.849 15.8732H23.9903C23.9301 15.8732 23.8849 15.8732 23.8246 15.8732C23.7794 15.8732 23.7493 15.8732 23.7041 15.8732C23.6589 15.8732 23.6288 15.8732 23.5836 15.8732C22.9509 15.8132 22.3784 15.6331 21.9114 15.3178C21.339 14.9426 20.887 14.3872 20.5556 13.6817L20.4502 13.4716L20.3447 13.6817C19.9982 14.3422 19.486 14.8826 18.8383 15.2878C18.1905 15.6931 17.4674 15.8882 16.669 15.8882H4.63238C4.04486 15.8882 3.48747 15.7682 2.99034 15.558C2.47814 15.3329 2.02621 15.0327 1.64959 14.6424C1.27298 14.2671 0.956624 13.8168 0.730656 13.3065C0.504687 12.7961 0.399236 12.2558 0.399236 11.6704V10.5596C0.399236 10.4546 0.44443 10.3645 0.534817 10.2744C0.715592 10.0943 0.956625 10.0943 1.1374 10.2744C1.22779 10.3645 1.27298 10.4546 1.27298 10.5596C1.27298 10.6647 1.27298 10.7698 1.27298 10.8598C1.27298 10.9499 1.27298 11.055 1.27298 11.16V11.7304C1.31817 12.4509 1.57427 13.0513 2.05634 13.5166C2.52334 13.9819 3.12592 14.2221 3.83396 14.2221H17.136C17.5126 14.2221 17.8741 14.1621 18.2206 14.057C18.5671 13.9369 18.8835 13.7868 19.1697 13.5617C19.4408 13.3515 19.6668 13.0813 19.8325 12.7661C19.9982 12.4509 20.0886 12.0907 20.0886 11.6854V1.46349C20.0886 1.34341 20.1338 1.25335 20.2091 1.16328C20.2845 1.08823 20.3899 1.0432 20.5104 1.0432C20.6309 1.0432 20.7364 1.08823 20.8268 1.16328C20.9172 1.25335 20.9473 1.34341 20.9473 1.4785V11.6854C20.9473 12.0006 21.0076 12.3158 21.113 12.616C21.2335 12.9162 21.3992 13.2014 21.6101 13.4266C21.821 13.6517 22.0922 13.8469 22.3935 13.997C22.7099 14.1471 23.0563 14.2221 23.448 14.2221H24.8641V15.9032L24.849 15.8732Z" fill="white"/>
<path d="M23.7188 14.072V15.9933H28.5093V14.072H23.7188Z" fill="white"/>
<path d="M23.6133 13.9519V16.0984H28.6298V13.9519H23.6133ZM28.3887 15.8732H23.8392V14.1921H28.3887V15.8732Z" fill="white"/>
<path d="M27.0645 14.072V15.9933H31.855V14.072H27.0645Z" fill="white"/>
<path d="M26.9434 13.9519V16.0984H31.9599V13.9519H26.9434ZM31.7339 15.8732H27.1844V14.1921H31.7339V15.8732Z" fill="white"/>
<path d="M30.4082 14.072V15.9933H35.1987V14.072H30.4082Z" fill="white"/>
<path d="M30.2871 13.9519V16.0984H35.3036V13.9519H30.2871ZM35.0776 15.8732H30.5281V14.1921H35.0776V15.8732Z" fill="white"/>
<path d="M39.5962 19.0854C39.4003 18.8903 39.1292 18.7702 38.7977 18.7402H38.5567C38.2554 18.7702 37.9993 18.8903 37.8035 19.0854C37.6076 19.2805 37.5022 19.5207 37.5022 19.8209C37.5022 20.1211 37.6076 20.3463 37.8035 20.5414C37.9993 20.7365 38.2554 20.8416 38.5567 20.8716H38.7977C39.1292 20.8416 39.4003 20.7365 39.5962 20.5414C39.792 20.3463 39.8974 20.1061 39.8974 19.8209C39.8974 19.5357 39.792 19.2955 39.5962 19.0854ZM40.0481 7.22739C39.9276 7.1073 39.8071 7.04726 39.6564 7.04726C39.5058 7.04726 39.3702 7.1073 39.2647 7.22739C39.1593 7.34747 39.1141 7.46755 39.1141 7.58763V11.6404C39.1141 11.9856 39.0538 12.3008 38.9183 12.601C38.7827 12.9012 38.617 13.1564 38.391 13.3815C38.165 13.5917 37.9089 13.7718 37.6227 13.8919C37.3214 14.012 37.0051 14.072 36.6586 14.072H33.6758V15.9933H35.8601C36.4627 15.9933 37.0352 15.8732 37.5474 15.6481C38.0746 15.4229 38.5266 15.1077 38.9333 14.7174C39.325 14.3272 39.6413 13.8619 39.8673 13.3365C40.0933 12.8112 40.2138 12.2558 40.2138 11.6554V7.61765C40.2138 7.46755 40.1535 7.34747 40.0481 7.22739Z" fill="white"/>
<path d="M40.1254 7.13733C39.9898 7.00224 39.809 6.92719 39.6433 6.92719C39.4776 6.92719 39.2968 7.00224 39.1763 7.13733C39.0558 7.27242 38.9955 7.42252 38.9955 7.58763V11.6404C38.9955 11.9706 38.9352 12.2708 38.8147 12.556C38.6942 12.8412 38.5285 13.0813 38.3176 13.2915C38.1067 13.5016 37.8657 13.6517 37.5794 13.7718C37.2932 13.8919 36.9919 13.9519 36.6605 13.9519H33.5723V16.0984H35.8621C36.4797 16.0984 37.0672 15.9783 37.5945 15.7381C38.1368 15.498 38.6038 15.1828 39.0106 14.7775C39.4173 14.3722 39.7337 13.9069 39.9747 13.3665C40.2157 12.8262 40.3363 12.2408 40.3363 11.6404V7.60264C40.3363 7.42252 40.2609 7.27242 40.1254 7.13733ZM40.0952 11.6404C40.0952 12.2258 39.9747 12.7811 39.7638 13.2765C39.5378 13.7868 39.2365 14.2371 38.8449 14.6124C38.4682 14.9876 38.0163 15.3028 37.5041 15.528C36.9919 15.7531 36.4496 15.8582 35.8621 15.8582H33.7982V14.1771H36.6605C37.0221 14.1771 37.3535 14.117 37.6698 13.982C37.9711 13.8619 38.2423 13.6817 38.4833 13.4566C38.7093 13.2314 38.9051 12.9613 39.0407 12.646C39.1763 12.3308 39.2365 12.0006 39.2365 11.6254V7.57262C39.2365 7.46755 39.2817 7.37749 39.3571 7.28743C39.4324 7.19737 39.5378 7.15234 39.6583 7.15234C39.7789 7.15234 39.8693 7.19737 39.9596 7.28743C40.05 7.37749 40.0952 7.48256 40.0952 7.58763V11.6254V11.6404ZM39.6734 18.9953C39.4474 18.7852 39.1612 18.6501 38.7997 18.6201H38.5436C38.2122 18.6501 37.941 18.7852 37.715 18.9953C37.4891 19.2205 37.3836 19.4907 37.3836 19.8059C37.3836 20.1211 37.5041 20.3913 37.715 20.6164C37.941 20.8266 38.2122 20.9467 38.5436 20.9767H38.7997C39.1612 20.9467 39.4474 20.8266 39.6734 20.6164C39.8994 20.4063 40.0048 20.1361 40.0048 19.8059C40.0048 19.4757 39.8843 19.2205 39.6734 18.9953ZM38.7997 20.7515H38.5737C38.3025 20.7215 38.0766 20.6314 37.8958 20.4513C37.715 20.2862 37.6246 20.0761 37.6246 19.8209C37.6246 19.5657 37.715 19.3556 37.8958 19.1755C38.0766 18.9953 38.3025 18.8903 38.5586 18.8602H38.7846C39.0859 18.8903 39.3269 18.9803 39.5077 19.1755C39.6885 19.3556 39.7789 19.5657 39.7789 19.8209C39.7789 20.0761 39.6885 20.2862 39.5077 20.4513C39.3269 20.6314 39.0859 20.7215 38.7846 20.7515H38.7997Z" fill="white"/>
<path d="M53.2609 14.072V11.6704C53.2609 11.07 53.1404 10.4996 52.9144 9.98925C52.6885 9.46389 52.3721 9.01359 51.9804 8.60831C51.5888 8.21805 51.1218 7.90283 50.5945 7.67768C50.0672 7.45253 49.5099 7.33245 48.9073 7.33245H47.205C46.6024 7.33245 46.0299 7.45253 45.5177 7.67768C44.9905 7.90283 44.5385 8.21805 44.1318 8.60831C43.7401 8.99858 43.4238 9.46389 43.1978 9.98925C42.9718 10.5146 42.8513 11.07 42.8513 11.6554C42.8513 12.2408 42.9718 12.8262 43.1978 13.3365C43.4238 13.8619 43.7401 14.3122 44.1318 14.7174C44.5235 15.1077 44.9905 15.4229 45.5177 15.6481C46.045 15.8732 46.6024 15.9933 47.205 15.9933H52.1913V17.5393C52.1913 18.0347 52.0106 18.44 51.634 18.7251C51.2573 19.0103 50.8355 19.1604 50.3384 19.1604H43.9962C43.6497 19.1604 43.3786 19.2355 43.1677 19.4006C42.9568 19.5507 42.8513 19.7909 42.8513 20.1061C42.8513 20.4213 42.9568 20.6615 43.1677 20.8116C43.3786 20.9767 43.6497 21.0517 43.951 21.0517H48.9675C50.3535 21.0517 51.4231 20.7365 52.1612 20.0911C52.8994 19.4606 53.2609 18.3649 53.2609 16.8339V15.9933H56.8614V14.072H53.2609ZM46.6476 9.22373H49.1634C49.555 9.22373 49.9317 9.28377 50.2932 9.38884C50.6548 9.49391 50.9711 9.65902 51.2573 9.85415C51.5436 10.0643 51.7695 10.3195 51.9352 10.6347C52.101 10.9349 52.1913 11.2951 52.1913 11.6704V14.072H46.9338C46.5572 14.072 46.1956 14.027 45.8341 13.9219C45.4726 13.8168 45.1562 13.6667 44.87 13.4566C44.5837 13.2464 44.3578 12.9913 44.1921 12.6911C44.0264 12.3909 43.936 12.0456 43.936 11.6404C43.936 11.2351 44.0113 10.9649 44.1619 10.6647C44.3126 10.3645 44.5084 10.1243 44.7645 9.89918C45.0206 9.68904 45.3068 9.52393 45.6232 9.38884C45.9546 9.26876 46.286 9.20872 46.6476 9.20872V9.22373Z" fill="white"/>
<path d="M52.0267 10.5746C51.8459 10.2444 51.6049 9.97424 51.3187 9.7641C51.0324 9.55395 50.686 9.38884 50.3244 9.26876C49.9478 9.16369 49.5712 9.10365 49.1644 9.10365H46.6486C46.272 9.10365 45.9255 9.16369 45.5791 9.29878C45.2476 9.41886 44.9464 9.59898 44.6752 9.82414C44.4191 10.0493 44.1931 10.3195 44.0425 10.6197C43.8918 10.9349 43.8014 11.2801 43.8014 11.6554C43.8014 12.0306 43.8918 12.4509 44.0726 12.7661C44.2534 13.0813 44.4944 13.3515 44.7806 13.5617C45.0669 13.7718 45.3983 13.9369 45.7749 14.042C46.1365 14.1471 46.5131 14.1921 46.9047 14.1921H52.2828V11.6704C52.2828 11.2651 52.1924 10.8899 52.0116 10.5746H52.0267ZM52.0719 13.9519H46.9349C46.5733 13.9519 46.2118 13.9069 45.8653 13.8018C45.5188 13.7118 45.2175 13.5617 44.9464 13.3515C44.6752 13.1564 44.4643 12.9162 44.2986 12.631C44.1329 12.3458 44.0575 12.0156 44.0575 11.6404C44.0575 11.2651 44.1329 10.9949 44.2684 10.7097C44.4191 10.4245 44.5999 10.1844 44.8409 9.98925C45.0819 9.77911 45.3531 9.61399 45.6695 9.50892C45.9707 9.38884 46.3022 9.3288 46.6486 9.3288H49.1644C49.541 9.3288 49.9026 9.38884 50.2491 9.4789C50.5956 9.58397 50.8969 9.73407 51.168 9.92921C51.4392 10.1243 51.6501 10.3795 51.8158 10.6647C51.9815 10.9499 52.0568 11.2801 52.0568 11.6554V13.9369L52.0719 13.9519ZM52.0267 10.5746C51.8459 10.2444 51.6049 9.97424 51.3187 9.7641C51.0324 9.55395 50.686 9.38884 50.3244 9.26876C49.9478 9.16369 49.5712 9.10365 49.1644 9.10365H46.6486C46.272 9.10365 45.9255 9.16369 45.5791 9.29878C45.2476 9.41886 44.9464 9.59898 44.6752 9.82414C44.4191 10.0493 44.1931 10.3195 44.0425 10.6197C43.8918 10.9349 43.8014 11.2801 43.8014 11.6554C43.8014 12.0306 43.8918 12.4509 44.0726 12.7661C44.2534 13.0813 44.4944 13.3515 44.7806 13.5617C45.0669 13.7718 45.3983 13.9369 45.7749 14.042C46.1365 14.1471 46.5131 14.1921 46.9047 14.1921H52.2828V11.6704C52.2828 11.2651 52.1924 10.8899 52.0116 10.5746H52.0267ZM52.0719 13.9519H46.9349C46.5733 13.9519 46.2118 13.9069 45.8653 13.8018C45.5188 13.7118 45.2175 13.5617 44.9464 13.3515C44.6752 13.1564 44.4643 12.9162 44.2986 12.631C44.1329 12.3458 44.0575 12.0156 44.0575 11.6404C44.0575 11.2651 44.1329 10.9949 44.2684 10.7097C44.4191 10.4245 44.5999 10.1844 44.8409 9.98925C45.0819 9.77911 45.3531 9.61399 45.6695 9.50892C45.9707 9.38884 46.3022 9.3288 46.6486 9.3288H49.1644C49.541 9.3288 49.9026 9.38884 50.2491 9.4789C50.5956 9.58397 50.8969 9.73407 51.168 9.92921C51.4392 10.1243 51.6501 10.3795 51.8158 10.6647C51.9815 10.9499 52.0568 11.2801 52.0568 11.6554V13.9369L52.0719 13.9519ZM53.3825 13.9519V11.6704C53.3825 11.055 53.262 10.4696 53.021 9.94422C52.7799 9.40385 52.4636 8.93854 52.0568 8.53326C51.6501 8.12799 51.168 7.81278 50.6408 7.57261C50.0984 7.33245 49.5109 7.21237 48.9083 7.21237H47.206C46.5884 7.21237 46.0009 7.33245 45.4585 7.57261C44.9313 7.81278 44.4492 8.12799 44.0425 8.53326C43.6357 8.93854 43.3194 9.40385 43.0784 9.94422C42.8373 10.4846 42.7319 11.055 42.7319 11.6554C42.7319 12.2558 42.8524 12.8562 43.0784 13.3815C43.3043 13.9069 43.6357 14.3872 44.0425 14.7925C44.4492 15.1978 44.9162 15.513 45.4585 15.7531C46.0009 15.9933 46.5733 16.1134 47.191 16.1134H52.0568V17.5393C52.0568 18.0047 51.8911 18.3649 51.5446 18.6351C51.1981 18.9053 50.7763 19.0404 50.3244 19.0404H43.9822C43.6056 19.0404 43.3043 19.1304 43.0784 19.2955C42.8373 19.4757 42.7168 19.7458 42.7168 20.1061C42.7168 20.4663 42.8373 20.7215 43.0934 20.9016C43.3344 21.0667 43.6056 21.1568 43.937 21.1568H48.9535C50.3696 21.1568 51.4693 20.8266 52.2225 20.1661C52.9758 19.5057 53.3674 18.3799 53.3674 16.8189V16.0984H56.9679V13.9519H53.3674H53.3825ZM56.757 15.8732H53.1565V16.8339C53.1565 18.3199 52.795 19.3856 52.102 20.001C51.394 20.6164 50.3545 20.9316 48.9837 20.9316H43.9672C43.6809 20.9316 43.455 20.8566 43.2591 20.7215C43.0783 20.5864 42.988 20.3913 42.988 20.1061C42.988 19.8209 43.0783 19.6258 43.2591 19.4907C43.4399 19.3556 43.696 19.2805 44.0124 19.2805H50.3545C50.8667 19.2805 51.3337 19.1304 51.7254 18.8302C52.1322 18.515 52.328 18.0947 52.328 17.5544V15.8882H47.2362C46.6486 15.8882 46.0913 15.7682 45.5941 15.558C45.0819 15.3329 44.63 15.0327 44.2534 14.6424C43.8768 14.2671 43.5604 13.8168 43.3344 13.3065C43.1085 12.7961 43.003 12.2558 43.003 11.6704C43.003 11.085 43.1235 10.5596 43.3344 10.0493C43.5604 9.53894 43.8617 9.08864 44.2534 8.71339C44.63 8.33813 45.0819 8.02292 45.5941 7.79777C46.1063 7.57261 46.6486 7.46754 47.2362 7.46754H48.9385C49.526 7.46754 50.0683 7.58762 50.5805 7.79777C51.0927 8.02292 51.5446 8.32312 51.9212 8.71339C52.2979 9.08864 52.6142 9.53894 52.8402 10.0493C53.0662 10.5596 53.1716 11.115 53.1716 11.6854V14.2071H56.772V15.8882L56.757 15.8732ZM51.3187 9.7641C51.0324 9.55395 50.686 9.38884 50.3244 9.26876C49.9478 9.16369 49.5712 9.10365 49.1644 9.10365H46.6486C46.272 9.10365 45.9255 9.16369 45.5791 9.29878C45.2476 9.41886 44.9464 9.59898 44.6752 9.82414C44.4191 10.0493 44.1931 10.3195 44.0425 10.6197C43.8918 10.9349 43.8014 11.2801 43.8014 11.6554C43.8014 12.0306 43.8918 12.4509 44.0726 12.7661C44.2534 13.0813 44.4944 13.3515 44.7806 13.5617C45.0669 13.7718 45.3983 13.9369 45.7749 14.042C46.1365 14.1471 46.5131 14.1921 46.9047 14.1921H52.2828V11.6704C52.2828 11.2651 52.1924 10.8899 52.0116 10.5746C51.8309 10.2444 51.5898 9.97424 51.3036 9.7641H51.3187ZM52.0719 13.9519H46.9349C46.5733 13.9519 46.2118 13.9069 45.8653 13.8018C45.5188 13.7118 45.2175 13.5617 44.9464 13.3515C44.6752 13.1564 44.4643 12.9162 44.2986 12.631C44.1329 12.3458 44.0575 12.0156 44.0575 11.6404C44.0575 11.2651 44.1329 10.9949 44.2684 10.7097C44.4191 10.4245 44.5999 10.1844 44.8409 9.98925C45.0819 9.77911 45.3531 9.61399 45.6695 9.50892C45.9707 9.38884 46.3022 9.3288 46.6486 9.3288H49.1644C49.541 9.3288 49.9026 9.38884 50.2491 9.4789C50.5956 9.58397 50.8969 9.73407 51.168 9.92921C51.4392 10.1243 51.6501 10.3795 51.8158 10.6647C51.9815 10.9499 52.0568 11.2801 52.0568 11.6554V13.9369L52.0719 13.9519Z" fill="white"/>
<path d="M68.913 9.98925C68.687 9.4639 68.3707 9.01359 67.979 8.60832C67.5873 8.21806 67.1203 7.90284 66.593 7.67769C66.0658 7.45254 65.5084 7.33246 64.9058 7.33246H59.3169L65.2523 1.38844C65.3276 1.29838 65.3577 1.20832 65.3577 1.10325C65.3577 0.923128 65.2975 0.773027 65.192 0.682966C65.0866 0.592905 64.951 0.547874 64.8154 0.547874C64.6798 0.547874 64.5141 0.607914 64.3785 0.743006L57.5694 7.57262C57.3434 7.76775 57.2229 8.00791 57.2229 8.2781C57.2229 8.54828 57.3133 8.75842 57.5091 8.93854C57.7049 9.11866 57.9158 9.22373 58.1719 9.22373H65.7193C66.0658 9.22373 66.3821 9.28378 66.6834 9.41887C66.9847 9.55396 67.2408 9.71907 67.4517 9.94422C67.6626 10.1694 67.8434 10.4245 67.9639 10.7247C68.0995 11.025 68.1598 11.3252 68.1598 11.6554C68.1598 11.9856 68.0995 12.3158 67.9639 12.616C67.8283 12.9162 67.6626 13.1714 67.4517 13.3966C67.2408 13.6217 66.9847 13.7868 66.6834 13.9069C66.3821 14.027 66.0658 14.087 65.7193 14.087H55.1289V16.0083H64.8907C65.4933 16.0083 66.0658 15.8882 66.578 15.6631C67.1052 15.4379 67.5572 15.1227 67.9639 14.7325C68.3556 14.3422 68.6719 13.8769 68.8979 13.3515C69.1239 12.8262 69.2444 12.2708 69.2444 11.6704C69.2444 11.07 69.1239 10.5296 68.8979 10.0043L68.913 9.98925Z" fill="white"/>
<path d="M69.0329 9.92921C68.807 9.38885 68.4755 8.92353 68.0688 8.51826C67.662 8.11299 67.195 7.79777 66.6527 7.55761C66.1104 7.31745 65.5229 7.19737 64.9052 7.19737H59.6025L65.3421 1.43347C65.4325 1.3284 65.4777 1.20832 65.4777 1.07323C65.4777 0.848076 65.4024 0.682965 65.2668 0.562883C64.9956 0.322721 64.5889 0.337731 64.3026 0.622924L57.4935 7.45254C57.2374 7.67769 57.1018 7.94787 57.1018 8.24808C57.1018 8.54828 57.2072 8.78844 57.4332 8.99858C57.6441 9.20872 57.9002 9.3138 58.1714 9.3138H65.7187C66.0501 9.3138 66.3514 9.37384 66.6377 9.49392C66.9239 9.614 67.1649 9.77911 67.3608 9.98925C67.5717 10.1994 67.7374 10.4396 67.8579 10.7247C67.9784 10.9949 68.0387 11.2951 68.0387 11.6103C68.0387 11.9256 67.9784 12.2408 67.8579 12.526C67.7374 12.8112 67.5717 13.0513 67.3608 13.2615C67.1649 13.4716 66.9088 13.6367 66.6377 13.7568C66.3665 13.8769 66.0501 13.9369 65.7187 13.9369H55.0078V16.0834H64.8902C65.5078 16.0834 66.0953 15.9633 66.6377 15.7231C67.18 15.483 67.647 15.1678 68.0537 14.7625C68.4605 14.3572 68.7768 13.8919 69.0179 13.3515C69.2589 12.8112 69.3794 12.2258 69.3794 11.6254C69.3794 11.025 69.2589 10.4546 69.0179 9.9142L69.0329 9.92921ZM64.9052 15.8732H55.2488V14.1921H65.7187C66.0803 14.1921 66.4117 14.1321 66.728 13.997C67.0444 13.8769 67.3156 13.6817 67.5265 13.4566C67.7524 13.2314 67.9332 12.9613 68.0688 12.646C68.2044 12.3458 68.2646 12.0006 68.2646 11.6404C68.2646 11.2801 68.1893 10.9649 68.0688 10.6647C67.9332 10.3645 67.7524 10.0943 67.5265 9.85416C67.3005 9.62901 67.0293 9.43388 66.728 9.29879C66.4117 9.16369 66.0803 9.08864 65.7187 9.08864H58.1714C57.9605 9.08864 57.7646 9.01359 57.5989 8.84848C57.4332 8.68337 57.3428 8.48824 57.3428 8.26309C57.3428 8.03793 57.4483 7.82779 57.6592 7.63266L64.4684 0.803045C64.6642 0.592903 64.9354 0.592904 65.1161 0.758016C65.1915 0.833066 65.2366 0.938137 65.2366 1.08824C65.2366 1.23834 65.2065 1.22333 65.1613 1.28337L59.0301 7.43753H64.8902C65.4777 7.43753 66.0351 7.55761 66.5322 7.76775C67.0444 7.9929 67.4963 8.29311 67.8729 8.68337C68.2496 9.05863 68.5659 9.50893 68.7919 10.0193C69.0179 10.5296 69.1233 11.07 69.1233 11.6404C69.1233 12.2108 69.0028 12.7661 68.7919 13.2765C68.5659 13.7868 68.2646 14.2371 67.8729 14.6124C67.4963 14.9876 67.0444 15.3028 66.5322 15.528C66.02 15.7531 65.4777 15.8582 64.8902 15.8582L64.9052 15.8732Z" fill="white"/>
<path d="M12.5263 30.9134C12.1497 30.328 11.5923 29.8627 10.8692 29.5174C11.3211 29.1122 11.6526 28.6619 11.8333 28.1665C12.0141 27.6712 12.1196 27.1158 12.1196 26.5154V24.2639C12.1196 23.9637 12.0593 23.7235 11.9237 23.5434C11.7881 23.3633 11.5772 23.2732 11.2609 23.2732C10.9445 23.2732 10.7186 23.3633 10.583 23.5434C10.4474 23.7235 10.3721 23.9637 10.3721 24.2639V26.5154C10.3721 27.2509 10.1762 27.8363 9.78455 28.2866C9.39287 28.7369 8.77522 28.9621 7.91654 28.9621H2.71927V24.2789C2.71927 23.9637 2.64395 23.7235 2.50837 23.5434C2.37278 23.3633 2.14682 23.2732 1.83046 23.2732C1.5141 23.2732 1.31826 23.3633 1.16762 23.5434C1.01697 23.7235 0.94165 23.9787 0.94165 24.2789V35.3264C0.94165 35.6266 1.00191 35.8817 1.13749 36.0919C1.27307 36.302 1.49904 36.4071 1.83046 36.4071C2.16188 36.4071 2.37278 36.302 2.50837 36.0919C2.64395 35.8817 2.71927 35.6266 2.71927 35.3264V30.7333H9.06145C9.423 30.7333 9.73936 30.7633 10.0256 30.8383C10.3118 30.9134 10.5378 31.0485 10.7336 31.2586C10.9295 31.4688 11.0801 31.754 11.1705 32.1442C11.2759 32.5195 11.3211 33.0148 11.3211 33.6152V35.5065C11.3211 35.7917 11.3814 36.0168 11.517 36.1819C11.6526 36.3471 11.8635 36.4221 12.1798 36.4221C12.4962 36.4221 12.7221 36.332 12.8728 36.1369C13.0234 35.9568 13.0837 35.7166 13.0837 35.4314V33.1799C13.0837 32.2643 12.9029 31.5138 12.5263 30.9284V30.9134Z" fill="white"/>
<path d="M12.6315 30.8533C12.2699 30.298 11.7577 29.8327 11.0798 29.4874C11.4866 29.0972 11.7879 28.6769 11.9536 28.1965C12.1494 27.6862 12.2398 27.1158 12.2398 26.5004V24.2489C12.2398 23.9187 12.1645 23.6635 12.0289 23.4684C11.8783 23.2582 11.6222 23.1531 11.2606 23.1531C10.8991 23.1531 10.643 23.2582 10.4923 23.4684C10.3417 23.6635 10.2664 23.9337 10.2664 24.2639V26.5154C10.2664 27.2209 10.0856 27.7913 9.70896 28.2116C9.34741 28.6318 8.74483 28.842 7.91628 28.842H2.83952V24.2789C2.83952 23.9337 2.7642 23.6635 2.61356 23.4684C2.46291 23.2582 2.19175 23.1531 1.84526 23.1531C1.49878 23.1531 1.27281 23.2582 1.09203 23.4684C0.926324 23.6635 0.835938 23.9487 0.835938 24.2789V35.3264C0.835938 35.6566 0.911259 35.9268 1.04684 36.1519C1.19749 36.3921 1.46865 36.5122 1.8302 36.5122C2.19175 36.5122 2.44784 36.3921 2.61356 36.1519C2.7642 35.9268 2.83952 35.6416 2.83952 35.3264V30.8383H9.06119C9.40767 30.8383 9.72403 30.8683 9.99519 30.9434C10.2513 31.0034 10.4773 31.1385 10.643 31.3337C10.8237 31.5288 10.9593 31.799 11.0648 32.1592C11.1702 32.5345 11.2154 33.0148 11.2154 33.6002V35.4915C11.2154 35.8067 11.2907 36.0619 11.4414 36.242C11.592 36.4371 11.8481 36.5422 12.2097 36.5422C12.5712 36.5422 12.8273 36.4371 12.993 36.212C13.1587 36.0018 13.2341 35.7466 13.2341 35.4314V33.1799C13.2341 32.2493 13.0382 31.4688 12.6616 30.8533H12.6315ZM12.978 35.4314C12.978 35.6866 12.9177 35.8967 12.7821 36.0619C12.6616 36.212 12.4658 36.287 12.1796 36.287C11.8933 36.287 11.7126 36.212 11.6071 36.0919C11.4866 35.9418 11.4414 35.7466 11.4414 35.4915V33.6002C11.4414 32.9998 11.3962 32.4894 11.2907 32.0992C11.1853 31.7089 11.0196 31.3937 10.8237 31.1686C10.6128 30.9434 10.3567 30.7933 10.0554 30.7182C9.76922 30.6432 9.4378 30.5982 9.06119 30.5982H2.59849V35.3114C2.59849 35.5815 2.53823 35.8217 2.41772 36.0168C2.2972 36.197 2.11643 36.272 1.8302 36.272C1.54397 36.272 1.34813 36.1819 1.24268 36.0168C1.12216 35.8367 1.06191 35.5965 1.06191 35.3114V24.2639C1.06191 23.9787 1.12216 23.7535 1.25774 23.6034C1.39333 23.4533 1.5741 23.3783 1.8302 23.3783C2.0863 23.3783 2.2972 23.4533 2.41772 23.6034C2.53823 23.7535 2.59849 23.9787 2.59849 24.2789V29.0821H7.91628C8.80509 29.0821 9.46793 28.842 9.87467 28.3617C10.2814 27.8963 10.4773 27.2659 10.4773 26.5154V24.2639C10.4773 23.9937 10.5375 23.7686 10.658 23.6185C10.7635 23.4684 10.9593 23.3933 11.2455 23.3933C11.5318 23.3933 11.7126 23.4684 11.818 23.6185C11.9385 23.7686 11.9837 23.9937 11.9837 24.2639V26.5154C11.9837 27.1008 11.8933 27.6412 11.7126 28.1365C11.5318 28.6168 11.2154 29.0521 10.7785 29.4424L10.643 29.5625L10.8087 29.6375C11.5167 29.9677 12.059 30.418 12.4206 30.9884C12.7821 31.5588 12.9629 32.2943 12.9629 33.1799V35.4314H12.978Z" fill="white"/>
<path d="M26.8671 27.1008C26.6863 26.6655 26.4302 26.2903 26.0988 25.96C25.7824 25.6298 25.3908 25.3746 24.9539 25.1795C24.517 24.9844 24.05 24.8943 23.5679 24.8943H19.3197C18.8377 24.8943 18.3707 24.9844 17.9338 25.1795C17.4969 25.3746 17.1053 25.6298 16.7889 25.96C16.4725 26.2753 16.2164 26.6655 16.0206 27.1008C15.8398 27.5361 15.7344 28.0014 15.7344 28.4817V32.6996C15.7344 33.1799 15.8248 33.6452 16.0206 34.0805C16.2014 34.5158 16.4575 34.8911 16.7889 35.2213C17.1053 35.5365 17.4969 35.7917 17.9338 35.9868C18.3707 36.1669 18.8377 36.272 19.3197 36.272H23.5679C24.05 36.272 24.517 36.1819 24.9539 35.9868C25.3908 35.8067 25.7674 35.5515 26.0988 35.2213C26.4302 34.9061 26.6712 34.5158 26.8671 34.0805C27.0479 33.6452 27.1533 33.1799 27.1533 32.6996V28.4817C27.1533 28.0014 27.0629 27.5361 26.8671 27.1008ZM17.3463 32.4895V28.4968C17.3463 27.8963 17.5572 27.416 17.9941 27.0408C18.4309 26.6805 18.9431 26.5004 19.5457 26.5004H23.583C24.2007 26.5004 24.6827 26.7256 25.0443 27.1609C25.4058 27.5961 25.5866 28.1215 25.5866 28.7219V32.7146C25.5866 33.315 25.3757 33.7953 24.9388 34.1556C24.5019 34.5158 23.9898 34.6959 23.3872 34.6959H19.3348C18.7322 34.6959 18.2502 34.4858 17.8886 34.0655C17.5271 33.6452 17.3463 33.1199 17.3463 32.5045V32.4895Z" fill="white"/>
<path d="M25.1358 27.0708C24.7592 26.6055 24.2319 26.3653 23.5841 26.3653H19.5468C18.9141 26.3653 18.3718 26.5605 17.9198 26.9357C17.4679 27.326 17.2269 27.8363 17.2269 28.4817V32.4744C17.2269 33.1199 17.4227 33.6602 17.7993 34.1106C18.1759 34.5609 18.7032 34.786 19.3359 34.786H23.3883C24.021 34.786 24.5633 34.5909 25.0152 34.2156C25.4672 33.8404 25.7082 33.315 25.7082 32.6846V28.6919C25.7082 28.0615 25.5124 27.5211 25.1358 27.0558V27.0708ZM25.4672 32.6996C25.4672 33.27 25.2713 33.7203 24.8646 34.0505C24.4579 34.3807 23.9607 34.5609 23.3883 34.5609H19.3359C18.7635 34.5609 18.3266 34.3657 17.9801 33.9755C17.6336 33.5702 17.4679 33.0749 17.4679 32.4895V28.4968C17.4679 27.9264 17.6637 27.4761 18.0705 27.1308C18.4772 26.7856 18.9744 26.6055 19.5468 26.6055H23.5841C24.1716 26.6055 24.6236 26.8006 24.955 27.2209C25.3015 27.6412 25.4672 28.1365 25.4672 28.7069V32.6996ZM25.1358 27.0708C24.7592 26.6055 24.2319 26.3653 23.5841 26.3653H19.5468C18.9141 26.3653 18.3718 26.5605 17.9198 26.9357C17.4679 27.326 17.2269 27.8363 17.2269 28.4817V32.4744C17.2269 33.1199 17.4227 33.6602 17.7993 34.1106C18.1759 34.5609 18.7032 34.786 19.3359 34.786H23.3883C24.021 34.786 24.5633 34.5909 25.0152 34.2156C25.4672 33.8404 25.7082 33.315 25.7082 32.6846V28.6919C25.7082 28.0615 25.5124 27.5211 25.1358 27.0558V27.0708ZM25.4672 32.6996C25.4672 33.27 25.2713 33.7203 24.8646 34.0505C24.4579 34.3807 23.9607 34.5609 23.3883 34.5609H19.3359C18.7635 34.5609 18.3266 34.3657 17.9801 33.9755C17.6336 33.5702 17.4679 33.0749 17.4679 32.4895V28.4968C17.4679 27.9264 17.6637 27.4761 18.0705 27.1308C18.4772 26.7856 18.9744 26.6055 19.5468 26.6055H23.5841C24.1716 26.6055 24.6236 26.8006 24.955 27.2209C25.3015 27.6412 25.4672 28.1365 25.4672 28.7069V32.6996ZM26.9736 27.0558C26.7778 26.6055 26.5217 26.2152 26.1903 25.885C25.8589 25.5548 25.4672 25.2846 25.0152 25.0895C24.5633 24.8943 24.0812 24.7893 23.5841 24.7893H19.3359C18.8388 24.7893 18.3567 24.8943 17.9048 25.0895C17.4528 25.2846 17.0612 25.5548 16.7297 25.885C16.3983 26.2152 16.1272 26.6055 15.9464 27.0558C15.7505 27.5061 15.6602 27.9864 15.6602 28.4817V32.6996C15.6602 33.1949 15.7505 33.6903 15.9464 34.1256C16.1422 34.5759 16.3983 34.9661 16.7297 35.2964C17.0612 35.6266 17.4679 35.8968 17.9048 36.0769C18.3567 36.272 18.8388 36.3621 19.3359 36.3621H23.5841C24.0812 36.3621 24.5633 36.257 25.0152 36.0769C25.4672 35.8818 25.8589 35.6266 26.1903 35.2964C26.5217 34.9661 26.7929 34.5759 26.9736 34.1256C27.1695 33.6753 27.2599 33.1949 27.2599 32.6996V28.4817C27.2599 27.9864 27.1695 27.5061 26.9736 27.0558ZM27.0339 32.6996C27.0339 33.1649 26.9435 33.6152 26.7627 34.0355C26.582 34.4558 26.3409 34.831 26.0246 35.1312C25.7082 35.4314 25.3467 35.6866 24.9249 35.8667C24.5031 36.0469 24.0511 36.1369 23.5841 36.1369H19.3359C18.8689 36.1369 18.417 36.0469 17.9952 35.8667C17.5734 35.6866 17.1967 35.4465 16.8954 35.1312C16.5942 34.816 16.3381 34.4558 16.1573 34.0355C15.9765 33.6152 15.8861 33.1649 15.8861 32.6996V28.4817C15.8861 28.0164 15.9765 27.5661 16.1573 27.1458C16.3381 26.7256 16.5791 26.3503 16.8954 26.0501C17.2118 25.7349 17.5884 25.4797 18.0102 25.2996C18.432 25.1195 18.884 25.0144 19.351 25.0144H23.5992C24.0662 25.0144 24.5181 25.1045 24.9399 25.2996C25.3617 25.4797 25.7384 25.7349 26.0547 26.0501C26.3711 26.3653 26.6121 26.7256 26.7929 27.1458C26.9736 27.5661 27.064 28.0164 27.064 28.4817V32.6996H27.0339ZM23.5691 26.3803H19.5317C18.899 26.3803 18.3567 26.5755 17.9048 26.9507C17.4528 27.341 17.2118 27.8513 17.2118 28.4968V32.4895C17.2118 33.1349 17.4076 33.6753 17.7843 34.1256C18.1609 34.5759 18.6881 34.801 19.3208 34.801H23.3732C24.0059 34.801 24.5483 34.6059 25.0002 34.2306C25.4521 33.8554 25.6932 33.33 25.6932 32.6996V28.7069C25.6932 28.0765 25.4973 27.5361 25.1207 27.0708C24.7441 26.6055 24.2168 26.3653 23.5691 26.3653V26.3803ZM25.4672 32.6996C25.4672 33.27 25.2713 33.7203 24.8646 34.0505C24.4579 34.3807 23.9607 34.5609 23.3883 34.5609H19.3359C18.7635 34.5609 18.3266 34.3657 17.9801 33.9755C17.6336 33.5702 17.4679 33.0749 17.4679 32.4895V28.4968C17.4679 27.9264 17.6637 27.4761 18.0705 27.1308C18.4772 26.7856 18.9744 26.6055 19.5468 26.6055H23.5841C24.1716 26.6055 24.6236 26.8006 24.955 27.2209C25.3015 27.6412 25.4672 28.1365 25.4672 28.7069V32.6996Z" fill="white"/>
<path d="M41.5105 31.5138C41.1791 31.0635 40.7874 30.7183 40.3354 30.4781C40.7573 30.1929 41.0435 29.8477 41.1941 29.4274C41.3448 29.0221 41.4352 28.5868 41.4352 28.1215C41.4352 27.6562 41.3598 27.2809 41.2243 26.8907C41.0736 26.5004 40.8627 26.1552 40.5915 25.855C40.3053 25.5548 39.9588 25.3146 39.537 25.1495C39.1152 24.9694 38.6181 24.8943 38.0306 24.8943H30.8448C30.6791 24.8943 30.5284 24.9544 30.4079 25.0594C30.2874 25.1645 30.2422 25.3146 30.2422 25.4947V35.6866C30.2422 35.8367 30.3024 35.9868 30.4079 36.1069C30.5134 36.227 30.664 36.287 30.8448 36.287H38.0306C38.5729 36.287 39.0851 36.242 39.5672 36.1519C40.0492 36.0619 40.471 35.8968 40.8326 35.6716C41.1941 35.4464 41.4804 35.1312 41.6762 34.741C41.8871 34.3507 41.9925 33.8554 41.9925 33.255C41.9925 32.6546 41.8268 31.9941 41.5105 31.5438V31.5138ZM40.1396 34.0055C39.989 34.2156 39.7931 34.3657 39.5521 34.4708C39.3111 34.5759 39.0399 34.6359 38.7386 34.6509C38.4373 34.6659 38.136 34.6809 37.8046 34.6809H31.8089V31.3036H37.895C38.2264 31.3036 38.5428 31.3487 38.8441 31.4237C39.1453 31.4988 39.4014 31.6189 39.6274 31.769C39.8534 31.9191 40.0342 32.1142 40.1697 32.3393C40.3053 32.5645 40.3806 32.8347 40.3806 33.1349C40.3806 33.4351 40.3053 33.7953 40.1547 34.0055H40.1396ZM39.3412 29.2623C39.0248 29.5625 38.4825 29.7126 37.7594 29.7126H31.8089V26.4704H37.8197C38.5578 26.4704 39.07 26.6205 39.3713 26.9207C39.6726 27.2209 39.8233 27.6262 39.8233 28.1215C39.8233 28.6168 39.6575 28.9621 39.3412 29.2623Z" fill="white"/>
<path d="M39.4625 26.8456C39.1462 26.5304 38.5888 26.3653 37.8205 26.3653H31.6892V29.8477H37.7602C38.5134 29.8477 39.0859 29.6826 39.4173 29.3673C39.7638 29.0521 39.9446 28.6319 39.9446 28.1365C39.9446 27.6412 39.7789 27.1759 39.4625 26.8456ZM37.7602 29.5925H31.9302V26.5905H37.8205C38.5134 26.5905 39.0106 26.7256 39.2968 27.0108C39.583 27.2959 39.7186 27.6562 39.7186 28.1365C39.7186 28.6168 39.568 28.917 39.2667 29.1872C38.9654 29.4724 38.4683 29.6075 37.7602 29.6075V29.5925ZM40.2609 32.2793C40.1103 32.0391 39.9295 31.829 39.6885 31.6789C39.4625 31.5138 39.1763 31.3937 38.8599 31.3187C38.5436 31.2436 38.2272 31.1986 37.8807 31.1986H31.6892V34.801H37.8054C38.1368 34.801 38.4381 34.801 38.7394 34.771C39.0558 34.741 39.342 34.6809 39.5981 34.5759C39.8693 34.4708 40.0802 34.3057 40.2459 34.0805C40.4116 33.8554 40.4869 33.5402 40.4869 33.1349C40.4869 32.7296 40.4116 32.5345 40.2609 32.2793ZM37.8054 34.5609H31.9302V31.4237H37.8958C38.2122 31.4237 38.5285 31.4688 38.8147 31.5438C39.101 31.6189 39.3571 31.7239 39.568 31.874C39.7789 32.0091 39.9446 32.1893 40.0651 32.3994C40.1856 32.6095 40.2459 32.8647 40.2459 33.1349C40.2459 33.4051 40.1706 33.7503 40.05 33.9304C39.9145 34.1105 39.7337 34.2607 39.5077 34.3507C39.2667 34.4408 39.0106 34.5008 38.7243 34.5308C38.4381 34.5458 38.1218 34.5609 37.8054 34.5609ZM40.2609 32.2793C40.1103 32.0391 39.9295 31.829 39.6885 31.6789C39.4625 31.5138 39.1763 31.3937 38.8599 31.3187C38.5436 31.2436 38.2272 31.1986 37.8807 31.1986H31.6892V34.801H37.8054C38.1368 34.801 38.4381 34.801 38.7394 34.771C39.0558 34.741 39.342 34.6809 39.5981 34.5759C39.8693 34.4708 40.0802 34.3057 40.2459 34.0805C40.4116 33.8554 40.4869 33.5402 40.4869 33.1349C40.4869 32.7296 40.4116 32.5345 40.2609 32.2793ZM37.8054 34.5609H31.9302V31.4237H37.8958C38.2122 31.4237 38.5285 31.4688 38.8147 31.5438C39.101 31.6189 39.3571 31.7239 39.568 31.874C39.7789 32.0091 39.9446 32.1893 40.0651 32.3994C40.1856 32.6095 40.2459 32.8647 40.2459 33.1349C40.2459 33.4051 40.1706 33.7503 40.05 33.9304C39.9145 34.1105 39.7337 34.2607 39.5077 34.3507C39.2667 34.4408 39.0106 34.5008 38.7243 34.5308C38.4381 34.5458 38.1218 34.5609 37.8054 34.5609ZM39.4324 29.3523C39.7789 29.0371 39.9596 28.6168 39.9596 28.1215C39.9596 27.6262 39.7939 27.1609 39.4776 26.8306C39.1612 26.5154 38.6038 26.3503 37.8355 26.3503H31.7043V29.8327H37.7753C38.5285 29.8327 39.101 29.6675 39.4324 29.3523ZM31.9302 26.5905H37.8205C38.5134 26.5905 39.0106 26.7256 39.2968 27.0108C39.583 27.2959 39.7186 27.6562 39.7186 28.1365C39.7186 28.6168 39.568 28.917 39.2667 29.1872C38.9654 29.4724 38.4683 29.6075 37.7602 29.6075H31.9302V26.6055V26.5905ZM41.6017 31.4387C41.3155 31.0335 40.9539 30.7032 40.5472 30.4481C40.9087 30.1779 41.1497 29.8477 41.3004 29.4574C41.4661 29.0371 41.5414 28.5868 41.5414 28.1215C41.5414 27.6562 41.4661 27.2509 41.3155 26.8456C41.1648 26.4404 40.9388 26.0801 40.6526 25.7649C40.3664 25.4497 39.9898 25.2095 39.5529 25.0294C39.116 24.8493 38.6038 24.7592 38.0163 24.7592H30.8305C30.6347 24.7592 30.4539 24.8193 30.3183 24.9544C30.1827 25.0895 30.1074 25.2546 30.1074 25.4797V35.6716C30.1074 35.8517 30.1827 36.0319 30.3033 36.1669C30.4388 36.317 30.6196 36.3921 30.8155 36.3921H38.0013C38.5436 36.3921 39.0708 36.3471 39.568 36.257C40.0651 36.1669 40.502 35.9868 40.8786 35.7617C41.2552 35.5215 41.5565 35.1913 41.7674 34.786C41.9783 34.3807 42.0988 33.8554 42.0988 33.24C42.0988 32.6245 41.9331 31.9341 41.5866 31.4688L41.6017 31.4387ZM38.0163 36.1519H30.8305C30.6949 36.1519 30.5744 36.1069 30.484 36.0018C30.3936 35.8968 30.3485 35.7917 30.3485 35.6716V25.4797C30.3485 25.3296 30.3936 25.2095 30.484 25.1195C30.5744 25.0294 30.6949 24.9844 30.8305 24.9844H38.0163C38.5737 24.9844 39.0558 25.0744 39.4776 25.2396C39.8843 25.4047 40.2308 25.6298 40.4869 25.915C40.7581 26.2002 40.9539 26.5304 41.1046 26.9207C41.2401 27.2959 41.3155 27.7012 41.3155 28.1215C41.3155 28.5418 41.2401 28.9921 41.0895 29.3824C40.9388 29.7726 40.6677 30.1028 40.276 30.373L40.1103 30.4781L40.276 30.5682C40.7129 30.8083 41.1046 31.1385 41.4058 31.5738C41.7071 32.0091 41.8728 32.5495 41.8728 33.2099C41.8728 33.8704 41.7674 34.2757 41.5716 34.6509C41.3757 35.0262 41.1046 35.3264 40.7581 35.5365C40.4116 35.7617 40.0048 35.9118 39.5378 36.0018C39.0558 36.0919 38.5586 36.1369 38.0163 36.1369V36.1519ZM39.6885 31.6639C39.4625 31.4988 39.1763 31.3787 38.8599 31.3037C38.5436 31.2286 38.2272 31.1836 37.8807 31.1836H31.6892V34.786H37.8054C38.1368 34.786 38.4381 34.786 38.7394 34.756C39.0558 34.726 39.342 34.6659 39.5981 34.5609C39.8693 34.4558 40.0802 34.2907 40.2459 34.0655C40.4116 33.8404 40.4869 33.5252 40.4869 33.1199C40.4869 32.7146 40.4116 32.5195 40.2609 32.2643C40.1103 32.0241 39.9295 31.814 39.6885 31.6639ZM37.8054 34.5609H31.9302V31.4237H37.8958C38.2122 31.4237 38.5285 31.4688 38.8147 31.5438C39.101 31.6189 39.3571 31.7239 39.568 31.874C39.7789 32.0091 39.9446 32.1893 40.0651 32.3994C40.1856 32.6095 40.2459 32.8647 40.2459 33.1349C40.2459 33.4051 40.1706 33.7503 40.05 33.9304C39.9145 34.1105 39.7337 34.2607 39.5077 34.3507C39.2667 34.4408 39.0106 34.5008 38.7243 34.5308C38.4381 34.5458 38.1218 34.5609 37.8054 34.5609ZM39.4324 29.3523C39.7789 29.0371 39.9596 28.6168 39.9596 28.1215C39.9596 27.6262 39.7939 27.1609 39.4776 26.8306C39.1612 26.5154 38.6038 26.3503 37.8355 26.3503H31.7043V29.8327H37.7753C38.5285 29.8327 39.101 29.6675 39.4324 29.3523ZM31.9302 26.5905H37.8205C38.5134 26.5905 39.0106 26.7256 39.2968 27.0108C39.583 27.2959 39.7186 27.6562 39.7186 28.1365C39.7186 28.6168 39.568 28.917 39.2667 29.1872C38.9654 29.4724 38.4683 29.6075 37.7602 29.6075H31.9302V26.6055V26.5905Z" fill="white"/>
<path d="M56.1686 34.9361C56.0029 34.786 55.807 34.6959 55.5961 34.6959H48.0337C47.4613 34.6959 46.9792 34.5008 46.5875 34.1105C46.1958 33.7203 46 33.255 46 32.6996V31.3036H53.8637C54.0746 31.3036 54.2704 31.2286 54.4211 31.0635C54.5717 30.8984 54.6621 30.7183 54.6621 30.5081C54.6621 30.298 54.5868 30.1028 54.4211 29.9527C54.2704 29.8026 54.0746 29.7126 53.8637 29.7126H46V28.4817C46 27.9264 46.1958 27.446 46.5875 27.0708C46.9792 26.6805 47.4613 26.4854 48.0186 26.4854H55.4153C55.6413 26.4854 55.8372 26.4103 56.0029 26.2452C56.1686 26.0801 56.2439 25.9 56.2439 25.6899C56.2439 25.4797 56.1686 25.2846 56.0029 25.1345C55.8372 24.9844 55.6564 24.8943 55.4153 24.8943H48.0186C47.5064 24.8943 47.0394 24.9844 46.6176 25.1795C46.1808 25.3746 45.8042 25.6298 45.4727 25.96C45.1413 26.2753 44.8852 26.6655 44.7044 27.1008C44.5237 27.5361 44.4182 28.0014 44.4182 28.4817V32.6996C44.4182 33.1799 44.5086 33.6452 44.7044 34.0805C44.8852 34.5158 45.1564 34.8911 45.4727 35.2213C45.8042 35.5365 46.1808 35.7917 46.6176 35.9868C47.0545 36.1669 47.5215 36.272 48.0186 36.272H55.5811C55.792 36.272 55.9878 36.197 56.1535 36.0318C56.3192 35.8667 56.3945 35.7016 56.3945 35.4915C56.3945 35.2813 56.3192 35.0862 56.1535 34.9361H56.1686Z" fill="white"/>
<path d="M56.2428 34.846C56.062 34.6659 55.8361 34.5759 55.595 34.5759H48.0326C47.4903 34.5759 47.0384 34.3957 46.6768 34.0205C46.3002 33.6602 46.1345 33.225 46.1345 32.6846V31.4087H53.8927C54.1338 31.4087 54.3597 31.3187 54.5405 31.1385C54.7213 30.9584 54.8117 30.7483 54.8117 30.4931C54.8117 30.2379 54.7213 30.0278 54.5405 29.8477C54.3597 29.6675 54.1488 29.5775 53.8927 29.5775H46.1345V28.4667C46.1345 27.9414 46.3153 27.5061 46.6919 27.1308C47.0685 26.7556 47.5054 26.5905 48.0477 26.5905H55.4444C55.7005 26.5905 55.9264 26.5004 56.1072 26.3203C56.288 26.1402 56.3784 25.93 56.3784 25.6748C56.3784 25.4197 56.288 25.2095 56.1072 25.0294C55.9264 24.8493 55.7005 24.7592 55.4444 24.7592H48.0477C47.5204 24.7592 47.0384 24.8643 46.6015 25.0594C46.1646 25.2546 45.7729 25.5247 45.4264 25.855C45.08 26.1852 44.8239 26.5755 44.628 27.0258C44.4322 27.4761 44.3418 27.9564 44.3418 28.4517V32.6696C44.3418 33.1649 44.4322 33.6602 44.628 34.0955C44.8239 34.5458 45.095 34.9361 45.4264 35.2663C45.7729 35.5966 46.1646 35.8667 46.6015 36.0469C47.0534 36.242 47.5355 36.3321 48.0477 36.3321H55.6101C55.8511 36.3321 56.0771 36.242 56.2579 36.0619C56.4386 35.8817 56.5441 35.6716 56.5441 35.4465C56.5441 35.2213 56.4537 34.9811 56.2579 34.801L56.2428 34.846ZM55.595 36.1519H48.0326C47.5505 36.1519 47.0986 36.0619 46.6768 35.8817C46.255 35.7016 45.8934 35.4465 45.562 35.1462C45.2457 34.831 44.9896 34.4708 44.8088 34.0505C44.628 33.6302 44.5376 33.1799 44.5376 32.7146V28.4968C44.5376 28.0314 44.628 27.5811 44.8088 27.1609C44.9896 26.7406 45.2457 26.3653 45.562 26.0651C45.8784 25.7499 46.255 25.4947 46.6768 25.3146C47.0835 25.1345 47.5505 25.0294 48.0326 25.0294H55.4293C55.6252 25.0294 55.7909 25.0895 55.9264 25.2396C56.062 25.3746 56.1373 25.5248 56.1373 25.7199C56.1373 25.915 56.0771 26.0651 55.9264 26.2002C55.7909 26.3353 55.6252 26.3953 55.4293 26.3953H48.0326C47.4451 26.3953 46.9329 26.6055 46.5111 27.0108C46.0893 27.416 45.8784 27.9264 45.8784 28.5118V29.8477H53.8626C54.0434 29.8477 54.2091 29.9077 54.3447 30.0578C54.4802 30.1929 54.5556 30.343 54.5556 30.5381C54.5556 30.7333 54.4953 30.8834 54.3447 31.0185C54.2091 31.1536 54.0584 31.2136 53.8626 31.2136H45.8784V32.7296C45.8784 33.315 46.0893 33.8254 46.496 34.2306C46.9028 34.6359 47.415 34.846 48.0326 34.846H55.595C55.7758 34.846 55.9415 34.9061 56.0771 35.0412C56.2127 35.1763 56.288 35.3264 56.288 35.5215C56.288 35.7166 56.2127 35.8367 56.0771 35.9718C55.9264 36.1069 55.7758 36.1819 55.58 36.1819L55.595 36.1519Z" fill="white"/>
<path d="M68.9886 31.5588C68.6421 31.0335 68.1751 30.6132 67.5725 30.283C68.3107 29.6075 68.6722 28.7219 68.6722 27.6262V25.5998C68.6722 25.3446 68.612 25.1345 68.4915 24.9694C68.3709 24.8193 68.16 24.7292 67.8738 24.7292C67.5876 24.7292 67.4068 24.8043 67.2712 24.9694C67.1356 25.1345 67.0754 25.3296 67.0754 25.5998V27.6262C67.0754 28.3767 66.8795 28.9471 66.5029 29.2923C66.1263 29.6375 65.584 29.8176 64.891 29.8176H60.2511V25.6748C60.2511 25.4197 60.1909 25.1945 60.0704 25.0144C59.9498 24.8343 59.7389 24.7292 59.4527 24.7292C59.1665 24.7292 58.9707 24.8193 58.8501 25.0144C58.7146 25.1945 58.6543 25.4197 58.6543 25.6598V35.5215C58.6543 35.7767 58.7146 36.0018 58.82 36.1819C58.9255 36.3621 59.1364 36.4521 59.4527 36.4521C59.7691 36.4521 59.9498 36.3621 60.0704 36.1819C60.1909 36.0018 60.2511 35.7917 60.2511 35.5215V31.4237H65.9305C66.2468 31.4237 66.5331 31.4538 66.7741 31.5288C67.0151 31.6039 67.226 31.7239 67.4068 31.9191C67.5725 32.0992 67.7081 32.3694 67.7985 32.6996C67.8889 33.0298 67.9341 33.4651 67.9341 33.9905V35.6266C67.9341 35.8667 67.9943 36.0769 68.1299 36.242C68.2655 36.4071 68.4613 36.4972 68.7325 36.4972C69.0037 36.4972 69.2146 36.4221 69.3351 36.242C69.4707 36.0769 69.5309 35.8667 69.5309 35.5815V33.6002C69.5309 32.7897 69.3652 32.1142 69.0187 31.5738L68.9886 31.5588Z" fill="white"/>
<path d="M69.079 31.4988C68.7475 31.0035 68.3107 30.5832 67.7533 30.268C68.4312 29.5925 68.7777 28.7069 68.7777 27.6262V25.5998C68.7777 25.3146 68.7023 25.0895 68.5668 24.9093C68.4161 24.7292 68.1902 24.6241 67.8587 24.6241C67.5273 24.6241 67.3164 24.7142 67.1658 24.9093C67.0151 25.0895 66.9398 25.3296 66.9398 25.5998V27.6262C66.9398 28.3467 66.759 28.872 66.4125 29.2022C66.051 29.5325 65.5388 29.6976 64.891 29.6976H60.3716V25.6748C60.3716 25.3897 60.2963 25.1495 60.1758 24.9394C60.0252 24.7142 59.7992 24.6091 59.4678 24.6091C59.1363 24.6091 58.9254 24.7142 58.7597 24.9394C58.6091 25.1495 58.5488 25.3746 58.5488 25.6448V35.5065C58.5488 35.7917 58.6091 36.0319 58.7296 36.227C58.8652 36.4371 59.1062 36.5572 59.4678 36.5572C59.8293 36.5572 60.0402 36.4521 60.1758 36.242C60.3114 36.0469 60.3867 35.8067 60.3867 35.5215V31.5288H65.9455C66.2468 31.5288 66.518 31.5588 66.759 31.6339C66.985 31.6939 67.1808 31.814 67.3315 31.9791C67.4821 32.1592 67.6177 32.3994 67.693 32.6996C67.7683 33.0148 67.8135 33.4351 67.8135 33.9605V35.5966C67.8135 35.8667 67.8889 36.0919 68.0395 36.287C68.1902 36.4822 68.4312 36.5722 68.7325 36.5722C69.0338 36.5722 69.2748 36.4822 69.4254 36.287C69.5761 36.1069 69.6514 35.8517 69.6514 35.5665V33.5852C69.6514 32.7446 69.4706 32.0542 69.1091 31.4988H69.079ZM69.3802 35.5665C69.3802 35.8067 69.32 36.0018 69.2145 36.1519C69.1091 36.287 68.9434 36.3471 68.7023 36.3471C68.4613 36.3471 68.2956 36.287 68.1902 36.1519C68.0696 36.0018 68.0244 35.8217 68.0244 35.6116V33.9755C68.0244 33.4351 67.9792 32.9998 67.8889 32.6546C67.7985 32.3093 67.6629 32.0241 67.467 31.829C67.2863 31.6339 67.0452 31.4838 66.7891 31.4087C66.533 31.3337 66.2468 31.3037 65.9154 31.3037H60.1306V35.5215C60.1306 35.7617 60.0703 35.9568 59.9649 36.1069C59.8594 36.257 59.6937 36.3321 59.4527 36.3321C59.2117 36.3321 59.0008 36.257 58.9254 36.1219C58.8351 35.9568 58.7748 35.7617 58.7748 35.5215V25.6598C58.7748 25.4347 58.8351 25.2396 58.9556 25.0744C59.061 24.9243 59.2267 24.8493 59.4678 24.8493C59.7088 24.8493 59.8896 24.9243 59.98 25.0744C60.0854 25.2396 60.1457 25.4347 60.1457 25.6748V29.9377H64.9061C65.6292 29.9377 66.1866 29.7576 66.5933 29.3824C67 29.0071 67.1959 28.4217 67.1959 27.6262V25.5998C67.1959 25.3746 67.2561 25.1795 67.3616 25.0444C67.4671 24.9093 67.6328 24.8493 67.8738 24.8493C68.1148 24.8493 68.2956 24.9093 68.4011 25.0444C68.5065 25.1795 68.5517 25.3596 68.5517 25.5998V27.6262C68.5517 28.6919 68.1901 29.5625 67.4972 30.2079L67.3767 30.328L67.5273 30.403C68.1148 30.7032 68.5668 31.1235 68.9132 31.6339C69.2447 32.1442 69.4104 32.8047 69.4104 33.5852V35.5665H69.3802Z" fill="white"/>
<path d="M103.335 5.09594C102.974 4.63063 102.446 4.37546 101.874 4.34544C101.844 4.34544 101.814 4.34544 101.784 4.34544H100.925L83.1035 4.4355H82.3653C82.29 4.4355 82.2297 4.4355 82.1544 4.45051C81.6121 4.51055 81.1149 4.79574 80.7835 5.26106C80.4069 5.78641 80.3165 6.43185 80.5124 7.03225L81.371 9.55396L82.4256 12.646L83.239 12.1357L82.3502 9.53895L81.3861 6.71704C81.2807 6.40183 81.3259 6.0716 81.5217 5.80142C81.7175 5.53124 82.0188 5.38114 82.3502 5.36613L101.738 5.26106C102.055 5.26106 102.356 5.41116 102.537 5.65132C102.733 5.90649 102.793 6.2217 102.718 6.53692L101.919 9.53895L101.226 12.1357L98.1982 23.3783C98.0776 23.8286 97.6709 24.1288 97.2039 24.1288L88.0748 24.1588C87.6379 24.1588 87.2462 23.8886 87.1106 23.4684L84.6099 16.1584L84.5497 15.9633L83.4951 12.8712L82.6666 13.3815L83.5705 16.0083L83.6307 16.1734L85.1974 20.7515L85.6042 21.9523L86.2218 23.7836C86.493 24.5791 87.2462 25.1195 88.0748 25.1195H90.6809H91.9916H95.6974H96.6465H97.234C98.1228 25.1195 98.8911 24.5191 99.1322 23.6635L103.652 6.82211C103.817 6.2217 103.697 5.60629 103.305 5.11095L103.335 5.09594Z" fill="white"/>
<path d="M78.0265 9.55396C77.3034 15.8432 80.6929 16.2034 83.5401 16.1734C83.5703 16.1734 83.6155 16.1734 83.6607 16.1734C83.977 16.1734 84.4892 16.1734 84.6549 16.1734H84.7152C87.6528 16.0984 87.7432 12.2258 87.7432 12.2258H88.4813C88.4211 12.6911 88.4211 13.3815 88.7073 14.087C89.566 16.1584 92.5939 16.3235 93.3472 16.3836C94.2962 16.4436 97.0832 16.6237 98.3185 14.7325C98.9361 13.7868 98.8909 12.7361 98.8156 12.1657H101.753L102.657 9.56897H78.0265V9.55396ZM81.4311 14.1771L81.0394 13.5316L82.4555 12.646L83.269 12.1357L83.8414 11.7755L84.2482 12.4209L83.5251 12.8712L82.6965 13.3815L81.4311 14.1621V14.1771ZM92.835 14.1771L92.4282 13.5316L95.2453 11.7905L95.637 12.4359L92.835 14.1771Z" fill="white"/>
<path d="M90.7093 17.8177L87.8926 19.5579L88.3927 20.3616L91.2094 18.6214L90.7093 17.8177Z" fill="white"/>
<path d="M101.874 3.51988V4.81076H100.925V3.51988C100.925 2.96451 100.473 2.49919 99.9004 2.49919H84.1278C83.5704 2.49919 83.1034 2.9495 83.1034 3.51988V4.91583H82.1543V3.51988C82.1543 2.43915 83.028 1.56857 84.1127 1.56857H95.0948V1.85376H98.7404V1.56857H99.8853C100.97 1.56857 101.844 2.43915 101.844 3.51988H101.874Z" fill="white"/>
<path d="M98.6801 0.262672H95.2152C94.6428 0.262672 94.1758 0.727987 94.1758 1.29837V2.51419H99.7195V1.29837C99.7195 0.727987 99.2525 0.262672 98.6801 0.262672ZM98.7554 1.83874H95.1098V0.98316H98.7554V1.83874Z" fill="white"/>
<path d="M81.4924 35.6566C81.4924 35.6566 81.4924 35.6566 81.4774 35.6566C81.3267 35.6566 81.2062 35.5815 81.1158 35.4615L76.1294 28.7669C76.0089 28.6018 76.0089 28.3917 76.1294 28.2266C76.2349 28.0615 76.4458 27.9864 76.6416 28.0314L80.6338 29.0221L85.2736 20.7065L86.1022 21.1718L81.2815 29.8026C81.1761 29.9828 80.9652 30.0878 80.7543 30.0278L77.6962 29.2623L81.5376 34.4258L90.2449 24.2339L90.968 24.8493L81.8841 35.4915C81.7937 35.5966 81.6582 35.6566 81.5226 35.6566H81.4924Z" fill="white"/>
<path d="M101.227 36.7373C101.031 36.7373 100.85 36.6172 100.79 36.4371L99.1778 32.3093H92.3084C92.0674 32.3093 91.8715 32.1292 91.8414 31.889L91.043 24.5941L91.977 24.489L92.7302 31.3637H99.4942C99.69 31.3637 99.8708 31.4838 99.9311 31.6639L101.212 34.9511L103.682 28.4217H96.1951C95.939 28.4217 95.7281 28.2116 95.7281 27.9564V24.5491H96.6771V27.4911H104.375C104.526 27.4911 104.676 27.5661 104.767 27.7012C104.857 27.8213 104.872 27.9864 104.827 28.1365L101.679 36.4521C101.603 36.6323 101.438 36.7523 101.242 36.7523L101.227 36.7373Z" fill="white"/>
</g>
<defs>
<clipPath id="clip0_1_498">
<rect width="105" height="37" fill="white"/>
</clipPath>
</defs>
</svg>
