<svg width="164" height="58" viewBox="0 0 164 58" fill="none" xmlns="http://www.w3.org/2000/svg">
<g clip-path="url(#clip0_1_849)">
<path d="M19.206 9.91773C18.7825 9.44714 18.2649 9.23538 17.6531 9.23538H14.4531C13.8649 9.23538 13.3472 9.44714 12.9237 9.87067C12.4766 10.2942 12.2649 11.306 12.2649 11.8707C12.2649 12.4354 12.359 12.6001 12.5472 12.8589H11.1355C10.9472 12.8589 10.806 12.906 10.6649 13.0001C10.5237 13.0942 10.4531 13.2354 10.4531 13.4236C10.4531 13.6119 10.5237 13.7766 10.6649 13.8707C10.806 13.9648 10.9472 14.0119 11.1355 14.0119H18.0531C18.4531 14.0119 18.6649 13.8001 18.6649 13.4001C18.6649 13.0001 18.6178 13.1648 18.5002 13.0236C18.3825 12.8824 18.2413 12.8119 18.0531 12.8119H14.3355C14.006 12.8119 13.7002 12.7177 13.4413 12.553C13.1825 12.3883 13.0649 12.1295 13.0649 11.8001C13.0649 11.4707 13.1825 10.7177 13.4413 10.553C13.7002 10.3648 14.006 10.2942 14.359 10.2942H18.0766C18.359 10.2942 18.5943 10.4118 18.7825 10.6236C18.9707 10.8589 19.0413 11.1177 19.0413 11.4236C19.0413 11.7295 19.0884 11.6354 19.159 11.7295C19.2296 11.8236 19.3237 11.8707 19.4413 11.8707C19.559 11.8707 19.6531 11.8236 19.7237 11.7295C19.7943 11.6354 19.8413 11.5413 19.8413 11.4236C19.8413 10.8354 19.6296 10.3177 19.206 9.84715V9.91773ZM36.1237 22.0589C35.5355 22.0589 35.0178 21.9413 34.5472 21.7295C34.1002 21.4942 33.7002 21.2118 33.3708 20.8589C33.0413 20.506 32.806 20.106 32.6413 19.6354C32.4766 19.1648 32.3825 18.7177 32.3825 18.2471V2.24715C32.3825 2.01185 32.3119 1.80009 32.1237 1.61185C31.959 1.44714 31.7472 1.35303 31.5119 1.35303C31.2766 1.35303 31.0649 1.44714 30.9002 1.61185C30.7355 1.77656 30.6649 1.96479 30.6649 2.20009V18.2236C30.6649 18.8354 30.5472 19.3766 30.2884 19.8471C30.0531 20.3177 29.7002 20.7177 29.3002 21.0471C28.8766 21.3766 28.406 21.6119 27.8884 21.7766C27.3707 21.9413 26.806 22.0354 26.2413 22.0354H5.46487C4.40604 22.0354 3.53546 21.6824 2.82957 20.9766C2.12369 20.2707 1.72369 19.3766 1.67663 18.2942V17.4236C1.67663 17.2589 1.67663 17.1177 1.67663 16.9766C1.67663 16.8354 1.67663 16.6707 1.67663 16.4824C1.67663 16.2942 1.58251 16.0824 1.41781 15.9177C1.22957 15.7295 1.04134 15.6589 0.806045 15.6589C0.570751 15.6589 0.382515 15.753 0.217809 15.9177C0.0531035 16.106 -0.0410156 16.2942 -0.0410156 16.4824V18.2236C-0.0410156 19.1648 0.14722 20.0589 0.500162 20.8589C0.853103 21.6824 1.34722 22.3883 1.95898 23.0236C2.57075 23.6354 3.30016 24.1295 4.12369 24.4824C4.94722 24.8354 5.81781 25.0236 6.75899 25.0236H25.559C26.8296 25.0236 28.006 24.6942 29.0413 24.0589C30.0766 23.4001 30.8766 22.5295 31.4413 21.4707C31.9825 22.6236 32.7119 23.4942 33.6296 24.106C34.406 24.6236 35.3002 24.9295 36.3355 25.0001C36.406 25.0001 36.4531 25.0001 36.5237 25.0001C36.6649 25.0001 36.806 25.0001 36.9707 25.0001H38.4766V21.9883H36.0766L36.1237 22.0589Z" fill="white"/>
<path d="M19.348 9.80024C18.8775 9.30612 18.3127 9.0473 17.6539 9.0473H14.4539C13.8186 9.0473 13.2539 9.28259 12.7833 9.72965C12.3128 10.1767 12.0775 11.2355 12.0775 11.8708C12.0775 12.5061 12.1245 12.4591 12.2186 12.6944H11.1128C10.901 12.6944 10.6892 12.7649 10.5245 12.8826C10.3363 13.0238 10.2422 13.212 10.2422 13.4473C10.2422 13.6826 10.3833 13.9649 10.5245 14.0591C10.6892 14.1767 10.8775 14.2473 11.1128 14.2473H18.0304C18.5245 14.2473 18.8069 13.9649 18.8069 13.4473C18.8069 12.8826 18.2422 12.6944 18.0304 12.6944H14.3128C14.0069 12.6944 13.748 12.6238 13.5128 12.4591C13.301 12.3179 13.2069 12.1297 13.2069 11.8473C13.2069 11.5649 13.301 10.8826 13.5128 10.7414C13.748 10.5767 14.0069 10.5061 14.3363 10.5061H18.0539C18.2892 10.5061 18.4775 10.6002 18.6186 10.7649C18.7833 10.9532 18.8539 11.1885 18.8539 11.4708C18.8539 11.7532 18.901 11.7767 19.0186 11.8944C19.2539 12.1532 19.6539 12.1532 19.8657 11.8944C19.9833 11.7767 20.0304 11.6355 20.0304 11.4708C20.0304 10.8355 19.7951 10.2708 19.348 9.77671V9.80024ZM19.5833 11.6591C19.4892 11.7532 19.3716 11.7532 19.2775 11.6591C19.2304 11.612 19.2069 11.5414 19.2069 11.4708C19.2069 11.1179 19.1128 10.812 18.901 10.5532C18.6892 10.2944 18.4069 10.1532 18.0539 10.1532H14.3363C13.9363 10.1532 13.6069 10.2473 13.301 10.4591C12.9951 10.6708 12.8304 11.4944 12.8304 11.8708C12.8304 12.2473 12.9951 12.5767 13.301 12.7885C13.5833 12.9767 13.9363 13.0708 14.2892 13.0708H18.0069C18.1245 13.0708 18.2186 13.1179 18.3128 13.212C18.4069 13.3061 18.4304 13.4002 18.4304 13.4708C18.4304 13.7767 18.3127 13.8944 18.0069 13.8944H11.0892C10.948 13.8944 10.8304 13.8473 10.7363 13.7767C10.6892 13.7297 10.6186 13.6591 10.6186 13.4708C10.6186 13.2826 10.6657 13.2591 10.7363 13.1885C10.8304 13.1179 10.9716 13.0708 11.0892 13.0708H12.8539L12.6657 12.7885C12.501 12.5532 12.4304 12.2708 12.4304 11.8944C12.4304 11.3767 12.6186 10.412 13.0186 10.012C13.4186 9.61201 13.8892 9.42377 14.4304 9.42377H17.6304C18.1951 9.42377 18.6422 9.63553 19.0422 10.0591C19.4422 10.4826 19.6304 10.9532 19.6304 11.4944C19.6304 12.0355 19.6069 11.612 19.5598 11.6826L19.5833 11.6591ZM36.1245 21.8708C35.5598 21.8708 35.0657 21.7532 34.6422 21.5649C34.1951 21.3532 33.8186 21.0708 33.5128 20.7414C33.2069 20.412 32.9716 20.0355 32.8069 19.5885C32.6422 19.1414 32.5716 18.6944 32.5716 18.2473V2.2473C32.5716 1.94142 32.4775 1.70612 32.2657 1.49436C32.0539 1.28259 31.8186 1.18848 31.5128 1.18848C31.2069 1.18848 30.9716 1.28259 30.7598 1.49436C30.5716 1.70612 30.4775 1.94142 30.4775 2.20024V18.2238C30.4775 18.7885 30.3598 19.3061 30.1245 19.7532C29.8892 20.2002 29.5833 20.5767 29.1833 20.8826C28.7833 21.1885 28.3363 21.4238 27.8186 21.5885C27.3245 21.7532 26.7833 21.8238 26.2422 21.8238H5.46569C4.45393 21.8238 3.6304 21.4944 2.94805 20.812C2.26569 20.1297 1.91275 19.2826 1.84216 18.2708V17.4002C1.84216 17.2355 1.84216 17.0944 1.84216 16.9532C1.84216 16.812 1.84216 16.6473 1.84216 16.4591C1.84216 16.2708 1.72452 15.9649 1.51275 15.7532C1.08922 15.3297 0.453928 15.3297 0.0539282 15.7532C-0.134307 15.9649 -0.251953 16.2002 -0.251953 16.4591V18.2002C-0.251953 19.1649 -0.0637193 20.0826 0.312751 20.9061C0.689222 21.7532 1.18334 22.4826 1.81863 23.1179C2.45393 23.7532 3.18334 24.2473 4.0304 24.6238C4.87746 25.0002 5.79511 25.1885 6.75981 25.1885H25.5598C26.8775 25.1885 28.0775 24.8591 29.1363 24.1767C30.101 23.5649 30.8775 22.7885 31.4422 21.8238C31.9833 22.8355 32.6892 23.6591 33.5363 24.2238C34.3363 24.7649 35.2775 25.0708 36.3598 25.1649C36.5716 25.1649 36.7598 25.1885 36.9716 25.1885H38.6657V21.8238H36.101L36.1245 21.8708ZM38.3128 24.8826H36.9716C36.8775 24.8826 36.8069 24.8826 36.7127 24.8826C36.6422 24.8826 36.5951 24.8826 36.5245 24.8826C36.4539 24.8826 36.4069 24.8826 36.3363 24.8826C35.348 24.7885 34.4539 24.5061 33.7245 24.012C32.8304 23.4238 32.1245 22.5532 31.6069 21.4473L31.4422 21.1179L31.2775 21.4473C30.7363 22.4826 29.9363 23.3297 28.9245 23.9649C27.9128 24.6002 26.7833 24.9061 25.5363 24.9061H6.73628C5.81863 24.9061 4.94805 24.7179 4.17158 24.3885C3.37158 24.0355 2.66569 23.5649 2.07746 22.9532C1.48922 22.3649 0.995105 21.6591 0.642163 20.8591C0.289222 20.0591 0.124517 19.212 0.124517 18.2944V16.5532C0.124517 16.3885 0.195106 16.2473 0.336282 16.1061C0.618635 15.8238 0.995106 15.8238 1.27746 16.1061C1.41864 16.2473 1.48922 16.3885 1.48922 16.5532C1.48922 16.7179 1.48922 16.8826 1.48922 17.0238C1.48922 17.1649 1.48922 17.3297 1.48922 17.4944V18.3885C1.55981 19.5179 1.95981 20.4591 2.71275 21.1885C3.44216 21.9179 4.38334 22.2944 5.48922 22.2944H26.2657C26.8539 22.2944 27.4186 22.2002 27.9598 22.0355C28.501 21.8473 28.9951 21.612 29.4422 21.2591C29.8657 20.9297 30.2186 20.5061 30.4775 20.012C30.7363 19.5179 30.8775 18.9532 30.8775 18.3179V2.29436C30.8775 2.10612 30.948 1.96495 31.0657 1.82377C31.1833 1.70612 31.348 1.63553 31.5363 1.63553C31.7245 1.63553 31.8892 1.70612 32.0304 1.82377C32.1716 1.96495 32.2186 2.10612 32.2186 2.31789V18.3179C32.2186 18.812 32.3128 19.3061 32.4775 19.7767C32.6657 20.2473 32.9245 20.6944 33.2539 21.0473C33.5833 21.4002 34.0069 21.7061 34.4775 21.9414C34.9716 22.1767 35.5128 22.2944 36.1245 22.2944H38.3363V24.9297L38.3128 24.8826Z" fill="white"/>
<path d="M36.5469 22.0586V25.0704H44.0292V22.0586H36.5469Z" fill="white"/>
<path d="M36.3828 21.8706V25.2353H44.2181V21.8706H36.3828ZM43.8416 24.8824H36.7358V22.2471H43.8416V24.8824Z" fill="white"/>
<path d="M41.7715 22.0586V25.0704H49.2538V22.0586H41.7715Z" fill="white"/>
<path d="M41.582 21.8706V25.2353H49.4173V21.8706H41.582ZM49.0644 24.8824H41.9585V22.2471H49.0644V24.8824Z" fill="white"/>
<path d="M46.9941 22.0586V25.0704H54.4765V22.0586H46.9941Z" fill="white"/>
<path d="M46.8066 21.8706V25.2353H54.6419V21.8706H46.8066ZM54.289 24.8824H47.1831V22.2471H54.289V24.8824Z" fill="white"/>
<path d="M61.3467 29.9175C61.0408 29.6116 60.6173 29.4233 60.0996 29.3763H59.7231C59.2526 29.4233 58.8526 29.6116 58.5467 29.9175C58.2408 30.2233 58.0761 30.5998 58.0761 31.0704C58.0761 31.541 58.2408 31.8939 58.5467 32.1998C58.8526 32.5057 59.2526 32.6704 59.7231 32.7175H60.0996C60.6173 32.6704 61.0408 32.5057 61.3467 32.1998C61.6526 31.8939 61.8173 31.5175 61.8173 31.0704C61.8173 30.6233 61.6526 30.2469 61.3467 29.9175ZM62.0526 11.3292C61.8643 11.141 61.6761 11.0469 61.4408 11.0469C61.2055 11.0469 60.9937 11.141 60.829 11.3292C60.6643 11.5175 60.5937 11.7057 60.5937 11.8939V18.2469C60.5937 18.7881 60.4996 19.2822 60.2878 19.7528C60.0761 20.2233 59.8173 20.6233 59.4643 20.9763C59.1114 21.3057 58.7114 21.5881 58.2643 21.7763C57.7937 21.9645 57.2996 22.0586 56.7584 22.0586H52.0996V25.0704H55.5114C56.4526 25.0704 57.3467 24.8822 58.1467 24.5292C58.9702 24.1763 59.6761 23.6822 60.3114 23.0704C60.9231 22.4586 61.4173 21.7292 61.7702 20.9057C62.1231 20.0822 62.3114 19.2116 62.3114 18.2704V11.941C62.3114 11.7057 62.2173 11.5175 62.0526 11.3292Z" fill="white"/>
<path d="M62.1708 11.1883C61.9591 10.9765 61.6767 10.8589 61.4179 10.8589C61.1591 10.8589 60.8767 10.9765 60.6885 11.1883C60.5002 11.4001 60.4061 11.6354 60.4061 11.8942V18.2471C60.4061 18.7648 60.312 19.2354 60.1238 19.6824C59.9355 20.1295 59.6767 20.5059 59.3473 20.8354C59.0179 21.1648 58.6414 21.4001 58.1944 21.5883C57.7473 21.7765 57.2767 21.8707 56.7591 21.8707H51.9355V25.2354H55.512C56.4767 25.2354 57.3944 25.0471 58.2179 24.6707C59.065 24.2942 59.7944 23.8001 60.4297 23.1648C61.065 22.5295 61.5591 21.8001 61.9355 20.953C62.312 20.1059 62.5003 19.1883 62.5003 18.2471V11.9177C62.5003 11.6354 62.3826 11.4001 62.1708 11.1883ZM62.1238 18.2471C62.1238 19.1648 61.9355 20.0354 61.6061 20.8118C61.2532 21.6118 60.7826 22.3177 60.1708 22.9059C59.5826 23.4942 58.8767 23.9883 58.0767 24.3412C57.2767 24.6942 56.4297 24.8589 55.512 24.8589H52.2885V22.2236H56.7591C57.3238 22.2236 57.8414 22.1295 58.3355 21.9177C58.8061 21.7295 59.2297 21.4471 59.6061 21.0942C59.9591 20.7412 60.265 20.3177 60.4767 19.8236C60.6885 19.3295 60.7826 18.8118 60.7826 18.2236V11.8707C60.7826 11.7059 60.8532 11.5648 60.9708 11.4236C61.0885 11.2824 61.2532 11.2118 61.4414 11.2118C61.6297 11.2118 61.7708 11.2824 61.912 11.4236C62.0532 11.5648 62.1238 11.7295 62.1238 11.8942V18.2236V18.2471ZM61.465 29.7765C61.112 29.4471 60.665 29.2354 60.1002 29.1883H59.7003C59.1826 29.2354 58.7591 29.4471 58.4061 29.7765C58.0532 30.1295 57.8885 30.553 57.8885 31.0471C57.8885 31.5412 58.0767 31.9648 58.4061 32.3177C58.7591 32.6471 59.1826 32.8354 59.7003 32.8824H60.1002C60.665 32.8354 61.112 32.6471 61.465 32.3177C61.8179 31.9883 61.9826 31.5648 61.9826 31.0471C61.9826 30.5295 61.7944 30.1295 61.465 29.7765ZM60.1002 32.5295H59.7473C59.3238 32.4824 58.9708 32.3412 58.6885 32.0589C58.4061 31.8001 58.265 31.4707 58.265 31.0707C58.265 30.6707 58.4061 30.3412 58.6885 30.0589C58.9708 29.7765 59.3238 29.6118 59.7238 29.5648H60.0767C60.5473 29.6118 60.9238 29.753 61.2061 30.0589C61.4885 30.3412 61.6297 30.6707 61.6297 31.0707C61.6297 31.4707 61.4885 31.8001 61.2061 32.0589C60.9238 32.3412 60.5473 32.4824 60.0767 32.5295H60.1002Z" fill="white"/>
<path d="M82.6885 22.0588V18.2941C82.6885 17.353 82.5003 16.4588 82.1473 15.6588C81.7944 14.8353 81.3003 14.1294 80.6885 13.4941C80.0767 12.8824 79.3473 12.3883 78.5238 12.0353C77.7003 11.6824 76.8297 11.4941 75.8885 11.4941H73.2297C72.2885 11.4941 71.3944 11.6824 70.5944 12.0353C69.7709 12.3883 69.065 12.8824 68.4297 13.4941C67.8179 14.1059 67.3238 14.8353 66.9709 15.6588C66.6179 16.4824 66.4297 17.353 66.4297 18.2706C66.4297 19.1883 66.6179 20.1059 66.9709 20.9059C67.3238 21.7294 67.8179 22.4353 68.4297 23.0706C69.0415 23.6824 69.7709 24.1765 70.5944 24.5294C71.4179 24.8824 72.2885 25.0706 73.2297 25.0706H81.0179V27.4941C81.0179 28.2706 80.7356 28.9059 80.1473 29.353C79.5591 29.8 78.9003 30.0353 78.1238 30.0353H68.2179C67.6767 30.0353 67.2532 30.153 66.9238 30.4118C66.5944 30.6471 66.4297 31.0236 66.4297 31.5177C66.4297 32.0118 66.5944 32.3883 66.9238 32.6236C67.2532 32.8824 67.6767 33 68.1473 33H75.9826C78.1473 33 79.8179 32.5059 80.9709 31.4941C82.1238 30.5059 82.6885 28.7883 82.6885 26.3883V25.0706H88.312V22.0588H82.6885ZM72.3591 14.4588H76.2885C76.9003 14.4588 77.4885 14.553 78.0532 14.7177C78.6179 14.8824 79.112 15.1412 79.5591 15.4471C80.0062 15.7765 80.3591 16.1765 80.6179 16.6706C80.8767 17.1412 81.0179 17.7059 81.0179 18.2941V22.0588H72.8062C72.2179 22.0588 71.6532 21.9883 71.0885 21.8236C70.5238 21.6588 70.0297 21.4235 69.5826 21.0941C69.1356 20.7647 68.7826 20.3647 68.5238 19.8941C68.265 19.4236 68.1238 18.8824 68.1238 18.2471C68.1238 17.6118 68.2414 17.1883 68.4767 16.7177C68.712 16.2471 69.0179 15.8706 69.4179 15.5177C69.8179 15.1883 70.265 14.9294 70.7591 14.7177C71.2767 14.5294 71.7944 14.4353 72.3591 14.4353V14.4588Z" fill="white"/>
<path d="M80.7599 16.5763C80.4776 16.0586 80.1011 15.6351 79.654 15.3057C79.207 14.9763 78.6658 14.7174 78.1011 14.5292C77.5129 14.3645 76.9246 14.2704 76.2893 14.2704H72.3599C71.7717 14.2704 71.2305 14.3645 70.6893 14.5763C70.1717 14.7645 69.7011 15.0468 69.2776 15.3998C68.8776 15.7527 68.5246 16.1763 68.2893 16.6468C68.054 17.141 67.9129 17.6821 67.9129 18.2704C67.9129 18.8586 68.054 19.5174 68.3364 20.0115C68.6188 20.5057 68.9952 20.9292 69.4423 21.2586C69.8893 21.588 70.407 21.8468 70.9952 22.0115C71.5599 22.1763 72.1482 22.2468 72.7599 22.2468H81.1599V18.2939C81.1599 17.6586 81.0188 17.0704 80.7364 16.5763H80.7599ZM80.8305 21.8704H72.807C72.2423 21.8704 71.6776 21.7998 71.1364 21.6351C70.5952 21.4939 70.1246 21.2586 69.7011 20.9292C69.2776 20.6233 68.9482 20.2468 68.6893 19.7998C68.4305 19.3527 68.3129 18.8351 68.3129 18.2468C68.3129 17.6586 68.4305 17.2351 68.6423 16.788C68.8776 16.341 69.1599 15.9645 69.5364 15.6586C69.9129 15.3292 70.3364 15.0704 70.8305 14.9057C71.3011 14.7174 71.8188 14.6233 72.3599 14.6233H76.2893C76.8776 14.6233 77.4423 14.7174 77.9835 14.8586C78.5246 15.0233 78.9952 15.2586 79.4188 15.5645C79.8423 15.8704 80.1717 16.2704 80.4305 16.7174C80.6893 17.1645 80.807 17.6821 80.807 18.2704V21.8468L80.8305 21.8704ZM80.7599 16.5763C80.4776 16.0586 80.1011 15.6351 79.654 15.3057C79.207 14.9763 78.6658 14.7174 78.1011 14.5292C77.5129 14.3645 76.9246 14.2704 76.2893 14.2704H72.3599C71.7717 14.2704 71.2305 14.3645 70.6893 14.5763C70.1717 14.7645 69.7011 15.0468 69.2776 15.3998C68.8776 15.7527 68.5246 16.1763 68.2893 16.6468C68.054 17.141 67.9129 17.6821 67.9129 18.2704C67.9129 18.8586 68.054 19.5174 68.3364 20.0115C68.6188 20.5057 68.9952 20.9292 69.4423 21.2586C69.8893 21.588 70.407 21.8468 70.9952 22.0115C71.5599 22.1763 72.1482 22.2468 72.7599 22.2468H81.1599V18.2939C81.1599 17.6586 81.0188 17.0704 80.7364 16.5763H80.7599ZM80.8305 21.8704H72.807C72.2423 21.8704 71.6776 21.7998 71.1364 21.6351C70.5952 21.4939 70.1246 21.2586 69.7011 20.9292C69.2776 20.6233 68.9482 20.2468 68.6893 19.7998C68.4305 19.3527 68.3129 18.8351 68.3129 18.2468C68.3129 17.6586 68.4305 17.2351 68.6423 16.788C68.8776 16.341 69.1599 15.9645 69.5364 15.6586C69.9129 15.3292 70.3364 15.0704 70.8305 14.9057C71.3011 14.7174 71.8188 14.6233 72.3599 14.6233H76.2893C76.8776 14.6233 77.4423 14.7174 77.9835 14.8586C78.5246 15.0233 78.9952 15.2586 79.4188 15.5645C79.8423 15.8704 80.1717 16.2704 80.4305 16.7174C80.6893 17.1645 80.807 17.6821 80.807 18.2704V21.8468L80.8305 21.8704ZM82.8776 21.8704V18.2939C82.8776 17.3292 82.6893 16.4115 82.3129 15.588C81.9364 14.741 81.4423 14.0115 80.807 13.3763C80.1717 12.741 79.4188 12.2468 78.5952 11.8704C77.7482 11.4939 76.8305 11.3057 75.8893 11.3057H73.2305C72.2658 11.3057 71.3482 11.4939 70.5011 11.8704C69.6776 12.2468 68.9246 12.741 68.2893 13.3763C67.654 14.0115 67.1599 14.741 66.7835 15.588C66.407 16.4351 66.2423 17.3292 66.2423 18.2704C66.2423 19.2115 66.4305 20.1527 66.7835 20.9763C67.1364 21.7998 67.654 22.5527 68.2893 23.188C68.9246 23.8233 69.654 24.3174 70.5011 24.6939C71.3482 25.0704 72.2423 25.2586 73.207 25.2586H80.807V27.4939C80.807 28.2233 80.5482 28.788 80.007 29.2115C79.4658 29.6351 78.807 29.8468 78.1011 29.8468H68.1952C67.607 29.8468 67.1364 29.988 66.7835 30.2468C66.407 30.5292 66.2188 30.9527 66.2188 31.5174C66.2188 32.0821 66.407 32.4821 66.807 32.7645C67.1835 33.0233 67.607 33.1645 68.1246 33.1645H75.9599C78.1717 33.1645 79.8893 32.6468 81.0658 31.6115C82.2423 30.5763 82.854 28.8115 82.854 26.3645V25.2351H88.4776V21.8704H82.854H82.8776ZM88.1482 24.8821H82.5246V26.388C82.5246 28.7174 81.9599 30.388 80.8776 31.3527C79.7717 32.3174 78.1482 32.8115 76.007 32.8115H68.1717C67.7246 32.8115 67.3717 32.6939 67.0658 32.4821C66.7835 32.2704 66.6423 31.9645 66.6423 31.5174C66.6423 31.0704 66.7835 30.7645 67.0658 30.5527C67.3482 30.341 67.7482 30.2233 68.2423 30.2233H78.1482C78.9482 30.2233 79.6776 29.988 80.2893 29.5174C80.9246 29.0233 81.2305 28.3645 81.2305 27.5174V24.9057H73.2776C72.3599 24.9057 71.4893 24.7174 70.7129 24.388C69.9129 24.0351 69.207 23.5645 68.6188 22.9527C68.0305 22.3645 67.5364 21.6586 67.1835 20.8586C66.8305 20.0586 66.6658 19.2115 66.6658 18.2939C66.6658 17.3763 66.854 16.5527 67.1835 15.7527C67.5364 14.9527 68.007 14.2468 68.6188 13.6586C69.207 13.0704 69.9129 12.5763 70.7129 12.2233C71.5129 11.8704 72.3599 11.7057 73.2776 11.7057H75.9364C76.854 11.7057 77.7011 11.8939 78.5011 12.2233C79.3011 12.5763 80.007 13.0468 80.5952 13.6586C81.1835 14.2468 81.6776 14.9527 82.0305 15.7527C82.3835 16.5527 82.5482 17.4233 82.5482 18.3174V22.2704H88.1717V24.9057L88.1482 24.8821ZM79.654 15.3057C79.207 14.9763 78.6658 14.7174 78.1011 14.5292C77.5129 14.3645 76.9246 14.2704 76.2893 14.2704H72.3599C71.7717 14.2704 71.2305 14.3645 70.6893 14.5763C70.1717 14.7645 69.7011 15.0468 69.2776 15.3998C68.8776 15.7527 68.5246 16.1763 68.2893 16.6468C68.054 17.141 67.9129 17.6821 67.9129 18.2704C67.9129 18.8586 68.054 19.5174 68.3364 20.0115C68.6188 20.5057 68.9952 20.9292 69.4423 21.2586C69.8893 21.588 70.407 21.8468 70.9952 22.0115C71.5599 22.1763 72.1482 22.2468 72.7599 22.2468H81.1599V18.2939C81.1599 17.6586 81.0188 17.0704 80.7364 16.5763C80.454 16.0586 80.0776 15.6351 79.6305 15.3057H79.654ZM80.8305 21.8704H72.807C72.2423 21.8704 71.6776 21.7998 71.1364 21.6351C70.5952 21.4939 70.1246 21.2586 69.7011 20.9292C69.2776 20.6233 68.9482 20.2468 68.6893 19.7998C68.4305 19.3527 68.3129 18.8351 68.3129 18.2468C68.3129 17.6586 68.4305 17.2351 68.6423 16.788C68.8776 16.341 69.1599 15.9645 69.5364 15.6586C69.9129 15.3292 70.3364 15.0704 70.8305 14.9057C71.3011 14.7174 71.8188 14.6233 72.3599 14.6233H76.2893C76.8776 14.6233 77.4423 14.7174 77.9835 14.8586C78.5246 15.0233 78.9952 15.2586 79.4188 15.5645C79.8423 15.8704 80.1717 16.2704 80.4305 16.7174C80.6893 17.1645 80.807 17.6821 80.807 18.2704V21.8468L80.8305 21.8704Z" fill="white"/>
<path d="M107.135 15.6589C106.782 14.8354 106.288 14.1295 105.676 13.4942C105.064 12.8824 104.335 12.3883 103.511 12.0354C102.688 11.6824 101.817 11.4942 100.876 11.4942H92.1466L101.417 2.17653C101.535 2.03536 101.582 1.89418 101.582 1.72947C101.582 1.44712 101.488 1.21183 101.323 1.07065C101.158 0.929475 100.947 0.858887 100.735 0.858887C100.523 0.858887 100.264 0.953003 100.053 1.16477L89.4172 11.8707C89.0643 12.1765 88.8761 12.553 88.8761 12.9765C88.8761 13.4001 89.0172 13.7295 89.3231 14.0118C89.629 14.2942 89.9584 14.4589 90.3584 14.4589H102.147C102.688 14.4589 103.182 14.553 103.653 14.7648C104.123 14.9765 104.523 15.2354 104.853 15.5883C105.182 15.9412 105.464 16.3412 105.653 16.8118C105.864 17.2824 105.958 17.753 105.958 18.2706C105.958 18.7883 105.864 19.3059 105.653 19.7765C105.441 20.2471 105.182 20.6471 104.853 21.0001C104.523 21.353 104.123 21.6118 103.653 21.8001C103.182 21.9883 102.688 22.0824 102.147 22.0824H85.6055V25.0942H100.853C101.794 25.0942 102.688 24.9059 103.488 24.553C104.311 24.2001 105.017 23.7059 105.653 23.0942C106.264 22.4824 106.758 21.753 107.111 20.9295C107.464 20.1059 107.653 19.2354 107.653 18.2942C107.653 17.353 107.464 16.5059 107.111 15.6824L107.135 15.6589Z" fill="white"/>
<path d="M107.324 15.5648C106.971 14.7178 106.453 13.9884 105.818 13.3531C105.183 12.7178 104.453 12.2237 103.606 11.8472C102.759 11.4707 101.841 11.2825 100.877 11.2825H92.5944L101.559 2.24719C101.7 2.08248 101.771 1.89425 101.771 1.68248C101.771 1.32954 101.653 1.07072 101.441 0.882482C101.018 0.506011 100.383 0.529541 99.9356 0.9766L89.3003 11.6825C88.9003 12.0354 88.6886 12.459 88.6886 12.9295C88.6886 13.4001 88.8533 13.7766 89.2062 14.106C89.5356 14.4354 89.9356 14.6001 90.3591 14.6001H102.147C102.665 14.6001 103.136 14.6942 103.583 14.8825C104.03 15.0707 104.406 15.3295 104.712 15.659C105.042 15.9884 105.3 16.3648 105.489 16.8119C105.677 17.2354 105.771 17.706 105.771 18.2001C105.771 18.6942 105.677 19.1884 105.489 19.6354C105.3 20.0825 105.042 20.459 104.712 20.7884C104.406 21.1178 104.006 21.3766 103.583 21.5648C103.159 21.7531 102.665 21.8472 102.147 21.8472H85.418V25.2119H100.853C101.818 25.2119 102.736 25.0237 103.583 24.6472C104.43 24.2707 105.159 23.7766 105.794 23.1413C106.43 22.506 106.924 21.7766 107.3 20.9295C107.677 20.0825 107.865 19.1648 107.865 18.2237C107.865 17.2825 107.677 16.3884 107.3 15.5413L107.324 15.5648ZM100.877 24.8825H85.7944V22.2472H102.147C102.712 22.2472 103.23 22.1531 103.724 21.9413C104.218 21.7531 104.642 21.4472 104.971 21.0942C105.324 20.7413 105.606 20.3178 105.818 19.8237C106.03 19.3531 106.124 18.8119 106.124 18.2472C106.124 17.6825 106.006 17.1884 105.818 16.7178C105.606 16.2472 105.324 15.8237 104.971 15.4472C104.618 15.0942 104.194 14.7884 103.724 14.5766C103.23 14.3648 102.712 14.2472 102.147 14.2472H90.3591C90.0297 14.2472 89.7239 14.1295 89.465 13.8707C89.2062 13.6119 89.065 13.306 89.065 12.9531C89.065 12.6001 89.2297 12.2707 89.5591 11.9648L100.194 1.25895C100.5 0.92954 100.924 0.929541 101.206 1.18836C101.324 1.30601 101.394 1.47072 101.394 1.70601C101.394 1.94131 101.347 1.91778 101.277 2.01189L91.7003 11.659H100.853C101.771 11.659 102.642 11.8472 103.418 12.1766C104.218 12.5295 104.924 13.0001 105.512 13.6119C106.1 14.2001 106.594 14.906 106.947 15.706C107.3 16.506 107.465 17.3531 107.465 18.2472C107.465 19.1413 107.277 20.0119 106.947 20.8119C106.594 21.6119 106.124 22.3178 105.512 22.906C104.924 23.4942 104.218 23.9884 103.418 24.3413C102.618 24.6942 101.771 24.859 100.853 24.859L100.877 24.8825Z" fill="white"/>
<path d="M19.0648 48.4589C18.4766 47.5412 17.606 46.8118 16.4766 46.2707C17.1825 45.6354 17.7001 44.9295 17.9825 44.153C18.2648 43.3765 18.4295 42.5059 18.4295 41.5648V38.0354C18.4295 37.5648 18.3354 37.1883 18.1236 36.906C17.9119 36.6236 17.5825 36.4824 17.0883 36.4824C16.5942 36.4824 16.2413 36.6236 16.0295 36.906C15.8178 37.1883 15.7001 37.5648 15.7001 38.0354V41.5648C15.7001 42.7177 15.3942 43.6354 14.7825 44.3412C14.1707 45.0471 13.206 45.4001 11.8648 45.4001H3.74717V38.0589C3.74717 37.5648 3.62953 37.1883 3.41776 36.906C3.206 36.6236 2.85306 36.4824 2.35894 36.4824C1.86482 36.4824 1.55894 36.6236 1.32364 36.906C1.08835 37.1883 0.970703 37.5883 0.970703 38.0589V55.3765C0.970703 55.8471 1.06482 56.2471 1.27659 56.5765C1.48835 56.906 1.84129 57.0707 2.35894 57.0707C2.87659 57.0707 3.206 56.906 3.41776 56.5765C3.62953 56.2471 3.74717 55.8471 3.74717 55.3765V48.1765H13.6531C14.2178 48.1765 14.7119 48.2236 15.1589 48.3412C15.606 48.4589 15.9589 48.6707 16.2648 49.0001C16.5707 49.3295 16.806 49.7765 16.9472 50.3883C17.1119 50.9765 17.1825 51.753 17.1825 52.6942V55.6589C17.1825 56.1059 17.2766 56.4589 17.4883 56.7177C17.7001 56.9765 18.0295 57.0942 18.5236 57.0942C19.0178 57.0942 19.3707 56.953 19.606 56.6471C19.8413 56.3648 19.9354 55.9883 19.9354 55.5412V52.0118C19.9354 50.5765 19.6531 49.4001 19.0648 48.4824V48.4589Z" fill="white"/>
<path d="M19.2302 48.3645C18.6655 47.4939 17.8655 46.7645 16.8066 46.2234C17.4419 45.6116 17.9125 44.9528 18.1713 44.1998C18.4772 43.3998 18.6184 42.5057 18.6184 41.541V38.0116C18.6184 37.4939 18.5008 37.0939 18.289 36.7881C18.0537 36.4587 17.6537 36.2939 17.089 36.2939C16.5243 36.2939 16.1243 36.4587 15.889 36.7881C15.6537 37.0939 15.536 37.5175 15.536 38.0351V41.5645C15.536 42.6704 15.2537 43.5645 14.6655 44.2234C14.1008 44.8822 13.1596 45.2116 11.8655 45.2116H3.93605V38.0587C3.93605 37.5175 3.8184 37.0939 3.58311 36.7881C3.34782 36.4587 2.92429 36.2939 2.38311 36.2939C1.84193 36.2939 1.48899 36.4587 1.20664 36.7881C0.947816 37.0939 0.806641 37.541 0.806641 38.0587V55.3763C0.806641 55.8939 0.924286 56.3175 1.13605 56.6704C1.37135 57.0469 1.79488 57.2351 2.35958 57.2351C2.92429 57.2351 3.32429 57.0469 3.58311 56.6704C3.8184 56.3175 3.93605 55.8704 3.93605 55.3763V48.341H13.6537C14.1949 48.341 14.689 48.3881 15.1125 48.5057C15.5125 48.5998 15.8655 48.8116 16.1243 49.1175C16.4066 49.4234 16.6184 49.8469 16.7831 50.4116C16.9478 50.9998 17.0184 51.7528 17.0184 52.6704V55.6351C17.0184 56.1292 17.136 56.5292 17.3713 56.8116C17.6066 57.1175 18.0066 57.2822 18.5713 57.2822C19.1361 57.2822 19.5361 57.1175 19.7949 56.7645C20.0537 56.4351 20.1713 56.0351 20.1713 55.541V52.0116C20.1713 50.5528 19.8655 49.3292 19.2772 48.3645H19.2302ZM19.7713 55.541C19.7713 55.941 19.6772 56.2704 19.4655 56.5292C19.2772 56.7645 18.9713 56.8822 18.5243 56.8822C18.0772 56.8822 17.7949 56.7645 17.6302 56.5763C17.4419 56.341 17.3713 56.0351 17.3713 55.6351V52.6704C17.3713 51.7292 17.3008 50.9292 17.136 50.3175C16.9713 49.7057 16.7125 49.2116 16.4066 48.8586C16.0772 48.5057 15.6772 48.2704 15.2066 48.1528C14.7596 48.0351 14.2419 47.9645 13.6537 47.9645H3.55958V55.3528C3.55958 55.7763 3.46546 56.1528 3.27723 56.4587C3.08899 56.741 2.80664 56.8586 2.35958 56.8586C1.91252 56.8586 1.60664 56.7175 1.44193 56.4587C1.2537 56.1763 1.15958 55.7998 1.15958 55.3528V38.0351C1.15958 37.5881 1.2537 37.2351 1.46546 36.9998C1.67723 36.7645 1.95958 36.6469 2.35958 36.6469C2.75958 36.6469 3.08899 36.7645 3.27723 36.9998C3.46546 37.2351 3.55958 37.5881 3.55958 38.0587V45.5881H11.8655C13.2537 45.5881 14.289 45.2116 14.9243 44.4587C15.5596 43.7292 15.8655 42.741 15.8655 41.5645V38.0351C15.8655 37.6116 15.9596 37.2587 16.1478 37.0234C16.3125 36.7881 16.6184 36.6704 17.0655 36.6704C17.5125 36.6704 17.7949 36.7881 17.9596 37.0234C18.1478 37.2587 18.2184 37.6116 18.2184 38.0351V41.5645C18.2184 42.4822 18.0772 43.3292 17.7949 44.1057C17.5125 44.8587 17.0184 45.541 16.3361 46.1528L16.1243 46.341L16.3831 46.4587C17.489 46.9763 18.3361 47.6822 18.9008 48.5763C19.4655 49.4704 19.7478 50.6234 19.7478 52.0116V55.541H19.7713Z" fill="white"/>
<path d="M41.4644 42.4823C41.1821 41.7999 40.7821 41.2117 40.2644 40.694C39.7703 40.1764 39.1585 39.7764 38.4762 39.4705C37.7938 39.1646 37.0644 39.0234 36.3115 39.0234H29.6762C28.9232 39.0234 28.1938 39.1646 27.5115 39.4705C26.8291 39.7764 26.2173 40.1764 25.7232 40.694C25.2291 41.1881 24.8291 41.7999 24.5232 42.4823C24.2409 43.1646 24.0762 43.894 24.0762 44.647V51.2587C24.0762 52.0117 24.2174 52.7411 24.5232 53.4234C24.8056 54.1058 25.2056 54.694 25.7232 55.2117C26.2173 55.7058 26.8291 56.1058 27.5115 56.4117C28.1938 56.694 28.9232 56.8587 29.6762 56.8587H36.3115C37.0644 56.8587 37.7938 56.7176 38.4762 56.4117C39.1585 56.1293 39.7468 55.7293 40.2644 55.2117C40.7821 54.7176 41.1585 54.1058 41.4644 53.4234C41.7468 52.7411 41.9115 52.0117 41.9115 51.2587V44.647C41.9115 43.894 41.7703 43.1646 41.4644 42.4823ZM26.5938 50.9293V44.6705C26.5938 43.7293 26.9232 42.9764 27.6056 42.3881C28.2879 41.8234 29.0879 41.5411 30.0291 41.5411H36.335C37.2997 41.5411 38.0526 41.894 38.6173 42.5764C39.1821 43.2587 39.4644 44.0823 39.4644 45.0234V51.2823C39.4644 52.2234 39.135 52.9764 38.4526 53.5411C37.7703 54.1058 36.9703 54.3881 36.0291 54.3881H29.6997C28.7585 54.3881 28.0056 54.0587 27.4409 53.3999C26.8762 52.7411 26.5938 51.9176 26.5938 50.9528V50.9293Z" fill="white"/>
<path d="M38.759 42.4354C38.1708 41.7059 37.3472 41.3295 36.3355 41.3295H30.0296C29.0413 41.3295 28.1943 41.6354 27.4884 42.2236C26.7825 42.8354 26.406 43.6354 26.406 44.6471V50.9059C26.406 51.9177 26.7119 52.7648 27.3002 53.4707C27.8884 54.1765 28.7119 54.5295 29.7002 54.5295H36.0296C37.0178 54.5295 37.8649 54.2236 38.5707 53.6354C39.2766 53.0471 39.6531 52.2236 39.6531 51.2354V44.9765C39.6531 43.9883 39.3472 43.1412 38.759 42.4118V42.4354ZM39.2766 51.2589C39.2766 52.153 38.9707 52.8589 38.3355 53.3765C37.7002 53.8942 36.9237 54.1765 36.0296 54.1765H29.7002C28.806 54.1765 28.1237 53.8707 27.5825 53.2589C27.0413 52.6236 26.7825 51.8471 26.7825 50.9295V44.6707C26.7825 43.7765 27.0884 43.0707 27.7237 42.5295C28.359 41.9883 29.1355 41.7059 30.0296 41.7059H36.3355C37.2531 41.7059 37.959 42.0118 38.4766 42.6707C39.0178 43.3295 39.2766 44.1059 39.2766 45.0001V51.2589ZM38.759 42.4354C38.1708 41.7059 37.3472 41.3295 36.3355 41.3295H30.0296C29.0413 41.3295 28.1943 41.6354 27.4884 42.2236C26.7825 42.8354 26.406 43.6354 26.406 44.6471V50.9059C26.406 51.9177 26.7119 52.7648 27.3002 53.4707C27.8884 54.1765 28.7119 54.5295 29.7002 54.5295H36.0296C37.0178 54.5295 37.8649 54.2236 38.5707 53.6354C39.2766 53.0471 39.6531 52.2236 39.6531 51.2354V44.9765C39.6531 43.9883 39.3472 43.1412 38.759 42.4118V42.4354ZM39.2766 51.2589C39.2766 52.153 38.9707 52.8589 38.3355 53.3765C37.7002 53.8942 36.9237 54.1765 36.0296 54.1765H29.7002C28.806 54.1765 28.1237 53.8707 27.5825 53.2589C27.0413 52.6236 26.7825 51.8471 26.7825 50.9295V44.6707C26.7825 43.7765 27.0884 43.0707 27.7237 42.5295C28.359 41.9883 29.1355 41.7059 30.0296 41.7059H36.3355C37.2531 41.7059 37.959 42.0118 38.4766 42.6707C39.0178 43.3295 39.2766 44.1059 39.2766 45.0001V51.2589ZM41.6296 42.4118C41.3237 41.7059 40.9237 41.0942 40.406 40.5765C39.8884 40.0589 39.2766 39.6354 38.5707 39.3295C37.8649 39.0236 37.1119 38.8589 36.3355 38.8589H29.7002C28.9237 38.8589 28.1708 39.0236 27.4649 39.3295C26.759 39.6354 26.1472 40.0589 25.6296 40.5765C25.1119 41.0942 24.6884 41.7059 24.406 42.4118C24.1002 43.1177 23.959 43.8707 23.959 44.6471V51.2589C23.959 52.0354 24.1002 52.8118 24.406 53.4942C24.7119 54.2001 25.1119 54.8118 25.6296 55.3295C26.1472 55.8471 26.7825 56.2707 27.4649 56.553C28.1708 56.8589 28.9237 57.0001 29.7002 57.0001H36.3355C37.1119 57.0001 37.8649 56.8354 38.5707 56.553C39.2766 56.2471 39.8884 55.8471 40.406 55.3295C40.9237 54.8118 41.3472 54.2001 41.6296 53.4942C41.9355 52.7883 42.0766 52.0354 42.0766 51.2589V44.6471C42.0766 43.8707 41.9355 43.1177 41.6296 42.4118ZM41.7237 51.2589C41.7237 51.9883 41.5825 52.6942 41.3002 53.353C41.0178 54.0118 40.6413 54.6001 40.1472 55.0707C39.6531 55.5412 39.0884 55.9412 38.4296 56.2236C37.7708 56.5059 37.0649 56.6471 36.3355 56.6471H29.7002C28.9708 56.6471 28.2649 56.5059 27.606 56.2236C26.9472 55.9412 26.359 55.5648 25.8884 55.0707C25.4178 54.5765 25.0178 54.0118 24.7355 53.353C24.4531 52.6942 24.3119 51.9883 24.3119 51.2589V44.6471C24.3119 43.9177 24.4531 43.2118 24.7355 42.553C25.0178 41.8942 25.3943 41.3059 25.8884 40.8354C26.3825 40.3412 26.9708 39.9412 27.6296 39.6589C28.2884 39.3765 28.9943 39.2118 29.7237 39.2118H36.359C37.0884 39.2118 37.7943 39.353 38.4531 39.6589C39.1119 39.9412 39.7002 40.3412 40.1943 40.8354C40.6884 41.3295 41.0649 41.8942 41.3472 42.553C41.6296 43.2118 41.7707 43.9177 41.7707 44.6471V51.2589H41.7237ZM36.3119 41.353H30.006C29.0178 41.353 28.1708 41.6589 27.4649 42.2471C26.759 42.8589 26.3825 43.6589 26.3825 44.6707V50.9295C26.3825 51.9412 26.6884 52.7883 27.2766 53.4942C27.8649 54.2001 28.6884 54.553 29.6766 54.553H36.006C36.9943 54.553 37.8413 54.2471 38.5472 53.6589C39.2531 53.0707 39.6296 52.2471 39.6296 51.2589V45.0001C39.6296 44.0118 39.3237 43.1648 38.7355 42.4354C38.1472 41.7059 37.3237 41.3295 36.3119 41.3295V41.353ZM39.2766 51.2589C39.2766 52.153 38.9707 52.8589 38.3355 53.3765C37.7002 53.8942 36.9237 54.1765 36.0296 54.1765H29.7002C28.806 54.1765 28.1237 53.8707 27.5825 53.2589C27.0413 52.6236 26.7825 51.8471 26.7825 50.9295V44.6707C26.7825 43.7765 27.0884 43.0707 27.7237 42.5295C28.359 41.9883 29.1355 41.7059 30.0296 41.7059H36.3355C37.2531 41.7059 37.959 42.0118 38.4766 42.6707C39.0178 43.3295 39.2766 44.1059 39.2766 45.0001V51.2589Z" fill="white"/>
<path d="M64.3344 49.3999C63.8167 48.694 63.205 48.1528 62.4991 47.7764C63.1579 47.3293 63.605 46.7881 63.8403 46.1293C64.0756 45.494 64.2167 44.8117 64.2167 44.0823C64.2167 43.3528 64.0991 42.7646 63.8873 42.1528C63.652 41.5411 63.3226 40.9999 62.8991 40.5293C62.452 40.0587 61.9108 39.6823 61.252 39.4234C60.5932 39.1411 59.8167 39.0234 58.8991 39.0234H47.6756C47.4167 39.0234 47.1814 39.1176 46.9932 39.2823C46.805 39.447 46.7344 39.6823 46.7344 39.9646V55.9411C46.7344 56.1764 46.8285 56.4117 46.9932 56.5999C47.1579 56.7881 47.3932 56.8823 47.6756 56.8823H58.8991C59.7461 56.8823 60.5461 56.8117 61.2991 56.6705C62.052 56.5293 62.7108 56.2705 63.2755 55.9176C63.8403 55.5646 64.2873 55.0705 64.5932 54.4587C64.9226 53.847 65.0873 53.0705 65.0873 52.1293C65.0873 51.1881 64.8285 50.1528 64.3344 49.447V49.3999ZM62.1932 53.3058C61.9579 53.6352 61.652 53.8705 61.2755 54.0352C60.8991 54.1999 60.4755 54.294 60.005 54.3176C59.5344 54.3411 59.0638 54.3646 58.5461 54.3646H49.1814V49.0705H58.6873C59.205 49.0705 59.6991 49.1411 60.1697 49.2587C60.6403 49.3764 61.0403 49.5646 61.3932 49.7999C61.7461 50.0352 62.0285 50.3411 62.2403 50.694C62.452 51.047 62.5697 51.4705 62.5697 51.9411C62.5697 52.4117 62.452 52.9764 62.2167 53.3058H62.1932ZM60.9461 45.8705C60.452 46.3411 59.605 46.5764 58.4755 46.5764H49.1814V41.494H58.5697C59.7226 41.494 60.5226 41.7293 60.9932 42.1999C61.4638 42.6705 61.6991 43.3058 61.6991 44.0823C61.6991 44.8587 61.4403 45.3999 60.9461 45.8705Z" fill="white"/>
<path d="M61.1352 42.0821C60.6411 41.588 59.7705 41.3292 58.5705 41.3292H48.994V46.788H58.4764C59.6528 46.788 60.547 46.5292 61.0646 46.0351C61.6058 45.5409 61.8881 44.8821 61.8881 44.1056C61.8881 43.3292 61.6293 42.5998 61.1352 42.0821ZM58.4764 46.388H49.3705V41.6821H58.5705C59.6528 41.6821 60.4293 41.8939 60.8764 42.3409C61.3234 42.788 61.5352 43.3527 61.5352 44.1056C61.5352 44.8586 61.2999 45.3292 60.8293 45.7527C60.3587 46.1998 59.5823 46.4115 58.4764 46.4115V46.388ZM62.3823 50.5998C62.147 50.2233 61.8646 49.8939 61.4881 49.6586C61.1352 49.3998 60.6881 49.2115 60.194 49.0939C59.6999 48.9762 59.2058 48.9056 58.6646 48.9056H48.994V54.5527H58.547C59.0646 54.5527 59.5352 54.5527 60.0058 54.5056C60.4999 54.4586 60.947 54.3645 61.347 54.1998C61.7705 54.0351 62.0999 53.7762 62.3587 53.4233C62.6176 53.0703 62.7352 52.5762 62.7352 51.9409C62.7352 51.3056 62.6176 50.9998 62.3823 50.5998ZM58.547 54.1762H49.3705V49.2586H58.6881C59.1823 49.2586 59.6764 49.3292 60.1234 49.4468C60.5705 49.5645 60.9705 49.7292 61.2999 49.9645C61.6293 50.1762 61.8881 50.4586 62.0764 50.788C62.2646 51.1174 62.3587 51.5174 62.3587 51.9409C62.3587 52.3645 62.2411 52.9056 62.0529 53.188C61.8411 53.4703 61.5587 53.7056 61.2058 53.8468C60.8293 53.988 60.4293 54.0821 59.9823 54.1292C59.5352 54.1527 59.0411 54.1762 58.547 54.1762ZM62.3823 50.5998C62.147 50.2233 61.8646 49.8939 61.4881 49.6586C61.1352 49.3998 60.6881 49.2115 60.194 49.0939C59.6999 48.9762 59.2058 48.9056 58.6646 48.9056H48.994V54.5527H58.547C59.0646 54.5527 59.5352 54.5527 60.0058 54.5056C60.4999 54.4586 60.947 54.3645 61.347 54.1998C61.7705 54.0351 62.0999 53.7762 62.3587 53.4233C62.6176 53.0703 62.7352 52.5762 62.7352 51.9409C62.7352 51.3056 62.6176 50.9998 62.3823 50.5998ZM58.547 54.1762H49.3705V49.2586H58.6881C59.1823 49.2586 59.6764 49.3292 60.1234 49.4468C60.5705 49.5645 60.9705 49.7292 61.2999 49.9645C61.6293 50.1762 61.8881 50.4586 62.0764 50.788C62.2646 51.1174 62.3587 51.5174 62.3587 51.9409C62.3587 52.3645 62.2411 52.9056 62.0529 53.188C61.8411 53.4703 61.5587 53.7056 61.2058 53.8468C60.8293 53.988 60.4293 54.0821 59.9823 54.1292C59.5352 54.1527 59.0411 54.1762 58.547 54.1762ZM61.0881 46.0115C61.6293 45.5174 61.9117 44.8586 61.9117 44.0821C61.9117 43.3056 61.6528 42.5762 61.1587 42.0586C60.6646 41.5645 59.794 41.3056 58.594 41.3056H49.0176V46.7645H58.4999C59.6764 46.7645 60.5705 46.5056 61.0881 46.0115ZM49.3705 41.6821H58.5705C59.6528 41.6821 60.4293 41.8939 60.8764 42.3409C61.3234 42.788 61.5352 43.3527 61.5352 44.1056C61.5352 44.8586 61.2999 45.3292 60.8293 45.7527C60.3587 46.1998 59.5823 46.4115 58.4764 46.4115H49.3705V41.7056V41.6821ZM64.4764 49.2821C64.0293 48.6468 63.4646 48.1292 62.8293 47.7292C63.394 47.3056 63.7705 46.788 64.0058 46.1762C64.2646 45.5174 64.3823 44.8115 64.3823 44.0821C64.3823 43.3527 64.2646 42.7174 64.0293 42.0821C63.794 41.4468 63.4411 40.8821 62.994 40.388C62.547 39.8939 61.9587 39.5174 61.2764 39.2351C60.594 38.9527 59.794 38.8115 58.8764 38.8115H47.6528C47.347 38.8115 47.0646 38.9056 46.8528 39.1174C46.6411 39.3292 46.5234 39.588 46.5234 39.9409V55.9174C46.5234 56.1998 46.6411 56.4821 46.8293 56.6939C47.0411 56.9292 47.3234 57.0468 47.6293 57.0468H58.8528C59.6999 57.0468 60.5234 56.9762 61.2999 56.8351C62.0764 56.6939 62.7587 56.4115 63.347 56.0586C63.9352 55.6821 64.4058 55.1645 64.7352 54.5292C65.0646 53.8939 65.2529 53.0704 65.2529 52.1056C65.2529 51.1409 64.994 50.0586 64.4528 49.3292L64.4764 49.2821ZM58.8764 56.6703H47.6528C47.4411 56.6703 47.2528 56.5998 47.1117 56.4351C46.9705 56.2703 46.8999 56.1056 46.8999 55.9174V39.9409C46.8999 39.7056 46.9705 39.5174 47.1117 39.3762C47.2528 39.2351 47.4411 39.1645 47.6528 39.1645H58.8764C59.747 39.1645 60.4999 39.3056 61.1587 39.5645C61.794 39.8233 62.3352 40.1762 62.7352 40.6233C63.1587 41.0703 63.4646 41.588 63.6999 42.1998C63.9117 42.788 64.0293 43.4233 64.0293 44.0821C64.0293 44.7409 63.9117 45.4468 63.6764 46.0586C63.4411 46.6703 63.0176 47.188 62.4058 47.6115L62.147 47.7762L62.4058 47.9174C63.0881 48.2939 63.6999 48.8115 64.1705 49.4939C64.6411 50.1762 64.8999 51.0233 64.8999 52.0586C64.8999 53.0939 64.7352 53.7292 64.4293 54.3174C64.1234 54.9056 63.6999 55.3762 63.1587 55.7056C62.6176 56.0586 61.9823 56.2939 61.2529 56.4351C60.4999 56.5762 59.7234 56.6468 58.8764 56.6468V56.6703ZM61.4881 49.6351C61.1352 49.3762 60.6881 49.188 60.194 49.0703C59.6999 48.9527 59.2058 48.8821 58.6646 48.8821H48.994V54.5292H58.547C59.0646 54.5292 59.5352 54.5292 60.0058 54.4821C60.4999 54.4351 60.947 54.3409 61.347 54.1762C61.7705 54.0115 62.0999 53.7527 62.3587 53.3998C62.6176 53.0468 62.7352 52.5527 62.7352 51.9174C62.7352 51.2821 62.6176 50.9762 62.3823 50.5762C62.147 50.1998 61.8646 49.8704 61.4881 49.6351ZM58.547 54.1762H49.3705V49.2586H58.6881C59.1823 49.2586 59.6764 49.3292 60.1234 49.4468C60.5705 49.5645 60.9705 49.7292 61.2999 49.9645C61.6293 50.1762 61.8881 50.4586 62.0764 50.788C62.2646 51.1174 62.3587 51.5174 62.3587 51.9409C62.3587 52.3645 62.2411 52.9056 62.0529 53.188C61.8411 53.4703 61.5587 53.7056 61.2058 53.8468C60.8293 53.988 60.4293 54.0821 59.9823 54.1292C59.5352 54.1527 59.0411 54.1762 58.547 54.1762ZM61.0881 46.0115C61.6293 45.5174 61.9117 44.8586 61.9117 44.0821C61.9117 43.3056 61.6528 42.5762 61.1587 42.0586C60.6646 41.5645 59.794 41.3056 58.594 41.3056H49.0176V46.7645H58.4999C59.6764 46.7645 60.5705 46.5056 61.0881 46.0115ZM49.3705 41.6821H58.5705C59.6528 41.6821 60.4293 41.8939 60.8764 42.3409C61.3234 42.788 61.5352 43.3527 61.5352 44.1056C61.5352 44.8586 61.2999 45.3292 60.8293 45.7527C60.3587 46.1998 59.5823 46.4115 58.4764 46.4115H49.3705V41.7056V41.6821Z" fill="white"/>
<path d="M87.2299 54.7646C86.9711 54.5293 86.6652 54.3881 86.3358 54.3881H74.524C73.6299 54.3881 72.877 54.0823 72.2652 53.4705C71.6534 52.8587 71.3475 52.1293 71.3475 51.2587V49.0705H83.6299C83.9593 49.0705 84.2652 48.9529 84.5005 48.694C84.7358 48.4352 84.877 48.1528 84.877 47.8234C84.877 47.494 84.7593 47.1881 84.5005 46.9528C84.2652 46.7176 83.9593 46.5764 83.6299 46.5764H71.3475V44.647C71.3475 43.7764 71.6534 43.0234 72.2652 42.4352C72.877 41.8234 73.6299 41.5176 74.5005 41.5176H86.0534C86.4064 41.5176 86.7122 41.3999 86.9711 41.1411C87.2299 40.8823 87.3475 40.5999 87.3475 40.2705C87.3475 39.9411 87.2299 39.6352 86.9711 39.3999C86.7122 39.1646 86.4299 39.0234 86.0534 39.0234H74.5005C73.7005 39.0234 72.9711 39.1646 72.3122 39.4705C71.6299 39.7764 71.0417 40.1764 70.524 40.694C70.0064 41.1881 69.6064 41.7999 69.324 42.4823C69.0417 43.1646 68.877 43.894 68.877 44.647V51.2587C68.877 52.0117 69.0181 52.7411 69.324 53.4234C69.6064 54.1058 70.0299 54.694 70.524 55.2117C71.0417 55.7058 71.6299 56.1058 72.3122 56.4117C72.9946 56.694 73.724 56.8587 74.5005 56.8587H86.3123C86.6417 56.8587 86.9475 56.7411 87.2064 56.4823C87.4652 56.2234 87.5828 55.9646 87.5828 55.6352C87.5828 55.3058 87.4652 54.9999 87.2064 54.7646H87.2299Z" fill="white"/>
<path d="M87.346 54.6233C87.0637 54.3409 86.7107 54.1998 86.3343 54.1998H74.5225C73.6755 54.1998 72.9696 53.9174 72.4049 53.3292C71.8166 52.7645 71.5578 52.0821 71.5578 51.2351V49.2351H83.6755C84.0519 49.2351 84.4049 49.0939 84.6872 48.8115C84.9696 48.5292 85.1108 48.1998 85.1108 47.7998C85.1108 47.3998 84.9696 47.0703 84.6872 46.788C84.4049 46.5056 84.0755 46.3645 83.6755 46.3645H71.5578V44.6233C71.5578 43.7998 71.8402 43.1174 72.4284 42.5292C73.0166 41.9409 73.699 41.6821 74.546 41.6821H86.099C86.499 41.6821 86.8519 41.5409 87.1343 41.2586C87.4166 40.9762 87.5578 40.6468 87.5578 40.2468C87.5578 39.8468 87.4166 39.5174 87.1343 39.2351C86.8519 38.9527 86.499 38.8115 86.099 38.8115H74.546C73.7225 38.8115 72.9696 38.9762 72.2872 39.2821C71.6049 39.588 70.9931 40.0115 70.4519 40.5292C69.9107 41.0468 69.5108 41.6586 69.2049 42.3645C68.899 43.0703 68.7578 43.8233 68.7578 44.5998V51.2115C68.7578 51.988 68.899 52.7645 69.2049 53.4468C69.5108 54.1527 69.9343 54.7645 70.4519 55.2821C70.9931 55.7998 71.6049 56.2233 72.2872 56.5056C72.9931 56.8115 73.746 56.9527 74.546 56.9527H86.3578C86.7343 56.9527 87.0872 56.8115 87.3696 56.5292C87.6519 56.2468 87.8166 55.9174 87.8166 55.5645C87.8166 55.2115 87.6755 54.8351 87.3696 54.5527L87.346 54.6233ZM86.3343 56.6703H74.5225C73.7696 56.6703 73.0637 56.5292 72.4049 56.2468C71.746 55.9645 71.1813 55.5645 70.6637 55.0939C70.1696 54.5998 69.7696 54.0351 69.4872 53.3762C69.2049 52.7174 69.0637 52.0115 69.0637 51.2821V44.6703C69.0637 43.9409 69.2049 43.2351 69.4872 42.5762C69.7696 41.9174 70.1696 41.3292 70.6637 40.8586C71.1578 40.3645 71.746 39.9645 72.4049 39.6821C73.0402 39.3998 73.7696 39.2351 74.5225 39.2351H86.0755C86.3813 39.2351 86.6402 39.3292 86.8519 39.5645C87.0637 39.7762 87.1813 40.0115 87.1813 40.3174C87.1813 40.6233 87.0872 40.8586 86.8519 41.0703C86.6402 41.2821 86.3813 41.3762 86.0755 41.3762H74.5225C73.6049 41.3762 72.8049 41.7056 72.146 42.3409C71.4872 42.9762 71.1578 43.7762 71.1578 44.6939V46.788H83.6284C83.9107 46.788 84.1696 46.8821 84.3813 47.1174C84.5931 47.3292 84.7107 47.5645 84.7107 47.8704C84.7107 48.1762 84.6166 48.4115 84.3813 48.6233C84.1696 48.8351 83.9343 48.9292 83.6284 48.9292H71.1578V51.3056C71.1578 52.2233 71.4872 53.0233 72.1225 53.6586C72.7578 54.2939 73.5578 54.6233 74.5225 54.6233H86.3343C86.6166 54.6233 86.8755 54.7174 87.0872 54.9292C87.299 55.1409 87.4166 55.3762 87.4166 55.6821C87.4166 55.988 87.299 56.1762 87.0872 56.388C86.8519 56.5998 86.6166 56.7174 86.3108 56.7174L86.3343 56.6703Z" fill="white"/>
<path d="M107.253 49.4705C106.711 48.647 105.982 47.9882 105.041 47.4705C106.194 46.4117 106.758 45.0235 106.758 43.3058V40.1294C106.758 39.7294 106.664 39.3999 106.476 39.1411C106.288 38.9058 105.958 38.7646 105.511 38.7646C105.064 38.7646 104.782 38.8823 104.57 39.1411C104.358 39.3999 104.264 39.7058 104.264 40.1294V43.3058C104.264 44.4823 103.958 45.3764 103.37 45.9176C102.782 46.4588 101.935 46.7411 100.853 46.7411H93.6054V40.247C93.6054 39.847 93.5113 39.4941 93.3231 39.2117C93.1349 38.9294 92.8054 38.7646 92.3584 38.7646C91.9113 38.7646 91.6054 38.9058 91.4172 39.2117C91.2054 39.4941 91.1113 39.847 91.1113 40.2235V55.6823C91.1113 56.0823 91.2054 56.4352 91.3702 56.7176C91.5349 56.9999 91.8643 57.1411 92.3584 57.1411C92.8525 57.1411 93.1349 56.9999 93.3231 56.7176C93.5113 56.4352 93.6054 56.1058 93.6054 55.6823V49.2588H102.476C102.97 49.2588 103.417 49.3058 103.794 49.4235C104.17 49.5411 104.5 49.7294 104.782 50.0352C105.041 50.3176 105.253 50.7411 105.394 51.2588C105.535 51.7764 105.605 52.4588 105.605 53.2823V55.847C105.605 56.2235 105.7 56.5529 105.911 56.8117C106.123 57.0705 106.429 57.2117 106.853 57.2117C107.276 57.2117 107.605 57.0941 107.794 56.8117C108.005 56.5529 108.1 56.2235 108.1 55.7764V52.6705C108.1 51.3999 107.841 50.3411 107.3 49.4941L107.253 49.4705Z" fill="white"/>
<path d="M107.394 49.3767C106.877 48.6002 106.194 47.9414 105.324 47.4472C106.383 46.3884 106.924 45.0002 106.924 43.3061V40.1296C106.924 39.6825 106.806 39.3296 106.594 39.0472C106.359 38.7649 106.006 38.6002 105.488 38.6002C104.971 38.6002 104.641 38.7414 104.406 39.0472C104.171 39.3296 104.053 39.7061 104.053 40.1296V43.3061C104.053 44.4355 103.771 45.259 103.23 45.7767C102.665 46.2943 101.865 46.5531 100.853 46.5531H93.7943V40.2472C93.7943 39.8002 93.6767 39.4237 93.4884 39.0943C93.2532 38.7414 92.9002 38.5767 92.3826 38.5767C91.8649 38.5767 91.5355 38.7414 91.2767 39.0943C91.0414 39.4237 90.9473 39.7767 90.9473 40.2002V55.659C90.9473 56.1061 91.0414 56.4825 91.2296 56.7884C91.4414 57.1178 91.8179 57.3061 92.3826 57.3061C92.9473 57.3061 93.2767 57.1414 93.4884 56.812C93.7002 56.5061 93.8179 56.1296 93.8179 55.6825V49.4237H102.5C102.971 49.4237 103.394 49.4708 103.771 49.5884C104.124 49.6825 104.43 49.8708 104.665 50.1296C104.9 50.412 105.112 50.7884 105.23 51.259C105.347 51.7531 105.418 52.412 105.418 53.2355V55.8002C105.418 56.2237 105.536 56.5767 105.771 56.8825C106.006 57.1884 106.383 57.3296 106.853 57.3296C107.324 57.3296 107.7 57.1884 107.935 56.8825C108.171 56.6002 108.288 56.2002 108.288 55.7531V52.6473C108.288 51.3296 108.006 50.2473 107.441 49.3767H107.394ZM107.865 55.7531C107.865 56.1296 107.771 56.4355 107.606 56.6708C107.441 56.8825 107.183 56.9767 106.806 56.9767C106.43 56.9767 106.171 56.8825 106.006 56.6708C105.818 56.4355 105.747 56.1531 105.747 55.8237V53.259C105.747 52.412 105.677 51.7296 105.536 51.1884C105.394 50.6472 105.183 50.2002 104.877 49.8943C104.594 49.5884 104.218 49.3531 103.818 49.2355C103.418 49.1178 102.971 49.0708 102.453 49.0708H93.4179V55.6825C93.4179 56.059 93.3237 56.3649 93.159 56.6002C92.9943 56.8355 92.7355 56.9531 92.359 56.9531C91.9826 56.9531 91.6531 56.8355 91.5355 56.6237C91.3943 56.3649 91.3002 56.059 91.3002 55.6825V40.2237C91.3002 39.8708 91.3943 39.5649 91.5826 39.3061C91.7473 39.0708 92.0061 38.9531 92.3826 38.9531C92.759 38.9531 93.0414 39.0708 93.1826 39.3061C93.3473 39.5649 93.4414 39.8708 93.4414 40.2472V46.9296H100.877C102.006 46.9296 102.877 46.6472 103.512 46.059C104.147 45.4708 104.453 44.5531 104.453 43.3061V40.1296C104.453 39.7767 104.547 39.4708 104.712 39.259C104.877 39.0473 105.135 38.9531 105.512 38.9531C105.888 38.9531 106.171 39.0473 106.335 39.259C106.5 39.4708 106.571 39.7531 106.571 40.1296V43.3061C106.571 44.9767 106.006 46.3414 104.924 47.3531L104.736 47.5414L104.971 47.659C105.888 48.1296 106.594 48.7884 107.136 49.5884C107.653 50.3884 107.912 51.4237 107.912 52.6473V55.7531H107.865Z" fill="white"/>
<path d="M160.9 7.98799C160.335 7.25858 159.511 6.85858 158.617 6.81152C158.57 6.81152 158.523 6.81152 158.476 6.81152H157.135L129.3 6.9527H128.147C128.029 6.9527 127.935 6.9527 127.817 6.97623C126.97 7.07035 126.194 7.51741 125.676 8.24682C125.088 9.07035 124.947 10.0821 125.253 11.0233L126.594 14.9762L128.241 19.8233L129.511 19.0233L128.123 14.9527L126.617 10.5292C126.453 10.0351 126.523 9.51741 126.829 9.09388C127.135 8.67035 127.606 8.43505 128.123 8.41152L158.406 8.24682C158.9 8.24682 159.37 8.48211 159.653 8.85858C159.959 9.25858 160.053 9.7527 159.935 10.2468L158.688 14.9527L157.606 19.0233L152.876 36.6468C152.688 37.3527 152.053 37.8233 151.323 37.8233L137.064 37.8703C136.382 37.8703 135.77 37.4468 135.559 36.788L131.653 25.3292L131.559 25.0233L129.911 20.1762L128.617 20.9762L130.029 25.0939L130.123 25.3527L132.57 32.5292L133.206 34.4115L134.17 37.2821C134.594 38.5292 135.77 39.3762 137.064 39.3762H141.135H143.182H148.97H150.453H151.37C152.759 39.3762 153.959 38.4351 154.335 37.0939L161.394 10.6939C161.653 9.7527 161.464 8.788 160.853 8.01152L160.9 7.98799Z" fill="white"/>
<path d="M121.371 14.9766C120.242 24.8354 125.536 25.4001 129.983 25.353C130.03 25.353 130.1 25.353 130.171 25.353C130.665 25.353 131.465 25.353 131.724 25.353H131.818C136.406 25.2354 136.548 19.1648 136.548 19.1648H137.7C137.606 19.8942 137.606 20.9766 138.053 22.0824C139.395 25.3295 144.124 25.5883 145.3 25.6824C146.783 25.7766 151.136 26.0589 153.065 23.0942C154.03 21.6119 153.959 19.9648 153.842 19.0707H158.43L159.842 15.0001H121.371V14.9766ZM126.689 22.2236L126.077 21.2119L128.289 19.8236L129.559 19.0236L130.453 18.4589L131.089 19.4707L129.959 20.1766L128.665 20.9766L126.689 22.2001V22.2236ZM144.5 22.2236L143.865 21.2119L148.265 18.4824L148.877 19.4942L144.5 22.2236Z" fill="white"/>
<path d="M141.181 27.9304L136.781 30.6582L137.562 31.918L141.962 29.1903L141.181 27.9304Z" fill="white"/>
<path d="M158.618 5.51781V7.54134H157.136V5.51781C157.136 4.64722 156.43 3.91781 155.536 3.91781H130.901C130.03 3.91781 129.301 4.62369 129.301 5.51781V7.70604H127.818V5.51781C127.818 3.82369 129.183 2.45898 130.877 2.45898H148.03V2.90604H153.724V2.45898H155.512C157.207 2.45898 158.571 3.82369 158.571 5.51781H158.618Z" fill="white"/>
<path d="M153.629 0.411621H148.217C147.323 0.411621 146.594 1.14103 146.594 2.03515V3.94103H155.253V2.03515C155.253 1.14103 154.523 0.411621 153.629 0.411621ZM153.747 2.88221H148.053V1.54103H153.747V2.88221Z" fill="white"/>
<path d="M126.783 55.8943C126.783 55.8943 126.783 55.8943 126.76 55.8943C126.524 55.8943 126.336 55.7766 126.195 55.5884L118.407 45.0943C118.219 44.8355 118.219 44.506 118.407 44.2472C118.572 43.9884 118.901 43.8707 119.207 43.9413L125.442 45.4943L132.689 32.459L133.983 33.1884L126.454 46.7178C126.289 47.0002 125.96 47.1649 125.63 47.0707L120.854 45.8708L126.854 53.9649L140.454 37.9884L141.583 38.9531L127.395 55.6355C127.254 55.8002 127.042 55.8943 126.83 55.8943H126.783Z" fill="white"/>
<path d="M157.605 57.5882C157.299 57.5882 157.017 57.3999 156.923 57.1176L154.405 50.647H143.676C143.299 50.647 142.993 50.3647 142.946 49.9882L141.699 38.5529L143.158 38.3882L144.335 49.1647H154.899C155.205 49.1647 155.487 49.3529 155.582 49.6352L157.582 54.7882L161.44 44.5529H149.746C149.346 44.5529 149.017 44.2235 149.017 43.8235V38.4823H150.499V43.0941H162.523C162.758 43.0941 162.993 43.2117 163.135 43.4235C163.276 43.6117 163.299 43.8705 163.229 44.1058L158.311 57.1411C158.193 57.4235 157.935 57.6117 157.629 57.6117L157.605 57.5882Z" fill="white"/>
</g>
<defs>
<clipPath id="clip0_1_849">
<rect width="164" height="58" fill="white"/>
</clipPath>
</defs>
</svg>
