<svg width="164" height="58" viewBox="0 0 164 58" fill="none" xmlns="http://www.w3.org/2000/svg">
<g clip-path="url(#clip0_1_225)">
<path d="M19.706 9.91773C19.2825 9.44714 18.7649 9.23538 18.1531 9.23538H14.9531C14.3649 9.23538 13.8472 9.44714 13.4237 9.87067C12.9766 10.2942 12.7649 11.306 12.7649 11.8707C12.7649 12.4354 12.859 12.6001 13.0472 12.8589H11.6355C11.4472 12.8589 11.306 12.906 11.1649 13.0001C11.0237 13.0942 10.9531 13.2354 10.9531 13.4236C10.9531 13.6119 11.0237 13.7766 11.1649 13.8707C11.306 13.9648 11.4472 14.0119 11.6355 14.0119H18.5531C18.9531 14.0119 19.1649 13.8001 19.1649 13.4001C19.1649 13.0001 19.1178 13.1648 19.0002 13.0236C18.8825 12.8824 18.7413 12.8119 18.5531 12.8119H14.8355C14.506 12.8119 14.2002 12.7177 13.9413 12.553C13.6825 12.3883 13.5649 12.1295 13.5649 11.8001C13.5649 11.4707 13.6825 10.7177 13.9413 10.553C14.2002 10.3648 14.506 10.2942 14.859 10.2942H18.5766C18.859 10.2942 19.0943 10.4118 19.2825 10.6236C19.4707 10.8589 19.5413 11.1177 19.5413 11.4236C19.5413 11.7295 19.5884 11.6354 19.659 11.7295C19.7296 11.8236 19.8237 11.8707 19.9413 11.8707C20.059 11.8707 20.1531 11.8236 20.2237 11.7295C20.2943 11.6354 20.3413 11.5413 20.3413 11.4236C20.3413 10.8354 20.1296 10.3177 19.706 9.84715V9.91773ZM36.6237 22.0589C36.0355 22.0589 35.5178 21.9413 35.0472 21.7295C34.6002 21.4942 34.2002 21.2118 33.8708 20.8589C33.5413 20.506 33.306 20.106 33.1413 19.6354C32.9766 19.1648 32.8825 18.7177 32.8825 18.2471V2.24715C32.8825 2.01185 32.8119 1.80009 32.6237 1.61185C32.459 1.44714 32.2472 1.35303 32.0119 1.35303C31.7766 1.35303 31.5649 1.44714 31.4002 1.61185C31.2355 1.77656 31.1649 1.96479 31.1649 2.20009V18.2236C31.1649 18.8354 31.0472 19.3766 30.7884 19.8471C30.5531 20.3177 30.2002 20.7177 29.8002 21.0471C29.3766 21.3766 28.906 21.6119 28.3884 21.7766C27.8707 21.9413 27.306 22.0354 26.7413 22.0354H5.96487C4.90604 22.0354 4.03546 21.6824 3.32957 20.9766C2.62369 20.2707 2.22369 19.3766 2.17663 18.2942V17.4236C2.17663 17.2589 2.17663 17.1177 2.17663 16.9766C2.17663 16.8354 2.17663 16.6707 2.17663 16.4824C2.17663 16.2942 2.08251 16.0824 1.91781 15.9177C1.72957 15.7295 1.54134 15.6589 1.30604 15.6589C1.07075 15.6589 0.882515 15.753 0.717809 15.9177C0.553103 16.106 0.458984 16.2942 0.458984 16.4824V18.2236C0.458984 19.1648 0.64722 20.0589 1.00016 20.8589C1.3531 21.6824 1.84722 22.3883 2.45898 23.0236C3.07075 23.6354 3.80016 24.1295 4.62369 24.4824C5.44722 24.8354 6.31781 25.0236 7.25899 25.0236H26.059C27.3296 25.0236 28.506 24.6942 29.5413 24.0589C30.5766 23.4001 31.3766 22.5295 31.9413 21.4707C32.4825 22.6236 33.2119 23.4942 34.1296 24.106C34.906 24.6236 35.8002 24.9295 36.8355 25.0001C36.906 25.0001 36.9531 25.0001 37.0237 25.0001C37.1649 25.0001 37.306 25.0001 37.4707 25.0001H38.9766V21.9883H36.5766L36.6237 22.0589Z" fill="white"/>
<path d="M19.848 9.80024C19.3775 9.30612 18.8127 9.0473 18.1539 9.0473H14.9539C14.3186 9.0473 13.7539 9.28259 13.2833 9.72965C12.8128 10.1767 12.5775 11.2355 12.5775 11.8708C12.5775 12.5061 12.6245 12.4591 12.7186 12.6944H11.6128C11.401 12.6944 11.1892 12.7649 11.0245 12.8826C10.8363 13.0238 10.7422 13.212 10.7422 13.4473C10.7422 13.6826 10.8833 13.9649 11.0245 14.0591C11.1892 14.1767 11.3775 14.2473 11.6128 14.2473H18.5304C19.0245 14.2473 19.3069 13.9649 19.3069 13.4473C19.3069 12.8826 18.7422 12.6944 18.5304 12.6944H14.8128C14.5069 12.6944 14.248 12.6238 14.0128 12.4591C13.801 12.3179 13.7069 12.1297 13.7069 11.8473C13.7069 11.5649 13.801 10.8826 14.0128 10.7414C14.248 10.5767 14.5069 10.5061 14.8363 10.5061H18.5539C18.7892 10.5061 18.9775 10.6002 19.1186 10.7649C19.2833 10.9532 19.3539 11.1885 19.3539 11.4708C19.3539 11.7532 19.401 11.7767 19.5186 11.8944C19.7539 12.1532 20.1539 12.1532 20.3657 11.8944C20.4833 11.7767 20.5304 11.6355 20.5304 11.4708C20.5304 10.8355 20.2951 10.2708 19.848 9.77671V9.80024ZM20.0833 11.6591C19.9892 11.7532 19.8716 11.7532 19.7775 11.6591C19.7304 11.612 19.7069 11.5414 19.7069 11.4708C19.7069 11.1179 19.6128 10.812 19.401 10.5532C19.1892 10.2944 18.9069 10.1532 18.5539 10.1532H14.8363C14.4363 10.1532 14.1069 10.2473 13.801 10.4591C13.4951 10.6708 13.3304 11.4944 13.3304 11.8708C13.3304 12.2473 13.4951 12.5767 13.801 12.7885C14.0833 12.9767 14.4363 13.0708 14.7892 13.0708H18.5069C18.6245 13.0708 18.7186 13.1179 18.8128 13.212C18.9069 13.3061 18.9304 13.4002 18.9304 13.4708C18.9304 13.7767 18.8127 13.8944 18.5069 13.8944H11.5892C11.448 13.8944 11.3304 13.8473 11.2363 13.7767C11.1892 13.7297 11.1186 13.6591 11.1186 13.4708C11.1186 13.2826 11.1657 13.2591 11.2363 13.1885C11.3304 13.1179 11.4716 13.0708 11.5892 13.0708H13.3539L13.1657 12.7885C13.001 12.5532 12.9304 12.2708 12.9304 11.8944C12.9304 11.3767 13.1186 10.412 13.5186 10.012C13.9186 9.61201 14.3892 9.42377 14.9304 9.42377H18.1304C18.6951 9.42377 19.1422 9.63553 19.5422 10.0591C19.9422 10.4826 20.1304 10.9532 20.1304 11.4944C20.1304 12.0355 20.1069 11.612 20.0598 11.6826L20.0833 11.6591ZM36.6245 21.8708C36.0598 21.8708 35.5657 21.7532 35.1422 21.5649C34.6951 21.3532 34.3186 21.0708 34.0128 20.7414C33.7069 20.412 33.4716 20.0355 33.3069 19.5885C33.1422 19.1414 33.0716 18.6944 33.0716 18.2473V2.2473C33.0716 1.94142 32.9775 1.70612 32.7657 1.49436C32.5539 1.28259 32.3186 1.18848 32.0128 1.18848C31.7069 1.18848 31.4716 1.28259 31.2598 1.49436C31.0716 1.70612 30.9775 1.94142 30.9775 2.20024V18.2238C30.9775 18.7885 30.8598 19.3061 30.6245 19.7532C30.3892 20.2002 30.0833 20.5767 29.6833 20.8826C29.2833 21.1885 28.8363 21.4238 28.3186 21.5885C27.8245 21.7532 27.2833 21.8238 26.7422 21.8238H5.96569C4.95393 21.8238 4.1304 21.4944 3.44805 20.812C2.76569 20.1297 2.41275 19.2826 2.34216 18.2708V17.4002C2.34216 17.2355 2.34216 17.0944 2.34216 16.9532C2.34216 16.812 2.34216 16.6473 2.34216 16.4591C2.34216 16.2708 2.22452 15.9649 2.01275 15.7532C1.58922 15.3297 0.953928 15.3297 0.553928 15.7532C0.365693 15.9649 0.248047 16.2002 0.248047 16.4591V18.2002C0.248047 19.1649 0.436281 20.0826 0.812751 20.9061C1.18922 21.7532 1.68334 22.4826 2.31863 23.1179C2.95393 23.7532 3.68334 24.2473 4.5304 24.6238C5.37746 25.0002 6.29511 25.1885 7.25981 25.1885H26.0598C27.3775 25.1885 28.5775 24.8591 29.6363 24.1767C30.601 23.5649 31.3775 22.7885 31.9422 21.8238C32.4833 22.8355 33.1892 23.6591 34.0363 24.2238C34.8363 24.7649 35.7775 25.0708 36.8598 25.1649C37.0716 25.1649 37.2598 25.1885 37.4716 25.1885H39.1657V21.8238H36.601L36.6245 21.8708ZM38.8128 24.8826H37.4716C37.3775 24.8826 37.3069 24.8826 37.2127 24.8826C37.1422 24.8826 37.0951 24.8826 37.0245 24.8826C36.9539 24.8826 36.9069 24.8826 36.8363 24.8826C35.848 24.7885 34.9539 24.5061 34.2245 24.012C33.3304 23.4238 32.6245 22.5532 32.1069 21.4473L31.9422 21.1179L31.7775 21.4473C31.2363 22.4826 30.4363 23.3297 29.4245 23.9649C28.4128 24.6002 27.2833 24.9061 26.0363 24.9061H7.23628C6.31863 24.9061 5.44805 24.7179 4.67158 24.3885C3.87158 24.0355 3.16569 23.5649 2.57746 22.9532C1.98922 22.3649 1.4951 21.6591 1.14216 20.8591C0.789222 20.0591 0.624517 19.212 0.624517 18.2944V16.5532C0.624517 16.3885 0.695106 16.2473 0.836282 16.1061C1.11864 15.8238 1.49511 15.8238 1.77746 16.1061C1.91864 16.2473 1.98922 16.3885 1.98922 16.5532C1.98922 16.7179 1.98922 16.8826 1.98922 17.0238C1.98922 17.1649 1.98922 17.3297 1.98922 17.4944V18.3885C2.05981 19.5179 2.45981 20.4591 3.21275 21.1885C3.94216 21.9179 4.88334 22.2944 5.98922 22.2944H26.7657C27.3539 22.2944 27.9186 22.2002 28.4598 22.0355C29.001 21.8473 29.4951 21.612 29.9422 21.2591C30.3657 20.9297 30.7186 20.5061 30.9775 20.012C31.2363 19.5179 31.3775 18.9532 31.3775 18.3179V2.29436C31.3775 2.10612 31.448 1.96495 31.5657 1.82377C31.6833 1.70612 31.848 1.63553 32.0363 1.63553C32.2245 1.63553 32.3892 1.70612 32.5304 1.82377C32.6716 1.96495 32.7186 2.10612 32.7186 2.31789V18.3179C32.7186 18.812 32.8128 19.3061 32.9775 19.7767C33.1657 20.2473 33.4245 20.6944 33.7539 21.0473C34.0833 21.4002 34.5069 21.7061 34.9775 21.9414C35.4716 22.1767 36.0128 22.2944 36.6245 22.2944H38.8363V24.9297L38.8128 24.8826Z" fill="white"/>
<path d="M37.0469 22.0586V25.0704H44.5292V22.0586H37.0469Z" fill="white"/>
<path d="M36.8828 21.8706V25.2353H44.7181V21.8706H36.8828ZM44.3416 24.8824H37.2358V22.2471H44.3416V24.8824Z" fill="white"/>
<path d="M42.2715 22.0586V25.0704H49.7538V22.0586H42.2715Z" fill="white"/>
<path d="M42.082 21.8706V25.2353H49.9173V21.8706H42.082ZM49.5644 24.8824H42.4585V22.2471H49.5644V24.8824Z" fill="white"/>
<path d="M47.4941 22.0586V25.0704H54.9765V22.0586H47.4941Z" fill="white"/>
<path d="M47.3066 21.8706V25.2353H55.1419V21.8706H47.3066ZM54.789 24.8824H47.6831V22.2471H54.789V24.8824Z" fill="white"/>
<path d="M61.8467 29.9175C61.5408 29.6116 61.1173 29.4233 60.5996 29.3763H60.2231C59.7526 29.4233 59.3526 29.6116 59.0467 29.9175C58.7408 30.2233 58.5761 30.5998 58.5761 31.0704C58.5761 31.541 58.7408 31.8939 59.0467 32.1998C59.3526 32.5057 59.7526 32.6704 60.2231 32.7175H60.5996C61.1173 32.6704 61.5408 32.5057 61.8467 32.1998C62.1526 31.8939 62.3173 31.5175 62.3173 31.0704C62.3173 30.6233 62.1526 30.2469 61.8467 29.9175ZM62.5526 11.3292C62.3643 11.141 62.1761 11.0469 61.9408 11.0469C61.7055 11.0469 61.4937 11.141 61.329 11.3292C61.1643 11.5175 61.0937 11.7057 61.0937 11.8939V18.2469C61.0937 18.7881 60.9996 19.2822 60.7878 19.7528C60.5761 20.2233 60.3173 20.6233 59.9643 20.9763C59.6114 21.3057 59.2114 21.5881 58.7643 21.7763C58.2937 21.9645 57.7996 22.0586 57.2584 22.0586H52.5996V25.0704H56.0114C56.9526 25.0704 57.8467 24.8822 58.6467 24.5292C59.4702 24.1763 60.1761 23.6822 60.8114 23.0704C61.4231 22.4586 61.9173 21.7292 62.2702 20.9057C62.6231 20.0822 62.8114 19.2116 62.8114 18.2704V11.941C62.8114 11.7057 62.7173 11.5175 62.5526 11.3292Z" fill="white"/>
<path d="M62.6708 11.1883C62.4591 10.9765 62.1767 10.8589 61.9179 10.8589C61.6591 10.8589 61.3767 10.9765 61.1885 11.1883C61.0002 11.4001 60.9061 11.6354 60.9061 11.8942V18.2471C60.9061 18.7648 60.812 19.2354 60.6238 19.6824C60.4355 20.1295 60.1767 20.5059 59.8473 20.8354C59.5179 21.1648 59.1414 21.4001 58.6944 21.5883C58.2473 21.7765 57.7767 21.8707 57.2591 21.8707H52.4355V25.2354H56.012C56.9767 25.2354 57.8944 25.0471 58.7179 24.6707C59.565 24.2942 60.2944 23.8001 60.9297 23.1648C61.565 22.5295 62.0591 21.8001 62.4355 20.953C62.812 20.1059 63.0003 19.1883 63.0003 18.2471V11.9177C63.0003 11.6354 62.8826 11.4001 62.6708 11.1883ZM62.6238 18.2471C62.6238 19.1648 62.4355 20.0354 62.1061 20.8118C61.7532 21.6118 61.2826 22.3177 60.6708 22.9059C60.0826 23.4942 59.3767 23.9883 58.5767 24.3412C57.7767 24.6942 56.9297 24.8589 56.012 24.8589H52.7885V22.2236H57.2591C57.8238 22.2236 58.3414 22.1295 58.8355 21.9177C59.3061 21.7295 59.7297 21.4471 60.1061 21.0942C60.4591 20.7412 60.765 20.3177 60.9767 19.8236C61.1885 19.3295 61.2826 18.8118 61.2826 18.2236V11.8707C61.2826 11.7059 61.3532 11.5648 61.4708 11.4236C61.5885 11.2824 61.7532 11.2118 61.9414 11.2118C62.1297 11.2118 62.2708 11.2824 62.412 11.4236C62.5532 11.5648 62.6238 11.7295 62.6238 11.8942V18.2236V18.2471ZM61.965 29.7765C61.612 29.4471 61.165 29.2354 60.6002 29.1883H60.2003C59.6826 29.2354 59.2591 29.4471 58.9061 29.7765C58.5532 30.1295 58.3885 30.553 58.3885 31.0471C58.3885 31.5412 58.5767 31.9648 58.9061 32.3177C59.2591 32.6471 59.6826 32.8354 60.2003 32.8824H60.6002C61.165 32.8354 61.612 32.6471 61.965 32.3177C62.3179 31.9883 62.4826 31.5648 62.4826 31.0471C62.4826 30.5295 62.2944 30.1295 61.965 29.7765ZM60.6002 32.5295H60.2473C59.8238 32.4824 59.4708 32.3412 59.1885 32.0589C58.9061 31.8001 58.765 31.4707 58.765 31.0707C58.765 30.6707 58.9061 30.3412 59.1885 30.0589C59.4708 29.7765 59.8238 29.6118 60.2238 29.5648H60.5767C61.0473 29.6118 61.4238 29.753 61.7061 30.0589C61.9885 30.3412 62.1297 30.6707 62.1297 31.0707C62.1297 31.4707 61.9885 31.8001 61.7061 32.0589C61.4238 32.3412 61.0473 32.4824 60.5767 32.5295H60.6002Z" fill="white"/>
<path d="M83.1885 22.0588V18.2941C83.1885 17.353 83.0003 16.4588 82.6473 15.6588C82.2944 14.8353 81.8003 14.1294 81.1885 13.4941C80.5767 12.8824 79.8473 12.3883 79.0238 12.0353C78.2003 11.6824 77.3297 11.4941 76.3885 11.4941H73.7297C72.7885 11.4941 71.8944 11.6824 71.0944 12.0353C70.2709 12.3883 69.565 12.8824 68.9297 13.4941C68.3179 14.1059 67.8238 14.8353 67.4709 15.6588C67.1179 16.4824 66.9297 17.353 66.9297 18.2706C66.9297 19.1883 67.1179 20.1059 67.4709 20.9059C67.8238 21.7294 68.3179 22.4353 68.9297 23.0706C69.5415 23.6824 70.2709 24.1765 71.0944 24.5294C71.9179 24.8824 72.7885 25.0706 73.7297 25.0706H81.5179V27.4941C81.5179 28.2706 81.2356 28.9059 80.6473 29.353C80.0591 29.8 79.4003 30.0353 78.6238 30.0353H68.7179C68.1767 30.0353 67.7532 30.153 67.4238 30.4118C67.0944 30.6471 66.9297 31.0236 66.9297 31.5177C66.9297 32.0118 67.0944 32.3883 67.4238 32.6236C67.7532 32.8824 68.1767 33 68.6473 33H76.4826C78.6473 33 80.3179 32.5059 81.4709 31.4941C82.6238 30.5059 83.1885 28.7883 83.1885 26.3883V25.0706H88.812V22.0588H83.1885ZM72.8591 14.4588H76.7885C77.4003 14.4588 77.9885 14.553 78.5532 14.7177C79.1179 14.8824 79.612 15.1412 80.0591 15.4471C80.5062 15.7765 80.8591 16.1765 81.1179 16.6706C81.3767 17.1412 81.5179 17.7059 81.5179 18.2941V22.0588H73.3062C72.7179 22.0588 72.1532 21.9883 71.5885 21.8236C71.0238 21.6588 70.5297 21.4235 70.0826 21.0941C69.6356 20.7647 69.2826 20.3647 69.0238 19.8941C68.765 19.4236 68.6238 18.8824 68.6238 18.2471C68.6238 17.6118 68.7414 17.1883 68.9767 16.7177C69.212 16.2471 69.5179 15.8706 69.9179 15.5177C70.3179 15.1883 70.765 14.9294 71.2591 14.7177C71.7767 14.5294 72.2944 14.4353 72.8591 14.4353V14.4588Z" fill="white"/>
<path d="M81.2599 16.5763C80.9776 16.0586 80.6011 15.6351 80.154 15.3057C79.707 14.9763 79.1658 14.7174 78.6011 14.5292C78.0129 14.3645 77.4246 14.2704 76.7893 14.2704H72.8599C72.2717 14.2704 71.7305 14.3645 71.1893 14.5763C70.6717 14.7645 70.2011 15.0468 69.7776 15.3998C69.3776 15.7527 69.0246 16.1763 68.7893 16.6468C68.554 17.141 68.4129 17.6821 68.4129 18.2704C68.4129 18.8586 68.554 19.5174 68.8364 20.0115C69.1188 20.5057 69.4952 20.9292 69.9423 21.2586C70.3893 21.588 70.907 21.8468 71.4952 22.0115C72.0599 22.1763 72.6482 22.2468 73.2599 22.2468H81.6599V18.2939C81.6599 17.6586 81.5188 17.0704 81.2364 16.5763H81.2599ZM81.3305 21.8704H73.307C72.7423 21.8704 72.1776 21.7998 71.6364 21.6351C71.0952 21.4939 70.6246 21.2586 70.2011 20.9292C69.7776 20.6233 69.4482 20.2468 69.1893 19.7998C68.9305 19.3527 68.8129 18.8351 68.8129 18.2468C68.8129 17.6586 68.9305 17.2351 69.1423 16.788C69.3776 16.341 69.6599 15.9645 70.0364 15.6586C70.4129 15.3292 70.8364 15.0704 71.3305 14.9057C71.8011 14.7174 72.3188 14.6233 72.8599 14.6233H76.7893C77.3776 14.6233 77.9423 14.7174 78.4835 14.8586C79.0246 15.0233 79.4952 15.2586 79.9188 15.5645C80.3423 15.8704 80.6717 16.2704 80.9305 16.7174C81.1893 17.1645 81.307 17.6821 81.307 18.2704V21.8468L81.3305 21.8704ZM81.2599 16.5763C80.9776 16.0586 80.6011 15.6351 80.154 15.3057C79.707 14.9763 79.1658 14.7174 78.6011 14.5292C78.0129 14.3645 77.4246 14.2704 76.7893 14.2704H72.8599C72.2717 14.2704 71.7305 14.3645 71.1893 14.5763C70.6717 14.7645 70.2011 15.0468 69.7776 15.3998C69.3776 15.7527 69.0246 16.1763 68.7893 16.6468C68.554 17.141 68.4129 17.6821 68.4129 18.2704C68.4129 18.8586 68.554 19.5174 68.8364 20.0115C69.1188 20.5057 69.4952 20.9292 69.9423 21.2586C70.3893 21.588 70.907 21.8468 71.4952 22.0115C72.0599 22.1763 72.6482 22.2468 73.2599 22.2468H81.6599V18.2939C81.6599 17.6586 81.5188 17.0704 81.2364 16.5763H81.2599ZM81.3305 21.8704H73.307C72.7423 21.8704 72.1776 21.7998 71.6364 21.6351C71.0952 21.4939 70.6246 21.2586 70.2011 20.9292C69.7776 20.6233 69.4482 20.2468 69.1893 19.7998C68.9305 19.3527 68.8129 18.8351 68.8129 18.2468C68.8129 17.6586 68.9305 17.2351 69.1423 16.788C69.3776 16.341 69.6599 15.9645 70.0364 15.6586C70.4129 15.3292 70.8364 15.0704 71.3305 14.9057C71.8011 14.7174 72.3188 14.6233 72.8599 14.6233H76.7893C77.3776 14.6233 77.9423 14.7174 78.4835 14.8586C79.0246 15.0233 79.4952 15.2586 79.9188 15.5645C80.3423 15.8704 80.6717 16.2704 80.9305 16.7174C81.1893 17.1645 81.307 17.6821 81.307 18.2704V21.8468L81.3305 21.8704ZM83.3776 21.8704V18.2939C83.3776 17.3292 83.1893 16.4115 82.8129 15.588C82.4364 14.741 81.9423 14.0115 81.307 13.3763C80.6717 12.741 79.9188 12.2468 79.0952 11.8704C78.2482 11.4939 77.3305 11.3057 76.3893 11.3057H73.7305C72.7658 11.3057 71.8482 11.4939 71.0011 11.8704C70.1776 12.2468 69.4246 12.741 68.7893 13.3763C68.154 14.0115 67.6599 14.741 67.2835 15.588C66.907 16.4351 66.7423 17.3292 66.7423 18.2704C66.7423 19.2115 66.9305 20.1527 67.2835 20.9763C67.6364 21.7998 68.154 22.5527 68.7893 23.188C69.4246 23.8233 70.154 24.3174 71.0011 24.6939C71.8482 25.0704 72.7423 25.2586 73.707 25.2586H81.307V27.4939C81.307 28.2233 81.0482 28.788 80.507 29.2115C79.9658 29.6351 79.307 29.8468 78.6011 29.8468H68.6952C68.107 29.8468 67.6364 29.988 67.2835 30.2468C66.907 30.5292 66.7188 30.9527 66.7188 31.5174C66.7188 32.0821 66.907 32.4821 67.307 32.7645C67.6835 33.0233 68.107 33.1645 68.6246 33.1645H76.4599C78.6717 33.1645 80.3893 32.6468 81.5658 31.6115C82.7423 30.5763 83.354 28.8115 83.354 26.3645V25.2351H88.9776V21.8704H83.354H83.3776ZM88.6482 24.8821H83.0246V26.388C83.0246 28.7174 82.4599 30.388 81.3776 31.3527C80.2717 32.3174 78.6482 32.8115 76.507 32.8115H68.6717C68.2246 32.8115 67.8717 32.6939 67.5658 32.4821C67.2835 32.2704 67.1423 31.9645 67.1423 31.5174C67.1423 31.0704 67.2835 30.7645 67.5658 30.5527C67.8482 30.341 68.2482 30.2233 68.7423 30.2233H78.6482C79.4482 30.2233 80.1776 29.988 80.7893 29.5174C81.4246 29.0233 81.7305 28.3645 81.7305 27.5174V24.9057H73.7776C72.8599 24.9057 71.9893 24.7174 71.2129 24.388C70.4129 24.0351 69.707 23.5645 69.1188 22.9527C68.5305 22.3645 68.0364 21.6586 67.6835 20.8586C67.3305 20.0586 67.1658 19.2115 67.1658 18.2939C67.1658 17.3763 67.354 16.5527 67.6835 15.7527C68.0364 14.9527 68.507 14.2468 69.1188 13.6586C69.707 13.0704 70.4129 12.5763 71.2129 12.2233C72.0129 11.8704 72.8599 11.7057 73.7776 11.7057H76.4364C77.354 11.7057 78.2011 11.8939 79.0011 12.2233C79.8011 12.5763 80.507 13.0468 81.0952 13.6586C81.6835 14.2468 82.1776 14.9527 82.5305 15.7527C82.8835 16.5527 83.0482 17.4233 83.0482 18.3174V22.2704H88.6717V24.9057L88.6482 24.8821ZM80.154 15.3057C79.707 14.9763 79.1658 14.7174 78.6011 14.5292C78.0129 14.3645 77.4246 14.2704 76.7893 14.2704H72.8599C72.2717 14.2704 71.7305 14.3645 71.1893 14.5763C70.6717 14.7645 70.2011 15.0468 69.7776 15.3998C69.3776 15.7527 69.0246 16.1763 68.7893 16.6468C68.554 17.141 68.4129 17.6821 68.4129 18.2704C68.4129 18.8586 68.554 19.5174 68.8364 20.0115C69.1188 20.5057 69.4952 20.9292 69.9423 21.2586C70.3893 21.588 70.907 21.8468 71.4952 22.0115C72.0599 22.1763 72.6482 22.2468 73.2599 22.2468H81.6599V18.2939C81.6599 17.6586 81.5188 17.0704 81.2364 16.5763C80.954 16.0586 80.5776 15.6351 80.1305 15.3057H80.154ZM81.3305 21.8704H73.307C72.7423 21.8704 72.1776 21.7998 71.6364 21.6351C71.0952 21.4939 70.6246 21.2586 70.2011 20.9292C69.7776 20.6233 69.4482 20.2468 69.1893 19.7998C68.9305 19.3527 68.8129 18.8351 68.8129 18.2468C68.8129 17.6586 68.9305 17.2351 69.1423 16.788C69.3776 16.341 69.6599 15.9645 70.0364 15.6586C70.4129 15.3292 70.8364 15.0704 71.3305 14.9057C71.8011 14.7174 72.3188 14.6233 72.8599 14.6233H76.7893C77.3776 14.6233 77.9423 14.7174 78.4835 14.8586C79.0246 15.0233 79.4952 15.2586 79.9188 15.5645C80.3423 15.8704 80.6717 16.2704 80.9305 16.7174C81.1893 17.1645 81.307 17.6821 81.307 18.2704V21.8468L81.3305 21.8704Z" fill="white"/>
<path d="M107.635 15.6589C107.282 14.8354 106.788 14.1295 106.176 13.4942C105.564 12.8824 104.835 12.3883 104.011 12.0354C103.188 11.6824 102.317 11.4942 101.376 11.4942H92.6466L101.917 2.17653C102.035 2.03536 102.082 1.89418 102.082 1.72947C102.082 1.44712 101.988 1.21183 101.823 1.07065C101.658 0.929475 101.447 0.858887 101.235 0.858887C101.023 0.858887 100.764 0.953003 100.553 1.16477L89.9172 11.8707C89.5643 12.1765 89.3761 12.553 89.3761 12.9765C89.3761 13.4001 89.5172 13.7295 89.8231 14.0118C90.129 14.2942 90.4584 14.4589 90.8584 14.4589H102.647C103.188 14.4589 103.682 14.553 104.153 14.7648C104.623 14.9765 105.023 15.2354 105.353 15.5883C105.682 15.9412 105.964 16.3412 106.153 16.8118C106.364 17.2824 106.458 17.753 106.458 18.2706C106.458 18.7883 106.364 19.3059 106.153 19.7765C105.941 20.2471 105.682 20.6471 105.353 21.0001C105.023 21.353 104.623 21.6118 104.153 21.8001C103.682 21.9883 103.188 22.0824 102.647 22.0824H86.1055V25.0942H101.353C102.294 25.0942 103.188 24.9059 103.988 24.553C104.811 24.2001 105.517 23.7059 106.153 23.0942C106.764 22.4824 107.258 21.753 107.611 20.9295C107.964 20.1059 108.153 19.2354 108.153 18.2942C108.153 17.353 107.964 16.5059 107.611 15.6824L107.635 15.6589Z" fill="white"/>
<path d="M107.824 15.5648C107.471 14.7178 106.953 13.9884 106.318 13.3531C105.683 12.7178 104.953 12.2237 104.106 11.8472C103.259 11.4707 102.341 11.2825 101.377 11.2825H93.0944L102.059 2.24719C102.2 2.08248 102.271 1.89425 102.271 1.68248C102.271 1.32954 102.153 1.07072 101.941 0.882482C101.518 0.506011 100.883 0.529541 100.436 0.9766L89.8003 11.6825C89.4003 12.0354 89.1886 12.459 89.1886 12.9295C89.1886 13.4001 89.3533 13.7766 89.7062 14.106C90.0356 14.4354 90.4356 14.6001 90.8591 14.6001H102.647C103.165 14.6001 103.636 14.6942 104.083 14.8825C104.53 15.0707 104.906 15.3295 105.212 15.659C105.542 15.9884 105.8 16.3648 105.989 16.8119C106.177 17.2354 106.271 17.706 106.271 18.2001C106.271 18.6942 106.177 19.1884 105.989 19.6354C105.8 20.0825 105.542 20.459 105.212 20.7884C104.906 21.1178 104.506 21.3766 104.083 21.5648C103.659 21.7531 103.165 21.8472 102.647 21.8472H85.918V25.2119H101.353C102.318 25.2119 103.236 25.0237 104.083 24.6472C104.93 24.2707 105.659 23.7766 106.294 23.1413C106.93 22.506 107.424 21.7766 107.8 20.9295C108.177 20.0825 108.365 19.1648 108.365 18.2237C108.365 17.2825 108.177 16.3884 107.8 15.5413L107.824 15.5648ZM101.377 24.8825H86.2944V22.2472H102.647C103.212 22.2472 103.73 22.1531 104.224 21.9413C104.718 21.7531 105.142 21.4472 105.471 21.0942C105.824 20.7413 106.106 20.3178 106.318 19.8237C106.53 19.3531 106.624 18.8119 106.624 18.2472C106.624 17.6825 106.506 17.1884 106.318 16.7178C106.106 16.2472 105.824 15.8237 105.471 15.4472C105.118 15.0942 104.694 14.7884 104.224 14.5766C103.73 14.3648 103.212 14.2472 102.647 14.2472H90.8591C90.5297 14.2472 90.2239 14.1295 89.965 13.8707C89.7062 13.6119 89.565 13.306 89.565 12.9531C89.565 12.6001 89.7297 12.2707 90.0591 11.9648L100.694 1.25895C101 0.92954 101.424 0.929541 101.706 1.18836C101.824 1.30601 101.894 1.47072 101.894 1.70601C101.894 1.94131 101.847 1.91778 101.777 2.01189L92.2003 11.659H101.353C102.271 11.659 103.142 11.8472 103.918 12.1766C104.718 12.5295 105.424 13.0001 106.012 13.6119C106.6 14.2001 107.094 14.906 107.447 15.706C107.8 16.506 107.965 17.3531 107.965 18.2472C107.965 19.1413 107.777 20.0119 107.447 20.8119C107.094 21.6119 106.624 22.3178 106.012 22.906C105.424 23.4942 104.718 23.9884 103.918 24.3413C103.118 24.6942 102.271 24.859 101.353 24.859L101.377 24.8825Z" fill="white"/>
<path d="M19.5648 48.4589C18.9766 47.5412 18.106 46.8118 16.9766 46.2707C17.6825 45.6354 18.2001 44.9295 18.4825 44.153C18.7648 43.3765 18.9295 42.5059 18.9295 41.5648V38.0354C18.9295 37.5648 18.8354 37.1883 18.6236 36.906C18.4119 36.6236 18.0825 36.4824 17.5883 36.4824C17.0942 36.4824 16.7413 36.6236 16.5295 36.906C16.3178 37.1883 16.2001 37.5648 16.2001 38.0354V41.5648C16.2001 42.7177 15.8942 43.6354 15.2825 44.3412C14.6707 45.0471 13.706 45.4001 12.3648 45.4001H4.24717V38.0589C4.24717 37.5648 4.12953 37.1883 3.91776 36.906C3.706 36.6236 3.35306 36.4824 2.85894 36.4824C2.36482 36.4824 2.05894 36.6236 1.82364 36.906C1.58835 37.1883 1.4707 37.5883 1.4707 38.0589V55.3765C1.4707 55.8471 1.56482 56.2471 1.77659 56.5765C1.98835 56.906 2.34129 57.0707 2.85894 57.0707C3.37659 57.0707 3.706 56.906 3.91776 56.5765C4.12953 56.2471 4.24717 55.8471 4.24717 55.3765V48.1765H14.1531C14.7178 48.1765 15.2119 48.2236 15.6589 48.3412C16.106 48.4589 16.4589 48.6707 16.7648 49.0001C17.0707 49.3295 17.306 49.7765 17.4472 50.3883C17.6119 50.9765 17.6825 51.753 17.6825 52.6942V55.6589C17.6825 56.1059 17.7766 56.4589 17.9883 56.7177C18.2001 56.9765 18.5295 57.0942 19.0236 57.0942C19.5178 57.0942 19.8707 56.953 20.106 56.6471C20.3413 56.3648 20.4354 55.9883 20.4354 55.5412V52.0118C20.4354 50.5765 20.1531 49.4001 19.5648 48.4824V48.4589Z" fill="white"/>
<path d="M19.7302 48.3645C19.1655 47.4939 18.3655 46.7645 17.3066 46.2234C17.9419 45.6116 18.4125 44.9528 18.6713 44.1998C18.9772 43.3998 19.1184 42.5057 19.1184 41.541V38.0116C19.1184 37.4939 19.0008 37.0939 18.789 36.7881C18.5537 36.4587 18.1537 36.2939 17.589 36.2939C17.0243 36.2939 16.6243 36.4587 16.389 36.7881C16.1537 37.0939 16.036 37.5175 16.036 38.0351V41.5645C16.036 42.6704 15.7537 43.5645 15.1655 44.2234C14.6008 44.8822 13.6596 45.2116 12.3655 45.2116H4.43605V38.0587C4.43605 37.5175 4.3184 37.0939 4.08311 36.7881C3.84782 36.4587 3.42429 36.2939 2.88311 36.2939C2.34193 36.2939 1.98899 36.4587 1.70664 36.7881C1.44782 37.0939 1.30664 37.541 1.30664 38.0587V55.3763C1.30664 55.8939 1.42429 56.3175 1.63605 56.6704C1.87135 57.0469 2.29488 57.2351 2.85958 57.2351C3.42429 57.2351 3.82429 57.0469 4.08311 56.6704C4.3184 56.3175 4.43605 55.8704 4.43605 55.3763V48.341H14.1537C14.6949 48.341 15.189 48.3881 15.6125 48.5057C16.0125 48.5998 16.3655 48.8116 16.6243 49.1175C16.9066 49.4234 17.1184 49.8469 17.2831 50.4116C17.4478 50.9998 17.5184 51.7528 17.5184 52.6704V55.6351C17.5184 56.1292 17.636 56.5292 17.8713 56.8116C18.1066 57.1175 18.5066 57.2822 19.0713 57.2822C19.6361 57.2822 20.0361 57.1175 20.2949 56.7645C20.5537 56.4351 20.6713 56.0351 20.6713 55.541V52.0116C20.6713 50.5528 20.3655 49.3292 19.7772 48.3645H19.7302ZM20.2713 55.541C20.2713 55.941 20.1772 56.2704 19.9655 56.5292C19.7772 56.7645 19.4713 56.8822 19.0243 56.8822C18.5772 56.8822 18.2949 56.7645 18.1302 56.5763C17.9419 56.341 17.8713 56.0351 17.8713 55.6351V52.6704C17.8713 51.7292 17.8008 50.9292 17.636 50.3175C17.4713 49.7057 17.2125 49.2116 16.9066 48.8586C16.5772 48.5057 16.1772 48.2704 15.7066 48.1528C15.2596 48.0351 14.7419 47.9645 14.1537 47.9645H4.05958V55.3528C4.05958 55.7763 3.96546 56.1528 3.77723 56.4587C3.58899 56.741 3.30664 56.8586 2.85958 56.8586C2.41252 56.8586 2.10664 56.7175 1.94193 56.4587C1.7537 56.1763 1.65958 55.7998 1.65958 55.3528V38.0351C1.65958 37.5881 1.7537 37.2351 1.96546 36.9998C2.17723 36.7645 2.45958 36.6469 2.85958 36.6469C3.25958 36.6469 3.58899 36.7645 3.77723 36.9998C3.96546 37.2351 4.05958 37.5881 4.05958 38.0587V45.5881H12.3655C13.7537 45.5881 14.789 45.2116 15.4243 44.4587C16.0596 43.7292 16.3655 42.741 16.3655 41.5645V38.0351C16.3655 37.6116 16.4596 37.2587 16.6478 37.0234C16.8125 36.7881 17.1184 36.6704 17.5655 36.6704C18.0125 36.6704 18.2949 36.7881 18.4596 37.0234C18.6478 37.2587 18.7184 37.6116 18.7184 38.0351V41.5645C18.7184 42.4822 18.5772 43.3292 18.2949 44.1057C18.0125 44.8587 17.5184 45.541 16.8361 46.1528L16.6243 46.341L16.8831 46.4587C17.989 46.9763 18.8361 47.6822 19.4008 48.5763C19.9655 49.4704 20.2478 50.6234 20.2478 52.0116V55.541H20.2713Z" fill="white"/>
<path d="M41.9644 42.4823C41.6821 41.7999 41.2821 41.2117 40.7644 40.694C40.2703 40.1764 39.6585 39.7764 38.9762 39.4705C38.2938 39.1646 37.5644 39.0234 36.8115 39.0234H30.1762C29.4232 39.0234 28.6938 39.1646 28.0115 39.4705C27.3291 39.7764 26.7173 40.1764 26.2232 40.694C25.7291 41.1881 25.3291 41.7999 25.0232 42.4823C24.7409 43.1646 24.5762 43.894 24.5762 44.647V51.2587C24.5762 52.0117 24.7174 52.7411 25.0232 53.4234C25.3056 54.1058 25.7056 54.694 26.2232 55.2117C26.7173 55.7058 27.3291 56.1058 28.0115 56.4117C28.6938 56.694 29.4232 56.8587 30.1762 56.8587H36.8115C37.5644 56.8587 38.2938 56.7176 38.9762 56.4117C39.6585 56.1293 40.2468 55.7293 40.7644 55.2117C41.2821 54.7176 41.6585 54.1058 41.9644 53.4234C42.2468 52.7411 42.4115 52.0117 42.4115 51.2587V44.647C42.4115 43.894 42.2703 43.1646 41.9644 42.4823ZM27.0938 50.9293V44.6705C27.0938 43.7293 27.4232 42.9764 28.1056 42.3881C28.7879 41.8234 29.5879 41.5411 30.5291 41.5411H36.835C37.7997 41.5411 38.5526 41.894 39.1173 42.5764C39.6821 43.2587 39.9644 44.0823 39.9644 45.0234V51.2823C39.9644 52.2234 39.635 52.9764 38.9526 53.5411C38.2703 54.1058 37.4703 54.3881 36.5291 54.3881H30.1997C29.2585 54.3881 28.5056 54.0587 27.9409 53.3999C27.3762 52.7411 27.0938 51.9176 27.0938 50.9528V50.9293Z" fill="white"/>
<path d="M39.259 42.4354C38.6708 41.7059 37.8472 41.3295 36.8355 41.3295H30.5296C29.5413 41.3295 28.6943 41.6354 27.9884 42.2236C27.2825 42.8354 26.906 43.6354 26.906 44.6471V50.9059C26.906 51.9177 27.2119 52.7648 27.8002 53.4707C28.3884 54.1765 29.2119 54.5295 30.2002 54.5295H36.5296C37.5178 54.5295 38.3649 54.2236 39.0707 53.6354C39.7766 53.0471 40.1531 52.2236 40.1531 51.2354V44.9765C40.1531 43.9883 39.8472 43.1412 39.259 42.4118V42.4354ZM39.7766 51.2589C39.7766 52.153 39.4707 52.8589 38.8355 53.3765C38.2002 53.8942 37.4237 54.1765 36.5296 54.1765H30.2002C29.306 54.1765 28.6237 53.8707 28.0825 53.2589C27.5413 52.6236 27.2825 51.8471 27.2825 50.9295V44.6707C27.2825 43.7765 27.5884 43.0707 28.2237 42.5295C28.859 41.9883 29.6355 41.7059 30.5296 41.7059H36.8355C37.7531 41.7059 38.459 42.0118 38.9766 42.6707C39.5178 43.3295 39.7766 44.1059 39.7766 45.0001V51.2589ZM39.259 42.4354C38.6708 41.7059 37.8472 41.3295 36.8355 41.3295H30.5296C29.5413 41.3295 28.6943 41.6354 27.9884 42.2236C27.2825 42.8354 26.906 43.6354 26.906 44.6471V50.9059C26.906 51.9177 27.2119 52.7648 27.8002 53.4707C28.3884 54.1765 29.2119 54.5295 30.2002 54.5295H36.5296C37.5178 54.5295 38.3649 54.2236 39.0707 53.6354C39.7766 53.0471 40.1531 52.2236 40.1531 51.2354V44.9765C40.1531 43.9883 39.8472 43.1412 39.259 42.4118V42.4354ZM39.7766 51.2589C39.7766 52.153 39.4707 52.8589 38.8355 53.3765C38.2002 53.8942 37.4237 54.1765 36.5296 54.1765H30.2002C29.306 54.1765 28.6237 53.8707 28.0825 53.2589C27.5413 52.6236 27.2825 51.8471 27.2825 50.9295V44.6707C27.2825 43.7765 27.5884 43.0707 28.2237 42.5295C28.859 41.9883 29.6355 41.7059 30.5296 41.7059H36.8355C37.7531 41.7059 38.459 42.0118 38.9766 42.6707C39.5178 43.3295 39.7766 44.1059 39.7766 45.0001V51.2589ZM42.1296 42.4118C41.8237 41.7059 41.4237 41.0942 40.906 40.5765C40.3884 40.0589 39.7766 39.6354 39.0707 39.3295C38.3649 39.0236 37.6119 38.8589 36.8355 38.8589H30.2002C29.4237 38.8589 28.6708 39.0236 27.9649 39.3295C27.259 39.6354 26.6472 40.0589 26.1296 40.5765C25.6119 41.0942 25.1884 41.7059 24.906 42.4118C24.6002 43.1177 24.459 43.8707 24.459 44.6471V51.2589C24.459 52.0354 24.6002 52.8118 24.906 53.4942C25.2119 54.2001 25.6119 54.8118 26.1296 55.3295C26.6472 55.8471 27.2825 56.2707 27.9649 56.553C28.6708 56.8589 29.4237 57.0001 30.2002 57.0001H36.8355C37.6119 57.0001 38.3649 56.8354 39.0707 56.553C39.7766 56.2471 40.3884 55.8471 40.906 55.3295C41.4237 54.8118 41.8472 54.2001 42.1296 53.4942C42.4355 52.7883 42.5766 52.0354 42.5766 51.2589V44.6471C42.5766 43.8707 42.4355 43.1177 42.1296 42.4118ZM42.2237 51.2589C42.2237 51.9883 42.0825 52.6942 41.8002 53.353C41.5178 54.0118 41.1413 54.6001 40.6472 55.0707C40.1531 55.5412 39.5884 55.9412 38.9296 56.2236C38.2708 56.5059 37.5649 56.6471 36.8355 56.6471H30.2002C29.4708 56.6471 28.7649 56.5059 28.106 56.2236C27.4472 55.9412 26.859 55.5648 26.3884 55.0707C25.9178 54.5765 25.5178 54.0118 25.2355 53.353C24.9531 52.6942 24.8119 51.9883 24.8119 51.2589V44.6471C24.8119 43.9177 24.9531 43.2118 25.2355 42.553C25.5178 41.8942 25.8943 41.3059 26.3884 40.8354C26.8825 40.3412 27.4708 39.9412 28.1296 39.6589C28.7884 39.3765 29.4943 39.2118 30.2237 39.2118H36.859C37.5884 39.2118 38.2943 39.353 38.9531 39.6589C39.6119 39.9412 40.2002 40.3412 40.6943 40.8354C41.1884 41.3295 41.5649 41.8942 41.8472 42.553C42.1296 43.2118 42.2707 43.9177 42.2707 44.6471V51.2589H42.2237ZM36.8119 41.353H30.506C29.5178 41.353 28.6708 41.6589 27.9649 42.2471C27.259 42.8589 26.8825 43.6589 26.8825 44.6707V50.9295C26.8825 51.9412 27.1884 52.7883 27.7766 53.4942C28.3649 54.2001 29.1884 54.553 30.1766 54.553H36.506C37.4943 54.553 38.3413 54.2471 39.0472 53.6589C39.7531 53.0707 40.1296 52.2471 40.1296 51.2589V45.0001C40.1296 44.0118 39.8237 43.1648 39.2355 42.4354C38.6472 41.7059 37.8237 41.3295 36.8119 41.3295V41.353ZM39.7766 51.2589C39.7766 52.153 39.4707 52.8589 38.8355 53.3765C38.2002 53.8942 37.4237 54.1765 36.5296 54.1765H30.2002C29.306 54.1765 28.6237 53.8707 28.0825 53.2589C27.5413 52.6236 27.2825 51.8471 27.2825 50.9295V44.6707C27.2825 43.7765 27.5884 43.0707 28.2237 42.5295C28.859 41.9883 29.6355 41.7059 30.5296 41.7059H36.8355C37.7531 41.7059 38.459 42.0118 38.9766 42.6707C39.5178 43.3295 39.7766 44.1059 39.7766 45.0001V51.2589Z" fill="white"/>
<path d="M64.8344 49.3999C64.3167 48.694 63.705 48.1528 62.9991 47.7764C63.6579 47.3293 64.105 46.7881 64.3403 46.1293C64.5756 45.494 64.7167 44.8117 64.7167 44.0823C64.7167 43.3528 64.5991 42.7646 64.3873 42.1528C64.152 41.5411 63.8226 40.9999 63.3991 40.5293C62.952 40.0587 62.4108 39.6823 61.752 39.4234C61.0932 39.1411 60.3167 39.0234 59.3991 39.0234H48.1756C47.9167 39.0234 47.6814 39.1176 47.4932 39.2823C47.305 39.447 47.2344 39.6823 47.2344 39.9646V55.9411C47.2344 56.1764 47.3285 56.4117 47.4932 56.5999C47.6579 56.7881 47.8932 56.8823 48.1756 56.8823H59.3991C60.2461 56.8823 61.0461 56.8117 61.7991 56.6705C62.552 56.5293 63.2108 56.2705 63.7755 55.9176C64.3403 55.5646 64.7873 55.0705 65.0932 54.4587C65.4226 53.847 65.5873 53.0705 65.5873 52.1293C65.5873 51.1881 65.3285 50.1528 64.8344 49.447V49.3999ZM62.6932 53.3058C62.4579 53.6352 62.152 53.8705 61.7755 54.0352C61.3991 54.1999 60.9755 54.294 60.505 54.3176C60.0344 54.3411 59.5638 54.3646 59.0461 54.3646H49.6814V49.0705H59.1873C59.705 49.0705 60.1991 49.1411 60.6697 49.2587C61.1403 49.3764 61.5403 49.5646 61.8932 49.7999C62.2461 50.0352 62.5285 50.3411 62.7403 50.694C62.952 51.047 63.0697 51.4705 63.0697 51.9411C63.0697 52.4117 62.952 52.9764 62.7167 53.3058H62.6932ZM61.4461 45.8705C60.952 46.3411 60.105 46.5764 58.9755 46.5764H49.6814V41.494H59.0697C60.2226 41.494 61.0226 41.7293 61.4932 42.1999C61.9638 42.6705 62.1991 43.3058 62.1991 44.0823C62.1991 44.8587 61.9403 45.3999 61.4461 45.8705Z" fill="white"/>
<path d="M61.6352 42.0821C61.1411 41.588 60.2705 41.3292 59.0705 41.3292H49.494V46.788H58.9764C60.1528 46.788 61.047 46.5292 61.5646 46.0351C62.1058 45.5409 62.3881 44.8821 62.3881 44.1056C62.3881 43.3292 62.1293 42.5998 61.6352 42.0821ZM58.9764 46.388H49.8705V41.6821H59.0705C60.1528 41.6821 60.9293 41.8939 61.3764 42.3409C61.8234 42.788 62.0352 43.3527 62.0352 44.1056C62.0352 44.8586 61.7999 45.3292 61.3293 45.7527C60.8587 46.1998 60.0823 46.4115 58.9764 46.4115V46.388ZM62.8823 50.5998C62.647 50.2233 62.3646 49.8939 61.9881 49.6586C61.6352 49.3998 61.1881 49.2115 60.694 49.0939C60.1999 48.9762 59.7058 48.9056 59.1646 48.9056H49.494V54.5527H59.047C59.5646 54.5527 60.0352 54.5527 60.5058 54.5056C60.9999 54.4586 61.447 54.3645 61.847 54.1998C62.2705 54.0351 62.5999 53.7762 62.8587 53.4233C63.1176 53.0703 63.2352 52.5762 63.2352 51.9409C63.2352 51.3056 63.1176 50.9998 62.8823 50.5998ZM59.047 54.1762H49.8705V49.2586H59.1881C59.6823 49.2586 60.1764 49.3292 60.6234 49.4468C61.0705 49.5645 61.4705 49.7292 61.7999 49.9645C62.1293 50.1762 62.3881 50.4586 62.5764 50.788C62.7646 51.1174 62.8587 51.5174 62.8587 51.9409C62.8587 52.3645 62.7411 52.9056 62.5529 53.188C62.3411 53.4703 62.0587 53.7056 61.7058 53.8468C61.3293 53.988 60.9293 54.0821 60.4823 54.1292C60.0352 54.1527 59.5411 54.1762 59.047 54.1762ZM62.8823 50.5998C62.647 50.2233 62.3646 49.8939 61.9881 49.6586C61.6352 49.3998 61.1881 49.2115 60.694 49.0939C60.1999 48.9762 59.7058 48.9056 59.1646 48.9056H49.494V54.5527H59.047C59.5646 54.5527 60.0352 54.5527 60.5058 54.5056C60.9999 54.4586 61.447 54.3645 61.847 54.1998C62.2705 54.0351 62.5999 53.7762 62.8587 53.4233C63.1176 53.0703 63.2352 52.5762 63.2352 51.9409C63.2352 51.3056 63.1176 50.9998 62.8823 50.5998ZM59.047 54.1762H49.8705V49.2586H59.1881C59.6823 49.2586 60.1764 49.3292 60.6234 49.4468C61.0705 49.5645 61.4705 49.7292 61.7999 49.9645C62.1293 50.1762 62.3881 50.4586 62.5764 50.788C62.7646 51.1174 62.8587 51.5174 62.8587 51.9409C62.8587 52.3645 62.7411 52.9056 62.5529 53.188C62.3411 53.4703 62.0587 53.7056 61.7058 53.8468C61.3293 53.988 60.9293 54.0821 60.4823 54.1292C60.0352 54.1527 59.5411 54.1762 59.047 54.1762ZM61.5881 46.0115C62.1293 45.5174 62.4117 44.8586 62.4117 44.0821C62.4117 43.3056 62.1528 42.5762 61.6587 42.0586C61.1646 41.5645 60.294 41.3056 59.094 41.3056H49.5176V46.7645H58.9999C60.1764 46.7645 61.0705 46.5056 61.5881 46.0115ZM49.8705 41.6821H59.0705C60.1528 41.6821 60.9293 41.8939 61.3764 42.3409C61.8234 42.788 62.0352 43.3527 62.0352 44.1056C62.0352 44.8586 61.7999 45.3292 61.3293 45.7527C60.8587 46.1998 60.0823 46.4115 58.9764 46.4115H49.8705V41.7056V41.6821ZM64.9764 49.2821C64.5293 48.6468 63.9646 48.1292 63.3293 47.7292C63.894 47.3056 64.2705 46.788 64.5058 46.1762C64.7646 45.5174 64.8823 44.8115 64.8823 44.0821C64.8823 43.3527 64.7646 42.7174 64.5293 42.0821C64.294 41.4468 63.9411 40.8821 63.494 40.388C63.047 39.8939 62.4587 39.5174 61.7764 39.2351C61.094 38.9527 60.294 38.8115 59.3764 38.8115H48.1528C47.847 38.8115 47.5646 38.9056 47.3528 39.1174C47.1411 39.3292 47.0234 39.588 47.0234 39.9409V55.9174C47.0234 56.1998 47.1411 56.4821 47.3293 56.6939C47.5411 56.9292 47.8234 57.0468 48.1293 57.0468H59.3528C60.1999 57.0468 61.0234 56.9762 61.7999 56.8351C62.5764 56.6939 63.2587 56.4115 63.847 56.0586C64.4352 55.6821 64.9058 55.1645 65.2352 54.5292C65.5646 53.8939 65.7529 53.0704 65.7529 52.1056C65.7529 51.1409 65.494 50.0586 64.9528 49.3292L64.9764 49.2821ZM59.3764 56.6703H48.1528C47.9411 56.6703 47.7528 56.5998 47.6117 56.4351C47.4705 56.2703 47.3999 56.1056 47.3999 55.9174V39.9409C47.3999 39.7056 47.4705 39.5174 47.6117 39.3762C47.7528 39.2351 47.9411 39.1645 48.1528 39.1645H59.3764C60.247 39.1645 60.9999 39.3056 61.6587 39.5645C62.294 39.8233 62.8352 40.1762 63.2352 40.6233C63.6587 41.0703 63.9646 41.588 64.1999 42.1998C64.4117 42.788 64.5293 43.4233 64.5293 44.0821C64.5293 44.7409 64.4117 45.4468 64.1764 46.0586C63.9411 46.6703 63.5176 47.188 62.9058 47.6115L62.647 47.7762L62.9058 47.9174C63.5881 48.2939 64.1999 48.8115 64.6705 49.4939C65.1411 50.1762 65.3999 51.0233 65.3999 52.0586C65.3999 53.0939 65.2352 53.7292 64.9293 54.3174C64.6234 54.9056 64.1999 55.3762 63.6587 55.7056C63.1176 56.0586 62.4823 56.2939 61.7529 56.4351C60.9999 56.5762 60.2234 56.6468 59.3764 56.6468V56.6703ZM61.9881 49.6351C61.6352 49.3762 61.1881 49.188 60.694 49.0703C60.1999 48.9527 59.7058 48.8821 59.1646 48.8821H49.494V54.5292H59.047C59.5646 54.5292 60.0352 54.5292 60.5058 54.4821C60.9999 54.4351 61.447 54.3409 61.847 54.1762C62.2705 54.0115 62.5999 53.7527 62.8587 53.3998C63.1176 53.0468 63.2352 52.5527 63.2352 51.9174C63.2352 51.2821 63.1176 50.9762 62.8823 50.5762C62.647 50.1998 62.3646 49.8704 61.9881 49.6351ZM59.047 54.1762H49.8705V49.2586H59.1881C59.6823 49.2586 60.1764 49.3292 60.6234 49.4468C61.0705 49.5645 61.4705 49.7292 61.7999 49.9645C62.1293 50.1762 62.3881 50.4586 62.5764 50.788C62.7646 51.1174 62.8587 51.5174 62.8587 51.9409C62.8587 52.3645 62.7411 52.9056 62.5529 53.188C62.3411 53.4703 62.0587 53.7056 61.7058 53.8468C61.3293 53.988 60.9293 54.0821 60.4823 54.1292C60.0352 54.1527 59.5411 54.1762 59.047 54.1762ZM61.5881 46.0115C62.1293 45.5174 62.4117 44.8586 62.4117 44.0821C62.4117 43.3056 62.1528 42.5762 61.6587 42.0586C61.1646 41.5645 60.294 41.3056 59.094 41.3056H49.5176V46.7645H58.9999C60.1764 46.7645 61.0705 46.5056 61.5881 46.0115ZM49.8705 41.6821H59.0705C60.1528 41.6821 60.9293 41.8939 61.3764 42.3409C61.8234 42.788 62.0352 43.3527 62.0352 44.1056C62.0352 44.8586 61.7999 45.3292 61.3293 45.7527C60.8587 46.1998 60.0823 46.4115 58.9764 46.4115H49.8705V41.7056V41.6821Z" fill="white"/>
<path d="M87.7299 54.7646C87.4711 54.5293 87.1652 54.3881 86.8358 54.3881H75.024C74.1299 54.3881 73.377 54.0823 72.7652 53.4705C72.1534 52.8587 71.8475 52.1293 71.8475 51.2587V49.0705H84.1299C84.4593 49.0705 84.7652 48.9529 85.0005 48.694C85.2358 48.4352 85.377 48.1528 85.377 47.8234C85.377 47.494 85.2593 47.1881 85.0005 46.9528C84.7652 46.7176 84.4593 46.5764 84.1299 46.5764H71.8475V44.647C71.8475 43.7764 72.1534 43.0234 72.7652 42.4352C73.377 41.8234 74.1299 41.5176 75.0005 41.5176H86.5534C86.9064 41.5176 87.2122 41.3999 87.4711 41.1411C87.7299 40.8823 87.8475 40.5999 87.8475 40.2705C87.8475 39.9411 87.7299 39.6352 87.4711 39.3999C87.2122 39.1646 86.9299 39.0234 86.5534 39.0234H75.0005C74.2005 39.0234 73.4711 39.1646 72.8122 39.4705C72.1299 39.7764 71.5417 40.1764 71.024 40.694C70.5064 41.1881 70.1064 41.7999 69.824 42.4823C69.5417 43.1646 69.377 43.894 69.377 44.647V51.2587C69.377 52.0117 69.5181 52.7411 69.824 53.4234C70.1064 54.1058 70.5299 54.694 71.024 55.2117C71.5417 55.7058 72.1299 56.1058 72.8122 56.4117C73.4946 56.694 74.224 56.8587 75.0005 56.8587H86.8123C87.1417 56.8587 87.4475 56.7411 87.7064 56.4823C87.9652 56.2234 88.0828 55.9646 88.0828 55.6352C88.0828 55.3058 87.9652 54.9999 87.7064 54.7646H87.7299Z" fill="white"/>
<path d="M87.846 54.6233C87.5637 54.3409 87.2107 54.1998 86.8343 54.1998H75.0225C74.1755 54.1998 73.4696 53.9174 72.9049 53.3292C72.3166 52.7645 72.0578 52.0821 72.0578 51.2351V49.2351H84.1755C84.5519 49.2351 84.9049 49.0939 85.1872 48.8115C85.4696 48.5292 85.6108 48.1998 85.6108 47.7998C85.6108 47.3998 85.4696 47.0703 85.1872 46.788C84.9049 46.5056 84.5755 46.3645 84.1755 46.3645H72.0578V44.6233C72.0578 43.7998 72.3402 43.1174 72.9284 42.5292C73.5166 41.9409 74.199 41.6821 75.046 41.6821H86.599C86.999 41.6821 87.3519 41.5409 87.6343 41.2586C87.9166 40.9762 88.0578 40.6468 88.0578 40.2468C88.0578 39.8468 87.9166 39.5174 87.6343 39.2351C87.3519 38.9527 86.999 38.8115 86.599 38.8115H75.046C74.2225 38.8115 73.4696 38.9762 72.7872 39.2821C72.1049 39.588 71.4931 40.0115 70.9519 40.5292C70.4107 41.0468 70.0108 41.6586 69.7049 42.3645C69.399 43.0703 69.2578 43.8233 69.2578 44.5998V51.2115C69.2578 51.988 69.399 52.7645 69.7049 53.4468C70.0108 54.1527 70.4343 54.7645 70.9519 55.2821C71.4931 55.7998 72.1049 56.2233 72.7872 56.5056C73.4931 56.8115 74.246 56.9527 75.046 56.9527H86.8578C87.2343 56.9527 87.5872 56.8115 87.8696 56.5292C88.1519 56.2468 88.3166 55.9174 88.3166 55.5645C88.3166 55.2115 88.1755 54.8351 87.8696 54.5527L87.846 54.6233ZM86.8343 56.6703H75.0225C74.2696 56.6703 73.5637 56.5292 72.9049 56.2468C72.246 55.9645 71.6813 55.5645 71.1637 55.0939C70.6696 54.5998 70.2696 54.0351 69.9872 53.3762C69.7049 52.7174 69.5637 52.0115 69.5637 51.2821V44.6703C69.5637 43.9409 69.7049 43.2351 69.9872 42.5762C70.2696 41.9174 70.6696 41.3292 71.1637 40.8586C71.6578 40.3645 72.246 39.9645 72.9049 39.6821C73.5402 39.3998 74.2696 39.2351 75.0225 39.2351H86.5755C86.8813 39.2351 87.1402 39.3292 87.3519 39.5645C87.5637 39.7762 87.6813 40.0115 87.6813 40.3174C87.6813 40.6233 87.5872 40.8586 87.3519 41.0703C87.1402 41.2821 86.8813 41.3762 86.5755 41.3762H75.0225C74.1049 41.3762 73.3049 41.7056 72.646 42.3409C71.9872 42.9762 71.6578 43.7762 71.6578 44.6939V46.788H84.1284C84.4107 46.788 84.6696 46.8821 84.8813 47.1174C85.0931 47.3292 85.2107 47.5645 85.2107 47.8704C85.2107 48.1762 85.1166 48.4115 84.8813 48.6233C84.6696 48.8351 84.4343 48.9292 84.1284 48.9292H71.6578V51.3056C71.6578 52.2233 71.9872 53.0233 72.6225 53.6586C73.2578 54.2939 74.0578 54.6233 75.0225 54.6233H86.8343C87.1166 54.6233 87.3755 54.7174 87.5872 54.9292C87.799 55.1409 87.9166 55.3762 87.9166 55.6821C87.9166 55.988 87.799 56.1762 87.5872 56.388C87.3519 56.5998 87.1166 56.7174 86.8108 56.7174L86.8343 56.6703Z" fill="white"/>
<path d="M107.753 49.4705C107.211 48.647 106.482 47.9882 105.541 47.4705C106.694 46.4117 107.258 45.0235 107.258 43.3058V40.1294C107.258 39.7294 107.164 39.3999 106.976 39.1411C106.788 38.9058 106.458 38.7646 106.011 38.7646C105.564 38.7646 105.282 38.8823 105.07 39.1411C104.858 39.3999 104.764 39.7058 104.764 40.1294V43.3058C104.764 44.4823 104.458 45.3764 103.87 45.9176C103.282 46.4588 102.435 46.7411 101.353 46.7411H94.1054V40.247C94.1054 39.847 94.0113 39.4941 93.8231 39.2117C93.6349 38.9294 93.3054 38.7646 92.8584 38.7646C92.4113 38.7646 92.1054 38.9058 91.9172 39.2117C91.7054 39.4941 91.6113 39.847 91.6113 40.2235V55.6823C91.6113 56.0823 91.7054 56.4352 91.8702 56.7176C92.0349 56.9999 92.3643 57.1411 92.8584 57.1411C93.3525 57.1411 93.6349 56.9999 93.8231 56.7176C94.0113 56.4352 94.1054 56.1058 94.1054 55.6823V49.2588H102.976C103.47 49.2588 103.917 49.3058 104.294 49.4235C104.67 49.5411 105 49.7294 105.282 50.0352C105.541 50.3176 105.753 50.7411 105.894 51.2588C106.035 51.7764 106.105 52.4588 106.105 53.2823V55.847C106.105 56.2235 106.2 56.5529 106.411 56.8117C106.623 57.0705 106.929 57.2117 107.353 57.2117C107.776 57.2117 108.105 57.0941 108.294 56.8117C108.505 56.5529 108.6 56.2235 108.6 55.7764V52.6705C108.6 51.3999 108.341 50.3411 107.8 49.4941L107.753 49.4705Z" fill="white"/>
<path d="M107.894 49.3767C107.377 48.6002 106.694 47.9414 105.824 47.4472C106.883 46.3884 107.424 45.0002 107.424 43.3061V40.1296C107.424 39.6825 107.306 39.3296 107.094 39.0472C106.859 38.7649 106.506 38.6002 105.988 38.6002C105.471 38.6002 105.141 38.7414 104.906 39.0472C104.671 39.3296 104.553 39.7061 104.553 40.1296V43.3061C104.553 44.4355 104.271 45.259 103.73 45.7767C103.165 46.2943 102.365 46.5531 101.353 46.5531H94.2943V40.2472C94.2943 39.8002 94.1767 39.4237 93.9884 39.0943C93.7532 38.7414 93.4002 38.5767 92.8826 38.5767C92.3649 38.5767 92.0355 38.7414 91.7767 39.0943C91.5414 39.4237 91.4473 39.7767 91.4473 40.2002V55.659C91.4473 56.1061 91.5414 56.4825 91.7296 56.7884C91.9414 57.1178 92.3179 57.3061 92.8826 57.3061C93.4473 57.3061 93.7767 57.1414 93.9884 56.812C94.2002 56.5061 94.3179 56.1296 94.3179 55.6825V49.4237H103C103.471 49.4237 103.894 49.4708 104.271 49.5884C104.624 49.6825 104.93 49.8708 105.165 50.1296C105.4 50.412 105.612 50.7884 105.73 51.259C105.847 51.7531 105.918 52.412 105.918 53.2355V55.8002C105.918 56.2237 106.036 56.5767 106.271 56.8825C106.506 57.1884 106.883 57.3296 107.353 57.3296C107.824 57.3296 108.2 57.1884 108.435 56.8825C108.671 56.6002 108.788 56.2002 108.788 55.7531V52.6473C108.788 51.3296 108.506 50.2473 107.941 49.3767H107.894ZM108.365 55.7531C108.365 56.1296 108.271 56.4355 108.106 56.6708C107.941 56.8825 107.683 56.9767 107.306 56.9767C106.93 56.9767 106.671 56.8825 106.506 56.6708C106.318 56.4355 106.247 56.1531 106.247 55.8237V53.259C106.247 52.412 106.177 51.7296 106.036 51.1884C105.894 50.6472 105.683 50.2002 105.377 49.8943C105.094 49.5884 104.718 49.3531 104.318 49.2355C103.918 49.1178 103.471 49.0708 102.953 49.0708H93.9179V55.6825C93.9179 56.059 93.8237 56.3649 93.659 56.6002C93.4943 56.8355 93.2355 56.9531 92.859 56.9531C92.4826 56.9531 92.1531 56.8355 92.0355 56.6237C91.8943 56.3649 91.8002 56.059 91.8002 55.6825V40.2237C91.8002 39.8708 91.8943 39.5649 92.0826 39.3061C92.2473 39.0708 92.5061 38.9531 92.8826 38.9531C93.259 38.9531 93.5414 39.0708 93.6826 39.3061C93.8473 39.5649 93.9414 39.8708 93.9414 40.2472V46.9296H101.377C102.506 46.9296 103.377 46.6472 104.012 46.059C104.647 45.4708 104.953 44.5531 104.953 43.3061V40.1296C104.953 39.7767 105.047 39.4708 105.212 39.259C105.377 39.0473 105.635 38.9531 106.012 38.9531C106.388 38.9531 106.671 39.0473 106.835 39.259C107 39.4708 107.071 39.7531 107.071 40.1296V43.3061C107.071 44.9767 106.506 46.3414 105.424 47.3531L105.236 47.5414L105.471 47.659C106.388 48.1296 107.094 48.7884 107.636 49.5884C108.153 50.3884 108.412 51.4237 108.412 52.6473V55.7531H108.365Z" fill="white"/>
<path d="M161.4 7.98799C160.835 7.25858 160.011 6.85858 159.117 6.81152C159.07 6.81152 159.023 6.81152 158.976 6.81152H157.635L129.8 6.9527H128.647C128.529 6.9527 128.435 6.9527 128.317 6.97623C127.47 7.07035 126.694 7.51741 126.176 8.24682C125.588 9.07035 125.447 10.0821 125.753 11.0233L127.094 14.9762L128.741 19.8233L130.011 19.0233L128.623 14.9527L127.117 10.5292C126.953 10.0351 127.023 9.51741 127.329 9.09388C127.635 8.67035 128.106 8.43505 128.623 8.41152L158.906 8.24682C159.4 8.24682 159.87 8.48211 160.153 8.85858C160.459 9.25858 160.553 9.7527 160.435 10.2468L159.188 14.9527L158.106 19.0233L153.376 36.6468C153.188 37.3527 152.553 37.8233 151.823 37.8233L137.564 37.8703C136.882 37.8703 136.27 37.4468 136.059 36.788L132.153 25.3292L132.059 25.0233L130.411 20.1762L129.117 20.9762L130.529 25.0939L130.623 25.3527L133.07 32.5292L133.706 34.4115L134.67 37.2821C135.094 38.5292 136.27 39.3762 137.564 39.3762H141.635H143.682H149.47H150.953H151.87C153.259 39.3762 154.459 38.4351 154.835 37.0939L161.894 10.6939C162.153 9.7527 161.964 8.788 161.353 8.01152L161.4 7.98799Z" fill="white"/>
<path d="M121.871 14.9766C120.742 24.8354 126.036 25.4001 130.483 25.353C130.53 25.353 130.6 25.353 130.671 25.353C131.165 25.353 131.965 25.353 132.224 25.353H132.318C136.906 25.2354 137.048 19.1648 137.048 19.1648H138.2C138.106 19.8942 138.106 20.9766 138.553 22.0824C139.895 25.3295 144.624 25.5883 145.8 25.6824C147.283 25.7766 151.636 26.0589 153.565 23.0942C154.53 21.6119 154.459 19.9648 154.342 19.0707H158.93L160.342 15.0001H121.871V14.9766ZM127.189 22.2236L126.577 21.2119L128.789 19.8236L130.059 19.0236L130.953 18.4589L131.589 19.4707L130.459 20.1766L129.165 20.9766L127.189 22.2001V22.2236ZM145 22.2236L144.365 21.2119L148.765 18.4824L149.377 19.4942L145 22.2236Z" fill="white"/>
<path d="M141.681 27.9304L137.281 30.6582L138.062 31.918L142.462 29.1903L141.681 27.9304Z" fill="white"/>
<path d="M159.118 5.51781V7.54134H157.636V5.51781C157.636 4.64722 156.93 3.91781 156.036 3.91781H131.401C130.53 3.91781 129.801 4.62369 129.801 5.51781V7.70604H128.318V5.51781C128.318 3.82369 129.683 2.45898 131.377 2.45898H148.53V2.90604H154.224V2.45898H156.012C157.707 2.45898 159.071 3.82369 159.071 5.51781H159.118Z" fill="white"/>
<path d="M154.129 0.411621H148.717C147.823 0.411621 147.094 1.14103 147.094 2.03515V3.94103H155.753V2.03515C155.753 1.14103 155.023 0.411621 154.129 0.411621ZM154.247 2.88221H148.553V1.54103H154.247V2.88221Z" fill="white"/>
<path d="M127.283 55.8943C127.283 55.8943 127.283 55.8943 127.26 55.8943C127.024 55.8943 126.836 55.7766 126.695 55.5884L118.907 45.0943C118.719 44.8355 118.719 44.506 118.907 44.2472C119.072 43.9884 119.401 43.8707 119.707 43.9413L125.942 45.4943L133.189 32.459L134.483 33.1884L126.954 46.7178C126.789 47.0002 126.46 47.1649 126.13 47.0707L121.354 45.8708L127.354 53.9649L140.954 37.9884L142.083 38.9531L127.895 55.6355C127.754 55.8002 127.542 55.8943 127.33 55.8943H127.283Z" fill="white"/>
<path d="M158.105 57.5882C157.799 57.5882 157.517 57.3999 157.423 57.1176L154.905 50.647H144.176C143.799 50.647 143.493 50.3647 143.446 49.9882L142.199 38.5529L143.658 38.3882L144.835 49.1647H155.399C155.705 49.1647 155.987 49.3529 156.082 49.6352L158.082 54.7882L161.94 44.5529H150.246C149.846 44.5529 149.517 44.2235 149.517 43.8235V38.4823H150.999V43.0941H163.023C163.258 43.0941 163.493 43.2117 163.635 43.4235C163.776 43.6117 163.799 43.8705 163.729 44.1058L158.811 57.1411C158.693 57.4235 158.435 57.6117 158.129 57.6117L158.105 57.5882Z" fill="white"/>
</g>
<defs>
<clipPath id="clip0_1_225">
<rect width="164" height="58" fill="white"/>
</clipPath>
</defs>
</svg>
