<svg width="164" height="58" viewBox="0 0 164 58" fill="none" xmlns="http://www.w3.org/2000/svg">
<g clip-path="url(#clip0_1_86)">
<path d="M19.706 9.91764C19.2825 9.44705 18.7649 9.23529 18.1531 9.23529H14.9531C14.3649 9.23529 13.8472 9.44705 13.4237 9.87058C12.9766 10.2941 12.7649 11.3059 12.7649 11.8706C12.7649 12.4353 12.859 12.6 13.0472 12.8588H11.6355C11.4472 12.8588 11.306 12.9059 11.1649 13C11.0237 13.0941 10.9531 13.2353 10.9531 13.4235C10.9531 13.6118 11.0237 13.7765 11.1649 13.8706C11.306 13.9647 11.4472 14.0118 11.6355 14.0118H18.5531C18.9531 14.0118 19.1649 13.8 19.1649 13.4C19.1649 13 19.1178 13.1647 19.0002 13.0235C18.8825 12.8823 18.7413 12.8118 18.5531 12.8118H14.8355C14.506 12.8118 14.2002 12.7176 13.9413 12.5529C13.6825 12.3882 13.5649 12.1294 13.5649 11.8C13.5649 11.4706 13.6825 10.7176 13.9413 10.5529C14.2002 10.3647 14.506 10.2941 14.859 10.2941H18.5766C18.859 10.2941 19.0943 10.4118 19.2825 10.6235C19.4707 10.8588 19.5413 11.1176 19.5413 11.4235C19.5413 11.7294 19.5884 11.6353 19.659 11.7294C19.7296 11.8235 19.8237 11.8706 19.9413 11.8706C20.059 11.8706 20.1531 11.8235 20.2237 11.7294C20.2943 11.6353 20.3413 11.5412 20.3413 11.4235C20.3413 10.8353 20.1296 10.3176 19.706 9.84705V9.91764ZM36.6237 22.0588C36.0355 22.0588 35.5178 21.9412 35.0472 21.7294C34.6002 21.4941 34.2002 21.2118 33.8708 20.8588C33.5413 20.5059 33.306 20.1059 33.1413 19.6353C32.9766 19.1647 32.8825 18.7176 32.8825 18.2471V2.24705C32.8825 2.01176 32.8119 1.79999 32.6237 1.61176C32.459 1.44705 32.2472 1.35294 32.0119 1.35294C31.7766 1.35294 31.5649 1.44705 31.4002 1.61176C31.2355 1.77646 31.1649 1.9647 31.1649 2.19999V18.2235C31.1649 18.8353 31.0472 19.3765 30.7884 19.8471C30.5531 20.3176 30.2002 20.7176 29.8002 21.0471C29.3766 21.3765 28.906 21.6118 28.3884 21.7765C27.8707 21.9412 27.306 22.0353 26.7413 22.0353H5.96487C4.90604 22.0353 4.03546 21.6823 3.32957 20.9765C2.62369 20.2706 2.22369 19.3765 2.17663 18.2941V17.4235C2.17663 17.2588 2.17663 17.1176 2.17663 16.9765C2.17663 16.8353 2.17663 16.6706 2.17663 16.4823C2.17663 16.2941 2.08251 16.0823 1.91781 15.9176C1.72957 15.7294 1.54134 15.6588 1.30604 15.6588C1.07075 15.6588 0.882515 15.7529 0.717809 15.9176C0.553103 16.1059 0.458984 16.2941 0.458984 16.4823V18.2235C0.458984 19.1647 0.64722 20.0588 1.00016 20.8588C1.3531 21.6823 1.84722 22.3882 2.45898 23.0235C3.07075 23.6353 3.80016 24.1294 4.62369 24.4823C5.44722 24.8353 6.31781 25.0235 7.25899 25.0235H26.059C27.3296 25.0235 28.506 24.6941 29.5413 24.0588C30.5766 23.4 31.3766 22.5294 31.9413 21.4706C32.4825 22.6235 33.2119 23.4941 34.1296 24.1059C34.906 24.6235 35.8002 24.9294 36.8355 25C36.906 25 36.9531 25 37.0237 25C37.1649 25 37.306 25 37.4707 25H38.9766V21.9882H36.5766L36.6237 22.0588Z" fill="white"/>
<path d="M19.848 9.8C19.3775 9.30588 18.8127 9.04705 18.1539 9.04705H14.9539C14.3186 9.04705 13.7539 9.28235 13.2833 9.72941C12.8128 10.1765 12.5775 11.2353 12.5775 11.8706C12.5775 12.5059 12.6245 12.4588 12.7186 12.6941H11.6128C11.401 12.6941 11.1892 12.7647 11.0245 12.8823C10.8363 13.0235 10.7422 13.2118 10.7422 13.4471C10.7422 13.6823 10.8833 13.9647 11.0245 14.0588C11.1892 14.1765 11.3775 14.2471 11.6128 14.2471H18.5304C19.0245 14.2471 19.3069 13.9647 19.3069 13.4471C19.3069 12.8823 18.7422 12.6941 18.5304 12.6941H14.8128C14.5069 12.6941 14.248 12.6235 14.0128 12.4588C13.801 12.3176 13.7069 12.1294 13.7069 11.8471C13.7069 11.5647 13.801 10.8823 14.0128 10.7412C14.248 10.5765 14.5069 10.5059 14.8363 10.5059H18.5539C18.7892 10.5059 18.9775 10.6 19.1186 10.7647C19.2833 10.9529 19.3539 11.1882 19.3539 11.4706C19.3539 11.7529 19.401 11.7765 19.5186 11.8941C19.7539 12.1529 20.1539 12.1529 20.3657 11.8941C20.4833 11.7765 20.5304 11.6353 20.5304 11.4706C20.5304 10.8353 20.2951 10.2706 19.848 9.77647V9.8ZM20.0833 11.6588C19.9892 11.7529 19.8716 11.7529 19.7775 11.6588C19.7304 11.6118 19.7069 11.5412 19.7069 11.4706C19.7069 11.1176 19.6128 10.8118 19.401 10.5529C19.1892 10.2941 18.9069 10.1529 18.5539 10.1529H14.8363C14.4363 10.1529 14.1069 10.2471 13.801 10.4588C13.4951 10.6706 13.3304 11.4941 13.3304 11.8706C13.3304 12.2471 13.4951 12.5765 13.801 12.7882C14.0833 12.9765 14.4363 13.0706 14.7892 13.0706H18.5069C18.6245 13.0706 18.7186 13.1176 18.8128 13.2118C18.9069 13.3059 18.9304 13.4 18.9304 13.4706C18.9304 13.7765 18.8127 13.8941 18.5069 13.8941H11.5892C11.448 13.8941 11.3304 13.8471 11.2363 13.7765C11.1892 13.7294 11.1186 13.6588 11.1186 13.4706C11.1186 13.2823 11.1657 13.2588 11.2363 13.1882C11.3304 13.1176 11.4716 13.0706 11.5892 13.0706H13.3539L13.1657 12.7882C13.001 12.5529 12.9304 12.2706 12.9304 11.8941C12.9304 11.3765 13.1186 10.4118 13.5186 10.0118C13.9186 9.61176 14.3892 9.42353 14.9304 9.42353H18.1304C18.6951 9.42353 19.1422 9.63529 19.5422 10.0588C19.9422 10.4823 20.1304 10.9529 20.1304 11.4941C20.1304 12.0353 20.1069 11.6118 20.0598 11.6823L20.0833 11.6588ZM36.6245 21.8706C36.0598 21.8706 35.5657 21.7529 35.1422 21.5647C34.6951 21.3529 34.3186 21.0706 34.0128 20.7412C33.7069 20.4118 33.4716 20.0353 33.3069 19.5882C33.1422 19.1412 33.0716 18.6941 33.0716 18.2471V2.24706C33.0716 1.94117 32.9775 1.70588 32.7657 1.49411C32.5539 1.28235 32.3186 1.18823 32.0128 1.18823C31.7069 1.18823 31.4716 1.28235 31.2598 1.49411C31.0716 1.70588 30.9775 1.94117 30.9775 2.2V18.2235C30.9775 18.7882 30.8598 19.3059 30.6245 19.7529C30.3892 20.2 30.0833 20.5765 29.6833 20.8823C29.2833 21.1882 28.8363 21.4235 28.3186 21.5882C27.8245 21.7529 27.2833 21.8235 26.7422 21.8235H5.96569C4.95393 21.8235 4.1304 21.4941 3.44805 20.8118C2.76569 20.1294 2.41275 19.2823 2.34216 18.2706V17.4C2.34216 17.2353 2.34216 17.0941 2.34216 16.9529C2.34216 16.8118 2.34216 16.6471 2.34216 16.4588C2.34216 16.2706 2.22452 15.9647 2.01275 15.7529C1.58922 15.3294 0.953928 15.3294 0.553928 15.7529C0.365693 15.9647 0.248047 16.2 0.248047 16.4588V18.2C0.248047 19.1647 0.436281 20.0824 0.812751 20.9059C1.18922 21.7529 1.68334 22.4823 2.31863 23.1176C2.95393 23.7529 3.68334 24.2471 4.5304 24.6235C5.37746 25 6.29511 25.1882 7.25981 25.1882H26.0598C27.3775 25.1882 28.5775 24.8588 29.6363 24.1765C30.601 23.5647 31.3775 22.7882 31.9422 21.8235C32.4833 22.8353 33.1892 23.6588 34.0363 24.2235C34.8363 24.7647 35.7775 25.0706 36.8598 25.1647C37.0716 25.1647 37.2598 25.1882 37.4716 25.1882H39.1657V21.8235H36.601L36.6245 21.8706ZM38.8128 24.8823H37.4716C37.3775 24.8823 37.3069 24.8823 37.2127 24.8823C37.1422 24.8823 37.0951 24.8823 37.0245 24.8823C36.9539 24.8823 36.9069 24.8823 36.8363 24.8823C35.848 24.7882 34.9539 24.5059 34.2245 24.0118C33.3304 23.4235 32.6245 22.5529 32.1069 21.4471L31.9422 21.1176L31.7775 21.4471C31.2363 22.4823 30.4363 23.3294 29.4245 23.9647C28.4128 24.6 27.2833 24.9059 26.0363 24.9059H7.23628C6.31863 24.9059 5.44805 24.7176 4.67158 24.3882C3.87158 24.0353 3.16569 23.5647 2.57746 22.9529C1.98922 22.3647 1.4951 21.6588 1.14216 20.8588C0.789222 20.0588 0.624517 19.2118 0.624517 18.2941V16.5529C0.624517 16.3882 0.695106 16.2471 0.836282 16.1059C1.11864 15.8235 1.49511 15.8235 1.77746 16.1059C1.91864 16.2471 1.98922 16.3882 1.98922 16.5529C1.98922 16.7176 1.98922 16.8824 1.98922 17.0235C1.98922 17.1647 1.98922 17.3294 1.98922 17.4941V18.3882C2.05981 19.5176 2.45981 20.4588 3.21275 21.1882C3.94216 21.9176 4.88334 22.2941 5.98922 22.2941H26.7657C27.3539 22.2941 27.9186 22.2 28.4598 22.0353C29.001 21.8471 29.4951 21.6118 29.9422 21.2588C30.3657 20.9294 30.7186 20.5059 30.9775 20.0118C31.2363 19.5176 31.3775 18.9529 31.3775 18.3176V2.29411C31.3775 2.10588 31.448 1.9647 31.5657 1.82353C31.6833 1.70588 31.848 1.63529 32.0363 1.63529C32.2245 1.63529 32.3892 1.70588 32.5304 1.82353C32.6716 1.9647 32.7186 2.10588 32.7186 2.31764V18.3176C32.7186 18.8118 32.8128 19.3059 32.9775 19.7765C33.1657 20.2471 33.4245 20.6941 33.7539 21.0471C34.0833 21.4 34.5069 21.7059 34.9775 21.9412C35.4716 22.1765 36.0128 22.2941 36.6245 22.2941H38.8363V24.9294L38.8128 24.8823Z" fill="white"/>
<path d="M37.0469 22.0588V25.0706H44.5292V22.0588H37.0469Z" fill="white"/>
<path d="M36.8828 21.8706V25.2353H44.7181V21.8706H36.8828ZM44.3416 24.8824H37.2358V22.2471H44.3416V24.8824Z" fill="white"/>
<path d="M42.2715 22.0588V25.0706H49.7538V22.0588H42.2715Z" fill="white"/>
<path d="M42.082 21.8706V25.2353H49.9173V21.8706H42.082ZM49.5644 24.8824H42.4585V22.2471H49.5644V24.8824Z" fill="white"/>
<path d="M47.4941 22.0588V25.0706H54.9765V22.0588H47.4941Z" fill="white"/>
<path d="M47.3066 21.8706V25.2353H55.1419V21.8706H47.3066ZM54.789 24.8824H47.6831V22.2471H54.789V24.8824Z" fill="white"/>
<path d="M61.8467 29.9176C61.5408 29.6118 61.1173 29.4235 60.5996 29.3765H60.2231C59.7526 29.4235 59.3526 29.6118 59.0467 29.9176C58.7408 30.2235 58.5761 30.6 58.5761 31.0706C58.5761 31.5412 58.7408 31.8941 59.0467 32.2C59.3526 32.5059 59.7526 32.6706 60.2231 32.7176H60.5996C61.1173 32.6706 61.5408 32.5059 61.8467 32.2C62.1526 31.8941 62.3173 31.5176 62.3173 31.0706C62.3173 30.6235 62.1526 30.2471 61.8467 29.9176ZM62.5526 11.3294C62.3643 11.1412 62.1761 11.0471 61.9408 11.0471C61.7055 11.0471 61.4937 11.1412 61.329 11.3294C61.1643 11.5176 61.0937 11.7059 61.0937 11.8941V18.2471C61.0937 18.7882 60.9996 19.2824 60.7878 19.7529C60.5761 20.2235 60.3173 20.6235 59.9643 20.9765C59.6114 21.3059 59.2114 21.5882 58.7643 21.7765C58.2937 21.9647 57.7996 22.0588 57.2584 22.0588H52.5996V25.0706H56.0114C56.9526 25.0706 57.8467 24.8824 58.6467 24.5294C59.4702 24.1765 60.1761 23.6824 60.8114 23.0706C61.4231 22.4588 61.9173 21.7294 62.2702 20.9059C62.6231 20.0824 62.8114 19.2118 62.8114 18.2706V11.9412C62.8114 11.7059 62.7173 11.5176 62.5526 11.3294Z" fill="white"/>
<path d="M62.6708 11.1882C62.4591 10.9765 62.1767 10.8588 61.9179 10.8588C61.6591 10.8588 61.3767 10.9765 61.1885 11.1882C61.0002 11.4 60.9061 11.6353 60.9061 11.8941V18.2471C60.9061 18.7647 60.812 19.2353 60.6238 19.6824C60.4355 20.1294 60.1767 20.5059 59.8473 20.8353C59.5179 21.1647 59.1414 21.4 58.6944 21.5882C58.2473 21.7765 57.7767 21.8706 57.2591 21.8706H52.4355V25.2353H56.012C56.9767 25.2353 57.8944 25.0471 58.7179 24.6706C59.565 24.2941 60.2944 23.8 60.9297 23.1647C61.565 22.5294 62.0591 21.8 62.4355 20.9529C62.812 20.1059 63.0003 19.1882 63.0003 18.2471V11.9176C63.0003 11.6353 62.8826 11.4 62.6708 11.1882ZM62.6238 18.2471C62.6238 19.1647 62.4355 20.0353 62.1061 20.8118C61.7532 21.6118 61.2826 22.3177 60.6708 22.9059C60.0826 23.4941 59.3767 23.9882 58.5767 24.3412C57.7767 24.6941 56.9297 24.8588 56.012 24.8588H52.7885V22.2235H57.2591C57.8238 22.2235 58.3414 22.1294 58.8355 21.9176C59.3061 21.7294 59.7297 21.4471 60.1061 21.0941C60.4591 20.7412 60.765 20.3177 60.9767 19.8235C61.1885 19.3294 61.2826 18.8118 61.2826 18.2235V11.8706C61.2826 11.7059 61.3532 11.5647 61.4708 11.4235C61.5885 11.2824 61.7532 11.2118 61.9414 11.2118C62.1297 11.2118 62.2708 11.2824 62.412 11.4235C62.5532 11.5647 62.6238 11.7294 62.6238 11.8941V18.2235V18.2471ZM61.965 29.7765C61.612 29.4471 61.165 29.2353 60.6002 29.1882H60.2003C59.6826 29.2353 59.2591 29.4471 58.9061 29.7765C58.5532 30.1294 58.3885 30.5529 58.3885 31.0471C58.3885 31.5412 58.5767 31.9647 58.9061 32.3177C59.2591 32.6471 59.6826 32.8353 60.2003 32.8824H60.6002C61.165 32.8353 61.612 32.6471 61.965 32.3177C62.3179 31.9882 62.4826 31.5647 62.4826 31.0471C62.4826 30.5294 62.2944 30.1294 61.965 29.7765ZM60.6002 32.5294H60.2473C59.8238 32.4824 59.4708 32.3412 59.1885 32.0588C58.9061 31.8 58.765 31.4706 58.765 31.0706C58.765 30.6706 58.9061 30.3412 59.1885 30.0588C59.4708 29.7765 59.8238 29.6118 60.2238 29.5647H60.5767C61.0473 29.6118 61.4238 29.7529 61.7061 30.0588C61.9885 30.3412 62.1297 30.6706 62.1297 31.0706C62.1297 31.4706 61.9885 31.8 61.7061 32.0588C61.4238 32.3412 61.0473 32.4824 60.5767 32.5294H60.6002Z" fill="white"/>
<path d="M83.1885 22.0588V18.2941C83.1885 17.3529 83.0003 16.4588 82.6473 15.6588C82.2944 14.8353 81.8003 14.1294 81.1885 13.4941C80.5767 12.8823 79.8473 12.3882 79.0238 12.0353C78.2003 11.6823 77.3297 11.4941 76.3885 11.4941H73.7297C72.7885 11.4941 71.8944 11.6823 71.0944 12.0353C70.2709 12.3882 69.565 12.8823 68.9297 13.4941C68.3179 14.1059 67.8238 14.8353 67.4709 15.6588C67.1179 16.4823 66.9297 17.3529 66.9297 18.2706C66.9297 19.1882 67.1179 20.1059 67.4709 20.9059C67.8238 21.7294 68.3179 22.4353 68.9297 23.0706C69.5415 23.6823 70.2709 24.1765 71.0944 24.5294C71.9179 24.8823 72.7885 25.0706 73.7297 25.0706H81.5179V27.4941C81.5179 28.2706 81.2356 28.9059 80.6473 29.3529C80.0591 29.8 79.4003 30.0353 78.6238 30.0353H68.7179C68.1767 30.0353 67.7532 30.1529 67.4238 30.4118C67.0944 30.6471 66.9297 31.0235 66.9297 31.5176C66.9297 32.0118 67.0944 32.3882 67.4238 32.6235C67.7532 32.8823 68.1767 33 68.6473 33H76.4826C78.6473 33 80.3179 32.5059 81.4709 31.4941C82.6238 30.5059 83.1885 28.7882 83.1885 26.3882V25.0706H88.812V22.0588H83.1885ZM72.8591 14.4588H76.7885C77.4003 14.4588 77.9885 14.5529 78.5532 14.7176C79.1179 14.8823 79.612 15.1412 80.0591 15.447C80.5062 15.7765 80.8591 16.1765 81.1179 16.6706C81.3767 17.1412 81.5179 17.7059 81.5179 18.2941V22.0588H73.3062C72.7179 22.0588 72.1532 21.9882 71.5885 21.8235C71.0238 21.6588 70.5297 21.4235 70.0826 21.0941C69.6356 20.7647 69.2826 20.3647 69.0238 19.8941C68.765 19.4235 68.6238 18.8823 68.6238 18.2471C68.6238 17.6118 68.7414 17.1882 68.9767 16.7176C69.212 16.2471 69.5179 15.8706 69.9179 15.5176C70.3179 15.1882 70.765 14.9294 71.2591 14.7176C71.7767 14.5294 72.2944 14.4353 72.8591 14.4353V14.4588Z" fill="white"/>
<path d="M81.2599 16.5765C80.9776 16.0588 80.6011 15.6353 80.154 15.3059C79.707 14.9765 79.1658 14.7176 78.6011 14.5294C78.0129 14.3647 77.4246 14.2706 76.7893 14.2706H72.8599C72.2717 14.2706 71.7305 14.3647 71.1893 14.5765C70.6717 14.7647 70.2011 15.0471 69.7776 15.4C69.3776 15.7529 69.0246 16.1765 68.7893 16.6471C68.554 17.1412 68.4129 17.6823 68.4129 18.2706C68.4129 18.8588 68.554 19.5176 68.8364 20.0118C69.1188 20.5059 69.4952 20.9294 69.9423 21.2588C70.3893 21.5882 70.907 21.8471 71.4952 22.0118C72.0599 22.1765 72.6482 22.2471 73.2599 22.2471H81.6599V18.2941C81.6599 17.6588 81.5188 17.0706 81.2364 16.5765H81.2599ZM81.3305 21.8706H73.307C72.7423 21.8706 72.1776 21.8 71.6364 21.6353C71.0952 21.4941 70.6246 21.2588 70.2011 20.9294C69.7776 20.6235 69.4482 20.2471 69.1893 19.8C68.9305 19.3529 68.8129 18.8353 68.8129 18.2471C68.8129 17.6588 68.9305 17.2353 69.1423 16.7882C69.3776 16.3412 69.6599 15.9647 70.0364 15.6588C70.4129 15.3294 70.8364 15.0706 71.3305 14.9059C71.8011 14.7176 72.3188 14.6235 72.8599 14.6235H76.7893C77.3776 14.6235 77.9423 14.7176 78.4835 14.8588C79.0246 15.0235 79.4952 15.2588 79.9188 15.5647C80.3423 15.8706 80.6717 16.2706 80.9305 16.7176C81.1893 17.1647 81.307 17.6823 81.307 18.2706V21.8471L81.3305 21.8706ZM81.2599 16.5765C80.9776 16.0588 80.6011 15.6353 80.154 15.3059C79.707 14.9765 79.1658 14.7176 78.6011 14.5294C78.0129 14.3647 77.4246 14.2706 76.7893 14.2706H72.8599C72.2717 14.2706 71.7305 14.3647 71.1893 14.5765C70.6717 14.7647 70.2011 15.0471 69.7776 15.4C69.3776 15.7529 69.0246 16.1765 68.7893 16.6471C68.554 17.1412 68.4129 17.6823 68.4129 18.2706C68.4129 18.8588 68.554 19.5176 68.8364 20.0118C69.1188 20.5059 69.4952 20.9294 69.9423 21.2588C70.3893 21.5882 70.907 21.8471 71.4952 22.0118C72.0599 22.1765 72.6482 22.2471 73.2599 22.2471H81.6599V18.2941C81.6599 17.6588 81.5188 17.0706 81.2364 16.5765H81.2599ZM81.3305 21.8706H73.307C72.7423 21.8706 72.1776 21.8 71.6364 21.6353C71.0952 21.4941 70.6246 21.2588 70.2011 20.9294C69.7776 20.6235 69.4482 20.2471 69.1893 19.8C68.9305 19.3529 68.8129 18.8353 68.8129 18.2471C68.8129 17.6588 68.9305 17.2353 69.1423 16.7882C69.3776 16.3412 69.6599 15.9647 70.0364 15.6588C70.4129 15.3294 70.8364 15.0706 71.3305 14.9059C71.8011 14.7176 72.3188 14.6235 72.8599 14.6235H76.7893C77.3776 14.6235 77.9423 14.7176 78.4835 14.8588C79.0246 15.0235 79.4952 15.2588 79.9188 15.5647C80.3423 15.8706 80.6717 16.2706 80.9305 16.7176C81.1893 17.1647 81.307 17.6823 81.307 18.2706V21.8471L81.3305 21.8706ZM83.3776 21.8706V18.2941C83.3776 17.3294 83.1893 16.4118 82.8129 15.5882C82.4364 14.7412 81.9423 14.0118 81.307 13.3765C80.6717 12.7412 79.9188 12.2471 79.0952 11.8706C78.2482 11.4941 77.3305 11.3059 76.3893 11.3059H73.7305C72.7658 11.3059 71.8482 11.4941 71.0011 11.8706C70.1776 12.2471 69.4246 12.7412 68.7893 13.3765C68.154 14.0118 67.6599 14.7412 67.2835 15.5882C66.907 16.4353 66.7423 17.3294 66.7423 18.2706C66.7423 19.2118 66.9305 20.1529 67.2835 20.9765C67.6364 21.8 68.154 22.5529 68.7893 23.1882C69.4246 23.8235 70.154 24.3176 71.0011 24.6941C71.8482 25.0706 72.7423 25.2588 73.707 25.2588H81.307V27.4941C81.307 28.2235 81.0482 28.7882 80.507 29.2118C79.9658 29.6353 79.307 29.8471 78.6011 29.8471H68.6952C68.107 29.8471 67.6364 29.9882 67.2835 30.2471C66.907 30.5294 66.7188 30.9529 66.7188 31.5176C66.7188 32.0823 66.907 32.4823 67.307 32.7647C67.6835 33.0235 68.107 33.1647 68.6246 33.1647H76.4599C78.6717 33.1647 80.3893 32.6471 81.5658 31.6118C82.7423 30.5765 83.354 28.8118 83.354 26.3647V25.2353H88.9776V21.8706H83.354H83.3776ZM88.6482 24.8823H83.0246V26.3882C83.0246 28.7176 82.4599 30.3882 81.3776 31.3529C80.2717 32.3176 78.6482 32.8118 76.507 32.8118H68.6717C68.2246 32.8118 67.8717 32.6941 67.5658 32.4823C67.2835 32.2706 67.1423 31.9647 67.1423 31.5176C67.1423 31.0706 67.2835 30.7647 67.5658 30.5529C67.8482 30.3412 68.2482 30.2235 68.7423 30.2235H78.6482C79.4482 30.2235 80.1776 29.9882 80.7893 29.5176C81.4246 29.0235 81.7305 28.3647 81.7305 27.5176V24.9059H73.7776C72.8599 24.9059 71.9893 24.7176 71.2129 24.3882C70.4129 24.0353 69.707 23.5647 69.1188 22.9529C68.5305 22.3647 68.0364 21.6588 67.6835 20.8588C67.3305 20.0588 67.1658 19.2118 67.1658 18.2941C67.1658 17.3765 67.354 16.5529 67.6835 15.7529C68.0364 14.9529 68.507 14.2471 69.1188 13.6588C69.707 13.0706 70.4129 12.5765 71.2129 12.2235C72.0129 11.8706 72.8599 11.7059 73.7776 11.7059H76.4364C77.354 11.7059 78.2011 11.8941 79.0011 12.2235C79.8011 12.5765 80.507 13.0471 81.0952 13.6588C81.6835 14.2471 82.1776 14.9529 82.5305 15.7529C82.8835 16.5529 83.0482 17.4235 83.0482 18.3176V22.2706H88.6717V24.9059L88.6482 24.8823ZM80.154 15.3059C79.707 14.9765 79.1658 14.7176 78.6011 14.5294C78.0129 14.3647 77.4246 14.2706 76.7893 14.2706H72.8599C72.2717 14.2706 71.7305 14.3647 71.1893 14.5765C70.6717 14.7647 70.2011 15.0471 69.7776 15.4C69.3776 15.7529 69.0246 16.1765 68.7893 16.6471C68.554 17.1412 68.4129 17.6823 68.4129 18.2706C68.4129 18.8588 68.554 19.5176 68.8364 20.0118C69.1188 20.5059 69.4952 20.9294 69.9423 21.2588C70.3893 21.5882 70.907 21.8471 71.4952 22.0118C72.0599 22.1765 72.6482 22.2471 73.2599 22.2471H81.6599V18.2941C81.6599 17.6588 81.5188 17.0706 81.2364 16.5765C80.954 16.0588 80.5776 15.6353 80.1305 15.3059H80.154ZM81.3305 21.8706H73.307C72.7423 21.8706 72.1776 21.8 71.6364 21.6353C71.0952 21.4941 70.6246 21.2588 70.2011 20.9294C69.7776 20.6235 69.4482 20.2471 69.1893 19.8C68.9305 19.3529 68.8129 18.8353 68.8129 18.2471C68.8129 17.6588 68.9305 17.2353 69.1423 16.7882C69.3776 16.3412 69.6599 15.9647 70.0364 15.6588C70.4129 15.3294 70.8364 15.0706 71.3305 14.9059C71.8011 14.7176 72.3188 14.6235 72.8599 14.6235H76.7893C77.3776 14.6235 77.9423 14.7176 78.4835 14.8588C79.0246 15.0235 79.4952 15.2588 79.9188 15.5647C80.3423 15.8706 80.6717 16.2706 80.9305 16.7176C81.1893 17.1647 81.307 17.6823 81.307 18.2706V21.8471L81.3305 21.8706Z" fill="white"/>
<path d="M107.635 15.6588C107.282 14.8353 106.788 14.1294 106.176 13.4941C105.564 12.8824 104.835 12.3882 104.011 12.0353C103.188 11.6824 102.317 11.4941 101.376 11.4941H92.6466L101.917 2.17647C102.035 2.0353 102.082 1.89412 102.082 1.72941C102.082 1.44706 101.988 1.21177 101.823 1.07059C101.658 0.929414 101.447 0.858826 101.235 0.858826C101.023 0.858826 100.764 0.952942 100.553 1.16471L89.9172 11.8706C89.5643 12.1765 89.3761 12.5529 89.3761 12.9765C89.3761 13.4 89.5172 13.7294 89.8231 14.0118C90.129 14.2941 90.4584 14.4588 90.8584 14.4588H102.647C103.188 14.4588 103.682 14.5529 104.153 14.7647C104.623 14.9765 105.023 15.2353 105.353 15.5882C105.682 15.9412 105.964 16.3412 106.153 16.8118C106.364 17.2824 106.458 17.7529 106.458 18.2706C106.458 18.7882 106.364 19.3059 106.153 19.7765C105.941 20.2471 105.682 20.6471 105.353 21C105.023 21.3529 104.623 21.6118 104.153 21.8C103.682 21.9882 103.188 22.0824 102.647 22.0824H86.1055V25.0941H101.353C102.294 25.0941 103.188 24.9059 103.988 24.5529C104.811 24.2 105.517 23.7059 106.153 23.0941C106.764 22.4824 107.258 21.7529 107.611 20.9294C107.964 20.1059 108.153 19.2353 108.153 18.2941C108.153 17.3529 107.964 16.5059 107.611 15.6824L107.635 15.6588Z" fill="white"/>
<path d="M107.824 15.5647C107.471 14.7177 106.953 13.9882 106.318 13.3529C105.683 12.7177 104.953 12.2235 104.106 11.8471C103.259 11.4706 102.341 11.2824 101.377 11.2824H93.0944L102.059 2.24707C102.2 2.08236 102.271 1.89412 102.271 1.68236C102.271 1.32942 102.153 1.0706 101.941 0.88236C101.518 0.505889 100.883 0.529419 100.436 0.976478L89.8003 11.6824C89.4003 12.0353 89.1886 12.4588 89.1886 12.9294C89.1886 13.4 89.3533 13.7765 89.7062 14.1059C90.0356 14.4353 90.4356 14.6 90.8591 14.6H102.647C103.165 14.6 103.636 14.6941 104.083 14.8824C104.53 15.0706 104.906 15.3294 105.212 15.6588C105.542 15.9882 105.8 16.3647 105.989 16.8118C106.177 17.2353 106.271 17.7059 106.271 18.2C106.271 18.6941 106.177 19.1882 105.989 19.6353C105.8 20.0824 105.542 20.4588 105.212 20.7882C104.906 21.1177 104.506 21.3765 104.083 21.5647C103.659 21.7529 103.165 21.8471 102.647 21.8471H85.918V25.2118H101.353C102.318 25.2118 103.236 25.0235 104.083 24.6471C104.93 24.2706 105.659 23.7765 106.294 23.1412C106.93 22.5059 107.424 21.7765 107.8 20.9294C108.177 20.0824 108.365 19.1647 108.365 18.2235C108.365 17.2824 108.177 16.3882 107.8 15.5412L107.824 15.5647ZM101.377 24.8824H86.2944V22.2471H102.647C103.212 22.2471 103.73 22.1529 104.224 21.9412C104.718 21.7529 105.142 21.4471 105.471 21.0941C105.824 20.7412 106.106 20.3177 106.318 19.8235C106.53 19.3529 106.624 18.8118 106.624 18.2471C106.624 17.6824 106.506 17.1882 106.318 16.7177C106.106 16.2471 105.824 15.8235 105.471 15.4471C105.118 15.0941 104.694 14.7882 104.224 14.5765C103.73 14.3647 103.212 14.2471 102.647 14.2471H90.8591C90.5297 14.2471 90.2239 14.1294 89.965 13.8706C89.7062 13.6118 89.565 13.3059 89.565 12.9529C89.565 12.6 89.7297 12.2706 90.0591 11.9647L100.694 1.25883C101 0.929418 101.424 0.929419 101.706 1.18824C101.824 1.30589 101.894 1.4706 101.894 1.70589C101.894 1.94118 101.847 1.91765 101.777 2.01177L92.2003 11.6588H101.353C102.271 11.6588 103.142 11.8471 103.918 12.1765C104.718 12.5294 105.424 13 106.012 13.6118C106.6 14.2 107.094 14.9059 107.447 15.7059C107.8 16.5059 107.965 17.3529 107.965 18.2471C107.965 19.1412 107.777 20.0118 107.447 20.8118C107.094 21.6118 106.624 22.3177 106.012 22.9059C105.424 23.4941 104.718 23.9882 103.918 24.3412C103.118 24.6941 102.271 24.8588 101.353 24.8588L101.377 24.8824Z" fill="white"/>
<path d="M19.5648 48.4588C18.9766 47.5412 18.106 46.8118 16.9766 46.2706C17.6825 45.6353 18.2001 44.9294 18.4825 44.1529C18.7648 43.3765 18.9295 42.5059 18.9295 41.5647V38.0353C18.9295 37.5647 18.8354 37.1882 18.6236 36.9059C18.4119 36.6235 18.0825 36.4823 17.5883 36.4823C17.0942 36.4823 16.7413 36.6235 16.5295 36.9059C16.3178 37.1882 16.2001 37.5647 16.2001 38.0353V41.5647C16.2001 42.7176 15.8942 43.6353 15.2825 44.3412C14.6707 45.0471 13.706 45.4 12.3648 45.4H4.24717V38.0588C4.24717 37.5647 4.12953 37.1882 3.91776 36.9059C3.706 36.6235 3.35306 36.4823 2.85894 36.4823C2.36482 36.4823 2.05894 36.6235 1.82364 36.9059C1.58835 37.1882 1.4707 37.5882 1.4707 38.0588V55.3765C1.4707 55.8471 1.56482 56.2471 1.77659 56.5765C1.98835 56.9059 2.34129 57.0706 2.85894 57.0706C3.37659 57.0706 3.706 56.9059 3.91776 56.5765C4.12953 56.2471 4.24717 55.8471 4.24717 55.3765V48.1765H14.1531C14.7178 48.1765 15.2119 48.2235 15.6589 48.3412C16.106 48.4588 16.4589 48.6706 16.7648 49C17.0707 49.3294 17.306 49.7765 17.4472 50.3882C17.6119 50.9765 17.6825 51.7529 17.6825 52.6941V55.6588C17.6825 56.1059 17.7766 56.4588 17.9883 56.7176C18.2001 56.9765 18.5295 57.0941 19.0236 57.0941C19.5178 57.0941 19.8707 56.9529 20.106 56.6471C20.3413 56.3647 20.4354 55.9882 20.4354 55.5412V52.0118C20.4354 50.5765 20.1531 49.4 19.5648 48.4823V48.4588Z" fill="white"/>
<path d="M19.7302 48.3647C19.1655 47.4941 18.3655 46.7647 17.3066 46.2235C17.9419 45.6118 18.4125 44.9529 18.6713 44.2C18.9772 43.4 19.1184 42.5059 19.1184 41.5412V38.0118C19.1184 37.4941 19.0008 37.0941 18.789 36.7882C18.5537 36.4588 18.1537 36.2941 17.589 36.2941C17.0243 36.2941 16.6243 36.4588 16.389 36.7882C16.1537 37.0941 16.036 37.5176 16.036 38.0353V41.5647C16.036 42.6706 15.7537 43.5647 15.1655 44.2235C14.6008 44.8824 13.6596 45.2118 12.3655 45.2118H4.43605V38.0588C4.43605 37.5176 4.3184 37.0941 4.08311 36.7882C3.84782 36.4588 3.42429 36.2941 2.88311 36.2941C2.34193 36.2941 1.98899 36.4588 1.70664 36.7882C1.44782 37.0941 1.30664 37.5412 1.30664 38.0588V55.3765C1.30664 55.8941 1.42429 56.3176 1.63605 56.6706C1.87135 57.0471 2.29488 57.2353 2.85958 57.2353C3.42429 57.2353 3.82429 57.0471 4.08311 56.6706C4.3184 56.3176 4.43605 55.8706 4.43605 55.3765V48.3412H14.1537C14.6949 48.3412 15.189 48.3882 15.6125 48.5059C16.0125 48.6 16.3655 48.8118 16.6243 49.1176C16.9066 49.4235 17.1184 49.8471 17.2831 50.4118C17.4478 51 17.5184 51.7529 17.5184 52.6706V55.6353C17.5184 56.1294 17.636 56.5294 17.8713 56.8118C18.1066 57.1176 18.5066 57.2824 19.0713 57.2824C19.6361 57.2824 20.0361 57.1176 20.2949 56.7647C20.5537 56.4353 20.6713 56.0353 20.6713 55.5412V52.0118C20.6713 50.5529 20.3655 49.3294 19.7772 48.3647H19.7302ZM20.2713 55.5412C20.2713 55.9412 20.1772 56.2706 19.9655 56.5294C19.7772 56.7647 19.4713 56.8823 19.0243 56.8823C18.5772 56.8823 18.2949 56.7647 18.1302 56.5765C17.9419 56.3412 17.8713 56.0353 17.8713 55.6353V52.6706C17.8713 51.7294 17.8008 50.9294 17.636 50.3176C17.4713 49.7059 17.2125 49.2118 16.9066 48.8588C16.5772 48.5059 16.1772 48.2706 15.7066 48.1529C15.2596 48.0353 14.7419 47.9647 14.1537 47.9647H4.05958V55.3529C4.05958 55.7765 3.96546 56.1529 3.77723 56.4588C3.58899 56.7412 3.30664 56.8588 2.85958 56.8588C2.41252 56.8588 2.10664 56.7176 1.94193 56.4588C1.7537 56.1765 1.65958 55.8 1.65958 55.3529V38.0353C1.65958 37.5882 1.7537 37.2353 1.96546 37C2.17723 36.7647 2.45958 36.6471 2.85958 36.6471C3.25958 36.6471 3.58899 36.7647 3.77723 37C3.96546 37.2353 4.05958 37.5882 4.05958 38.0588V45.5882H12.3655C13.7537 45.5882 14.789 45.2118 15.4243 44.4588C16.0596 43.7294 16.3655 42.7412 16.3655 41.5647V38.0353C16.3655 37.6118 16.4596 37.2588 16.6478 37.0235C16.8125 36.7882 17.1184 36.6706 17.5655 36.6706C18.0125 36.6706 18.2949 36.7882 18.4596 37.0235C18.6478 37.2588 18.7184 37.6118 18.7184 38.0353V41.5647C18.7184 42.4823 18.5772 43.3294 18.2949 44.1059C18.0125 44.8588 17.5184 45.5412 16.8361 46.1529L16.6243 46.3412L16.8831 46.4588C17.989 46.9765 18.8361 47.6824 19.4008 48.5765C19.9655 49.4706 20.2478 50.6235 20.2478 52.0118V55.5412H20.2713Z" fill="white"/>
<path d="M41.9644 42.4823C41.6821 41.8 41.2821 41.2118 40.7644 40.6941C40.2703 40.1765 39.6585 39.7765 38.9762 39.4706C38.2938 39.1647 37.5644 39.0235 36.8115 39.0235H30.1762C29.4232 39.0235 28.6938 39.1647 28.0115 39.4706C27.3291 39.7765 26.7173 40.1765 26.2232 40.6941C25.7291 41.1882 25.3291 41.8 25.0232 42.4823C24.7409 43.1647 24.5762 43.8941 24.5762 44.6471V51.2588C24.5762 52.0118 24.7174 52.7412 25.0232 53.4235C25.3056 54.1059 25.7056 54.6941 26.2232 55.2118C26.7173 55.7059 27.3291 56.1059 28.0115 56.4118C28.6938 56.6941 29.4232 56.8588 30.1762 56.8588H36.8115C37.5644 56.8588 38.2938 56.7176 38.9762 56.4118C39.6585 56.1294 40.2468 55.7294 40.7644 55.2118C41.2821 54.7176 41.6585 54.1059 41.9644 53.4235C42.2468 52.7412 42.4115 52.0118 42.4115 51.2588V44.6471C42.4115 43.8941 42.2703 43.1647 41.9644 42.4823ZM27.0938 50.9294V44.6706C27.0938 43.7294 27.4232 42.9765 28.1056 42.3882C28.7879 41.8235 29.5879 41.5412 30.5291 41.5412H36.835C37.7997 41.5412 38.5526 41.8941 39.1173 42.5765C39.6821 43.2588 39.9644 44.0824 39.9644 45.0235V51.2824C39.9644 52.2235 39.635 52.9765 38.9526 53.5412C38.2703 54.1059 37.4703 54.3882 36.5291 54.3882H30.1997C29.2585 54.3882 28.5056 54.0588 27.9409 53.4C27.3762 52.7412 27.0938 51.9176 27.0938 50.9529V50.9294Z" fill="white"/>
<path d="M39.259 42.4353C38.6708 41.7059 37.8472 41.3294 36.8355 41.3294H30.5296C29.5413 41.3294 28.6943 41.6353 27.9884 42.2235C27.2825 42.8353 26.906 43.6353 26.906 44.6471V50.9059C26.906 51.9177 27.2119 52.7647 27.8002 53.4706C28.3884 54.1765 29.2119 54.5294 30.2002 54.5294H36.5296C37.5178 54.5294 38.3649 54.2235 39.0707 53.6353C39.7766 53.0471 40.1531 52.2235 40.1531 51.2353V44.9765C40.1531 43.9882 39.8472 43.1412 39.259 42.4118V42.4353ZM39.7766 51.2588C39.7766 52.1529 39.4707 52.8588 38.8355 53.3765C38.2002 53.8941 37.4237 54.1765 36.5296 54.1765H30.2002C29.306 54.1765 28.6237 53.8706 28.0825 53.2588C27.5413 52.6235 27.2825 51.8471 27.2825 50.9294V44.6706C27.2825 43.7765 27.5884 43.0706 28.2237 42.5294C28.859 41.9882 29.6355 41.7059 30.5296 41.7059H36.8355C37.7531 41.7059 38.459 42.0118 38.9766 42.6706C39.5178 43.3294 39.7766 44.1059 39.7766 45V51.2588ZM39.259 42.4353C38.6708 41.7059 37.8472 41.3294 36.8355 41.3294H30.5296C29.5413 41.3294 28.6943 41.6353 27.9884 42.2235C27.2825 42.8353 26.906 43.6353 26.906 44.6471V50.9059C26.906 51.9177 27.2119 52.7647 27.8002 53.4706C28.3884 54.1765 29.2119 54.5294 30.2002 54.5294H36.5296C37.5178 54.5294 38.3649 54.2235 39.0707 53.6353C39.7766 53.0471 40.1531 52.2235 40.1531 51.2353V44.9765C40.1531 43.9882 39.8472 43.1412 39.259 42.4118V42.4353ZM39.7766 51.2588C39.7766 52.1529 39.4707 52.8588 38.8355 53.3765C38.2002 53.8941 37.4237 54.1765 36.5296 54.1765H30.2002C29.306 54.1765 28.6237 53.8706 28.0825 53.2588C27.5413 52.6235 27.2825 51.8471 27.2825 50.9294V44.6706C27.2825 43.7765 27.5884 43.0706 28.2237 42.5294C28.859 41.9882 29.6355 41.7059 30.5296 41.7059H36.8355C37.7531 41.7059 38.459 42.0118 38.9766 42.6706C39.5178 43.3294 39.7766 44.1059 39.7766 45V51.2588ZM42.1296 42.4118C41.8237 41.7059 41.4237 41.0941 40.906 40.5765C40.3884 40.0588 39.7766 39.6353 39.0707 39.3294C38.3649 39.0235 37.6119 38.8588 36.8355 38.8588H30.2002C29.4237 38.8588 28.6708 39.0235 27.9649 39.3294C27.259 39.6353 26.6472 40.0588 26.1296 40.5765C25.6119 41.0941 25.1884 41.7059 24.906 42.4118C24.6002 43.1177 24.459 43.8706 24.459 44.6471V51.2588C24.459 52.0353 24.6002 52.8118 24.906 53.4941C25.2119 54.2 25.6119 54.8118 26.1296 55.3294C26.6472 55.8471 27.2825 56.2706 27.9649 56.5529C28.6708 56.8588 29.4237 57 30.2002 57H36.8355C37.6119 57 38.3649 56.8353 39.0707 56.5529C39.7766 56.2471 40.3884 55.8471 40.906 55.3294C41.4237 54.8118 41.8472 54.2 42.1296 53.4941C42.4355 52.7882 42.5766 52.0353 42.5766 51.2588V44.6471C42.5766 43.8706 42.4355 43.1177 42.1296 42.4118ZM42.2237 51.2588C42.2237 51.9882 42.0825 52.6941 41.8002 53.3529C41.5178 54.0118 41.1413 54.6 40.6472 55.0706C40.1531 55.5412 39.5884 55.9412 38.9296 56.2235C38.2708 56.5059 37.5649 56.6471 36.8355 56.6471H30.2002C29.4708 56.6471 28.7649 56.5059 28.106 56.2235C27.4472 55.9412 26.859 55.5647 26.3884 55.0706C25.9178 54.5765 25.5178 54.0118 25.2355 53.3529C24.9531 52.6941 24.8119 51.9882 24.8119 51.2588V44.6471C24.8119 43.9177 24.9531 43.2118 25.2355 42.5529C25.5178 41.8941 25.8943 41.3059 26.3884 40.8353C26.8825 40.3412 27.4708 39.9412 28.1296 39.6588C28.7884 39.3765 29.4943 39.2118 30.2237 39.2118H36.859C37.5884 39.2118 38.2943 39.3529 38.9531 39.6588C39.6119 39.9412 40.2002 40.3412 40.6943 40.8353C41.1884 41.3294 41.5649 41.8941 41.8472 42.5529C42.1296 43.2118 42.2707 43.9177 42.2707 44.6471V51.2588H42.2237ZM36.8119 41.3529H30.506C29.5178 41.3529 28.6708 41.6588 27.9649 42.2471C27.259 42.8588 26.8825 43.6588 26.8825 44.6706V50.9294C26.8825 51.9412 27.1884 52.7882 27.7766 53.4941C28.3649 54.2 29.1884 54.5529 30.1766 54.5529H36.506C37.4943 54.5529 38.3413 54.2471 39.0472 53.6588C39.7531 53.0706 40.1296 52.2471 40.1296 51.2588V45C40.1296 44.0118 39.8237 43.1647 39.2355 42.4353C38.6472 41.7059 37.8237 41.3294 36.8119 41.3294V41.3529ZM39.7766 51.2588C39.7766 52.1529 39.4707 52.8588 38.8355 53.3765C38.2002 53.8941 37.4237 54.1765 36.5296 54.1765H30.2002C29.306 54.1765 28.6237 53.8706 28.0825 53.2588C27.5413 52.6235 27.2825 51.8471 27.2825 50.9294V44.6706C27.2825 43.7765 27.5884 43.0706 28.2237 42.5294C28.859 41.9882 29.6355 41.7059 30.5296 41.7059H36.8355C37.7531 41.7059 38.459 42.0118 38.9766 42.6706C39.5178 43.3294 39.7766 44.1059 39.7766 45V51.2588Z" fill="white"/>
<path d="M64.8344 49.4C64.3167 48.6941 63.705 48.1529 62.9991 47.7765C63.6579 47.3294 64.105 46.7882 64.3403 46.1294C64.5756 45.4941 64.7167 44.8118 64.7167 44.0824C64.7167 43.3529 64.5991 42.7647 64.3873 42.1529C64.152 41.5412 63.8226 41 63.3991 40.5294C62.952 40.0588 62.4108 39.6823 61.752 39.4235C61.0932 39.1412 60.3167 39.0235 59.3991 39.0235H48.1756C47.9167 39.0235 47.6814 39.1176 47.4932 39.2824C47.305 39.4471 47.2344 39.6824 47.2344 39.9647V55.9412C47.2344 56.1765 47.3285 56.4118 47.4932 56.6C47.6579 56.7882 47.8932 56.8824 48.1756 56.8824H59.3991C60.2461 56.8824 61.0461 56.8118 61.7991 56.6706C62.552 56.5294 63.2108 56.2706 63.7755 55.9176C64.3403 55.5647 64.7873 55.0706 65.0932 54.4588C65.4226 53.8471 65.5873 53.0706 65.5873 52.1294C65.5873 51.1882 65.3285 50.1529 64.8344 49.4471V49.4ZM62.6932 53.3059C62.4579 53.6353 62.152 53.8706 61.7755 54.0353C61.3991 54.2 60.9755 54.2941 60.505 54.3176C60.0344 54.3412 59.5638 54.3647 59.0461 54.3647H49.6814V49.0706H59.1873C59.705 49.0706 60.1991 49.1412 60.6697 49.2588C61.1403 49.3765 61.5403 49.5647 61.8932 49.8C62.2461 50.0353 62.5285 50.3412 62.7403 50.6941C62.952 51.0471 63.0697 51.4706 63.0697 51.9412C63.0697 52.4118 62.952 52.9765 62.7167 53.3059H62.6932ZM61.4461 45.8706C60.952 46.3412 60.105 46.5765 58.9755 46.5765H49.6814V41.4941H59.0697C60.2226 41.4941 61.0226 41.7294 61.4932 42.2C61.9638 42.6706 62.1991 43.3059 62.1991 44.0824C62.1991 44.8588 61.9403 45.4 61.4461 45.8706Z" fill="white"/>
<path d="M61.6352 42.0824C61.1411 41.5882 60.2705 41.3294 59.0705 41.3294H49.494V46.7882H58.9764C60.1528 46.7882 61.047 46.5294 61.5646 46.0353C62.1058 45.5412 62.3881 44.8824 62.3881 44.1059C62.3881 43.3294 62.1293 42.6 61.6352 42.0824ZM58.9764 46.3882H49.8705V41.6824H59.0705C60.1528 41.6824 60.9293 41.8941 61.3764 42.3412C61.8234 42.7882 62.0352 43.3529 62.0352 44.1059C62.0352 44.8588 61.7999 45.3294 61.3293 45.7529C60.8587 46.2 60.0823 46.4118 58.9764 46.4118V46.3882ZM62.8823 50.6C62.647 50.2235 62.3646 49.8941 61.9881 49.6588C61.6352 49.4 61.1881 49.2118 60.694 49.0941C60.1999 48.9765 59.7058 48.9059 59.1646 48.9059H49.494V54.5529H59.047C59.5646 54.5529 60.0352 54.5529 60.5058 54.5059C60.9999 54.4588 61.447 54.3647 61.847 54.2C62.2705 54.0353 62.5999 53.7765 62.8587 53.4235C63.1176 53.0706 63.2352 52.5765 63.2352 51.9412C63.2352 51.3059 63.1176 51 62.8823 50.6ZM59.047 54.1765H49.8705V49.2588H59.1881C59.6823 49.2588 60.1764 49.3294 60.6234 49.4471C61.0705 49.5647 61.4705 49.7294 61.7999 49.9647C62.1293 50.1765 62.3881 50.4588 62.5764 50.7882C62.7646 51.1177 62.8587 51.5177 62.8587 51.9412C62.8587 52.3647 62.7411 52.9059 62.5529 53.1882C62.3411 53.4706 62.0587 53.7059 61.7058 53.8471C61.3293 53.9882 60.9293 54.0824 60.4823 54.1294C60.0352 54.1529 59.5411 54.1765 59.047 54.1765ZM62.8823 50.6C62.647 50.2235 62.3646 49.8941 61.9881 49.6588C61.6352 49.4 61.1881 49.2118 60.694 49.0941C60.1999 48.9765 59.7058 48.9059 59.1646 48.9059H49.494V54.5529H59.047C59.5646 54.5529 60.0352 54.5529 60.5058 54.5059C60.9999 54.4588 61.447 54.3647 61.847 54.2C62.2705 54.0353 62.5999 53.7765 62.8587 53.4235C63.1176 53.0706 63.2352 52.5765 63.2352 51.9412C63.2352 51.3059 63.1176 51 62.8823 50.6ZM59.047 54.1765H49.8705V49.2588H59.1881C59.6823 49.2588 60.1764 49.3294 60.6234 49.4471C61.0705 49.5647 61.4705 49.7294 61.7999 49.9647C62.1293 50.1765 62.3881 50.4588 62.5764 50.7882C62.7646 51.1177 62.8587 51.5177 62.8587 51.9412C62.8587 52.3647 62.7411 52.9059 62.5529 53.1882C62.3411 53.4706 62.0587 53.7059 61.7058 53.8471C61.3293 53.9882 60.9293 54.0824 60.4823 54.1294C60.0352 54.1529 59.5411 54.1765 59.047 54.1765ZM61.5881 46.0118C62.1293 45.5176 62.4117 44.8588 62.4117 44.0824C62.4117 43.3059 62.1528 42.5765 61.6587 42.0588C61.1646 41.5647 60.294 41.3059 59.094 41.3059H49.5176V46.7647H58.9999C60.1764 46.7647 61.0705 46.5059 61.5881 46.0118ZM49.8705 41.6824H59.0705C60.1528 41.6824 60.9293 41.8941 61.3764 42.3412C61.8234 42.7882 62.0352 43.3529 62.0352 44.1059C62.0352 44.8588 61.7999 45.3294 61.3293 45.7529C60.8587 46.2 60.0823 46.4118 58.9764 46.4118H49.8705V41.7059V41.6824ZM64.9764 49.2824C64.5293 48.6471 63.9646 48.1294 63.3293 47.7294C63.894 47.3059 64.2705 46.7882 64.5058 46.1765C64.7646 45.5177 64.8823 44.8118 64.8823 44.0824C64.8823 43.3529 64.7646 42.7177 64.5293 42.0824C64.294 41.4471 63.9411 40.8824 63.494 40.3882C63.047 39.8941 62.4587 39.5177 61.7764 39.2353C61.094 38.9529 60.294 38.8118 59.3764 38.8118H48.1528C47.847 38.8118 47.5646 38.9059 47.3528 39.1177C47.1411 39.3294 47.0234 39.5882 47.0234 39.9412V55.9177C47.0234 56.2 47.1411 56.4824 47.3293 56.6941C47.5411 56.9294 47.8234 57.0471 48.1293 57.0471H59.3528C60.1999 57.0471 61.0234 56.9765 61.7999 56.8353C62.5764 56.6941 63.2587 56.4118 63.847 56.0588C64.4352 55.6824 64.9058 55.1647 65.2352 54.5294C65.5646 53.8941 65.7529 53.0706 65.7529 52.1059C65.7529 51.1412 65.494 50.0588 64.9528 49.3294L64.9764 49.2824ZM59.3764 56.6706H48.1528C47.9411 56.6706 47.7528 56.6 47.6117 56.4353C47.4705 56.2706 47.3999 56.1059 47.3999 55.9177V39.9412C47.3999 39.7059 47.4705 39.5177 47.6117 39.3765C47.7528 39.2353 47.9411 39.1647 48.1528 39.1647H59.3764C60.247 39.1647 60.9999 39.3059 61.6587 39.5647C62.294 39.8235 62.8352 40.1765 63.2352 40.6235C63.6587 41.0706 63.9646 41.5882 64.1999 42.2C64.4117 42.7882 64.5293 43.4235 64.5293 44.0824C64.5293 44.7412 64.4117 45.4471 64.1764 46.0588C63.9411 46.6706 63.5176 47.1882 62.9058 47.6118L62.647 47.7765L62.9058 47.9176C63.5881 48.2941 64.1999 48.8118 64.6705 49.4941C65.1411 50.1765 65.3999 51.0235 65.3999 52.0588C65.3999 53.0941 65.2352 53.7294 64.9293 54.3177C64.6234 54.9059 64.1999 55.3765 63.6587 55.7059C63.1176 56.0588 62.4823 56.2941 61.7529 56.4353C60.9999 56.5765 60.2234 56.6471 59.3764 56.6471V56.6706ZM61.9881 49.6353C61.6352 49.3765 61.1881 49.1882 60.694 49.0706C60.1999 48.9529 59.7058 48.8824 59.1646 48.8824H49.494V54.5294H59.047C59.5646 54.5294 60.0352 54.5294 60.5058 54.4824C60.9999 54.4353 61.447 54.3412 61.847 54.1765C62.2705 54.0118 62.5999 53.7529 62.8587 53.4C63.1176 53.0471 63.2352 52.5529 63.2352 51.9176C63.2352 51.2824 63.1176 50.9765 62.8823 50.5765C62.647 50.2 62.3646 49.8706 61.9881 49.6353ZM59.047 54.1765H49.8705V49.2588H59.1881C59.6823 49.2588 60.1764 49.3294 60.6234 49.4471C61.0705 49.5647 61.4705 49.7294 61.7999 49.9647C62.1293 50.1765 62.3881 50.4588 62.5764 50.7882C62.7646 51.1177 62.8587 51.5177 62.8587 51.9412C62.8587 52.3647 62.7411 52.9059 62.5529 53.1882C62.3411 53.4706 62.0587 53.7059 61.7058 53.8471C61.3293 53.9882 60.9293 54.0824 60.4823 54.1294C60.0352 54.1529 59.5411 54.1765 59.047 54.1765ZM61.5881 46.0118C62.1293 45.5176 62.4117 44.8588 62.4117 44.0824C62.4117 43.3059 62.1528 42.5765 61.6587 42.0588C61.1646 41.5647 60.294 41.3059 59.094 41.3059H49.5176V46.7647H58.9999C60.1764 46.7647 61.0705 46.5059 61.5881 46.0118ZM49.8705 41.6824H59.0705C60.1528 41.6824 60.9293 41.8941 61.3764 42.3412C61.8234 42.7882 62.0352 43.3529 62.0352 44.1059C62.0352 44.8588 61.7999 45.3294 61.3293 45.7529C60.8587 46.2 60.0823 46.4118 58.9764 46.4118H49.8705V41.7059V41.6824Z" fill="white"/>
<path d="M87.7299 54.7647C87.4711 54.5294 87.1652 54.3882 86.8358 54.3882H75.024C74.1299 54.3882 73.377 54.0824 72.7652 53.4706C72.1534 52.8588 71.8475 52.1294 71.8475 51.2588V49.0706H84.1299C84.4593 49.0706 84.7652 48.9529 85.0005 48.6941C85.2358 48.4353 85.377 48.1529 85.377 47.8235C85.377 47.4941 85.2593 47.1882 85.0005 46.9529C84.7652 46.7176 84.4593 46.5765 84.1299 46.5765H71.8475V44.6471C71.8475 43.7765 72.1534 43.0235 72.7652 42.4353C73.377 41.8235 74.1299 41.5176 75.0005 41.5176H86.5534C86.9064 41.5176 87.2122 41.4 87.4711 41.1412C87.7299 40.8824 87.8475 40.6 87.8475 40.2706C87.8475 39.9412 87.7299 39.6353 87.4711 39.4C87.2122 39.1647 86.9299 39.0235 86.5534 39.0235H75.0005C74.2005 39.0235 73.4711 39.1647 72.8122 39.4706C72.1299 39.7765 71.5417 40.1765 71.024 40.6941C70.5064 41.1882 70.1064 41.8 69.824 42.4823C69.5417 43.1647 69.377 43.8941 69.377 44.6471V51.2588C69.377 52.0118 69.5181 52.7412 69.824 53.4235C70.1064 54.1059 70.5299 54.6941 71.024 55.2118C71.5417 55.7059 72.1299 56.1059 72.8122 56.4118C73.4946 56.6941 74.224 56.8588 75.0005 56.8588H86.8123C87.1417 56.8588 87.4475 56.7412 87.7064 56.4823C87.9652 56.2235 88.0828 55.9647 88.0828 55.6353C88.0828 55.3059 87.9652 55 87.7064 54.7647H87.7299Z" fill="white"/>
<path d="M87.846 54.6235C87.5637 54.3412 87.2107 54.2 86.8343 54.2H75.0225C74.1755 54.2 73.4696 53.9176 72.9049 53.3294C72.3166 52.7647 72.0578 52.0824 72.0578 51.2353V49.2353H84.1755C84.5519 49.2353 84.9049 49.0941 85.1872 48.8118C85.4696 48.5294 85.6108 48.2 85.6108 47.8C85.6108 47.4 85.4696 47.0706 85.1872 46.7882C84.9049 46.5059 84.5755 46.3647 84.1755 46.3647H72.0578V44.6235C72.0578 43.8 72.3402 43.1177 72.9284 42.5294C73.5166 41.9412 74.199 41.6824 75.046 41.6824H86.599C86.999 41.6824 87.3519 41.5412 87.6343 41.2588C87.9166 40.9765 88.0578 40.6471 88.0578 40.2471C88.0578 39.8471 87.9166 39.5177 87.6343 39.2353C87.3519 38.9529 86.999 38.8118 86.599 38.8118H75.046C74.2225 38.8118 73.4696 38.9765 72.7872 39.2824C72.1049 39.5882 71.4931 40.0118 70.9519 40.5294C70.4107 41.0471 70.0108 41.6588 69.7049 42.3647C69.399 43.0706 69.2578 43.8235 69.2578 44.6V51.2118C69.2578 51.9882 69.399 52.7647 69.7049 53.4471C70.0108 54.1529 70.4343 54.7647 70.9519 55.2824C71.4931 55.8 72.1049 56.2235 72.7872 56.5059C73.4931 56.8118 74.246 56.9529 75.046 56.9529H86.8578C87.2343 56.9529 87.5872 56.8118 87.8696 56.5294C88.1519 56.2471 88.3166 55.9177 88.3166 55.5647C88.3166 55.2118 88.1755 54.8353 87.8696 54.5529L87.846 54.6235ZM86.8343 56.6706H75.0225C74.2696 56.6706 73.5637 56.5294 72.9049 56.2471C72.246 55.9647 71.6813 55.5647 71.1637 55.0941C70.6696 54.6 70.2696 54.0353 69.9872 53.3765C69.7049 52.7177 69.5637 52.0118 69.5637 51.2824V44.6706C69.5637 43.9412 69.7049 43.2353 69.9872 42.5765C70.2696 41.9177 70.6696 41.3294 71.1637 40.8588C71.6578 40.3647 72.246 39.9647 72.9049 39.6824C73.5402 39.4 74.2696 39.2353 75.0225 39.2353H86.5755C86.8813 39.2353 87.1402 39.3294 87.3519 39.5647C87.5637 39.7765 87.6813 40.0118 87.6813 40.3177C87.6813 40.6235 87.5872 40.8588 87.3519 41.0706C87.1402 41.2824 86.8813 41.3765 86.5755 41.3765H75.0225C74.1049 41.3765 73.3049 41.7059 72.646 42.3412C71.9872 42.9765 71.6578 43.7765 71.6578 44.6941V46.7882H84.1284C84.4107 46.7882 84.6696 46.8824 84.8813 47.1177C85.0931 47.3294 85.2107 47.5647 85.2107 47.8706C85.2107 48.1765 85.1166 48.4118 84.8813 48.6235C84.6696 48.8353 84.4343 48.9294 84.1284 48.9294H71.6578V51.3059C71.6578 52.2235 71.9872 53.0235 72.6225 53.6588C73.2578 54.2941 74.0578 54.6235 75.0225 54.6235H86.8343C87.1166 54.6235 87.3755 54.7177 87.5872 54.9294C87.799 55.1412 87.9166 55.3765 87.9166 55.6824C87.9166 55.9882 87.799 56.1765 87.5872 56.3882C87.3519 56.6 87.1166 56.7176 86.8108 56.7176L86.8343 56.6706Z" fill="white"/>
<path d="M107.753 49.4706C107.211 48.6471 106.482 47.9882 105.541 47.4706C106.694 46.4118 107.258 45.0235 107.258 43.3059V40.1294C107.258 39.7294 107.164 39.4 106.976 39.1412C106.788 38.9059 106.458 38.7647 106.011 38.7647C105.564 38.7647 105.282 38.8824 105.07 39.1412C104.858 39.4 104.764 39.7059 104.764 40.1294V43.3059C104.764 44.4824 104.458 45.3765 103.87 45.9176C103.282 46.4588 102.435 46.7412 101.353 46.7412H94.1054V40.2471C94.1054 39.8471 94.0113 39.4941 93.8231 39.2118C93.6349 38.9294 93.3054 38.7647 92.8584 38.7647C92.4113 38.7647 92.1054 38.9059 91.9172 39.2118C91.7054 39.4941 91.6113 39.8471 91.6113 40.2235V55.6824C91.6113 56.0824 91.7054 56.4353 91.8702 56.7176C92.0349 57 92.3643 57.1412 92.8584 57.1412C93.3525 57.1412 93.6349 57 93.8231 56.7176C94.0113 56.4353 94.1054 56.1059 94.1054 55.6824V49.2588H102.976C103.47 49.2588 103.917 49.3059 104.294 49.4235C104.67 49.5412 105 49.7294 105.282 50.0353C105.541 50.3176 105.753 50.7412 105.894 51.2588C106.035 51.7765 106.105 52.4588 106.105 53.2824V55.8471C106.105 56.2235 106.2 56.5529 106.411 56.8118C106.623 57.0706 106.929 57.2118 107.353 57.2118C107.776 57.2118 108.105 57.0941 108.294 56.8118C108.505 56.5529 108.6 56.2235 108.6 55.7765V52.6706C108.6 51.4 108.341 50.3412 107.8 49.4941L107.753 49.4706Z" fill="white"/>
<path d="M107.894 49.3765C107.377 48.6 106.694 47.9412 105.824 47.4471C106.883 46.3882 107.424 45 107.424 43.3059V40.1294C107.424 39.6824 107.306 39.3294 107.094 39.0471C106.859 38.7647 106.506 38.6 105.988 38.6C105.471 38.6 105.141 38.7412 104.906 39.0471C104.671 39.3294 104.553 39.7059 104.553 40.1294V43.3059C104.553 44.4353 104.271 45.2588 103.73 45.7765C103.165 46.2941 102.365 46.553 101.353 46.553H94.2943V40.2471C94.2943 39.8 94.1767 39.4235 93.9884 39.0941C93.7532 38.7412 93.4002 38.5765 92.8826 38.5765C92.3649 38.5765 92.0355 38.7412 91.7767 39.0941C91.5414 39.4235 91.4473 39.7765 91.4473 40.2V55.6588C91.4473 56.1059 91.5414 56.4824 91.7296 56.7882C91.9414 57.1177 92.3179 57.3059 92.8826 57.3059C93.4473 57.3059 93.7767 57.1412 93.9884 56.8118C94.2002 56.5059 94.3179 56.1294 94.3179 55.6824V49.4235H103C103.471 49.4235 103.894 49.4706 104.271 49.5882C104.624 49.6824 104.93 49.8706 105.165 50.1294C105.4 50.4118 105.612 50.7882 105.73 51.2588C105.847 51.753 105.918 52.4118 105.918 53.2353V55.8C105.918 56.2235 106.036 56.5765 106.271 56.8824C106.506 57.1882 106.883 57.3294 107.353 57.3294C107.824 57.3294 108.2 57.1882 108.435 56.8824C108.671 56.6 108.788 56.2 108.788 55.753V52.6471C108.788 51.3294 108.506 50.2471 107.941 49.3765H107.894ZM108.365 55.753C108.365 56.1294 108.271 56.4353 108.106 56.6706C107.941 56.8824 107.683 56.9765 107.306 56.9765C106.93 56.9765 106.671 56.8824 106.506 56.6706C106.318 56.4353 106.247 56.153 106.247 55.8235V53.2588C106.247 52.4118 106.177 51.7294 106.036 51.1882C105.894 50.6471 105.683 50.2 105.377 49.8941C105.094 49.5882 104.718 49.3529 104.318 49.2353C103.918 49.1177 103.471 49.0706 102.953 49.0706H93.9179V55.6824C93.9179 56.0588 93.8237 56.3647 93.659 56.6C93.4943 56.8353 93.2355 56.9529 92.859 56.9529C92.4826 56.9529 92.1531 56.8353 92.0355 56.6235C91.8943 56.3647 91.8002 56.0588 91.8002 55.6824V40.2235C91.8002 39.8706 91.8943 39.5647 92.0826 39.3059C92.2473 39.0706 92.5061 38.9529 92.8826 38.9529C93.259 38.9529 93.5414 39.0706 93.6826 39.3059C93.8473 39.5647 93.9414 39.8706 93.9414 40.2471V46.9294H101.377C102.506 46.9294 103.377 46.6471 104.012 46.0588C104.647 45.4706 104.953 44.5529 104.953 43.3059V40.1294C104.953 39.7765 105.047 39.4706 105.212 39.2588C105.377 39.0471 105.635 38.9529 106.012 38.9529C106.388 38.9529 106.671 39.0471 106.835 39.2588C107 39.4706 107.071 39.7529 107.071 40.1294V43.3059C107.071 44.9765 106.506 46.3412 105.424 47.3529L105.236 47.5412L105.471 47.6588C106.388 48.1294 107.094 48.7882 107.636 49.5882C108.153 50.3882 108.412 51.4235 108.412 52.6471V55.753H108.365Z" fill="white"/>
<path d="M161.4 7.98824C160.835 7.25883 160.011 6.85883 159.117 6.81177C159.07 6.81177 159.023 6.81177 158.976 6.81177H157.635L129.8 6.95295H128.647C128.529 6.95295 128.435 6.95295 128.317 6.97647C127.47 7.07059 126.694 7.51765 126.176 8.24706C125.588 9.07059 125.447 10.0824 125.753 11.0235L127.094 14.9765L128.741 19.8235L130.011 19.0235L128.623 14.9529L127.117 10.5294C126.953 10.0353 127.023 9.51765 127.329 9.09412C127.635 8.67059 128.106 8.4353 128.623 8.41177L158.906 8.24706C159.4 8.24706 159.87 8.48236 160.153 8.85883C160.459 9.25883 160.553 9.75295 160.435 10.2471L159.188 14.9529L158.106 19.0235L153.376 36.6471C153.188 37.3529 152.553 37.8235 151.823 37.8235L137.564 37.8706C136.882 37.8706 136.27 37.4471 136.059 36.7882L132.153 25.3294L132.059 25.0235L130.411 20.1765L129.117 20.9765L130.529 25.0941L130.623 25.3529L133.07 32.5294L133.706 34.4118L134.67 37.2824C135.094 38.5294 136.27 39.3765 137.564 39.3765H141.635H143.682H149.47H150.953H151.87C153.259 39.3765 154.459 38.4353 154.835 37.0941L161.894 10.6941C162.153 9.75294 161.964 8.78824 161.353 8.01177L161.4 7.98824Z" fill="white"/>
<path d="M121.871 14.9765C120.742 24.8353 126.036 25.4 130.483 25.3529C130.53 25.3529 130.6 25.3529 130.671 25.3529C131.165 25.3529 131.965 25.3529 132.224 25.3529H132.318C136.906 25.2353 137.048 19.1647 137.048 19.1647H138.2C138.106 19.8941 138.106 20.9765 138.553 22.0824C139.895 25.3294 144.624 25.5882 145.8 25.6824C147.283 25.7765 151.636 26.0588 153.565 23.0941C154.53 21.6118 154.459 19.9647 154.342 19.0706H158.93L160.342 15H121.871V14.9765ZM127.189 22.2235L126.577 21.2118L128.789 19.8235L130.059 19.0235L130.953 18.4588L131.589 19.4706L130.459 20.1765L129.165 20.9765L127.189 22.2V22.2235ZM145 22.2235L144.365 21.2118L148.765 18.4824L149.377 19.4941L145 22.2235Z" fill="white"/>
<path d="M141.681 27.9305L137.281 30.6583L138.062 31.9181L142.462 29.1903L141.681 27.9305Z" fill="white"/>
<path d="M159.118 5.51766V7.54119H157.636V5.51766C157.636 4.64707 156.93 3.91766 156.036 3.91766H131.401C130.53 3.91766 129.801 4.62354 129.801 5.51766V7.70589H128.318V5.51766C128.318 3.82354 129.683 2.45883 131.377 2.45883H148.53V2.90589H154.224V2.45883H156.012C157.707 2.45883 159.071 3.82354 159.071 5.51766H159.118Z" fill="white"/>
<path d="M154.129 0.411758H148.717C147.823 0.411758 147.094 1.14117 147.094 2.03529V3.94117H155.753V2.03529C155.753 1.14117 155.023 0.411758 154.129 0.411758ZM154.247 2.88235H148.553V1.54117H154.247V2.88235Z" fill="white"/>
<path d="M127.283 55.8941C127.283 55.8941 127.283 55.8941 127.26 55.8941C127.024 55.8941 126.836 55.7765 126.695 55.5882L118.907 45.0941C118.719 44.8353 118.719 44.5059 118.907 44.2471C119.072 43.9882 119.401 43.8706 119.707 43.9412L125.942 45.4941L133.189 32.4588L134.483 33.1882L126.954 46.7177C126.789 47 126.46 47.1647 126.13 47.0706L121.354 45.8706L127.354 53.9647L140.954 37.9882L142.083 38.953L127.895 55.6353C127.754 55.8 127.542 55.8941 127.33 55.8941H127.283Z" fill="white"/>
<path d="M158.105 57.5882C157.799 57.5882 157.517 57.4 157.423 57.1176L154.905 50.6471H144.176C143.799 50.6471 143.493 50.3647 143.446 49.9882L142.199 38.5529L143.658 38.3882L144.835 49.1647H155.399C155.705 49.1647 155.987 49.3529 156.082 49.6353L158.082 54.7882L161.94 44.5529H150.246C149.846 44.5529 149.517 44.2235 149.517 43.8235V38.4823H150.999V43.0941H163.023C163.258 43.0941 163.493 43.2118 163.635 43.4235C163.776 43.6118 163.799 43.8706 163.729 44.1059L158.811 57.1412C158.693 57.4235 158.435 57.6118 158.129 57.6118L158.105 57.5882Z" fill="white"/>
</g>
<defs>
<clipPath id="clip0_1_86">
<rect width="164" height="58" fill="white"/>
</clipPath>
</defs>
</svg>
