<svg width="24" height="21" viewBox="0 0 24 21" fill="none" xmlns="http://www.w3.org/2000/svg">
<path d="M23.4555 0.781578C23.0971 0.330057 22.5733 0.0564071 22.0081 0.0427246C21.9805 0.0427246 21.9529 0.0427246 21.9116 0.0427246H21.0707L3.35669 0.138503H2.62608C2.55715 0.138503 2.48823 0.138502 2.4193 0.152185C1.86789 0.220597 1.38541 0.494246 1.05457 0.945768C0.682369 1.4657 0.585869 2.0951 0.792647 2.69712L1.64733 5.18733L2.695 8.25221L3.50833 7.74596L2.62608 5.17365L1.6749 2.38243C1.57841 2.06773 1.61976 1.73935 1.81276 1.47938C2.00575 1.20573 2.30902 1.06891 2.63987 1.05523L21.9116 0.959451C22.2286 0.959451 22.5181 1.09628 22.7111 1.34256C22.9041 1.58884 22.973 1.91722 22.8903 2.21824L22.0908 5.18733L21.3877 7.75964L18.3826 18.8835C18.2585 19.3213 17.8587 19.6223 17.4038 19.6223L8.31937 19.6497C7.87824 19.6497 7.49226 19.3761 7.36819 18.9656L4.88686 11.7276L4.81793 11.536L3.77025 8.47113L2.94314 8.97738L3.83917 11.577L3.89432 11.7412L5.43826 16.2701L5.85182 17.4605L6.47215 19.2666C6.73407 20.0602 7.47847 20.5801 8.31937 20.5801H10.911H12.2206H15.9012H16.8386H17.4176C18.2999 20.5801 19.0718 19.9781 19.3062 19.1435L23.8002 2.47821C23.9656 1.88986 23.8415 1.27415 23.4555 0.795261V0.781578Z" fill="#2F478A"/>
</svg>
