<svg width="25" height="7" viewBox="0 0 25 7" fill="none" xmlns="http://www.w3.org/2000/svg">
<path d="M0.310971 0.201172C-0.405859 6.4267 2.95773 6.78244 5.7837 6.75508C5.81127 6.75508 5.85262 6.75508 5.89398 6.75508C6.21104 6.75508 6.70731 6.75508 6.88652 6.75508H6.94165C9.86412 6.67298 9.94683 2.85557 9.94683 2.85557H10.6774C10.6223 3.32077 10.6085 3.99122 10.9118 4.68902C11.7665 6.74139 14.7854 6.90558 15.5298 6.96031C16.4672 7.01504 19.2518 7.19291 20.4649 5.31842C21.0715 4.38801 21.0301 3.33446 20.9612 2.77348H23.8837L24.7797 0.201172H0.29719H0.310971ZM3.68835 4.77112L3.28857 4.14172L4.69467 3.26604L5.508 2.75979L6.07319 2.40405L6.47296 3.04713L5.75613 3.49865L4.92902 4.0049L3.67457 4.7848L3.68835 4.77112ZM15.0198 4.77112L14.62 4.14172L17.4184 2.41773L17.8182 3.06081L15.0198 4.7848V4.77112Z" fill="#2F478A"/>
</svg>
