<svg width="63" height="56" viewBox="0 0 63 56" fill="none" xmlns="http://www.w3.org/2000/svg">
<path d="M21.2851 55.6672C18.9682 55.6672 16.9087 54.2071 16.1732 52.0169L6.72156 24.421L9.25916 22.8514L18.9314 51.0679C19.2624 52.0899 20.2186 52.747 21.2851 52.747L45.5209 52.674C46.661 52.674 47.6539 51.9074 47.9481 50.8489L57.8411 14.2733L59.9741 6.35226C60.158 5.58571 59.9741 4.78265 59.5328 4.19861C59.0547 3.57807 58.3559 3.24954 57.5469 3.24954L6.09636 3.50506C5.28727 3.50506 4.55174 3.90659 4.07364 4.56363C3.59555 5.22068 3.48523 6.02373 3.74267 6.82679L8.67072 21.2818L6.13315 22.8514L0.94763 7.77586C0.395981 6.13324 0.653417 4.34462 1.68316 2.92102C2.5658 1.67993 3.92654 0.876878 5.43438 0.694365C5.61827 0.694365 5.83892 0.65786 6.0228 0.65786H7.97198L55.2299 0.402344H57.5101C57.5836 0.402344 57.694 0.402344 57.7675 0.402344C59.3489 0.475349 60.7832 1.2419 61.7762 2.44649C62.8059 3.76058 63.1737 5.4762 62.7323 7.11881L50.7432 51.5789C50.118 53.9151 47.9482 55.5212 45.5209 55.5577H28.1623C28.1623 55.5942 24.8892 55.6307 24.8892 55.6307H21.2851V55.6672ZM14.9227 47.0891L16.5409 51.8709C17.2397 53.8786 19.1153 55.2657 21.2851 55.2657H28.1991L45.5577 55.1927C47.801 55.1927 49.787 53.6595 50.3754 51.5059L62.3646 7.0458C62.7691 5.5127 62.4749 3.94309 61.482 2.702C60.5993 1.53392 59.2386 0.840374 57.7675 0.803871H57.7307C57.6572 0.803871 57.6204 0.803871 57.5469 0.803871H55.3035L8.04551 1.05939H6.09636C5.91247 1.05939 5.72859 1.05939 5.54471 1.09589C4.11042 1.2419 2.86001 1.97195 2.05093 3.14003C1.09474 4.45413 0.837305 6.09674 1.38895 7.62985L6.39056 22.2309L8.2294 21.0993L3.3749 6.9363C3.08069 6.02374 3.22779 5.07467 3.74267 4.34462C4.29432 3.57807 5.14016 3.14003 6.09636 3.14003L57.5101 2.88452C58.4295 2.88452 59.2754 3.28605 59.827 3.97959C60.3787 4.67314 60.5625 5.62221 60.3419 6.49827L56.37 21.2818L48.3527 50.9584C48.0217 52.1994 46.8448 53.0755 45.5577 53.0755L21.3219 53.1485C20.0347 53.1485 18.9314 52.3455 18.5636 51.1774L9.03849 23.4354L7.19965 24.567L9.66369 31.758L14.9227 47.0526V47.0891Z" fill="#2F478A"/>
</svg>
