<svg width="21" height="4" viewBox="0 0 21 4" fill="none" xmlns="http://www.w3.org/2000/svg">
<path d="M1.43694 3.67211H0.3479V2.22177C0.3479 1.11349 1.25773 0.210449 2.37433 0.210449H13.2922V0.484099H16.9177V0.210449H18.0619C19.1785 0.210449 20.0883 1.11349 20.0883 2.22177V3.57634H18.9993V2.22177C18.9993 1.70184 18.5719 1.29136 18.0619 1.29136H2.37433C1.86427 1.29136 1.43694 1.71552 1.43694 2.22177V3.67211ZM0.485752 3.52161H1.27151V2.20809C1.27151 1.60606 1.754 1.12717 2.36055 1.12717H18.0481C18.6547 1.12717 19.1371 1.60606 19.1371 2.20809V3.41215H19.9229V2.20809C19.9229 1.1819 19.082 0.347274 18.0481 0.347274H16.9729V0.620923H13.1957V0.347274H2.34676C1.31287 0.347274 0.471971 1.1819 0.471971 2.20809V3.52161H0.485752Z" fill="#2F478A"/>
</svg>
