<svg width="40" height="41" viewBox="0 0 40 41" fill="none" xmlns="http://www.w3.org/2000/svg">
<path d="M14.707 40.5186C14.707 40.5186 14.6703 40.5186 14.6335 40.5186C14.2289 40.5186 13.7876 40.2996 13.5302 39.9346L0.290608 22.2309C-0.0771578 21.7563 -0.0771489 21.0628 0.253841 20.5517C0.58483 20.0407 1.21003 19.7852 1.83523 19.9677L12.243 22.5594L24.6 0.54834L27.1375 1.93544L27.0272 2.11795L14.229 24.8955C13.898 25.4796 13.236 25.7716 12.6108 25.5891L5.0348 23.7275L14.7438 36.7224L37.8028 9.85649L40.0094 11.7181L15.7736 39.9711C15.4794 40.2996 15.0748 40.4821 14.6703 40.4821L14.707 40.5186ZM1.46746 20.3327C1.13648 20.3327 0.805499 20.5152 0.584839 20.8073C0.327403 21.1723 0.36418 21.6468 0.584839 22.0118L13.8244 39.7156C14.0083 39.9711 14.3025 40.1171 14.6335 40.1536C14.9277 40.1536 15.2219 40.0076 15.4426 39.7886L39.4209 11.8276L37.8028 10.477L14.707 37.4159L4.00506 23.1069L12.6476 25.2606C13.1257 25.3701 13.6038 25.1876 13.8244 24.7495L26.5124 2.11795L24.6735 1.09588L12.3901 22.9974L1.65135 20.3327C1.57779 20.3327 1.46746 20.3327 1.39391 20.3327H1.46746Z" fill="#2F478A"/>
</svg>
