<svg width="15" height="14" viewBox="0 0 15 14" fill="none" xmlns="http://www.w3.org/2000/svg">
<path d="M10.3578 13.1965C10.1372 13.1965 9.93043 13.0597 9.84772 12.8545L8.26242 8.81813H1.4801C1.20439 8.81813 0.970051 8.61289 0.942481 8.33924L0.12915 1.04648L1.21819 0.92334L1.97637 7.73721H8.63463C8.85519 7.73721 9.06197 7.87404 9.14468 8.07928L10.3578 11.1578L12.715 4.97335H5.38131C5.07804 4.97335 4.8299 4.72707 4.8299 4.42605V0.978071H5.91894V3.87875H13.5008C13.68 3.87875 13.8454 3.96085 13.9557 4.11136C14.066 4.26187 14.0798 4.43973 14.0109 4.60392L10.8816 12.8408C10.7989 13.046 10.6059 13.1828 10.3716 13.1965H10.3578ZM0.294575 1.15594L1.08033 8.29819C1.1079 8.50343 1.27332 8.65394 1.46632 8.65394H8.34513L9.97179 12.786C10.0269 12.9366 10.1786 13.0323 10.344 13.0323C10.5094 13.0323 10.6473 12.9366 10.7162 12.7724L13.8454 4.53551C13.8868 4.41237 13.873 4.27555 13.8041 4.17977C13.7352 4.07031 13.6111 4.01558 13.4732 4.01558H5.73973V1.11489H4.95397V4.41237C4.95397 4.63129 5.13318 4.80916 5.35375 4.80916H12.908L10.344 11.5546L8.99304 8.12032C8.9379 7.96981 8.78626 7.87404 8.62083 7.87404H1.82473L1.06654 1.07385L0.280784 1.15594H0.294575Z" fill="#2F478A"/>
</svg>
