<svg width="18" height="33" viewBox="0 0 18 33" fill="none" xmlns="http://www.w3.org/2000/svg">
<path fill-rule="evenodd" clip-rule="evenodd" d="M17.5597 2.56195L3.6197 16.5L17.5597 30.438C17.6991 30.5774 17.8097 30.7428 17.8851 30.9249C17.9605 31.107 17.9993 31.3022 17.9993 31.4992C17.9993 31.6963 17.9605 31.8915 17.8851 32.0736C17.8097 32.2556 17.6991 32.4211 17.5597 32.5604C17.4204 32.6998 17.2549 32.8103 17.0729 32.8858C16.8908 32.9612 16.6956 33 16.4985 33C16.3015 33 16.1063 32.9612 15.9242 32.8858C15.7421 32.8103 15.5767 32.6998 15.4373 32.5604L0.437958 17.5612C0.2985 17.4219 0.187866 17.2565 0.112383 17.0744C0.0368993 16.8923 -0.00195312 16.6971 -0.00195312 16.5C-0.00195312 16.3029 0.0368993 16.1077 0.112383 15.9256C0.187866 15.7435 0.2985 15.5781 0.437958 15.4388L15.4373 0.439562C15.7188 0.158115 16.1005 0 16.4985 0C16.8966 0 17.2783 0.158115 17.5597 0.439562C17.8412 0.721009 17.9993 1.10273 17.9993 1.50076C17.9993 1.89878 17.8412 2.28051 17.5597 2.56195Z" fill="#2F478A" fill-opacity="0.25"/>
</svg>
