<svg width="14" height="13" viewBox="0 0 14 13" fill="none" xmlns="http://www.w3.org/2000/svg">
<path d="M10.3592 12.1144C10.1662 12.1144 9.98696 11.9912 9.91803 11.8134L8.30516 7.7223H1.4677C1.23336 7.7223 1.02657 7.54442 0.999003 7.31182L0.199463 0.0874782L1.13686 -0.00830078L1.89504 6.79189H8.62222C8.81521 6.79189 8.99442 6.91503 9.06335 7.0929L10.3454 10.3493L12.7991 3.8912H5.35513C5.09321 3.8912 4.88643 3.68597 4.88643 3.426V0.0464283H5.82383V2.94711H13.4746C13.6263 2.94711 13.7779 3.01553 13.8606 3.15235C13.9433 3.27549 13.9709 3.43968 13.9157 3.57651L10.7865 11.8134C10.7176 11.9912 10.5384 12.1144 10.3454 12.1144H10.3592Z" fill="#2F478A"/>
</svg>
