<svg width="24" height="14" viewBox="0 0 24 14" fill="none" xmlns="http://www.w3.org/2000/svg">
<path fill-rule="evenodd" clip-rule="evenodd" d="M22.1368 0.322392L12 10.5838L1.86324 0.322392C1.76189 0.219808 1.64157 0.138433 1.50915 0.0829153C1.37672 0.0273972 1.23479 -0.00117779 1.09146 -0.00117779C0.94813 -0.00117779 0.806198 0.0273972 0.673777 0.0829153C0.541355 0.138433 0.421032 0.219808 0.319679 0.322392C0.218328 0.424977 0.137936 0.546762 0.0830841 0.680794C0.0282326 0.814826 0 0.958483 0 1.10356C0 1.24863 0.0282326 1.39229 0.0830841 1.52632C0.137936 1.66035 0.218328 1.78214 0.319679 1.88472L11.2282 12.9259C11.3295 13.0286 11.4498 13.11 11.5823 13.1656C11.7147 13.2212 11.8566 13.2498 12 13.2498C12.1434 13.2498 12.2853 13.2212 12.4177 13.1656C12.5502 13.11 12.6705 13.0286 12.7718 12.9259L23.6803 1.88472C23.885 1.67755 24 1.39655 24 1.10356C24 0.810564 23.885 0.529571 23.6803 0.322392C23.4756 0.115213 23.198 -0.00117779 22.9085 -0.00117779C22.6191 -0.00117779 22.3414 0.115213 22.1368 0.322392Z" fill="#2F478A" fill-opacity="0.25"/>
</svg>
