<svg width="24" height="14" viewBox="0 0 24 14" fill="none" xmlns="http://www.w3.org/2000/svg">
<path fill-rule="evenodd" clip-rule="evenodd" d="M22.1368 0.820683L12 11.0821L1.86324 0.820683C1.76189 0.718099 1.64157 0.636724 1.50915 0.581206C1.37672 0.525688 1.23479 0.497113 1.09146 0.497113C0.94813 0.497113 0.806198 0.525688 0.673777 0.581206C0.541355 0.636724 0.421032 0.718099 0.319679 0.820683C0.218328 0.923268 0.137936 1.04505 0.0830841 1.17908C0.0282326 1.31312 0 1.45677 0 1.60185C0 1.74692 0.0282326 1.89058 0.0830841 2.02461C0.137936 2.15865 0.218328 2.28043 0.319679 2.38301L11.2282 13.4242C11.3295 13.5269 11.4498 13.6083 11.5823 13.6639C11.7147 13.7194 11.8566 13.748 12 13.748C12.1434 13.748 12.2853 13.7194 12.4177 13.6639C12.5502 13.6083 12.6705 13.5269 12.7718 13.4242L23.6803 2.38301C23.885 2.17584 24 1.89484 24 1.60185C24 1.30886 23.885 1.02786 23.6803 0.820683C23.4756 0.613504 23.198 0.497113 22.9085 0.497113C22.6191 0.497113 22.3414 0.613504 22.1368 0.820683Z" fill="#2F478A" fill-opacity="0.75"/>
</svg>
