<svg width="45" height="44" viewBox="0 0 45 44" fill="none" xmlns="http://www.w3.org/2000/svg">
<g clip-path="url(#clip0_1_629)">
<mask id="mask0_1_629" style="mask-type:luminance" maskUnits="userSpaceOnUse" x="0" y="0" width="45" height="44">
<path d="M44.3701 0.19458H0.629639V43.4017H44.3701V0.19458Z" fill="white"/>
</mask>
<g mask="url(#mask0_1_629)">
<path d="M16.8696 5.63594C19.199 7.06107 19.0696 7.12584 18.6166 8.61574C18.1637 10.1704 17.3872 11.5308 18.4872 11.9194C19.2637 12.1785 21.8519 9.3283 22.4989 9.39308C23.4048 9.39308 25.4753 12.8263 26.8341 11.7899C27.4812 10.6239 25.6047 8.03274 25.8636 7.38496C26.1224 6.80195 27.3518 6.02461 28.1929 5.37683C28.7753 4.85861 28.9694 3.6926 27.6753 3.6926C25.7989 3.75738 24.8283 4.01649 24.3106 3.10959C23.793 2.26748 23.5342 1.49014 23.0166 0.648021C22.7577 0.0650172 22.1107 0.000239 21.7872 0.648021C21.3342 1.68447 21.2048 2.07314 20.946 2.72092C20.8166 2.98004 20.4284 3.82215 19.7166 3.82215C18.3578 3.82215 18.4225 3.82215 17.0637 3.82215C15.899 3.82215 15.899 4.92338 17.0637 5.63594H16.8696Z" fill="#BEDCEE"/>
<path d="M8.00574 14.7698C8.91161 14.5754 11.6292 17.4257 12.7292 16.1301C13.1174 14.8345 10.6586 12.7616 10.788 12.1139C10.9175 11.4661 11.9527 10.4296 12.5998 9.65228C13.0527 9.0045 12.988 7.83849 11.6939 8.16238C9.88218 8.68061 8.97631 9.13405 8.26456 8.35671C7.5528 7.64415 7.16458 6.93159 6.45282 6.21903C6.06459 5.70081 5.41754 5.76559 5.28813 6.54292C5.09402 7.64415 5.02931 8.03282 4.8999 8.74538C4.8999 9.06927 4.64108 9.91139 3.99404 10.1057C2.69994 10.4296 2.69994 10.3648 1.40584 10.6887C0.305857 10.9478 0.564677 12.0491 1.79407 12.4377C4.38227 13.3446 4.31756 13.4094 4.18815 14.8993C4.05874 16.5835 3.67051 18.0087 4.77049 18.1382C5.61166 18.2678 7.4881 14.8993 8.07044 14.7698H8.00574Z" fill="#BEDCEE"/>
<path d="M43.5295 10.3648C41.7177 9.97612 40.6824 9.97612 40.3589 9.00445C40.0354 8.03278 40.0354 7.25544 39.7119 6.28376C39.5825 5.63598 39.0001 5.44165 38.5472 6.02465C37.8354 6.93155 37.6413 7.25544 37.1884 7.83844C36.9943 8.09756 36.4119 8.81012 35.7649 8.61578C34.4708 8.29189 34.4708 8.29189 33.1767 7.968C32.0767 7.70889 31.8179 8.74534 32.7237 9.71701C34.6002 11.7251 34.5355 11.7251 33.6943 13.0207C32.8532 14.4458 31.7532 15.5471 32.7237 16.1948C33.4355 16.6483 36.606 14.5106 37.1884 14.7049C38.0942 14.964 39.1942 18.7212 40.8119 18.0734C41.7177 17.1017 40.4883 14.1219 40.8766 13.6037C41.2648 13.0855 42.6883 12.632 43.5942 12.2434C44.3059 11.9195 44.7589 10.7535 43.4648 10.4943L43.5295 10.3648Z" fill="#BEDCEE"/>
</g>
<path d="M9.62261 30.5756C12.2108 30.1222 13.052 29.863 14.8637 29.2153C16.999 28.4379 18.6813 26.948 19.2636 25.1342C19.4577 24.4865 19.5872 23.7739 19.7166 23.0613C19.846 22.3488 19.9754 21.5714 20.1695 20.9236C20.4283 20.1463 20.8166 19.6281 21.2048 19.4338C21.5283 19.3042 21.8518 19.3042 22.3048 19.4338C22.8871 19.6281 23.4047 20.7293 23.1459 22.284C22.9518 23.5796 22.693 25.1342 23.2106 26.2355C23.793 27.4015 25.6694 27.6606 26.8341 27.4663C27.4812 27.4015 27.9341 27.2071 28.4517 27.0776C28.84 26.948 29.2929 26.8185 29.8105 26.7537C31.1046 26.4946 32.0105 26.6889 32.5281 27.2719C33.1105 27.9845 32.9811 28.9562 32.334 29.4744C32.2046 29.6039 32.1399 29.7335 32.2046 29.863C32.2046 29.9926 32.3987 30.1222 32.5281 30.1222C33.2399 30.1869 33.8869 31.0938 33.8869 31.9359C33.8869 32.6485 33.1752 33.3611 32.4634 33.4258C32.4634 33.4258 32.4634 33.4258 32.3987 33.4258C32.2046 33.4258 32.0105 33.6202 32.0752 33.8793C32.0752 34.0736 32.2693 34.268 32.5281 34.268C32.5281 34.268 32.5281 34.268 32.5928 34.268C32.787 34.268 33.0458 34.3327 33.2399 34.5271C33.4987 34.7862 33.6928 35.1101 33.6928 35.434C33.6928 36.0818 33.3046 36.7943 32.7222 37.1182C30.7811 38.2194 18.6813 41.0697 11.5638 42.3652C11.3696 42.3652 11.1755 42.6244 11.2402 42.8187C11.2402 43.013 11.4343 43.1426 11.6285 43.1426C11.8226 43.1426 11.6285 43.1426 11.6932 43.1426C15.2519 42.4948 20.1048 41.3936 23.9871 40.4867C27.4165 39.6446 31.8164 38.4785 33.0458 37.766C33.8869 37.2478 34.4693 36.2761 34.4693 35.3692C34.4693 34.7862 34.2105 34.268 33.7575 33.8793C33.7575 33.8793 33.7575 33.8793 33.6928 33.8793C34.2752 33.4258 34.7281 32.7781 34.7281 32.0007C34.7281 31.0938 34.2105 29.9926 33.3046 29.5392C33.8869 28.697 33.8869 27.531 33.1752 26.6889C32.4634 25.8468 31.2987 25.5877 29.6811 25.8468C29.1635 25.9764 28.7105 26.1059 28.2576 26.2355C27.8047 26.365 27.3517 26.4946 26.7694 26.6241C26.2518 26.6889 25.6047 26.6241 25.0871 26.5594C24.5047 26.4298 24.1812 26.1707 23.9871 25.8468C23.5342 24.9399 23.793 23.5796 23.9871 22.4783C24.2459 20.9884 23.9224 19.1746 22.6283 18.7212C21.9812 18.4621 21.3989 18.4621 20.8813 18.7212C20.2342 19.0451 19.7166 19.6929 19.393 20.6645C19.1342 21.3123 19.0048 22.1544 18.8754 22.9318C18.746 23.6443 18.6166 24.2921 18.4872 24.8751C17.9695 26.4298 16.546 27.7254 14.6049 28.4379C12.7284 29.0857 11.952 29.3448 9.4932 29.7335C9.29908 29.7335 9.10497 29.9926 9.16967 30.1869C9.16967 30.3813 9.42849 30.5756 9.62261 30.5108V30.5756Z" fill="#222222"/>
</g>
<defs>
<clipPath id="clip0_1_629">
<rect width="43.7405" height="43.2071" fill="white" transform="translate(0.629639 0.19458)"/>
</clipPath>
</defs>
</svg>
