<svg width="43" height="46" viewBox="0 0 43 46" fill="none" xmlns="http://www.w3.org/2000/svg">
<g clip-path="url(#clip0_1_614)">
<path d="M41.257 15.2433C40.5385 14.1345 39.3628 14.1345 36.9461 14.1345C32.8964 14.1345 27.7364 14.1345 23.6868 14.1345C22.6417 14.1345 21.7273 14.3302 21.27 14.9172C20.5516 15.7651 20.3556 16.6782 20.2903 17.7217H41.7795C41.7795 16.6782 41.5836 15.7651 41.257 15.2433Z" fill="#BEDCEE"/>
<path d="M41.911 21.1133H20.2258C20.2258 25.0266 20.4871 26.4615 21.2056 27.1789C21.9241 27.9616 22.9691 27.9616 24.4061 28.0268C28.0638 28.092 33.0279 27.9616 36.6204 27.9616C39.8209 27.9616 40.474 27.9616 41.1925 27.1789C41.911 26.4615 41.911 23.396 41.8457 21.1133H41.911Z" fill="#BEDCEE"/>
<mask id="mask0_1_614" style="mask-type:luminance" maskUnits="userSpaceOnUse" x="0" y="0" width="43" height="46">
<path d="M42.3033 0.894531H0.696533V45.7019H42.3033V0.894531Z" fill="white"/>
</mask>
<g mask="url(#mask0_1_614)">
<path d="M42.3026 20.722C42.3026 20.3306 42.3026 19.9393 42.3026 19.4828C42.3026 18.8958 42.3026 18.3088 42.3026 17.7218C42.3026 17.5261 42.1066 17.3304 41.9107 17.3304C38.4489 17.3304 34.8565 17.3304 31.3294 17.3304C27.6716 17.3304 23.9486 17.3304 20.4214 17.3304C16.8943 17.3304 20.0295 17.5261 20.0295 17.7218C20.0295 18.0479 20.0295 18.4392 20.0295 18.8305C20.0295 19.2219 20.0295 19.2219 20.0295 19.4175C20.0295 20.0045 20.0295 20.5915 20.0295 21.0481C20.0295 21.1785 20.0295 21.2437 20.1602 21.309C20.2255 21.3742 20.3561 21.4394 20.4214 21.4394H22.7728C25.9734 21.4394 29.3045 21.4394 32.5051 21.4394C35.7056 21.4394 38.9714 21.4394 42.0413 21.4394C45.1112 21.4394 42.2373 21.4394 42.3026 21.309C42.3679 21.2437 42.4332 21.1133 42.4332 20.9829C42.4332 20.8524 42.4332 20.722 42.4332 20.5915L42.3026 20.722ZM32.3091 20.722C28.3901 20.722 24.4058 20.722 20.6174 20.722C20.6174 20.3306 20.6174 19.9393 20.6174 19.4828C20.6174 19.2871 20.6174 19.0914 20.6174 18.8958C20.6174 18.7001 20.6174 18.4392 20.6174 18.2435C24.0139 18.2435 27.6063 18.2435 31.1334 18.2435C34.5299 18.2435 37.9917 18.2435 41.3228 18.2435C41.3228 18.7001 41.3228 19.1567 41.3228 19.6132C41.3228 20.0045 41.3228 20.4611 41.3228 20.8524C38.3183 20.8524 35.183 20.8524 32.1785 20.8524L32.3091 20.722Z" fill="#222222"/>
<path d="M1.15375 42.8322C1.3497 42.8322 1.54565 42.7017 1.61097 42.4408C2.00287 36.897 2.26414 31.8749 2.5254 26.5267C2.85199 20.135 3.17857 13.4824 3.76642 5.65576C3.76642 5.00354 3.89706 4.2861 4.22364 3.76433C4.48491 3.30777 5.07276 2.91644 5.59529 3.04689C6.11783 3.17733 6.44441 3.76433 6.70568 4.74265C7.29353 7.35152 7.42417 10.0908 6.96695 12.6997C6.96695 12.8954 7.09758 13.1563 7.29353 13.1563C7.48948 13.1563 7.75075 13.0258 7.75075 12.8301C8.40392 9.04729 9.5143 6.17753 11.1472 3.89477C12.4536 2.13378 13.6293 1.41634 14.6743 1.93812C15.6541 2.39467 16.046 3.11211 15.85 4.15566C15.7194 5.06876 14.8703 6.17753 14.2824 6.96019C14.0212 7.2863 13.7599 7.61241 13.6293 7.8733C11.8657 11.0692 11.5391 11.917 10.7553 14.3955C10.7553 14.5911 10.7553 14.7868 11.0166 14.9172C11.2125 14.9825 11.4085 14.9172 11.5391 14.7216C12.5842 12.5693 14.4784 10.8735 16.5032 10.2865C18.6587 9.63428 20.4222 9.43862 22.5124 10.3517C23.4268 10.7431 24.0146 11.1996 24.2106 11.7214C24.3412 12.0475 24.2759 12.4388 24.08 12.8301C23.7534 13.4824 23.2308 13.8085 22.447 13.8085C22.0551 13.8085 21.5979 13.8085 21.1407 13.678C20.6182 13.6128 20.0956 13.4824 19.6384 13.4824C17.6789 13.5476 15.1969 14.9825 14.3477 17.787C13.7599 19.8089 14.0212 24.7005 16.8298 27.3094C18.2014 28.6138 21.1407 28.5486 22.0551 28.4834C23.1002 28.4834 24.9291 28.4834 25.125 29.7878C25.321 31.027 24.3412 31.8097 23.6881 32.0053C21.0101 32.8532 18.8546 32.5923 16.1113 32.2662H15.7194C15.5888 32.2662 15.5235 32.2662 15.3928 32.2662C15.3275 32.3314 15.2622 32.4619 15.2622 32.5271C15.1315 34.1577 14.9356 35.6578 14.7396 37.4187C14.4784 39.5711 14.1518 42.0495 13.9558 45.3106C13.9558 45.5062 14.0865 45.7019 14.3477 45.7671C14.5437 45.7671 14.7396 45.6367 14.7396 45.3758C15.0009 42.1799 15.2622 39.7015 15.5235 37.5492C15.7194 35.9839 15.9154 34.549 15.9807 33.0489C18.7893 33.375 21.0101 33.6359 23.884 32.788C24.9944 32.4619 26.1048 31.2227 25.8435 29.6574C25.7129 28.8095 25.1903 28.2225 24.3412 27.8964C23.5574 27.6355 22.5777 27.5703 21.9245 27.6355C20.2916 27.7007 18.2668 27.505 17.3523 26.6572C14.8703 24.3092 14.5437 19.7437 15.1316 17.9174C15.85 15.5042 18.0055 14.3302 19.7037 14.1998C20.0956 14.1998 20.5528 14.1998 21.0101 14.3303C21.5326 14.3955 22.0551 14.5259 22.5124 14.5259C23.5574 14.5259 24.3412 14.0041 24.7984 13.091C25.125 12.504 25.1903 11.917 24.9944 11.33C24.7331 10.6126 24.0146 9.96039 22.8389 9.50384C20.5528 8.52551 18.5933 8.72118 16.3073 9.43862C14.9356 9.82995 13.6293 10.6778 12.5189 11.7866C12.9108 10.8735 13.4333 9.82995 14.3477 8.19941C14.4784 8.00374 14.6743 7.67763 14.9356 7.35152C15.5888 6.50364 16.4379 5.32965 16.6338 4.22088C16.8298 2.786 16.3073 1.67723 15.0009 1.09024C13.5639 0.438018 11.9963 1.22068 10.4287 3.30777C9.38367 4.67743 8.59987 6.3732 7.9467 8.26463C7.9467 6.96019 7.68543 5.72098 7.42417 4.41654C7.09758 3.04689 6.57505 2.32945 5.72593 2.13378C4.81149 1.8729 3.89706 2.52511 3.43984 3.24255C3.04794 3.95999 2.9173 4.80787 2.85199 5.52531C2.26414 13.3519 1.93755 20.0045 1.61097 26.3963C1.3497 31.7445 1.08843 36.8318 0.696533 42.3104C0.696533 42.506 0.827167 42.7017 1.08843 42.7669L1.15375 42.8322Z" fill="#222222"/>
</g>
</g>
<defs>
<clipPath id="clip0_1_614">
<rect width="41.6068" height="44.8073" fill="white" transform="translate(0.696533 0.894531)"/>
</clipPath>
</defs>
</svg>
