<svg width="64" height="90" viewBox="0 0 64 90" fill="none" xmlns="http://www.w3.org/2000/svg">
<g clip-path="url(#clip0_1_272)">
<mask id="mask0_1_272" style="mask-type:luminance" maskUnits="userSpaceOnUse" x="0" y="0" width="64" height="90">
<path d="M64 0H0V90H64V0Z" fill="white"/>
</mask>
<g mask="url(#mask0_1_272)">
<path d="M3.97735 43.1757C4.94157 42.6893 5.54421 41.3514 5.30315 40.2568C4.70052 37.946 1.68733 37.3379 0.48206 39.5271C-0.120576 40.5001 0.120478 41.8379 0.843642 42.6892C1.68733 43.5406 3.01313 43.6622 3.97735 43.1757Z" fill="#BEDCEE"/>
<path d="M32.9026 42.2027C38.5674 44.027 45.1964 41.7162 48.5712 36.8514C51.7049 32.3514 52.6691 26.1487 48.5712 19.946C46.7633 17.2703 43.7501 15.6892 40.4959 14.9595C39.0495 14.7162 37.6032 14.5946 36.1569 14.5946C36.3979 15.2027 36.5185 15.6892 36.5185 16.2973C36.5185 16.9054 36.2774 17.5135 35.7953 17.8784C35.1927 18.3649 34.2284 18.2433 33.5053 17.8784C32.7821 17.3919 32.3 16.6622 31.9384 16.0541C31.9384 16.0541 31.8179 15.8108 31.6974 15.6892C29.2868 16.7838 27.1173 18.4865 25.671 20.6757C23.9836 23.1081 23.0194 25.9054 23.0194 28.8243C23.0194 34.7838 27.2379 40.5 32.9026 42.2027ZM28.3226 27.6081C28.8047 26.3919 30.01 26.027 31.2153 25.9054C32.1795 25.9054 33.1437 25.9054 34.349 25.9054V23.2297C34.349 22.0135 34.7106 20.6757 35.7953 19.946C36.8801 19.2162 38.3264 19.5811 39.0495 20.5541C39.7727 21.527 39.8932 23.9595 39.8932 25.1757C39.8932 25.4189 39.8932 25.6622 39.8932 25.9054H42.5448C43.7501 25.9054 45.1964 26.2703 45.7991 27.3649C46.5222 28.4595 46.0401 29.9189 45.0759 30.6487C44.1117 31.3784 42.7859 31.5 41.4601 31.5C40.978 31.5 40.3753 31.5 39.7727 31.5C39.7727 32.8378 39.7727 35.1487 39.1701 36.3649C38.5674 37.4595 37.2416 38.0676 36.0364 37.7027C34.8311 37.2162 34.4695 36 34.349 34.7838C34.349 33.8108 34.349 32.8378 34.349 31.6216C33.0232 31.6216 30.7332 31.6216 29.6484 31.0135C28.5637 30.4054 27.8405 28.946 28.3226 27.8514V27.6081Z" fill="#BEDCEE"/>
<path d="M25.1906 89.8784C26.2754 89.6352 27.2396 89.0271 27.8422 88.0541C28.6859 86.8379 28.8065 85.1352 28.0833 83.7974C26.637 80.7568 22.298 80.2703 20.4901 83.1893C19.6464 84.6487 19.6464 86.5947 20.4901 88.0541C21.4543 89.5136 23.2622 90.2433 24.9496 89.8784H25.1906Z" fill="#BEDCEE"/>
<path d="M49.417 83.1891C48.3322 84.527 48.3322 86.7162 49.417 88.054C50.5017 89.3919 52.5507 89.8783 54.238 89.1486C55.8049 88.4189 56.8896 86.5945 56.6486 84.7702C56.1665 81 51.8275 80.3919 49.5375 83.0675L49.417 83.1891Z" fill="#BEDCEE"/>
<path d="M17.4758 58.0135C19.2837 58.0135 20.9711 58.0135 22.538 58.0135C22.6585 60.9324 22.8995 64.0946 23.0201 66.8919C21.4532 66.8919 19.8864 66.8919 18.199 66.8919C17.8374 66.8919 17.4758 67.2568 17.4758 67.6216C17.4758 67.9865 17.8374 68.3514 18.199 68.3514C19.8864 68.3514 21.5737 68.3514 23.1406 68.3514C23.1406 70.5406 23.2611 72.2433 23.3817 73.0946C23.3817 73.4595 23.7432 73.8243 24.1048 73.8243C24.4664 73.8243 24.828 73.4595 24.828 73.0946C24.828 72.2433 24.828 70.5406 24.5869 68.473C27.4796 68.473 30.1312 68.473 32.6623 68.473C32.6623 71.027 32.6623 73.2162 32.6623 74.5541C32.6623 74.9189 33.0238 75.2838 33.3854 75.2838C33.747 75.2838 34.1086 74.9189 34.1086 74.5541C34.1086 73.3378 34.1086 71.027 34.1086 68.473H37.4834C38.9297 68.473 40.4965 68.473 41.9429 68.473C41.9429 69.9324 41.9429 71.2703 41.8223 72.6081C41.8223 72.973 42.0634 73.3378 42.5455 73.3378C42.9071 73.3378 43.2687 72.973 43.2687 72.6081C43.2687 71.2703 43.2687 69.8108 43.3892 68.473C45.6792 68.473 48.2103 68.473 50.8619 68.473C50.8619 70.0541 50.6208 71.7568 50.6208 73.5811C50.6208 73.946 50.8619 74.3108 51.344 74.4324C51.7056 74.4324 52.0672 74.0676 52.0672 73.7027C52.0672 71.8784 52.3082 70.1757 52.3082 68.473H56.7677C57.1293 68.473 57.4909 68.1081 57.4909 67.7433C57.4909 67.3784 57.1293 67.0135 56.7677 67.0135H52.4287C52.4287 66.2838 52.4287 65.6757 52.5493 65.0676C52.6698 63.1216 52.7903 61.0541 52.9108 58.8649C54.1161 58.8649 55.3214 58.8649 56.6472 58.8649C57.0088 58.8649 57.3704 58.5 57.3704 58.1351C57.3704 57.7703 57.0088 57.4054 56.6472 57.4054C55.3214 57.4054 54.1161 57.4054 52.9108 57.4054C52.9108 55.7027 53.0314 53.8784 53.1519 51.9324C53.1519 51.5676 52.7903 51.2027 52.4287 51.2027C52.0672 51.2027 51.7056 51.5676 51.7056 51.9324C51.7056 54 51.585 55.8243 51.4645 57.4054C49.295 57.4054 47.2461 57.4054 45.1971 57.2838C44.715 57.2838 44.2329 57.2838 43.7508 57.2838C43.7508 55.3378 43.8713 53.3919 43.9918 51.5676C43.9918 51.2027 43.7508 50.8378 43.2687 50.8378C42.9071 50.8378 42.5455 51.0811 42.5455 51.5676C42.5455 53.3919 42.425 55.3378 42.3044 57.2838C39.4118 57.2838 36.6397 57.1622 33.9881 57.0406C33.9881 54.7297 33.9881 52.7838 33.9881 51.3243C33.9881 50.9595 33.6265 50.5946 33.2649 50.5946C32.9033 50.5946 32.5417 50.9595 32.5417 51.3243C32.5417 52.6622 32.5417 54.6081 32.5417 56.9189C29.6491 56.9189 26.8769 56.9189 23.8638 56.7973C23.7432 54.3649 23.6227 52.4189 23.5022 51.3243C23.5022 50.9595 23.1406 50.5946 22.6585 50.5946C22.2969 50.5946 21.9353 50.9595 21.9353 51.446C21.9353 52.5406 22.1764 54.4865 22.2969 56.7973C20.7301 56.7973 19.0427 56.7973 17.2348 56.7973C16.8732 56.7973 16.5116 57.1622 16.5116 57.527C16.5116 57.8919 16.8732 58.2568 17.2348 58.2568L17.4758 58.0135ZM45.3176 58.3784C47.3666 58.3784 49.4156 58.5 51.585 58.5C51.4645 60.6892 51.344 62.6351 51.2235 64.7027C51.2235 65.4324 51.2235 66.0406 51.1029 66.7703C48.4513 66.7703 46.0408 66.7703 43.6302 66.7703C43.6302 65.0676 43.6302 63.3649 43.7508 61.7838C43.7508 60.6892 43.7508 59.473 43.7508 58.3784C44.2329 58.3784 44.715 58.3784 45.1971 58.3784H45.3176ZM42.425 58.3784C42.425 59.473 42.425 60.6892 42.425 61.7838C42.425 63.4865 42.425 65.1892 42.3044 66.8919C40.7376 66.8919 39.2913 66.8919 37.7244 66.8919H34.3496C34.3496 64.0946 34.3496 61.0541 34.3496 58.2568C37.0012 58.2568 39.7734 58.3784 42.5455 58.5L42.425 58.3784ZM32.6623 58.1351C32.6623 60.9324 32.6623 64.0946 32.6623 66.8919C30.1312 66.8919 27.4796 66.8919 24.4664 66.8919C24.3459 64.0946 24.2253 60.9324 23.9843 58.0135C26.8769 58.0135 29.7696 58.0135 32.5417 58.1351H32.6623Z" fill="#222222"/>
<path d="M4.94292 41.8379C8.55874 42.3244 10.6077 43.9054 11.0898 46.5811C11.5719 50.473 12.054 54.8514 12.4156 59.2298C12.8977 63.4865 13.2593 67.9865 13.7414 71.8784C13.9825 73.7027 14.2235 76.1352 15.7904 77.5946C17.2367 78.9325 19.2857 78.9325 21.2141 78.9325H21.4552C25.1915 78.9325 28.5663 78.9325 31.8205 78.9325C34.7132 78.9325 37.4853 78.9325 40.4985 78.9325C44.7169 78.9325 49.0559 78.9325 54.1181 78.9325C57.0107 78.9325 58.8186 78.3244 59.9034 76.8649C60.8676 75.6487 61.1087 73.946 61.3497 71.8784C61.3497 71.6352 61.3497 71.5135 61.3497 71.2703C62.4345 63.4865 62.6755 60.9325 63.2781 55.5811C63.5192 53.6352 63.7603 51.446 64.0013 48.6487C64.0013 48.4054 64.0013 48.2838 63.8808 48.0406C63.7603 47.919 63.5192 47.7973 63.3987 47.7973L12.6567 45.7298C12.1746 43.5406 10.3667 40.9865 5.30451 40.3784C4.94292 40.3784 4.46082 40.6217 4.46082 40.9865C4.46082 41.3514 4.70187 41.7163 5.06345 41.8379H4.94292ZM62.4345 49.1352C62.1934 51.5676 61.9523 53.5136 61.7113 55.3379C61.1087 60.6892 60.8676 63.3649 59.7829 71.0271C59.7829 71.2703 59.7829 71.5136 59.7829 71.6352C59.5418 73.4595 59.4213 74.919 58.5776 75.8919C58.0955 76.5 57.1312 77.3514 53.9975 77.3514C45.5606 77.3514 38.8111 77.3514 31.8205 77.3514C28.6868 77.3514 25.312 77.3514 21.6962 77.3514H21.2141C19.6473 77.3514 17.9599 77.3514 16.8751 76.3784C15.7904 75.4054 15.5493 73.2163 15.3083 71.6352C14.8262 67.7433 14.3441 63.3649 13.9825 58.9865C13.6209 54.973 13.1388 50.8379 12.7772 47.1892L62.4345 49.2568V49.1352Z" fill="#222222"/>
</g>
<path d="M30.1314 1.45944C34.9525 5.35133 38.6888 11.7973 39.7736 15.2027C39.7736 15.5675 40.1352 15.6892 40.4967 15.6892C40.8583 15.6892 40.6173 15.6892 40.7378 15.6892C41.0994 15.5675 41.3404 15.0811 41.2199 14.7162C40.1352 11.4324 36.3988 4.6216 31.0956 0.243223C30.734 -1.97925e-05 30.2519 -1.97925e-05 30.0109 0.243223C29.7698 0.608088 29.7698 1.09457 30.0109 1.33782L30.1314 1.45944Z" fill="#222222"/>
<path d="M18.6822 10.9459C21.6954 13.6216 23.3827 17.1486 24.9496 20.9189C24.9496 21.1621 25.3112 21.4054 25.6728 21.4054C26.0343 21.4054 25.9138 21.4054 25.9138 21.4054C26.2754 21.2838 26.5165 20.7973 26.2754 20.4324C24.588 16.5405 22.9006 12.7703 19.6464 9.97296C19.2848 9.72972 18.8027 9.72972 18.5617 9.97296C18.3206 10.3378 18.3206 10.7027 18.5617 11.0676L18.6822 10.9459Z" fill="#222222"/>
<path d="M29.2896 13.5C30.0128 14.1081 30.3743 14.7162 30.7359 15.446C30.8565 15.8108 31.0975 16.0541 31.3386 16.4189C31.8207 17.1487 32.3028 17.8784 33.1465 18.4865C33.6286 18.8514 34.2312 18.973 34.8339 18.973C35.4365 18.973 35.7981 18.8514 36.2802 18.4865C36.8828 18 37.2444 17.2703 37.3649 16.2973C37.3649 15.5676 37.1239 14.8379 37.0033 14.2297V13.9865C36.2802 12.4054 35.6775 10.5811 33.9902 9.12164C33.7491 8.8784 33.267 8.8784 32.9054 9.12164C32.6644 9.36488 32.6644 9.85137 32.9054 10.2162C34.2312 11.4325 34.8339 13.0135 35.4365 14.473V14.7162C35.6775 15.2027 35.9186 15.6892 35.9186 16.1757C35.9186 16.5406 35.7981 17.027 35.4365 17.1487C35.0749 17.3919 34.3517 17.2703 33.9902 17.027C33.3875 16.6622 33.0259 16.0541 32.5438 15.446C32.3028 15.2027 32.1823 14.8379 32.0617 14.5946C31.7001 13.8649 31.218 13.0135 30.2538 12.2838C29.8922 12.0406 29.4101 12.0406 29.1691 12.2838C28.928 12.6487 28.928 13.1352 29.1691 13.3784L29.2896 13.5Z" fill="#222222"/>
<path d="M29.1684 31.4999C30.2532 32.1081 31.9405 32.2297 33.6279 32.2297C33.6279 33.081 33.6279 33.9324 33.6279 34.6621C33.6279 36.4864 34.3511 37.8243 35.6769 38.3108C36.0385 38.4324 36.4001 38.554 36.7616 38.554C37.9669 38.554 39.1722 37.8243 39.7748 36.7297C40.3775 35.6351 40.498 33.9324 40.498 32.3513C40.8596 32.3513 41.2212 32.3513 41.4622 32.3513C42.788 32.3513 44.2343 32.2297 45.4396 31.3783C46.8859 30.4053 47.2475 28.4594 46.4038 27.1216C45.5601 25.9053 43.8728 25.4189 42.4264 25.4189H40.498C40.498 23.4729 40.2569 21.527 39.5338 20.4324C38.5695 19.0945 36.6411 18.7297 35.3153 19.581C34.4716 20.1891 33.6279 21.4053 33.6279 23.4729V25.4189C32.7842 25.4189 31.9405 25.4189 31.3379 25.4189C29.53 25.4189 28.2042 26.1486 27.7221 27.4864C27.1195 28.9459 27.7221 30.7702 29.2889 31.6216L29.1684 31.4999ZM29.0479 27.8513C29.4095 26.7567 30.7353 26.6351 31.3379 26.6351C32.3021 26.6351 33.2663 26.6351 34.4716 26.6351C34.8332 26.6351 35.1948 26.2702 35.1948 25.9053V23.2297C35.1948 22.3783 35.4358 21.1621 36.2795 20.6756C36.5206 20.554 36.8822 20.4324 37.1232 20.4324C37.6053 20.4324 38.208 20.6756 38.449 21.1621C39.0517 22.0135 39.1722 24.4459 39.1722 25.4189C39.1722 25.6621 39.1722 25.9053 39.1722 26.027C39.1722 26.3918 39.5338 26.7567 39.8953 26.7567H42.5469C43.5112 26.7567 44.7164 27.1216 45.1985 27.8513C45.6807 28.4594 45.4396 29.554 44.7164 30.0405C43.8727 30.6486 42.6675 30.7702 41.5827 30.7702C41.1006 30.7702 40.498 30.7702 39.8953 30.7702C39.5338 30.7702 39.1722 31.1351 39.1722 31.4999C39.1722 32.7162 39.1722 35.027 38.5695 35.9999C38.0874 36.8513 37.1232 37.2162 36.2795 36.9729C35.1948 36.6081 35.0743 35.2702 35.0743 34.6621C35.0743 33.6891 35.0743 32.7162 35.0743 31.4999C35.0743 31.1351 34.7127 30.7702 34.3511 30.7702C33.2663 30.7702 30.9763 30.7702 30.0121 30.1621C29.1684 29.6756 28.8068 28.7026 29.0479 27.8513Z" fill="#222222"/>
</g>
<defs>
<clipPath id="clip0_1_272">
<rect width="64" height="90" fill="white"/>
</clipPath>
</defs>
</svg>
