<svg width="82" height="82" viewBox="0 0 82 82" fill="none" xmlns="http://www.w3.org/2000/svg">
<g clip-path="url(#clip0_1_346)">
<mask id="mask0_1_346" style="mask-type:luminance" maskUnits="userSpaceOnUse" x="0" y="0" width="82" height="82">
<path d="M82 0.5H0V81.5H82V0.5Z" fill="white"/>
</mask>
<g mask="url(#mask0_1_346)">
<path d="M30.4477 10.7009C34.8146 13.3726 34.572 13.494 33.7229 16.2871C32.8737 19.2017 31.4181 21.7519 33.4803 22.4805C34.9359 22.9663 39.7879 17.623 41.001 17.7444C42.6992 17.7444 46.5808 24.1807 49.1282 22.2377C50.3412 20.0518 46.8235 15.1942 47.3087 13.9798C47.7939 12.8868 50.0986 11.4296 51.6755 10.2152C52.7672 9.24366 53.1311 7.05775 50.7051 7.05775C47.1874 7.17919 45.3678 7.66495 44.3974 5.9648C43.427 4.38609 42.9418 2.92882 41.9714 1.35011C41.4862 0.257153 40.2732 0.135713 39.6666 1.35011C38.8175 3.29313 38.5749 4.02177 38.0897 5.23616C37.8471 5.72192 37.1193 7.30063 35.785 7.30063C33.2377 7.30063 33.359 7.30063 30.8116 7.30063C28.6282 7.30063 28.6282 9.3651 30.8116 10.7009H30.4477Z" fill="#BEDCEE"/>
<path d="M13.8284 27.8239C15.5266 27.4596 20.6213 32.8029 22.6834 30.3741C23.4112 27.9454 18.8018 24.0593 19.0444 22.8449C19.287 21.6305 21.2278 19.6875 22.4408 18.2302C23.2899 17.0158 23.1686 14.8299 20.7426 15.4371C17.3462 16.4086 15.6479 17.2587 14.3136 15.8014C12.9793 14.4656 12.2515 13.1298 10.9172 11.7939C10.1894 10.8224 8.97633 10.9439 8.73373 12.4011C8.36982 14.4656 8.24852 15.1942 8.00592 16.5301C8.00592 17.1373 7.52071 18.716 6.30769 19.0803C3.88166 19.6875 3.88166 19.566 1.45562 20.1732C-0.606508 20.659 -0.121301 22.7235 2.18343 23.4521C7.0355 25.1523 6.9142 25.2737 6.6716 28.0668C6.429 31.2242 5.70118 33.8959 7.76332 34.1388C9.34024 34.3816 12.858 28.0668 13.9497 27.8239H13.8284Z" fill="#BEDCEE"/>
<path d="M80.4239 19.566C77.0274 18.8374 75.0866 18.8374 74.4801 17.0158C73.8736 15.1942 73.8736 13.7369 73.2671 11.9154C73.0245 10.701 71.9328 10.3366 71.0836 11.4296C69.7493 13.1297 69.3854 13.7369 68.5363 14.8299C68.1724 15.3157 67.0807 16.6515 65.8677 16.2872C63.4416 15.68 63.4416 15.68 61.0156 15.0728C58.9535 14.587 58.4683 16.53 60.1665 18.3516C63.6842 22.1163 63.5629 22.1163 61.986 24.545C60.4091 27.2167 58.347 29.2812 60.1665 30.4956C61.5008 31.3456 67.4446 27.3381 68.5363 27.7025C70.2345 28.1882 72.2967 35.2317 75.3292 34.0173C77.0274 32.1957 74.7227 26.6095 75.4505 25.638C76.1783 24.6665 78.847 23.8164 80.5452 23.0878C81.8795 22.4806 82.7286 20.2947 80.3026 19.8089L80.4239 19.566Z" fill="#BEDCEE"/>
</g>
<path d="M16.8609 57.455C21.713 56.6049 23.2899 56.1192 26.6864 54.9048C30.6893 53.4475 33.8432 50.6544 34.9349 47.2541C35.2988 46.0397 35.5414 44.7039 35.784 43.3681C36.0266 42.0322 36.2692 40.575 36.6331 39.3606C37.1183 37.9033 37.8462 36.9318 38.574 36.5675C39.1805 36.3246 39.787 36.3246 40.6361 36.5675C41.7278 36.9318 42.6982 38.9962 42.213 41.9108C41.8491 44.3396 41.3639 47.2541 42.3343 49.3186C43.426 51.5045 46.9438 51.9902 49.1272 51.6259C50.3402 51.5045 51.1894 51.1402 52.1598 50.8973C52.8876 50.6544 53.7367 50.4115 54.7071 50.2901C57.1331 49.8043 58.8314 50.1687 59.8018 51.2616C60.8935 52.5974 60.6509 54.419 59.4379 55.3905C59.1953 55.6334 59.074 55.8763 59.1953 56.1192C59.1953 56.3621 59.5592 56.6049 59.8018 56.6049C61.1361 56.7264 62.3491 58.4265 62.3491 60.0052C62.3491 61.3411 61.0148 62.6769 59.6805 62.7983C59.6805 62.7983 59.6805 62.7983 59.5592 62.7983C59.1953 62.7983 58.8314 63.1627 58.9527 63.6484C58.9527 64.0127 59.3166 64.3771 59.8018 64.3771C59.8018 64.3771 59.8018 64.3771 59.9231 64.3771C60.287 64.3771 60.7722 64.4985 61.1361 64.8628C61.6213 65.3486 61.9852 65.9558 61.9852 66.563C61.9852 67.7774 61.2574 69.1132 60.1657 69.7204C56.5266 71.7849 33.8432 77.1282 20.5 79.557C20.1361 79.557 19.7722 80.0427 19.8935 80.407C19.8935 80.7714 20.2574 81.0142 20.6213 81.0142C20.9852 81.0142 20.6213 81.0142 20.7426 81.0142C27.4142 79.7999 36.5118 77.7354 43.7899 76.0352C50.2189 74.4565 58.4675 72.2706 60.7722 70.9348C62.3491 69.9633 63.4408 68.1417 63.4408 66.4415C63.4408 65.3486 62.9556 64.3771 62.1065 63.6484C62.1065 63.6484 62.1065 63.6484 61.9852 63.6484C63.0769 62.7983 63.926 61.584 63.926 60.1267C63.926 58.4265 62.9556 56.3621 61.2574 55.512C62.3491 53.9333 62.3491 51.7474 61.0148 50.1687C59.6805 48.59 57.497 48.1042 54.4645 48.5899C53.4941 48.8328 52.645 49.0757 51.7959 49.3186C50.9467 49.5615 50.0976 49.8043 49.0059 50.0472C48.0355 50.1687 46.8225 50.0472 45.8521 49.9258C44.7604 49.6829 44.1538 49.1971 43.7899 48.5899C42.9408 46.8898 43.426 44.3396 43.7899 42.2751C44.2751 39.482 43.6686 36.0817 41.2426 35.2316C40.0296 34.7459 38.9379 34.7459 37.9675 35.2316C36.7544 35.8388 35.784 37.0532 35.1775 38.8748C34.6923 40.0892 34.4497 41.6679 34.2071 43.1252C33.9645 44.461 33.7219 45.6754 33.4793 46.7684C32.5089 49.6829 29.8402 52.1117 26.2012 53.4475C22.6834 54.6619 21.2278 55.1477 16.6183 55.8763C16.2544 55.8763 15.8905 56.3621 16.0118 56.7264C16.0118 57.0907 16.497 57.455 16.8609 57.3336V57.455Z" fill="#222222"/>
</g>
<defs>
<clipPath id="clip0_1_346">
<rect width="82" height="81" fill="white" transform="translate(0 0.5)"/>
</clipPath>
</defs>
</svg>
