<svg width="121" height="17" viewBox="0 0 121 17" fill="none" xmlns="http://www.w3.org/2000/svg">
<path d="M93.7533 4.00884C91.503 4.00884 89.6879 5.82394 89.6879 8.07424C89.6879 10.3245 91.503 12.1396 93.7533 12.1396C96.0036 12.1396 97.8187 10.3245 97.8187 8.07424C97.8187 5.82394 96.0036 4.00884 93.7533 4.00884ZM93.7533 10.7173C92.2991 10.7173 91.1103 9.53198 91.1103 8.07424C91.1103 6.6165 92.2956 5.4312 93.7533 5.4312C95.2111 5.4312 96.3964 6.6165 96.3964 8.07424C96.3964 9.53198 95.2075 10.7173 93.7533 10.7173ZM98.9333 3.84254C98.9333 4.36973 98.5087 4.79078 97.985 4.79078C97.4578 4.79078 97.0368 4.3662 97.0368 3.84254C97.0368 3.31889 97.4614 2.8943 97.985 2.8943C98.5087 2.8943 98.9333 3.31889 98.9333 3.84254ZM101.626 4.80493C101.566 3.53472 101.276 2.40957 100.345 1.48256C99.418 0.555544 98.2928 0.265411 97.0226 0.201723C95.7135 0.12742 91.7896 0.12742 90.4805 0.201723C89.2138 0.261873 88.0886 0.552006 87.1581 1.47902C86.2275 2.40603 85.9409 3.53118 85.8773 4.8014C85.803 6.11053 85.803 10.0344 85.8773 11.3435C85.9374 12.6138 86.2275 13.7389 87.1581 14.6659C88.0886 15.5929 89.2103 15.8831 90.4805 15.9468C91.7896 16.0211 95.7135 16.0211 97.0226 15.9468C98.2928 15.8866 99.418 15.5965 100.345 14.6659C101.272 13.7389 101.562 12.6138 101.626 11.3435C101.7 10.0344 101.7 6.11407 101.626 4.80493ZM99.9346 12.7482C99.6586 13.4417 99.1243 13.976 98.4273 14.2555C97.3835 14.6695 94.9068 14.5739 93.7533 14.5739C92.5999 14.5739 90.1196 14.6659 89.0793 14.2555C88.3859 13.9795 87.8516 13.4452 87.5721 12.7482C87.1581 11.7044 87.2536 9.2277 87.2536 8.07424C87.2536 6.92078 87.1616 4.4405 87.5721 3.40026C87.848 2.70678 88.3823 2.17251 89.0793 1.89299C90.1231 1.47902 92.5999 1.57455 93.7533 1.57455C94.9068 1.57455 97.3871 1.48256 98.4273 1.89299C99.1208 2.16897 99.6551 2.70324 99.9346 3.40026C100.349 4.44404 100.253 6.92078 100.253 8.07424C100.253 9.2277 100.349 11.708 99.9346 12.7482Z" fill="white"/>
<g clip-path="url(#clip0_1_902)">
<path d="M62.0113 6.97577L67.3559 0.896973H66.0898L61.4471 6.17403L57.7418 0.896973H53.467L59.0715 8.87758L53.467 15.2514H54.7331L59.6327 9.67741L63.5467 15.2514H67.8215M55.1901 1.83114H57.1351L66.0889 14.3631H64.1434" fill="white"/>
</g>
<path d="M32.3181 3.74234C32.2159 3.68953 32.1164 3.63163 32.02 3.56887C31.7397 3.38355 31.4827 3.1652 31.2546 2.9185C30.6837 2.2653 30.4705 1.60263 30.3919 1.13867H30.3951C30.3295 0.753564 30.3566 0.504395 30.3607 0.504395H27.7605V10.5589C27.7605 10.6939 27.7605 10.8273 27.7548 10.9591C27.7548 10.9755 27.7533 10.9907 27.7523 11.0083C27.7523 11.0156 27.7523 11.0231 27.7507 11.0307C27.7507 11.0326 27.7507 11.0345 27.7507 11.0364C27.7233 11.3971 27.6077 11.7456 27.414 12.0512C27.2203 12.3568 26.9544 12.6101 26.6399 12.7888C26.312 12.9753 25.9412 13.0731 25.564 13.0726C24.3526 13.0726 23.3707 12.0848 23.3707 10.8648C23.3707 9.64483 24.3526 8.65698 25.564 8.65698C25.7934 8.65677 26.0213 8.69285 26.2393 8.7639L26.2425 6.11639C25.5805 6.03089 24.9081 6.0835 24.2675 6.27089C23.6269 6.45829 23.0322 6.7764 22.5207 7.20517C22.0725 7.59457 21.6957 8.05919 21.4073 8.57813C21.2975 8.76737 20.8834 9.52781 20.8333 10.762C20.8017 11.4625 21.0121 12.1883 21.1124 12.4882V12.4945C21.1755 12.6711 21.4199 13.2739 21.8183 13.782C22.1395 14.1896 22.519 14.5476 22.9446 14.8446V14.8383L22.9509 14.8446C24.2097 15.7 25.6053 15.6438 25.6053 15.6438C25.8469 15.6341 26.6563 15.6438 27.5754 15.2083C28.5948 14.7254 29.1751 14.0059 29.1751 14.0059C29.5459 13.5761 29.8407 13.0862 30.0469 12.5573C30.2822 11.9388 30.3607 11.1969 30.3607 10.9005V5.56633C30.3922 5.58525 30.8124 5.86312 30.8124 5.86312C30.8124 5.86312 31.4176 6.25107 32.3619 6.50371C33.0394 6.68349 33.9522 6.72134 33.9522 6.72134V4.14007C33.6324 4.17476 32.983 4.07383 32.3181 3.74234Z" fill="white"/>
<defs>
<clipPath id="clip0_1_902">
<rect width="14.3544" height="14.3544" fill="white" transform="translate(53.467 0.896973)"/>
</clipPath>
</defs>
</svg>
