<svg width="18" height="33" viewBox="0 0 18 33" fill="none" xmlns="http://www.w3.org/2000/svg">
<path fill-rule="evenodd" clip-rule="evenodd" d="M17.5617 2.56195L3.62165 16.5L17.5617 30.438C17.7011 30.5774 17.8116 30.7428 17.887 30.9249C17.9625 31.107 18.0013 31.3022 18.0013 31.4992C18.0013 31.6963 17.9625 31.8915 17.887 32.0736C17.8116 32.2556 17.7011 32.4211 17.5617 32.5604C17.4223 32.6998 17.2569 32.8103 17.0748 32.8858C16.8927 32.9612 16.6976 33 16.5005 33C16.3034 33 16.1083 32.9612 15.9262 32.8858C15.7441 32.8103 15.5786 32.6998 15.4393 32.5604L0.439912 17.5612C0.300453 17.4219 0.189819 17.2565 0.114336 17.0744C0.0388524 16.8923 0 16.6971 0 16.5C0 16.3029 0.0388524 16.1077 0.114336 15.9256C0.189819 15.7435 0.300453 15.5781 0.439912 15.4388L15.4393 0.439562C15.7207 0.158115 16.1025 0 16.5005 0C16.8985 0 17.2803 0.158115 17.5617 0.439562C17.8432 0.721009 18.0013 1.10273 18.0013 1.50076C18.0013 1.89878 17.8432 2.28051 17.5617 2.56195Z" fill="#2F478A"/>
</svg>
