<svg width="38" height="34" viewBox="0 0 38 34" fill="none" xmlns="http://www.w3.org/2000/svg">
<path d="M28.0751 33.1833C27.5602 33.1833 27.0821 32.8548 26.8982 32.3802L22.5954 21.466H4.35416C3.72895 21.466 3.1773 20.9914 3.10374 20.3709L0.970703 1.09756L3.47151 0.842041L5.49422 18.9838H23.4412C23.9561 18.9838 24.4342 19.3123 24.6181 19.7869L28.0383 28.4745L34.5845 11.2453H14.7252C14.0264 11.2453 13.4748 10.6977 13.4748 10.0042V0.988049H15.9756V8.72659H36.3866C36.7911 8.72659 37.1957 8.9091 37.4163 9.27413C37.637 9.60265 37.7105 10.0407 37.5634 10.4057L29.2151 32.3802C29.0313 32.8548 28.5532 33.1833 28.0383 33.1833H28.0751Z" fill="#2F478A"/>
</svg>
