<svg width="63" height="56" viewBox="0 0 63 56" fill="none" xmlns="http://www.w3.org/2000/svg">
<path d="M61.6659 2.59248C60.7097 1.38789 59.3122 0.65784 57.8043 0.621338C57.7308 0.621338 57.6572 0.621338 57.5469 0.621338H55.3035L8.04556 0.876857H6.09641C5.91252 0.876857 5.72864 0.876857 5.54476 0.913359C4.07369 1.09587 2.78652 1.82592 1.90388 3.03051C0.910915 4.4176 0.65347 6.09672 1.20512 7.70283L3.48527 14.3463L6.28029 22.5229L8.45012 21.1723L6.09641 14.3098L3.55883 6.86327C3.3014 6.02371 3.41173 5.14765 3.9266 4.4541C4.44147 3.72405 5.25056 3.35903 6.13319 3.32253L57.5469 3.06701C58.3928 3.06701 59.1651 3.43203 59.6799 4.08908C60.1948 4.74613 60.3787 5.62219 60.158 6.42524L58.025 14.3463L56.1494 21.2088L48.1321 50.8853C47.8011 52.0534 46.7346 52.8565 45.5209 52.8565L21.2851 52.9295C20.1083 52.9295 19.0786 52.1994 18.7476 51.1044L12.1278 31.7945L11.9439 31.2835L9.14886 23.1069L6.94226 24.4575L9.33274 31.393L9.47986 31.831L13.5988 43.9134L14.7021 47.0891L16.3571 51.9074C17.0558 54.0246 19.0418 55.4117 21.2851 55.4117H28.1992H31.6929H41.5123H44.0131H45.5577C47.9114 55.4117 49.9709 53.8055 50.5961 51.5789L62.5853 7.11879C63.0266 5.54918 62.6956 3.90657 61.6659 2.62898V2.59248Z" fill="#2F478A"/>
</svg>
