<svg width="16" height="16" viewBox="0 0 16 16" fill="none" xmlns="http://www.w3.org/2000/svg">
<path d="M5.72895 15.0473C5.72895 15.0473 5.72896 15.0473 5.71517 15.0473C5.57732 15.0473 5.43946 14.9789 5.35675 14.8558L0.394076 8.21979C0.270009 8.0556 0.270009 7.85036 0.394076 7.68617C0.504357 7.52198 0.711137 7.43989 0.90413 7.49462L4.87427 8.47976L9.49231 0.256592L10.3194 0.708112L5.52217 9.24597C5.42568 9.42385 5.20512 9.51962 4.99834 9.46489L1.96559 8.71236L5.7841 13.8296L14.4274 3.74562L15.1442 4.34765L6.11494 14.8832C6.03223 14.9926 5.89438 15.0473 5.75652 15.0473H5.72895Z" fill="#2F478A"/>
</svg>
