<svg width="16" height="16" viewBox="0 0 16 16" fill="none" xmlns="http://www.w3.org/2000/svg">
<path d="M5.72993 15.1159C5.72993 15.1159 5.71614 15.1159 5.70236 15.1159C5.55072 15.1159 5.3853 15.0338 5.2888 14.8969L0.326126 8.26093C0.188274 8.08306 0.188277 7.82309 0.312344 7.63154C0.436411 7.43999 0.670758 7.34421 0.905106 7.41262L4.80632 8.38408L9.43815 0.133545L10.3893 0.653479L10.348 0.721892L5.55072 9.25975C5.42666 9.47867 5.17852 9.58813 4.94417 9.51972L2.10442 8.82192L5.74372 13.6929L14.387 3.62258L15.2142 4.32038L6.1297 14.9106C6.01942 15.0338 5.86778 15.1022 5.71615 15.1022L5.72993 15.1159ZM0.767254 7.54944C0.643187 7.54944 0.519125 7.61786 0.436414 7.72732C0.339918 7.86414 0.353703 8.04201 0.436414 8.17884L5.39909 14.8148C5.46802 14.9106 5.57829 14.9653 5.70236 14.979C5.81264 14.979 5.92292 14.9243 6.00563 14.8422L14.9936 4.36143L14.387 3.85518L5.72993 13.9528L1.71844 8.58931L4.95796 9.39658C5.13717 9.43763 5.31638 9.36921 5.39909 9.20502L10.155 0.721892L9.46573 0.338782L4.86146 8.54827L0.83618 7.54944C0.80861 7.54944 0.767252 7.54944 0.739682 7.54944H0.767254Z" fill="#2F478A"/>
</svg>
