<svg width="38" height="34" viewBox="0 0 38 34" fill="none" xmlns="http://www.w3.org/2000/svg">
<path d="M28.0755 33.4025C27.4871 33.4025 26.9354 33.0374 26.7147 32.4899L22.4854 21.7216H4.39134C3.6558 21.7216 3.03061 21.1741 2.95706 20.444L0.787231 0.988189L3.69259 0.659668L5.71531 18.8379H23.4784C24.0668 18.8379 24.6185 19.203 24.8391 19.7505L28.0755 27.9636L34.3643 11.4644H14.7991C13.99 11.4644 13.328 10.8074 13.328 10.0043V0.805681H16.2334V8.54422H36.4606C36.9386 8.54422 37.38 8.76324 37.6742 9.16477C37.9684 9.56629 38.0052 10.0408 37.8213 10.4788L29.473 32.4534C29.2523 33.0009 28.7375 33.3659 28.1123 33.4025H28.0755ZM1.22856 1.28022L3.32483 20.3345C3.39838 20.8821 3.8397 21.2836 4.35457 21.2836H22.7061L27.0457 32.3074C27.1929 32.7089 27.5974 32.9644 28.0387 32.9644C28.48 32.9644 28.8478 32.7089 29.0317 32.2709L37.38 10.2963C37.4903 9.96781 37.4535 9.6028 37.2696 9.34728C37.0858 9.05526 36.7548 8.90924 36.387 8.90924H15.7553V1.1707H13.659V9.96782C13.659 10.5519 14.1372 11.0264 14.7256 11.0264H34.8792L28.0387 29.0221L24.4346 19.86C24.2875 19.4585 23.8829 19.203 23.4416 19.203H5.31075L3.28804 1.0612L1.19177 1.28022H1.22856Z" fill="#2F478A"/>
</svg>
