<svg width="24" height="14" viewBox="0 0 24 14" fill="none" xmlns="http://www.w3.org/2000/svg">
<path fill-rule="evenodd" clip-rule="evenodd" d="M22.1368 0.569951L12 10.8314L1.86324 0.569951C1.76189 0.467366 1.64157 0.385992 1.50915 0.330474C1.37672 0.274956 1.23479 0.246381 1.09146 0.246381C0.94813 0.246381 0.806198 0.274956 0.673777 0.330474C0.541355 0.385992 0.421032 0.467366 0.319679 0.569951C0.218328 0.672536 0.137936 0.794321 0.0830841 0.928352C0.0282326 1.06238 0 1.20604 0 1.35112C0 1.49619 0.0282326 1.63985 0.0830841 1.77388C0.137936 1.90791 0.218328 2.0297 0.319679 2.13228L11.2282 13.1735C11.3295 13.2761 11.4498 13.3576 11.5823 13.4132C11.7147 13.4687 11.8566 13.4973 12 13.4973C12.1434 13.4973 12.2853 13.4687 12.4177 13.4132C12.5502 13.3576 12.6705 13.2761 12.7718 13.1735L23.6803 2.13228C23.885 1.92511 24 1.64411 24 1.35112C24 1.05812 23.885 0.777129 23.6803 0.569951C23.4756 0.362772 23.198 0.246381 22.9085 0.246381C22.6191 0.246381 22.3414 0.362772 22.1368 0.569951Z" fill="#2F478A" fill-opacity="0.5"/>
</svg>
