<svg width="24" height="22" viewBox="0 0 24 22" fill="none" xmlns="http://www.w3.org/2000/svg">
<path d="M8.31764 21.676C7.44918 21.676 6.67721 21.1287 6.4015 20.3077L2.85871 9.96376L3.80989 9.37541L7.4354 19.952C7.55946 20.3351 7.91787 20.5814 8.31764 20.5814L17.4021 20.554C17.8294 20.554 18.2016 20.2667 18.3119 19.8699L22.0201 6.16003L22.8197 3.19094C22.8886 2.9036 22.8197 2.60259 22.6543 2.38367C22.475 2.15107 22.2131 2.02793 21.9099 2.02793L2.62436 2.1237C2.32108 2.1237 2.04538 2.27421 1.86617 2.5205C1.68696 2.76678 1.64561 3.06779 1.74211 3.36881L3.58932 8.78707L2.63815 9.37541L0.694426 3.72455C0.487648 3.10884 0.584145 2.4384 0.97013 1.90478C1.30098 1.43958 1.81103 1.13857 2.37622 1.07015C2.44515 1.07015 2.52786 1.05647 2.59678 1.05647H3.32741L21.0414 0.960693H21.8961C21.9236 0.960693 21.965 0.960693 21.9926 0.960693C22.5853 0.988058 23.123 1.27539 23.4952 1.72691C23.8811 2.21948 24.019 2.86256 23.8536 3.47827L19.3596 20.1435C19.1252 21.0192 18.3119 21.6212 17.4021 21.6349H10.8955C10.8955 21.6486 9.6686 21.6623 9.6686 21.6623H8.31764V21.676ZM5.9328 18.4606L6.53936 20.253C6.80128 21.0055 7.50432 21.5254 8.31764 21.5254H10.9093L17.4159 21.4981C18.2568 21.4981 19.0012 20.9234 19.2217 20.1162L23.7157 3.4509C23.8674 2.87624 23.7571 2.28789 23.3849 1.82269C23.054 1.38485 22.544 1.12488 21.9926 1.1112H21.9788C21.9512 1.1112 21.9374 1.1112 21.9099 1.1112H21.069L3.35497 1.20698H2.62436C2.55543 1.20698 2.4865 1.20698 2.41758 1.22066C1.87995 1.27539 1.41126 1.54904 1.10798 1.98688C0.749567 2.47945 0.653072 3.09516 0.85985 3.66982L2.73463 9.14281L3.4239 8.71866L1.60425 3.40986C1.49397 3.06779 1.54911 2.71205 1.74211 2.4384C1.94888 2.15107 2.26594 1.98688 2.62436 1.98688L21.8961 1.8911C22.2407 1.8911 22.5578 2.04161 22.7645 2.30158C22.9713 2.56154 23.0402 2.91729 22.9575 3.24567L21.4687 8.78707L18.4636 19.9109C18.3395 20.3761 17.8984 20.7045 17.4159 20.7045L8.33143 20.7319C7.84895 20.7319 7.4354 20.4309 7.29754 19.993L3.72717 9.59433L3.03791 10.0185L3.96152 12.7139L5.9328 18.4469V18.4606Z" fill="#2F478A"/>
</svg>
