<svg width="24" height="14" viewBox="0 0 24 14" fill="none" xmlns="http://www.w3.org/2000/svg">
<path fill-rule="evenodd" clip-rule="evenodd" d="M22.1368 1.07142L12 11.3328L1.86324 1.07142C1.76189 0.968831 1.64157 0.887457 1.50915 0.831939C1.37672 0.776421 1.23479 0.747846 1.09146 0.747846C0.94813 0.747846 0.806198 0.776421 0.673777 0.831939C0.541355 0.887457 0.421032 0.968831 0.319679 1.07142C0.218328 1.174 0.137936 1.29579 0.0830841 1.42982C0.0282326 1.56385 0 1.70751 0 1.85258C0 1.99766 0.0282326 2.14131 0.0830841 2.27535C0.137936 2.40938 0.218328 2.53116 0.319679 2.63375L11.2282 13.675C11.3295 13.7776 11.4498 13.8591 11.5823 13.9146C11.7147 13.9702 11.8566 13.9988 12 13.9988C12.1434 13.9988 12.2853 13.9702 12.4177 13.9146C12.5502 13.8591 12.6705 13.7776 12.7718 13.675L23.6803 2.63375C23.885 2.42657 24 2.14558 24 1.85258C24 1.55959 23.885 1.27859 23.6803 1.07142C23.4756 0.864237 23.198 0.747846 22.9085 0.747846C22.6191 0.747846 22.3414 0.864237 22.1368 1.07142Z" fill="#2F478A"/>
</svg>
