<svg width="66" height="19" viewBox="0 0 66 19" fill="none" xmlns="http://www.w3.org/2000/svg">
<path d="M0.58523 0.382812C-1.32715 16.9915 7.64635 17.9405 15.1856 17.8675C15.2591 17.8675 15.3694 17.8675 15.4798 17.8675C16.3256 17.8675 17.6496 17.8675 18.1277 17.8675H18.2748C26.0714 17.6485 26.2921 7.4643 26.2921 7.4643H28.2413C28.0941 8.70539 28.0574 10.494 28.8665 12.3556C31.1466 17.831 39.2007 18.2691 41.1866 18.4151C43.6874 18.5611 51.1163 19.0356 54.3527 14.0348C55.9708 11.5526 55.8605 8.74189 55.6766 7.24529H63.4732L65.8637 0.382812H0.548463H0.58523ZM9.5955 12.5747L8.52897 10.8955L12.2802 8.55938L14.45 7.20879L15.9579 6.25972L17.0244 7.97534L15.112 9.17992L12.9054 10.5305L9.55873 12.6112L9.5955 12.5747ZM39.8259 12.5747L38.7594 10.8955L46.225 6.29622L47.2915 8.01184L39.8259 12.6112V12.5747Z" fill="#2F478A"/>
</svg>
