<svg width="54" height="10" viewBox="0 0 54 10" fill="none" xmlns="http://www.w3.org/2000/svg">
<path d="M3.26474 9.30057H0.359375V5.4313C0.359375 2.4746 2.78664 0.0654297 5.76554 0.0654297H34.8926V0.795481H44.5649V0.0654297H47.6173C50.5962 0.0654297 53.0235 2.4746 53.0235 5.4313V9.04505H50.1181V5.4313C50.1181 4.04421 48.9781 2.94913 47.6173 2.94913H5.76554C4.40481 2.94913 3.26474 4.08071 3.26474 5.4313V9.30057ZM0.727141 8.89904H2.82341V5.3948C2.82341 3.78869 4.1106 2.5111 5.72878 2.5111H47.5806C49.1987 2.5111 50.4859 3.78869 50.4859 5.3948V8.60703H52.5822V5.3948C52.5822 2.65711 50.3388 0.430455 47.5806 0.430455H44.712V1.16051H34.6352V0.430455H5.69199C2.93374 0.430455 0.690374 2.65711 0.690374 5.3948V8.89904H0.727141Z" fill="#2F478A"/>
</svg>
