<svg width="40" height="41" viewBox="0 0 40 41" fill="none" xmlns="http://www.w3.org/2000/svg">
<path d="M14.7054 40.3362C14.7054 40.3362 14.7054 40.3362 14.6686 40.3362C14.3009 40.3362 13.9331 40.1537 13.7124 39.8252L0.472852 22.1214C0.141862 21.6834 0.141862 21.1359 0.472852 20.6978C0.767064 20.2598 1.31872 20.0408 1.83359 20.1868L12.4253 22.815L24.7454 0.876953L26.952 2.08153L14.1538 24.8591C13.8963 25.3336 13.3079 25.5892 12.7563 25.4432L4.66539 23.4355L14.8525 37.0875L37.9115 10.1851L39.8238 11.7912L15.7351 39.8982C15.5145 40.1902 15.1467 40.3362 14.779 40.3362H14.7054Z" fill="#2F478A"/>
</svg>
