<svg width="18" height="33" viewBox="0 0 18 33" fill="none" xmlns="http://www.w3.org/2000/svg">
<path fill-rule="evenodd" clip-rule="evenodd" d="M17.5619 2.56195L3.6219 16.5L17.5619 30.438C17.7013 30.5774 17.8119 30.7428 17.8873 30.9249C17.9627 31.107 18.0015 31.3022 18.0015 31.4992C18.0015 31.6963 17.9627 31.8915 17.8873 32.0736C17.8119 32.2556 17.7013 32.4211 17.5619 32.5604C17.4226 32.6998 17.2571 32.8103 17.0751 32.8858C16.893 32.9612 16.6978 33 16.5007 33C16.3037 33 16.1085 32.9612 15.9264 32.8858C15.7443 32.8103 15.5789 32.6998 15.4395 32.5604L0.440156 17.5612C0.300697 17.4219 0.190063 17.2565 0.11458 17.0744C0.0390965 16.8923 0.000244141 16.6971 0.000244141 16.5C0.000244141 16.3029 0.0390965 16.1077 0.11458 15.9256C0.190063 15.7435 0.300697 15.5781 0.440156 15.4388L15.4395 0.439562C15.721 0.158115 16.1027 0 16.5007 0C16.8988 0 17.2805 0.158115 17.5619 0.439562C17.8434 0.721009 18.0015 1.10273 18.0015 1.50076C18.0015 1.89878 17.8434 2.28051 17.5619 2.56195Z" fill="#2F478A" fill-opacity="0.75"/>
</svg>
